<svg width="375" height="812" viewBox="0 0 375 812" fill="none" xmlns="http://www.w3.org/2000/svg">
<g clip-path="url(#clip0_8439_6992)">
<rect width="375" height="812" rx="30" fill="white"/>
<rect width="375" height="134" fill="#A3E6C1" fill-opacity="0.37"/>
<path d="M355 63.5C355 74.2696 346.27 83 335.5 83C324.73 83 316 74.2696 316 63.5C316 52.7304 324.73 44 335.5 44C346.27 44 355 52.7304 355 63.5Z" fill="#C4C4C4"/>
<path d="M354 63.5C354 73.7173 345.717 82 335.5 82C325.283 82 317 73.7173 317 63.5C317 53.2827 325.283 45 335.5 45C345.717 45 354 53.2827 354 63.5Z" stroke="#007AFF" stroke-opacity="0.79" stroke-width="2"/>
<path opacity="0.35" d="M336.5 20.0006C336.5 18.804 337.47 17.834 338.667 17.834H355.333C356.53 17.834 357.5 18.804 357.5 20.0007V26.0007C357.5 27.1973 356.53 28.1673 355.333 28.1673H338.667C337.47 28.1673 336.5 27.1973 336.5 26.0007V20.0006Z" stroke="black"/>
<path opacity="0.4" d="M359 21.001V25.001C359.805 24.6622 360.328 23.8741 360.328 23.001C360.328 22.1278 359.805 21.3398 359 21.001Z" fill="black"/>
<path d="M338 20.6673C338 19.9309 338.597 19.334 339.333 19.334H354.667C355.403 19.334 356 19.9309 356 20.6673V25.334C356 26.0704 355.403 26.6673 354.667 26.6673H339.333C338.597 26.6673 338 26.0704 338 25.334V20.6673Z" fill="black"/>
<path fill-rule="evenodd" clip-rule="evenodd" d="M323.33 19.6084C325.546 19.6085 327.678 20.4599 329.283 21.9867C329.404 22.1046 329.598 22.1031 329.717 21.9834L330.873 20.8167C330.933 20.756 330.967 20.6737 330.966 20.5882C330.966 20.5026 330.931 20.4207 330.87 20.3607C326.655 16.3212 320.005 16.3212 315.79 20.3607C315.729 20.4207 315.694 20.5025 315.694 20.5881C315.693 20.6737 315.727 20.7559 315.787 20.8167L316.943 21.9834C317.062 22.1033 317.256 22.1048 317.377 21.9867C318.983 20.4598 321.114 19.6084 323.33 19.6084ZM323.33 23.404C324.548 23.404 325.722 23.8565 326.624 24.6737C326.747 24.7897 326.939 24.7872 327.058 24.668L328.212 23.5014C328.273 23.4402 328.307 23.3572 328.306 23.2709C328.305 23.1846 328.27 23.1023 328.208 23.0424C325.46 20.486 321.204 20.486 318.455 23.0424C318.393 23.1023 318.358 23.1847 318.357 23.271C318.356 23.3573 318.39 23.4403 318.451 23.5014L319.605 24.668C319.724 24.7872 319.917 24.7897 320.039 24.6737C320.941 23.857 322.114 23.4046 323.33 23.404ZM325.643 25.9579C325.645 26.0444 325.611 26.1278 325.549 26.1884L323.552 28.204C323.494 28.2633 323.414 28.2966 323.33 28.2966C323.247 28.2966 323.167 28.2633 323.109 28.204L321.111 26.1884C321.049 26.1277 321.015 26.0443 321.017 25.9578C321.019 25.8713 321.057 25.7894 321.121 25.7314C322.396 24.6525 324.265 24.6525 325.54 25.7314C325.604 25.7894 325.642 25.8714 325.643 25.9579Z" fill="black"/>
<path fill-rule="evenodd" clip-rule="evenodd" d="M309.667 17.667H308.667C308.114 17.667 307.667 18.1147 307.667 18.667V27.3337C307.667 27.8859 308.114 28.3337 308.667 28.3337H309.667C310.219 28.3337 310.667 27.8859 310.667 27.3337V18.667C310.667 18.1147 310.219 17.667 309.667 17.667ZM304 20.0003H305C305.552 20.0003 306 20.448 306 21.0003V27.3337C306 27.8859 305.552 28.3337 305 28.3337H304C303.448 28.3337 303 27.8859 303 27.3337V21.0003C303 20.448 303.448 20.0003 304 20.0003ZM300.333 22.3337H299.333C298.781 22.3337 298.333 22.7814 298.333 23.3337V27.3337C298.333 27.8859 298.781 28.3337 299.333 28.3337H300.333C300.886 28.3337 301.333 27.8859 301.333 27.3337V23.3337C301.333 22.7814 300.886 22.3337 300.333 22.3337ZM295.667 24.3337H294.667C294.114 24.3337 293.667 24.7814 293.667 25.3337V27.3337C293.667 27.8859 294.114 28.3337 294.667 28.3337H295.667C296.219 28.3337 296.667 27.8859 296.667 27.3337V25.3337C296.667 24.7814 296.219 24.3337 295.667 24.3337Z" fill="black"/>
<path d="M37.3208 28.2568C40.0088 28.2568 41.6055 26.1548 41.6055 22.5952C41.6055 21.2549 41.3491 20.127 40.8584 19.2554C40.1479 17.9004 38.9248 17.168 37.3794 17.168C35.0796 17.168 33.4536 18.7134 33.4536 20.8813C33.4536 22.9175 34.9185 24.397 36.9326 24.397C38.1704 24.397 39.1738 23.8184 39.6719 22.8149H39.6938C39.6938 22.8149 39.7231 22.8149 39.7305 22.8149C39.7451 22.8149 39.7964 22.8149 39.7964 22.8149C39.7964 25.2319 38.8809 26.6748 37.3354 26.6748C36.4272 26.6748 35.7241 26.1768 35.4824 25.3784H33.6001C33.915 27.1143 35.3872 28.2568 37.3208 28.2568ZM37.3867 22.8955C36.1709 22.8955 35.3066 22.0312 35.3066 20.8228C35.3066 19.6436 36.2148 18.7427 37.394 18.7427C38.5732 18.7427 39.4814 19.6582 39.4814 20.8521C39.4814 22.0312 38.5952 22.8955 37.3867 22.8955Z" fill="black"/>
<path d="M44.6966 28.1543C45.3924 28.1543 45.8685 27.6562 45.8685 26.9971C45.8685 26.3306 45.3924 25.8398 44.6966 25.8398C44.0081 25.8398 43.5247 26.3306 43.5247 26.9971C43.5247 27.6562 44.0081 28.1543 44.6966 28.1543ZM44.6966 22.6611C45.3924 22.6611 45.8685 22.1704 45.8685 21.5112C45.8685 20.8447 45.3924 20.354 44.6966 20.354C44.0081 20.354 43.5247 20.8447 43.5247 21.5112C43.5247 22.1704 44.0081 22.6611 44.6966 22.6611Z" fill="black"/>
<path d="M52.7242 28.0005H54.5333V26.0303H55.9615V24.4336H54.5333V17.4316H51.8673C49.9996 20.2441 48.5128 22.5952 47.5606 24.3457V26.0303H52.7242V28.0005ZM49.3111 24.3677C50.5416 22.1997 51.6402 20.4639 52.651 18.9697H52.7535V24.4775H49.3111V24.3677Z" fill="black"/>
<path d="M59.9901 28.0005H61.8798V17.4316H59.9975L57.2362 19.3652V21.1816L59.8656 19.3359H59.9901V28.0005Z" fill="black"/>
<path d="M66.4648 77H71.7275L73.5371 71.1895H82.0039L83.8135 77H89.0762L80.7256 53.0439H74.832L66.4648 77ZM77.7207 57.6924H77.8203L80.8418 67.4375H74.6992L77.7207 57.6924ZM91.2344 77H96.082V53.0439H91.2344V77ZM107.487 77.3652C112.235 77.3652 115.307 74.4102 115.539 70.5254V70.4258H111.023L111.007 70.5752C110.675 72.3682 109.463 73.5635 107.521 73.5635C105.13 73.5635 103.636 71.5879 103.636 68.1016V68.085C103.636 64.6816 105.13 62.6396 107.504 62.6396C109.513 62.6396 110.691 63.9346 110.99 65.6279L111.023 65.7773H115.522V65.6611C115.34 61.8096 112.269 58.8379 107.438 58.8379C102.108 58.8379 98.7051 62.374 98.7051 68.0684V68.085C98.7051 73.8291 102.059 77.3652 107.487 77.3652ZM126.048 77.3652C131.427 77.3652 134.863 73.9121 134.863 68.1016V68.0684C134.863 62.3076 131.36 58.8379 126.031 58.8379C120.719 58.8379 117.232 62.3408 117.232 68.0684V68.1016C117.232 73.8955 120.636 77.3652 126.048 77.3652ZM126.064 73.5635C123.674 73.5635 122.163 71.5879 122.163 68.1016V68.0684C122.163 64.6318 123.69 62.6396 126.031 62.6396C128.389 62.6396 129.933 64.6318 129.933 68.0684V68.1016C129.933 71.5713 128.422 73.5635 126.064 73.5635ZM137.37 77H142.218V66.7734C142.218 64.4492 143.596 62.8555 145.771 62.8555C147.945 62.8555 149.041 64.1836 149.041 66.5078V77H153.889V65.5117C153.889 61.3447 151.664 58.8379 147.746 58.8379C145.057 58.8379 143.23 60.083 142.317 62.125H142.218V59.2031H137.37V77Z" fill="black"/>
<path d="M72.5273 110.417H74.6133L80.8477 93.5068H78.6328L73.5938 107.886H73.5469L68.5078 93.5068H66.293L72.5273 110.417ZM83.2617 96.167C83.9766 96.167 84.5391 95.5928 84.5391 94.8896C84.5391 94.1748 83.9766 93.6123 83.2617 93.6123C82.5586 93.6123 81.9844 94.1748 81.9844 94.8896C81.9844 95.5928 82.5586 96.167 83.2617 96.167ZM82.2422 110.417H84.2812V98.2295H82.2422V110.417ZM91.3828 110.651C94.1016 110.651 96.1172 109.151 96.1172 107.019V107.007C96.1172 105.272 95.2266 104.3 92.7656 103.702L90.832 103.233C89.4844 102.905 88.9336 102.331 88.9336 101.499V101.487C88.9336 100.409 89.8477 99.6943 91.3242 99.6943C92.8359 99.6943 93.7383 100.479 93.9023 101.663L93.9141 101.745H95.8594L95.8477 101.593C95.6953 99.5537 93.9961 97.9951 91.3242 97.9951C88.6875 97.9951 86.8477 99.4834 86.8477 101.581V101.593C86.8477 103.351 87.9609 104.417 90.2578 104.968L92.1914 105.437C93.5742 105.776 94.0312 106.269 94.0312 107.147V107.159C94.0312 108.261 93.0469 108.952 91.3945 108.952C89.7305 108.952 88.8281 108.237 88.582 107.019L88.5586 106.901H86.5195L86.5312 107.007C86.7773 109.187 88.5117 110.651 91.3828 110.651ZM103.289 110.651C106.043 110.651 108.047 108.858 108.375 106.538L108.387 106.456H106.383L106.359 106.55C106.02 107.909 104.953 108.847 103.289 108.847C101.18 108.847 99.7266 107.171 99.7266 104.335V104.323C99.7266 101.558 101.145 99.7998 103.266 99.7998C105.059 99.7998 106.043 100.878 106.348 102.097L106.371 102.19H108.363L108.352 102.097C108.094 100.011 106.301 97.9951 103.266 97.9951C99.8789 97.9951 97.6406 100.456 97.6406 104.3V104.312C97.6406 108.19 99.832 110.651 103.289 110.651ZM115.312 110.651C118.676 110.651 120.949 108.214 120.949 104.323V104.3C120.949 100.409 118.664 97.9951 115.301 97.9951C111.938 97.9951 109.664 100.421 109.664 104.3V104.323C109.664 108.202 111.926 110.651 115.312 110.651ZM115.324 108.847C113.168 108.847 111.75 107.194 111.75 104.323V104.3C111.75 101.452 113.18 99.7998 115.301 99.7998C117.457 99.7998 118.863 101.44 118.863 104.3V104.323C118.863 107.183 117.469 108.847 115.324 108.847ZM121.746 110.417H123.961L125.672 105.577H132.48L134.191 110.417H136.406L130.125 93.5068H128.039L121.746 110.417ZM129.059 96.0381H129.105L131.848 103.784H126.316L129.059 96.0381ZM140.285 110.417H142.395V95.4053H147.727V93.5068H134.953V95.4053H140.285V110.417Z" fill="black"/>
<path d="M28.0235 88.6742C28.2387 88.885 28.5127 89 28.8356 89C29.4814 89 30 88.5017 30 87.8692C30 87.553 29.863 87.2655 29.638 87.0451L22.7886 80.4904L29.638 73.9549C29.863 73.7345 30 73.4374 30 73.1308C30 72.4983 29.4814 72 28.8356 72C28.5127 72 28.2387 72.115 28.0235 72.3258L20.411 79.6088C20.137 79.8579 20.0098 80.1646 20 80.5C20 80.8354 20.137 81.1229 20.411 81.3816L28.0235 88.6742Z" fill="black"/>
<path d="M244.75 111V93.8203H250.668C252.004 93.8203 253.023 93.9023 253.727 94.0664C254.711 94.293 255.551 94.7031 256.246 95.2969C257.152 96.0625 257.828 97.043 258.273 98.2383C258.727 99.4258 258.953 100.785 258.953 102.316C258.953 103.621 258.801 104.777 258.496 105.785C258.191 106.793 257.801 107.629 257.324 108.293C256.848 108.949 256.324 109.469 255.754 109.852C255.191 110.227 254.508 110.512 253.703 110.707C252.906 110.902 251.988 111 250.949 111H244.75ZM247.023 108.973H250.691C251.824 108.973 252.711 108.867 253.352 108.656C254 108.445 254.516 108.148 254.898 107.766C255.438 107.227 255.855 106.504 256.152 105.598C256.457 104.684 256.609 103.578 256.609 102.281C256.609 100.484 256.312 99.1055 255.719 98.1445C255.133 97.1758 254.418 96.5273 253.574 96.1992C252.965 95.9648 251.984 95.8477 250.633 95.8477H247.023V108.973ZM261.836 96.2461V93.8203H263.945V96.2461H261.836ZM261.836 111V98.5547H263.945V111H261.836ZM266.324 107.285L268.41 106.957C268.527 107.793 268.852 108.434 269.383 108.879C269.922 109.324 270.672 109.547 271.633 109.547C272.602 109.547 273.32 109.352 273.789 108.961C274.258 108.562 274.492 108.098 274.492 107.566C274.492 107.09 274.285 106.715 273.871 106.441C273.582 106.254 272.863 106.016 271.715 105.727C270.168 105.336 269.094 105 268.492 104.719C267.898 104.43 267.445 104.035 267.133 103.535C266.828 103.027 266.676 102.469 266.676 101.859C266.676 101.305 266.801 100.793 267.051 100.324C267.309 99.8477 267.656 99.4531 268.094 99.1406C268.422 98.8984 268.867 98.6953 269.43 98.5312C270 98.3594 270.609 98.2734 271.258 98.2734C272.234 98.2734 273.09 98.4141 273.824 98.6953C274.566 98.9766 275.113 99.3594 275.465 99.8438C275.816 100.32 276.059 100.961 276.191 101.766L274.129 102.047C274.035 101.406 273.762 100.906 273.309 100.547C272.863 100.188 272.23 100.008 271.41 100.008C270.441 100.008 269.75 100.168 269.336 100.488C268.922 100.809 268.715 101.184 268.715 101.613C268.715 101.887 268.801 102.133 268.973 102.352C269.145 102.578 269.414 102.766 269.781 102.914C269.992 102.992 270.613 103.172 271.645 103.453C273.137 103.852 274.176 104.18 274.762 104.438C275.355 104.688 275.82 105.055 276.156 105.539C276.492 106.023 276.66 106.625 276.66 107.344C276.66 108.047 276.453 108.711 276.039 109.336C275.633 109.953 275.043 110.434 274.27 110.777C273.496 111.113 272.621 111.281 271.645 111.281C270.027 111.281 268.793 110.945 267.941 110.273C267.098 109.602 266.559 108.605 266.324 107.285ZM279.168 115.77V98.5547H281.09V100.172C281.543 99.5391 282.055 99.0664 282.625 98.7539C283.195 98.4336 283.887 98.2734 284.699 98.2734C285.762 98.2734 286.699 98.5469 287.512 99.0938C288.324 99.6406 288.938 100.414 289.352 101.414C289.766 102.406 289.973 103.496 289.973 104.684C289.973 105.957 289.742 107.105 289.281 108.129C288.828 109.145 288.164 109.926 287.289 110.473C286.422 111.012 285.508 111.281 284.547 111.281C283.844 111.281 283.211 111.133 282.648 110.836C282.094 110.539 281.637 110.164 281.277 109.711V115.77H279.168ZM281.078 104.848C281.078 106.449 281.402 107.633 282.051 108.398C282.699 109.164 283.484 109.547 284.406 109.547C285.344 109.547 286.145 109.152 286.809 108.363C287.48 107.566 287.816 106.336 287.816 104.672C287.816 103.086 287.488 101.898 286.832 101.109C286.184 100.32 285.406 99.9258 284.5 99.9258C283.602 99.9258 282.805 100.348 282.109 101.191C281.422 102.027 281.078 103.246 281.078 104.848ZM301.047 106.992L303.227 107.262C302.883 108.535 302.246 109.523 301.316 110.227C300.387 110.93 299.199 111.281 297.754 111.281C295.934 111.281 294.488 110.723 293.418 109.605C292.355 108.48 291.824 106.906 291.824 104.883C291.824 102.789 292.363 101.164 293.441 100.008C294.52 98.8516 295.918 98.2734 297.637 98.2734C299.301 98.2734 300.66 98.8398 301.715 99.9727C302.77 101.105 303.297 102.699 303.297 104.754C303.297 104.879 303.293 105.066 303.285 105.316H294.004C294.082 106.684 294.469 107.73 295.164 108.457C295.859 109.184 296.727 109.547 297.766 109.547C298.539 109.547 299.199 109.344 299.746 108.938C300.293 108.531 300.727 107.883 301.047 106.992ZM294.121 103.582H301.07C300.977 102.535 300.711 101.75 300.273 101.227C299.602 100.414 298.73 100.008 297.66 100.008C296.691 100.008 295.875 100.332 295.211 100.98C294.555 101.629 294.191 102.496 294.121 103.582ZM305.863 111V98.5547H307.762V100.441C308.246 99.5586 308.691 98.9766 309.098 98.6953C309.512 98.4141 309.965 98.2734 310.457 98.2734C311.168 98.2734 311.891 98.5 312.625 98.9531L311.898 100.91C311.383 100.605 310.867 100.453 310.352 100.453C309.891 100.453 309.477 100.594 309.109 100.875C308.742 101.148 308.48 101.531 308.324 102.023C308.09 102.773 307.973 103.594 307.973 104.484V111H305.863ZM313.035 107.285L315.121 106.957C315.238 107.793 315.562 108.434 316.094 108.879C316.633 109.324 317.383 109.547 318.344 109.547C319.312 109.547 320.031 109.352 320.5 108.961C320.969 108.562 321.203 108.098 321.203 107.566C321.203 107.09 320.996 106.715 320.582 106.441C320.293 106.254 319.574 106.016 318.426 105.727C316.879 105.336 315.805 105 315.203 104.719C314.609 104.43 314.156 104.035 313.844 103.535C313.539 103.027 313.387 102.469 313.387 101.859C313.387 101.305 313.512 100.793 313.762 100.324C314.02 99.8477 314.367 99.4531 314.805 99.1406C315.133 98.8984 315.578 98.6953 316.141 98.5312C316.711 98.3594 317.32 98.2734 317.969 98.2734C318.945 98.2734 319.801 98.4141 320.535 98.6953C321.277 98.9766 321.824 99.3594 322.176 99.8438C322.527 100.32 322.77 100.961 322.902 101.766L320.84 102.047C320.746 101.406 320.473 100.906 320.02 100.547C319.574 100.188 318.941 100.008 318.121 100.008C317.152 100.008 316.461 100.168 316.047 100.488C315.633 100.809 315.426 101.184 315.426 101.613C315.426 101.887 315.512 102.133 315.684 102.352C315.855 102.578 316.125 102.766 316.492 102.914C316.703 102.992 317.324 103.172 318.355 103.453C319.848 103.852 320.887 104.18 321.473 104.438C322.066 104.688 322.531 105.055 322.867 105.539C323.203 106.023 323.371 106.625 323.371 107.344C323.371 108.047 323.164 108.711 322.75 109.336C322.344 109.953 321.754 110.434 320.98 110.777C320.207 111.113 319.332 111.281 318.355 111.281C316.738 111.281 315.504 110.945 314.652 110.273C313.809 109.602 313.27 108.605 313.035 107.285ZM325.891 96.2461V93.8203H328V96.2461H325.891ZM325.891 111V98.5547H328V111H325.891ZM334.68 111L329.945 98.5547H332.172L334.844 106.008C335.133 106.812 335.398 107.648 335.641 108.516C335.828 107.859 336.09 107.07 336.426 106.148L339.191 98.5547H341.359L336.648 111H334.68ZM351.742 106.992L353.922 107.262C353.578 108.535 352.941 109.523 352.012 110.227C351.082 110.93 349.895 111.281 348.449 111.281C346.629 111.281 345.184 110.723 344.113 109.605C343.051 108.48 342.52 106.906 342.52 104.883C342.52 102.789 343.059 101.164 344.137 100.008C345.215 98.8516 346.613 98.2734 348.332 98.2734C349.996 98.2734 351.355 98.8398 352.41 99.9727C353.465 101.105 353.992 102.699 353.992 104.754C353.992 104.879 353.988 105.066 353.98 105.316H344.699C344.777 106.684 345.164 107.73 345.859 108.457C346.555 109.184 347.422 109.547 348.461 109.547C349.234 109.547 349.895 109.344 350.441 108.938C350.988 108.531 351.422 107.883 351.742 106.992ZM344.816 103.582H351.766C351.672 102.535 351.406 101.75 350.969 101.227C350.297 100.414 349.426 100.008 348.355 100.008C347.387 100.008 346.57 100.332 345.906 100.98C345.25 101.629 344.887 102.496 344.816 103.582Z" fill="black" fill-opacity="0.5"/>
<path d="M164.039 167V156.979H166.035L168.407 164.074C168.626 164.735 168.785 165.229 168.886 165.558C169 165.193 169.177 164.658 169.419 163.951L171.818 156.979H173.603V167H172.324V158.612L169.412 167H168.216L165.317 158.469V167H164.039ZM180.322 166.104C179.867 166.492 179.427 166.765 179.003 166.925C178.584 167.084 178.132 167.164 177.649 167.164C176.852 167.164 176.239 166.97 175.811 166.583C175.382 166.191 175.168 165.692 175.168 165.086C175.168 164.73 175.248 164.407 175.407 164.115C175.571 163.819 175.783 163.582 176.043 163.404C176.307 163.227 176.604 163.092 176.932 163.001C177.173 162.937 177.538 162.876 178.025 162.816C179.019 162.698 179.75 162.557 180.22 162.393C180.224 162.224 180.227 162.117 180.227 162.071C180.227 161.57 180.11 161.217 179.878 161.012C179.563 160.734 179.096 160.595 178.477 160.595C177.898 160.595 177.469 160.697 177.191 160.902C176.918 161.103 176.715 161.461 176.583 161.976L175.38 161.812C175.489 161.297 175.669 160.882 175.92 160.567C176.171 160.248 176.533 160.005 177.007 159.836C177.481 159.663 178.03 159.576 178.654 159.576C179.274 159.576 179.778 159.649 180.165 159.795C180.552 159.941 180.837 160.125 181.02 160.349C181.202 160.567 181.329 160.845 181.402 161.183C181.443 161.392 181.464 161.771 181.464 162.317V163.958C181.464 165.102 181.489 165.826 181.539 166.132C181.594 166.433 181.699 166.722 181.854 167H180.568C180.441 166.745 180.359 166.446 180.322 166.104ZM180.22 163.356C179.773 163.539 179.103 163.694 178.21 163.821C177.704 163.894 177.346 163.976 177.137 164.067C176.927 164.159 176.765 164.293 176.651 164.471C176.537 164.644 176.48 164.838 176.48 165.052C176.48 165.38 176.604 165.653 176.85 165.872C177.1 166.091 177.465 166.2 177.943 166.2C178.417 166.2 178.839 166.098 179.208 165.893C179.577 165.683 179.848 165.398 180.021 165.038C180.154 164.76 180.22 164.35 180.22 163.808V163.356ZM186.064 165.899L186.242 166.986C185.896 167.059 185.586 167.096 185.312 167.096C184.866 167.096 184.52 167.025 184.273 166.884C184.027 166.743 183.854 166.558 183.754 166.33C183.654 166.098 183.604 165.612 183.604 164.874V160.697H182.701V159.74H183.604V157.942L184.827 157.204V159.74H186.064V160.697H184.827V164.942C184.827 165.293 184.848 165.519 184.889 165.619C184.934 165.719 185.005 165.799 185.101 165.858C185.201 165.918 185.342 165.947 185.524 165.947C185.661 165.947 185.841 165.931 186.064 165.899ZM192.244 164.662L193.516 164.819C193.315 165.562 192.944 166.139 192.401 166.549C191.859 166.959 191.166 167.164 190.323 167.164C189.261 167.164 188.418 166.838 187.794 166.187C187.174 165.53 186.864 164.612 186.864 163.432C186.864 162.21 187.179 161.262 187.808 160.588C188.437 159.913 189.252 159.576 190.255 159.576C191.226 159.576 192.019 159.907 192.634 160.567C193.249 161.228 193.557 162.158 193.557 163.356C193.557 163.429 193.554 163.539 193.55 163.685H188.136C188.181 164.482 188.407 165.093 188.812 165.517C189.218 165.94 189.724 166.152 190.33 166.152C190.781 166.152 191.166 166.034 191.485 165.797C191.804 165.56 192.057 165.182 192.244 164.662ZM188.204 162.673H192.258C192.203 162.062 192.048 161.604 191.793 161.299C191.401 160.825 190.893 160.588 190.269 160.588C189.703 160.588 189.227 160.777 188.84 161.155C188.457 161.534 188.245 162.039 188.204 162.673ZM195.054 167V159.74H196.161V160.841C196.444 160.326 196.703 159.986 196.94 159.822C197.182 159.658 197.446 159.576 197.733 159.576C198.148 159.576 198.57 159.708 198.998 159.973L198.574 161.114C198.273 160.937 197.973 160.848 197.672 160.848C197.403 160.848 197.161 160.93 196.947 161.094C196.733 161.253 196.58 161.477 196.489 161.764C196.353 162.201 196.284 162.68 196.284 163.199V167H195.054ZM199.736 158.394V156.979H200.967V158.394H199.736ZM199.736 167V159.74H200.967V167H199.736ZM207.584 166.104C207.128 166.492 206.688 166.765 206.265 166.925C205.845 167.084 205.394 167.164 204.911 167.164C204.114 167.164 203.501 166.97 203.072 166.583C202.644 166.191 202.43 165.692 202.43 165.086C202.43 164.73 202.509 164.407 202.669 164.115C202.833 163.819 203.045 163.582 203.305 163.404C203.569 163.227 203.865 163.092 204.193 163.001C204.435 162.937 204.799 162.876 205.287 162.816C206.281 162.698 207.012 162.557 207.481 162.393C207.486 162.224 207.488 162.117 207.488 162.071C207.488 161.57 207.372 161.217 207.14 161.012C206.825 160.734 206.358 160.595 205.738 160.595C205.16 160.595 204.731 160.697 204.453 160.902C204.18 161.103 203.977 161.461 203.845 161.976L202.642 161.812C202.751 161.297 202.931 160.882 203.182 160.567C203.432 160.248 203.795 160.005 204.269 159.836C204.743 159.663 205.292 159.576 205.916 159.576C206.536 159.576 207.039 159.649 207.427 159.795C207.814 159.941 208.099 160.125 208.281 160.349C208.464 160.567 208.591 160.845 208.664 161.183C208.705 161.392 208.726 161.771 208.726 162.317V163.958C208.726 165.102 208.751 165.826 208.801 166.132C208.855 166.433 208.96 166.722 209.115 167H207.83C207.702 166.745 207.62 166.446 207.584 166.104ZM207.481 163.356C207.035 163.539 206.365 163.694 205.472 163.821C204.966 163.894 204.608 163.976 204.398 164.067C204.189 164.159 204.027 164.293 203.913 164.471C203.799 164.644 203.742 164.838 203.742 165.052C203.742 165.38 203.865 165.653 204.111 165.872C204.362 166.091 204.727 166.2 205.205 166.2C205.679 166.2 206.101 166.098 206.47 165.893C206.839 165.683 207.11 165.398 207.283 165.038C207.415 164.76 207.481 164.35 207.481 163.808V163.356ZM210.612 167V156.979H211.843V167H210.612ZM213.265 164.833L214.481 164.642C214.55 165.129 214.739 165.503 215.049 165.763C215.363 166.022 215.801 166.152 216.361 166.152C216.926 166.152 217.346 166.038 217.619 165.811C217.893 165.578 218.029 165.307 218.029 164.997C218.029 164.719 217.909 164.5 217.667 164.341C217.498 164.231 217.079 164.092 216.409 163.924C215.507 163.696 214.88 163.5 214.529 163.336C214.183 163.167 213.919 162.937 213.736 162.646C213.559 162.349 213.47 162.023 213.47 161.668C213.47 161.344 213.543 161.046 213.688 160.772C213.839 160.494 214.042 160.264 214.297 160.082C214.488 159.941 214.748 159.822 215.076 159.727C215.409 159.626 215.764 159.576 216.143 159.576C216.712 159.576 217.211 159.658 217.64 159.822C218.073 159.986 218.392 160.21 218.597 160.492C218.802 160.77 218.943 161.144 219.021 161.613L217.817 161.777C217.763 161.404 217.603 161.112 217.339 160.902C217.079 160.693 216.71 160.588 216.231 160.588C215.666 160.588 215.263 160.681 215.021 160.868C214.78 161.055 214.659 161.274 214.659 161.524C214.659 161.684 214.709 161.827 214.81 161.955C214.91 162.087 215.067 162.197 215.281 162.283C215.404 162.329 215.767 162.434 216.368 162.598C217.239 162.83 217.845 163.021 218.187 163.172C218.533 163.318 218.804 163.532 219 163.814C219.196 164.097 219.294 164.448 219.294 164.867C219.294 165.277 219.173 165.665 218.932 166.029C218.695 166.389 218.351 166.67 217.899 166.87C217.448 167.066 216.938 167.164 216.368 167.164C215.425 167.164 214.705 166.968 214.208 166.576C213.716 166.184 213.401 165.603 213.265 164.833Z" fill="black" fill-opacity="0.5"/>
<rect x="30" y="177" width="323" height="2" fill="#ECECEC"/>
<path d="M65.4409 201.176C67.5576 201.176 69.1104 199.872 69.1104 198.107V198.092C69.1104 196.591 68.063 195.631 66.5249 195.5V195.47C67.8433 195.192 68.7661 194.298 68.7661 192.995V192.98C68.7661 191.376 67.4404 190.255 65.4263 190.255C63.4487 190.255 62.0864 191.405 61.918 193.126L61.9106 193.2H63.1777L63.1851 193.126C63.2949 192.057 64.1812 191.398 65.4263 191.398C66.7153 191.398 67.4404 192.035 67.4404 193.141V193.156C67.4404 194.21 66.5615 194.987 65.3018 194.987H64.0347V196.1H65.3604C66.8398 196.1 67.77 196.825 67.77 198.122V198.136C67.77 199.257 66.8252 200.033 65.4409 200.033C64.0347 200.033 63.0752 199.315 62.9727 198.275L62.9653 198.202H61.6982L61.7056 198.29C61.8447 199.96 63.2583 201.176 65.4409 201.176ZM73.2192 195.99C74.5669 195.99 75.3872 194.892 75.3872 193.141V193.134C75.3872 191.383 74.5669 190.292 73.2192 190.292C71.8716 190.292 71.0586 191.383 71.0586 193.134V193.141C71.0586 194.892 71.8716 195.99 73.2192 195.99ZM74.0103 201L81.2026 190.431H80.0161L72.8237 201H74.0103ZM73.2192 195.119C72.4941 195.119 72.0767 194.379 72.0767 193.141V193.134C72.0767 191.896 72.4941 191.164 73.2192 191.164C73.9443 191.164 74.3691 191.896 74.3691 193.134V193.141C74.3691 194.379 73.9443 195.119 73.2192 195.119ZM80.7925 201.139C82.1401 201.139 82.9604 200.041 82.9604 198.29V198.283C82.9604 196.532 82.1401 195.441 80.7925 195.441C79.4448 195.441 78.6318 196.532 78.6318 198.283V198.29C78.6318 200.041 79.4448 201.139 80.7925 201.139ZM80.7925 200.268C80.0674 200.268 79.6499 199.528 79.6499 198.29V198.283C79.6499 197.045 80.0674 196.312 80.7925 196.312C81.5176 196.312 81.9424 197.045 81.9424 198.283V198.29C81.9424 199.528 81.5176 200.268 80.7925 200.268ZM92.9873 201.249C95.3457 201.249 96.8911 200.019 96.8911 198.041V198.034C96.8911 196.51 96.0195 195.624 93.8149 195.133L92.6431 194.87C91.2075 194.555 90.6289 193.983 90.6289 193.141V193.134C90.6289 192.028 91.647 191.405 92.9653 191.398C94.3423 191.391 95.2212 192.079 95.3677 193.009L95.3823 193.104H96.7007L96.6934 193.002C96.5835 191.427 95.1113 190.182 93.002 190.182C90.8193 190.182 89.2886 191.42 89.2812 193.17V193.178C89.2812 194.708 90.1968 195.683 92.3135 196.151L93.4854 196.408C94.9355 196.73 95.5435 197.331 95.5435 198.209V198.217C95.5435 199.293 94.4961 200.033 93.0605 200.033C91.5371 200.033 90.4385 199.367 90.3433 198.312L90.3359 198.231H89.0176L89.0249 198.312C89.1787 200.033 90.6729 201.249 92.9873 201.249ZM102.172 201.139C104.42 201.139 105.812 199.586 105.812 197.06V197.045C105.812 194.511 104.42 192.965 102.172 192.965C99.9233 192.965 98.5317 194.511 98.5317 197.045V197.06C98.5317 199.586 99.9233 201.139 102.172 201.139ZM102.172 200.011C100.678 200.011 99.8354 198.92 99.8354 197.06V197.045C99.8354 195.177 100.678 194.093 102.172 194.093C103.666 194.093 104.508 195.177 104.508 197.045V197.06C104.508 198.92 103.666 200.011 102.172 200.011ZM110.705 201.139C111.803 201.139 112.682 200.619 113.166 199.74H113.283V201H114.557V189.97H113.283V194.35H113.166C112.733 193.507 111.789 192.965 110.705 192.965C108.698 192.965 107.394 194.569 107.394 197.045V197.06C107.394 199.521 108.705 201.139 110.705 201.139ZM110.998 200.011C109.555 200.011 108.698 198.898 108.698 197.06V197.045C108.698 195.207 109.555 194.093 110.998 194.093C112.433 194.093 113.312 195.221 113.312 197.045V197.06C113.312 198.883 112.433 200.011 110.998 200.011ZM117.677 191.581C118.161 191.581 118.556 191.186 118.556 190.702C118.556 190.219 118.161 189.823 117.677 189.823C117.194 189.823 116.798 190.219 116.798 190.702C116.798 191.186 117.194 191.581 117.677 191.581ZM117.033 201H118.307V193.104H117.033V201ZM123.354 201.139C124.511 201.139 125.309 200.663 125.697 199.821H125.814V201H127.089V193.104H125.814V197.777C125.814 199.162 125.075 200.011 123.683 200.011C122.423 200.011 121.911 199.33 121.911 197.909V193.104H120.636V198.217C120.636 200.084 121.559 201.139 123.354 201.139ZM129.469 201H130.744V196.107C130.744 194.994 131.527 194.093 132.56 194.093C133.556 194.093 134.201 194.701 134.201 195.639V201H135.475V195.924C135.475 194.921 136.2 194.093 137.299 194.093C138.412 194.093 138.947 194.672 138.947 195.836V201H140.221V195.543C140.221 193.888 139.32 192.965 137.709 192.965C136.618 192.965 135.717 193.515 135.292 194.35H135.175C134.809 193.529 134.062 192.965 132.992 192.965C131.959 192.965 131.212 193.456 130.861 194.306H130.744V193.104H129.469V201ZM59.7939 220H61.1123V215.188H66.9131V220H68.2314V209.431H66.9131V214.001H61.1123V209.431H59.7939V220ZM71.4395 222.769C72.8384 222.769 73.4902 222.256 74.1421 220.483L77.2256 212.104H75.8853L73.7246 218.601H73.6074L71.4395 212.104H70.0771L72.9995 220.007L72.853 220.476C72.5674 221.384 72.1279 221.714 71.4028 221.714C71.2271 221.714 71.0293 221.707 70.8755 221.677V222.725C71.0513 222.754 71.271 222.769 71.4395 222.769ZM80.7852 220.139C81.8472 220.139 82.6748 219.678 83.1729 218.835H83.29V220H84.5645V214.595C84.5645 212.954 83.4878 211.965 81.5615 211.965C79.877 211.965 78.6758 212.8 78.4707 214.038L78.4634 214.082H79.7378L79.7451 214.06C79.9502 213.445 80.5728 213.093 81.5176 213.093C82.6968 213.093 83.29 213.621 83.29 214.595V215.312L81.0269 215.452C79.1885 215.562 78.1484 216.375 78.1484 217.781V217.795C78.1484 219.231 79.2837 220.139 80.7852 220.139ZM79.4521 217.766V217.751C79.4521 216.968 79.9795 216.543 81.1807 216.47L83.29 216.338V217.056C83.29 218.184 82.3452 219.033 81.0488 219.033C80.1333 219.033 79.4521 218.564 79.4521 217.766ZM86.9668 220H88.2412V208.97H86.9668V220ZM93.3315 220.139C94.4888 220.139 95.2871 219.663 95.6753 218.821H95.7925V220H97.0669V212.104H95.7925V216.777C95.7925 218.162 95.0527 219.011 93.6611 219.011C92.4014 219.011 91.8887 218.33 91.8887 216.909V212.104H90.6143V217.217C90.6143 219.084 91.5371 220.139 93.3315 220.139ZM99.4473 220H100.722V215.107C100.722 213.95 101.586 213.181 102.802 213.181C103.08 213.181 103.322 213.21 103.585 213.254V212.017C103.461 211.995 103.19 211.965 102.948 211.965C101.879 211.965 101.139 212.449 100.839 213.276H100.722V212.104H99.4473V220ZM108.185 220.139C110.434 220.139 111.825 218.586 111.825 216.06V216.045C111.825 213.511 110.434 211.965 108.185 211.965C105.937 211.965 104.545 213.511 104.545 216.045V216.06C104.545 218.586 105.937 220.139 108.185 220.139ZM108.185 219.011C106.691 219.011 105.849 217.92 105.849 216.06V216.045C105.849 214.177 106.691 213.093 108.185 213.093C109.679 213.093 110.521 214.177 110.521 216.045V216.06C110.521 217.92 109.679 219.011 108.185 219.011ZM113.803 220H115.077V215.327C115.077 213.943 115.875 213.093 117.135 213.093C118.395 213.093 118.981 213.774 118.981 215.195V220H120.255V214.888C120.255 213.013 119.267 211.965 117.494 211.965C116.33 211.965 115.59 212.456 115.194 213.291H115.077V212.104H113.803V220ZM124.73 220.139C125.792 220.139 126.62 219.678 127.118 218.835H127.235V220H128.51V214.595C128.51 212.954 127.433 211.965 125.507 211.965C123.822 211.965 122.621 212.8 122.416 214.038L122.409 214.082H123.683L123.69 214.06C123.896 213.445 124.518 213.093 125.463 213.093C126.642 213.093 127.235 213.621 127.235 214.595V215.312L124.972 215.452C123.134 215.562 122.094 216.375 122.094 217.781V217.795C122.094 219.231 123.229 220.139 124.73 220.139ZM123.397 217.766V217.751C123.397 216.968 123.925 216.543 125.126 216.47L127.235 216.338V217.056C127.235 218.184 126.291 219.033 124.994 219.033C124.079 219.033 123.397 218.564 123.397 217.766ZM133.644 220.059C133.893 220.059 134.135 220.029 134.384 219.985V218.901C134.149 218.923 134.025 218.931 133.798 218.931C132.978 218.931 132.655 218.557 132.655 217.627V213.159H134.384V212.104H132.655V210.061H131.337V212.104H130.092V213.159H131.337V217.949C131.337 219.458 132.018 220.059 133.644 220.059ZM139.394 220.139C141.254 220.139 142.382 219.084 142.653 218.015L142.667 217.957H141.393L141.364 218.022C141.151 218.499 140.492 219.004 139.423 219.004C138.017 219.004 137.116 218.052 137.079 216.418H142.763V215.92C142.763 213.562 141.459 211.965 139.313 211.965C137.167 211.965 135.775 213.635 135.775 216.074V216.082C135.775 218.557 137.138 220.139 139.394 220.139ZM139.306 213.101C140.47 213.101 141.334 213.84 141.466 215.4H137.101C137.24 213.899 138.134 213.101 139.306 213.101Z" fill="black"/>
<path d="M232.935 201H234.224V198.81H235.726V197.631H234.224V190.431H232.312C230.833 192.636 229.214 195.214 227.786 197.609V198.81H232.935V201ZM229.134 197.638V197.55C230.284 195.609 231.668 193.427 232.854 191.654H232.942V197.638H229.134ZM239.732 195.99C241.08 195.99 241.9 194.892 241.9 193.141V193.134C241.9 191.383 241.08 190.292 239.732 190.292C238.384 190.292 237.571 191.383 237.571 193.134V193.141C237.571 194.892 238.384 195.99 239.732 195.99ZM240.523 201L247.715 190.431H246.529L239.336 201H240.523ZM239.732 195.119C239.007 195.119 238.589 194.379 238.589 193.141V193.134C238.589 191.896 239.007 191.164 239.732 191.164C240.457 191.164 240.882 191.896 240.882 193.134V193.141C240.882 194.379 240.457 195.119 239.732 195.119ZM247.305 201.139C248.653 201.139 249.473 200.041 249.473 198.29V198.283C249.473 196.532 248.653 195.441 247.305 195.441C245.958 195.441 245.145 196.532 245.145 198.283V198.29C245.145 200.041 245.958 201.139 247.305 201.139ZM247.305 200.268C246.58 200.268 246.163 199.528 246.163 198.29V198.283C246.163 197.045 246.58 196.312 247.305 196.312C248.03 196.312 248.455 197.045 248.455 198.283V198.29C248.455 199.528 248.03 200.268 247.305 200.268ZM260.291 201.249C262.54 201.249 264.209 199.997 264.561 198.063V198.048H263.228L263.213 198.063C262.884 199.279 261.763 200.033 260.291 200.033C258.255 200.033 256.98 198.371 256.98 195.727V195.712C256.98 193.068 258.255 191.398 260.284 191.398C261.741 191.398 262.869 192.255 263.221 193.61L263.228 193.625H264.554L264.561 193.61C264.246 191.581 262.51 190.182 260.284 190.182C257.413 190.182 255.625 192.306 255.625 195.712V195.727C255.625 199.125 257.42 201.249 260.291 201.249ZM266.685 201H267.959V196.327C267.959 194.943 268.758 194.093 270.018 194.093C271.277 194.093 271.863 194.774 271.863 196.195V201H273.138V195.888C273.138 194.013 272.149 192.965 270.376 192.965C269.212 192.965 268.472 193.456 268.077 194.291H267.959V189.97H266.685V201ZM278.689 201.139C280.938 201.139 282.33 199.586 282.33 197.06V197.045C282.33 194.511 280.938 192.965 278.689 192.965C276.441 192.965 275.049 194.511 275.049 197.045V197.06C275.049 199.586 276.441 201.139 278.689 201.139ZM278.689 200.011C277.195 200.011 276.353 198.92 276.353 197.06V197.045C276.353 195.177 277.195 194.093 278.689 194.093C280.184 194.093 281.026 195.177 281.026 197.045V197.06C281.026 198.92 280.184 200.011 278.689 200.011ZM284.307 201H285.582V196.327C285.582 194.943 286.38 194.093 287.64 194.093C288.899 194.093 289.485 194.774 289.485 196.195V201H290.76V195.888C290.76 194.013 289.771 192.965 287.999 192.965C286.834 192.965 286.094 193.456 285.699 194.291H285.582V193.104H284.307V201ZM295.982 201.139C297.081 201.139 297.959 200.619 298.443 199.74H298.56V201H299.834V189.97H298.56V194.35H298.443C298.011 193.507 297.066 192.965 295.982 192.965C293.975 192.965 292.671 194.569 292.671 197.045V197.06C292.671 199.521 293.982 201.139 295.982 201.139ZM296.275 200.011C294.832 200.011 293.975 198.898 293.975 197.06V197.045C293.975 195.207 294.832 194.093 296.275 194.093C297.71 194.093 298.589 195.221 298.589 197.045V197.06C298.589 198.883 297.71 200.011 296.275 200.011ZM302.281 201H303.555V196.107C303.555 194.95 304.419 194.181 305.635 194.181C305.914 194.181 306.155 194.21 306.419 194.254V193.017C306.294 192.995 306.023 192.965 305.782 192.965C304.712 192.965 303.973 193.449 303.672 194.276H303.555V193.104H302.281V201ZM311.019 201.139C313.267 201.139 314.659 199.586 314.659 197.06V197.045C314.659 194.511 313.267 192.965 311.019 192.965C308.77 192.965 307.378 194.511 307.378 197.045V197.06C307.378 199.586 308.77 201.139 311.019 201.139ZM311.019 200.011C309.524 200.011 308.682 198.92 308.682 197.06V197.045C308.682 195.177 309.524 194.093 311.019 194.093C312.513 194.093 313.355 195.177 313.355 197.045V197.06C313.355 198.92 312.513 200.011 311.019 200.011ZM317.31 191.581C317.793 191.581 318.189 191.186 318.189 190.702C318.189 190.219 317.793 189.823 317.31 189.823C316.827 189.823 316.431 190.219 316.431 190.702C316.431 191.186 316.827 191.581 317.31 191.581ZM316.666 201H317.94V193.104H316.666V201ZM323.147 201.059C323.396 201.059 323.638 201.029 323.887 200.985V199.901C323.653 199.923 323.528 199.931 323.301 199.931C322.481 199.931 322.159 199.557 322.159 198.627V194.159H323.887V193.104H322.159V191.061H320.84V193.104H319.595V194.159H320.84V198.949C320.84 200.458 321.521 201.059 323.147 201.059ZM326.465 191.581C326.949 191.581 327.344 191.186 327.344 190.702C327.344 190.219 326.949 189.823 326.465 189.823C325.982 189.823 325.586 190.219 325.586 190.702C325.586 191.186 325.982 191.581 326.465 191.581ZM325.821 201H327.095V193.104H325.821V201ZM329.498 201H330.772V196.327C330.772 194.943 331.57 194.093 332.83 194.093C334.09 194.093 334.676 194.774 334.676 196.195V201H335.95V195.888C335.95 194.013 334.961 192.965 333.189 192.965C332.024 192.965 331.285 193.456 330.889 194.291H330.772V193.104H329.498V201ZM262.056 220.249C264.415 220.249 265.96 219.019 265.96 217.041V217.034C265.96 215.51 265.088 214.624 262.884 214.133L261.712 213.87C260.276 213.555 259.698 212.983 259.698 212.141V212.134C259.698 211.028 260.716 210.405 262.034 210.398C263.411 210.391 264.29 211.079 264.437 212.009L264.451 212.104H265.77L265.762 212.002C265.652 210.427 264.18 209.182 262.071 209.182C259.888 209.182 258.357 210.42 258.35 212.17V212.178C258.35 213.708 259.266 214.683 261.382 215.151L262.554 215.408C264.004 215.73 264.612 216.331 264.612 217.209V217.217C264.612 218.293 263.565 219.033 262.129 219.033C260.606 219.033 259.507 218.367 259.412 217.312L259.405 217.231H258.086L258.094 217.312C258.248 219.033 259.742 220.249 262.056 220.249ZM270.64 220.139C271.797 220.139 272.596 219.663 272.984 218.821H273.101V220H274.375V212.104H273.101V216.777C273.101 218.162 272.361 219.011 270.97 219.011C269.71 219.011 269.197 218.33 269.197 216.909V212.104H267.923V217.217C267.923 219.084 268.846 220.139 270.64 220.139ZM276.829 220H278.104V208.97H276.829V220ZM281.077 220H282.352V213.159H284.146V212.104H282.352V211.262C282.352 210.398 282.718 209.951 283.626 209.951C283.853 209.951 284.065 209.958 284.219 209.988V208.97C283.956 208.918 283.677 208.896 283.37 208.896C281.868 208.896 281.077 209.651 281.077 211.226V212.104H279.766V213.159H281.077V220ZM287.933 220.139C288.995 220.139 289.822 219.678 290.32 218.835H290.438V220H291.712V214.595C291.712 212.954 290.635 211.965 288.709 211.965C287.024 211.965 285.823 212.8 285.618 214.038L285.611 214.082H286.885L286.893 214.06C287.098 213.445 287.72 213.093 288.665 213.093C289.844 213.093 290.438 213.621 290.438 214.595V215.312L288.174 215.452C286.336 215.562 285.296 216.375 285.296 217.781V217.795C285.296 219.231 286.431 220.139 287.933 220.139ZM286.6 217.766V217.751C286.6 216.968 287.127 216.543 288.328 216.47L290.438 216.338V217.056C290.438 218.184 289.493 219.033 288.196 219.033C287.281 219.033 286.6 218.564 286.6 217.766ZM296.846 220.059C297.095 220.059 297.337 220.029 297.586 219.985V218.901C297.352 218.923 297.227 218.931 297 218.931C296.18 218.931 295.857 218.557 295.857 217.627V213.159H297.586V212.104H295.857V210.061H294.539V212.104H293.294V213.159H294.539V217.949C294.539 219.458 295.22 220.059 296.846 220.059ZM302.596 220.139C304.456 220.139 305.584 219.084 305.855 218.015L305.87 217.957H304.595L304.566 218.022C304.354 218.499 303.694 219.004 302.625 219.004C301.219 219.004 300.318 218.052 300.281 216.418H305.965V215.92C305.965 213.562 304.661 211.965 302.515 211.965C300.369 211.965 298.978 213.635 298.978 216.074V216.082C298.978 218.557 300.34 220.139 302.596 220.139ZM302.508 213.101C303.672 213.101 304.537 213.84 304.668 215.4H300.303C300.442 213.899 301.336 213.101 302.508 213.101Z" fill="black"/>
<rect width="390" height="80" transform="translate(-7 732)" fill="white"/>
<path d="M46.8419 741.969C47.1994 741.194 48.3006 741.194 48.6581 741.969L50.9012 746.832C51.0469 747.148 51.3461 747.365 51.6915 747.406L57.0098 748.037C57.8572 748.137 58.1975 749.184 57.571 749.764L53.639 753.4C53.3837 753.636 53.2694 753.988 53.3372 754.329L54.3809 759.582C54.5472 760.419 53.6562 761.066 52.9116 760.649L48.2384 758.033C47.935 757.864 47.565 757.864 47.2616 758.033L42.5884 760.649C41.8437 761.066 40.9528 760.419 41.1191 759.582L42.1628 754.329C42.2306 753.988 42.1163 753.636 41.861 753.4L37.929 749.764C37.3025 749.184 37.6428 748.137 38.4902 748.037L43.8085 747.406C44.1539 747.365 44.4531 747.148 44.5988 746.832L46.8419 741.969Z" fill="black"/>
<path d="M33.479 777H34.4458V773.471H38.6997V777H39.6665V769.25H38.6997V772.601H34.4458V769.25H33.479V777ZM43.9043 777.102C45.5532 777.102 46.5737 775.963 46.5737 774.11V774.1C46.5737 772.241 45.5532 771.108 43.9043 771.108C42.2554 771.108 41.2349 772.241 41.2349 774.1V774.11C41.2349 775.963 42.2554 777.102 43.9043 777.102ZM43.9043 776.275C42.8086 776.275 42.1909 775.475 42.1909 774.11V774.1C42.1909 772.73 42.8086 771.935 43.9043 771.935C45 771.935 45.6177 772.73 45.6177 774.1V774.11C45.6177 775.475 45 776.275 43.9043 776.275ZM48.0239 777H48.9585V773.412C48.9585 772.596 49.5332 771.935 50.2905 771.935C51.021 771.935 51.4937 772.381 51.4937 773.068V777H52.4282V773.278C52.4282 772.542 52.96 771.935 53.7656 771.935C54.582 771.935 54.9741 772.359 54.9741 773.213V777H55.9087V772.999C55.9087 771.785 55.248 771.108 54.0664 771.108C53.2661 771.108 52.6055 771.511 52.2939 772.123H52.208C51.9395 771.521 51.3916 771.108 50.6074 771.108C49.8501 771.108 49.3022 771.468 49.0444 772.091H48.9585V771.21H48.0239V777ZM59.9585 777.102C61.3228 777.102 62.1499 776.329 62.3486 775.544L62.3594 775.501H61.4248L61.4033 775.55C61.2476 775.899 60.7642 776.27 59.98 776.27C58.9487 776.27 58.2881 775.571 58.2612 774.374H62.4292V774.008C62.4292 772.279 61.4731 771.108 59.8994 771.108C58.3257 771.108 57.3052 772.333 57.3052 774.121V774.126C57.3052 775.942 58.3042 777.102 59.9585 777.102ZM59.894 771.94C60.748 771.94 61.3818 772.483 61.4785 773.627H58.2773C58.3794 772.526 59.0347 771.94 59.894 771.94Z" fill="black"/>
<path d="M140.342 741.969C140.699 741.194 141.801 741.194 142.158 741.969L144.401 746.832C144.547 747.148 144.846 747.365 145.192 747.406L150.51 748.037C151.357 748.137 151.697 749.184 151.071 749.764L147.139 753.4C146.884 753.636 146.769 753.988 146.837 754.329L147.881 759.582C148.047 760.419 147.156 761.066 146.412 760.649L141.738 758.033C141.435 757.864 141.065 757.864 140.762 758.033L136.088 760.649C135.344 761.066 134.453 760.419 134.619 759.582L135.663 754.329C135.731 753.988 135.616 753.636 135.361 753.4L131.429 749.764C130.803 749.184 131.143 748.137 131.99 748.037L137.308 747.406C137.654 747.365 137.953 747.148 138.099 746.832L140.342 741.969Z" fill="black"/>
<path d="M123.993 777H128.698V776.13H124.959V769.25H123.993V777ZM132.221 777.102C133.585 777.102 134.413 776.329 134.611 775.544L134.622 775.501H133.688L133.666 775.55C133.51 775.899 133.027 776.27 132.243 776.27C131.211 776.27 130.551 775.571 130.524 774.374H134.692V774.008C134.692 772.279 133.736 771.108 132.162 771.108C130.588 771.108 129.568 772.333 129.568 774.121V774.126C129.568 775.942 130.567 777.102 132.221 777.102ZM132.157 771.94C133.011 771.94 133.645 772.483 133.741 773.627H130.54C130.642 772.526 131.297 771.94 132.157 771.94ZM136.142 777H137.077V773.573C137.077 772.558 137.662 771.935 138.586 771.935C139.51 771.935 139.939 772.435 139.939 773.477V777H140.874V773.251C140.874 771.876 140.149 771.108 138.849 771.108C137.995 771.108 137.453 771.468 137.163 772.08H137.077V771.21H136.142V777ZM144.553 777.102C145.869 777.102 146.874 776.388 146.874 775.356V775.346C146.874 774.519 146.347 774.046 145.257 773.783L144.365 773.568C143.683 773.401 143.393 773.154 143.393 772.762V772.751C143.393 772.241 143.898 771.887 144.585 771.887C145.284 771.887 145.735 772.204 145.858 772.66H146.777C146.648 771.715 145.805 771.108 144.591 771.108C143.361 771.108 142.437 771.833 142.437 772.794V772.8C142.437 773.632 142.926 774.105 144.011 774.363L144.908 774.578C145.622 774.75 145.917 775.023 145.917 775.416V775.426C145.917 775.953 145.364 776.323 144.585 776.323C143.844 776.323 143.382 776.006 143.227 775.523H142.271C142.378 776.479 143.264 777.102 144.553 777.102ZM150.687 777.102C152.051 777.102 152.878 776.329 153.077 775.544L153.088 775.501H152.153L152.132 775.55C151.976 775.899 151.493 776.27 150.708 776.27C149.677 776.27 149.017 775.571 148.99 774.374H153.158V774.008C153.158 772.279 152.202 771.108 150.628 771.108C149.054 771.108 148.034 772.333 148.034 774.121V774.126C148.034 775.942 149.033 777.102 150.687 777.102ZM150.623 771.94C151.477 771.94 152.11 772.483 152.207 773.627H149.006C149.108 772.526 149.763 771.94 150.623 771.94ZM156.595 777.102C157.911 777.102 158.916 776.388 158.916 775.356V775.346C158.916 774.519 158.389 774.046 157.299 773.783L156.407 773.568C155.725 773.401 155.435 773.154 155.435 772.762V772.751C155.435 772.241 155.94 771.887 156.627 771.887C157.326 771.887 157.777 772.204 157.9 772.66H158.819C158.69 771.715 157.847 771.108 156.633 771.108C155.403 771.108 154.479 771.833 154.479 772.794V772.8C154.479 773.632 154.968 774.105 156.053 774.363L156.95 774.578C157.664 774.75 157.959 775.023 157.959 775.416V775.426C157.959 775.953 157.406 776.323 156.627 776.323C155.886 776.323 155.424 776.006 155.269 775.523H154.312C154.42 776.479 155.306 777.102 156.595 777.102Z" fill="black"/>
<path d="M233.842 741.969C234.199 741.194 235.301 741.194 235.658 741.969L237.901 746.832C238.047 747.148 238.346 747.365 238.692 747.406L244.01 748.037C244.857 748.137 245.197 749.184 244.571 749.764L240.639 753.4C240.384 753.636 240.269 753.988 240.337 754.329L241.381 759.582C241.547 760.419 240.656 761.066 239.912 760.649L235.238 758.033C234.935 757.864 234.565 757.864 234.262 758.033L229.588 760.649C228.844 761.066 227.953 760.419 228.119 759.582L229.163 754.329C229.231 753.988 229.116 753.636 228.861 753.4L224.929 749.764C224.303 749.184 224.643 748.137 225.49 748.037L230.808 747.406C231.154 747.365 231.453 747.148 231.599 746.832L233.842 741.969Z" fill="#007AFF"/>
<path d="M203.974 777H204.93L207.787 769.25H206.772L204.495 775.749H204.409L202.131 769.25H201.116L203.974 777ZM209.522 770.093C209.876 770.093 210.167 769.803 210.167 769.448C210.167 769.094 209.876 768.804 209.522 768.804C209.167 768.804 208.877 769.094 208.877 769.448C208.877 769.803 209.167 770.093 209.522 770.093ZM209.049 777H209.984V771.21H209.049V777ZM213.733 777.102C215.049 777.102 216.053 776.388 216.053 775.356V775.346C216.053 774.519 215.527 774.046 214.437 773.783L213.545 773.568C212.863 773.401 212.573 773.154 212.573 772.762V772.751C212.573 772.241 213.078 771.887 213.765 771.887C214.463 771.887 214.915 772.204 215.038 772.66H215.957C215.828 771.715 214.984 771.108 213.771 771.108C212.541 771.108 211.617 771.833 211.617 772.794V772.8C211.617 773.632 212.105 774.105 213.19 774.363L214.087 774.578C214.802 774.75 215.097 775.023 215.097 775.416V775.426C215.097 775.953 214.544 776.323 213.765 776.323C213.024 776.323 212.562 776.006 212.406 775.523H211.45C211.558 776.479 212.444 777.102 213.733 777.102ZM219.872 777.102C221.263 777.102 222.042 776.355 222.278 775.308L222.289 775.249L221.365 775.254L221.354 775.287C221.14 775.931 220.646 776.275 219.867 776.275C218.835 776.275 218.169 775.421 218.169 774.089V774.078C218.169 772.773 218.825 771.935 219.867 771.935C220.699 771.935 221.215 772.397 221.36 772.966L221.365 772.982H222.294L222.289 772.95C222.117 771.919 221.274 771.108 219.867 771.108C218.245 771.108 217.213 772.279 217.213 774.078V774.089C217.213 775.926 218.25 777.102 219.872 777.102ZM226.038 777.102C227.687 777.102 228.708 775.963 228.708 774.11V774.1C228.708 772.241 227.687 771.108 226.038 771.108C224.389 771.108 223.369 772.241 223.369 774.1V774.11C223.369 775.963 224.389 777.102 226.038 777.102ZM226.038 776.275C224.942 776.275 224.325 775.475 224.325 774.11V774.1C224.325 772.73 224.942 771.935 226.038 771.935C227.134 771.935 227.751 772.73 227.751 774.1V774.11C227.751 775.475 227.134 776.275 226.038 776.275ZM232.521 777.102C233.885 777.102 234.712 776.329 234.911 775.544L234.922 775.501H233.987L233.966 775.55C233.81 775.899 233.327 776.27 232.542 776.27C231.511 776.27 230.851 775.571 230.824 774.374H234.992V774.008C234.992 772.279 234.036 771.108 232.462 771.108C230.888 771.108 229.868 772.333 229.868 774.121V774.126C229.868 775.942 230.867 777.102 232.521 777.102ZM232.457 771.94C233.311 771.94 233.944 772.483 234.041 773.627H230.84C230.942 772.526 231.597 771.94 232.457 771.94ZM236.496 777H237.43V768.911H236.496V777ZM240.814 777.102C241.593 777.102 242.2 776.764 242.565 776.146H242.651V777H243.585V773.036C243.585 771.833 242.796 771.108 241.383 771.108C240.148 771.108 239.267 771.72 239.117 772.628L239.111 772.66H240.046L240.051 772.644C240.202 772.193 240.658 771.935 241.351 771.935C242.216 771.935 242.651 772.322 242.651 773.036V773.562L240.991 773.665C239.643 773.745 238.88 774.341 238.88 775.373V775.383C238.88 776.436 239.713 777.102 240.814 777.102ZM239.836 775.362V775.351C239.836 774.776 240.223 774.465 241.104 774.411L242.651 774.314V774.841C242.651 775.668 241.958 776.291 241.007 776.291C240.336 776.291 239.836 775.947 239.836 775.362ZM247.281 777.102C248.597 777.102 249.601 776.388 249.601 775.356V775.346C249.601 774.519 249.075 774.046 247.984 773.783L247.093 773.568C246.411 773.401 246.121 773.154 246.121 772.762V772.751C246.121 772.241 246.625 771.887 247.313 771.887C248.011 771.887 248.462 772.204 248.586 772.66H249.504C249.375 771.715 248.532 771.108 247.318 771.108C246.088 771.108 245.165 771.833 245.165 772.794V772.8C245.165 773.632 245.653 774.105 246.738 774.363L247.635 774.578C248.35 774.75 248.645 775.023 248.645 775.416V775.426C248.645 775.953 248.092 776.323 247.313 776.323C246.572 776.323 246.11 776.006 245.954 775.523H244.998C245.105 776.479 245.992 777.102 247.281 777.102ZM253.055 777.043C253.237 777.043 253.415 777.021 253.597 776.989V776.194C253.425 776.21 253.334 776.216 253.167 776.216C252.566 776.216 252.33 775.942 252.33 775.26V771.983H253.597V771.21H252.33V769.711H251.363V771.21H250.45V771.983H251.363V775.496C251.363 776.603 251.862 777.043 253.055 777.043ZM255.488 770.093C255.842 770.093 256.132 769.803 256.132 769.448C256.132 769.094 255.842 768.804 255.488 768.804C255.133 768.804 254.843 769.094 254.843 769.448C254.843 769.803 255.133 770.093 255.488 770.093ZM255.015 777H255.95V771.21H255.015V777ZM260.08 777.102C261.471 777.102 262.25 776.355 262.486 775.308L262.497 775.249L261.573 775.254L261.562 775.287C261.348 775.931 260.854 776.275 260.075 776.275C259.043 776.275 258.377 775.421 258.377 774.089V774.078C258.377 772.773 259.033 771.935 260.075 771.935C260.907 771.935 261.423 772.397 261.568 772.966L261.573 772.982H262.502L262.497 772.95C262.325 771.919 261.482 771.108 260.075 771.108C258.453 771.108 257.421 772.279 257.421 774.078V774.089C257.421 775.926 258.458 777.102 260.08 777.102ZM265.854 777.102C267.17 777.102 268.174 776.388 268.174 775.356V775.346C268.174 774.519 267.648 774.046 266.558 773.783L265.666 773.568C264.984 773.401 264.694 773.154 264.694 772.762V772.751C264.694 772.241 265.199 771.887 265.886 771.887C266.584 771.887 267.036 772.204 267.159 772.66H268.078C267.949 771.715 267.105 771.108 265.892 771.108C264.662 771.108 263.738 771.833 263.738 772.794V772.8C263.738 773.632 264.227 774.105 265.312 774.363L266.208 774.578C266.923 774.75 267.218 775.023 267.218 775.416V775.426C267.218 775.953 266.665 776.323 265.886 776.323C265.145 776.323 264.683 776.006 264.527 775.523H263.571C263.679 776.479 264.565 777.102 265.854 777.102Z" fill="#007AFF"/>
<path d="M327.342 741.969C327.699 741.194 328.801 741.194 329.158 741.969L331.401 746.832C331.547 747.148 331.846 747.365 332.192 747.406L337.51 748.037C338.357 748.137 338.697 749.184 338.071 749.764L334.139 753.4C333.884 753.636 333.769 753.988 333.837 754.329L334.881 759.582C335.047 760.419 334.156 761.066 333.412 760.649L328.738 758.033C328.435 757.864 328.065 757.864 327.762 758.033L323.088 760.649C322.344 761.066 321.453 760.419 321.619 759.582L322.663 754.329C322.731 753.988 322.616 753.636 322.361 753.4L318.429 749.764C317.803 749.184 318.143 748.137 318.99 748.037L324.308 747.406C324.654 747.365 324.953 747.148 325.099 746.832L327.342 741.969Z" fill="black"/>
<path d="M303.156 777.183C304.805 777.183 306.03 776.264 306.288 774.846V774.835H305.31L305.299 774.846C305.058 775.738 304.236 776.291 303.156 776.291C301.663 776.291 300.729 775.072 300.729 773.133V773.122C300.729 771.183 301.663 769.958 303.151 769.958C304.22 769.958 305.047 770.587 305.305 771.581L305.31 771.591H306.282L306.288 771.581C306.057 770.093 304.784 769.067 303.151 769.067C301.045 769.067 299.735 770.625 299.735 773.122V773.133C299.735 775.625 301.051 777.183 303.156 777.183ZM309.381 777.102C310.16 777.102 310.767 776.764 311.132 776.146H311.218V777H312.153V773.036C312.153 771.833 311.363 771.108 309.951 771.108C308.715 771.108 307.834 771.72 307.684 772.628L307.679 772.66H308.613L308.619 772.644C308.769 772.193 309.226 771.935 309.918 771.935C310.783 771.935 311.218 772.322 311.218 773.036V773.562L309.559 773.665C308.21 773.745 307.448 774.341 307.448 775.373V775.383C307.448 776.436 308.28 777.102 309.381 777.102ZM308.404 775.362V775.351C308.404 774.776 308.791 774.465 309.671 774.411L311.218 774.314V774.841C311.218 775.668 310.525 776.291 309.575 776.291C308.903 776.291 308.404 775.947 308.404 775.362ZM313.915 777H314.849V768.911H313.915V777ZM319.012 777.102C320.403 777.102 321.182 776.355 321.418 775.308L321.429 775.249L320.505 775.254L320.494 775.287C320.279 775.931 319.785 776.275 319.006 776.275C317.975 776.275 317.309 775.421 317.309 774.089V774.078C317.309 772.773 317.964 771.935 319.006 771.935C319.839 771.935 320.354 772.397 320.5 772.966L320.505 772.982H321.434L321.429 772.95C321.257 771.919 320.414 771.108 319.006 771.108C317.384 771.108 316.353 772.279 316.353 774.078V774.089C316.353 775.926 317.39 777.102 319.012 777.102ZM324.737 777.102C325.586 777.102 326.171 776.753 326.456 776.135H326.542V777H327.477V771.21H326.542V774.637C326.542 775.652 326 776.275 324.979 776.275C324.055 776.275 323.679 775.775 323.679 774.733V771.21H322.745V774.959C322.745 776.329 323.421 777.102 324.737 777.102ZM329.276 777H330.21V768.911H329.276V777ZM333.594 777.102C334.373 777.102 334.98 776.764 335.345 776.146H335.431V777H336.366V773.036C336.366 771.833 335.576 771.108 334.164 771.108C332.928 771.108 332.047 771.72 331.897 772.628L331.892 772.66H332.826L332.832 772.644C332.982 772.193 333.438 771.935 334.131 771.935C334.996 771.935 335.431 772.322 335.431 773.036V773.562L333.771 773.665C332.423 773.745 331.661 774.341 331.661 775.373V775.383C331.661 776.436 332.493 777.102 333.594 777.102ZM332.617 775.362V775.351C332.617 774.776 333.003 774.465 333.884 774.411L335.431 774.314V774.841C335.431 775.668 334.738 776.291 333.788 776.291C333.116 776.291 332.617 775.947 332.617 775.362ZM340.131 777.043C340.313 777.043 340.491 777.021 340.673 776.989V776.194C340.501 776.21 340.41 776.216 340.244 776.216C339.642 776.216 339.406 775.942 339.406 775.26V771.983H340.673V771.21H339.406V769.711H338.439V771.21H337.526V771.983H338.439V775.496C338.439 776.603 338.938 777.043 340.131 777.043ZM344.363 777.102C346.012 777.102 347.033 775.963 347.033 774.11V774.1C347.033 772.241 346.012 771.108 344.363 771.108C342.714 771.108 341.694 772.241 341.694 774.1V774.11C341.694 775.963 342.714 777.102 344.363 777.102ZM344.363 776.275C343.268 776.275 342.65 775.475 342.65 774.11V774.1C342.65 772.73 343.268 771.935 344.363 771.935C345.459 771.935 346.077 772.73 346.077 774.1V774.11C346.077 775.475 345.459 776.275 344.363 776.275ZM348.483 777H349.417V773.412C349.417 772.563 350.051 772 350.943 772C351.147 772 351.324 772.021 351.518 772.053V771.146C351.426 771.129 351.228 771.108 351.05 771.108C350.266 771.108 349.724 771.462 349.503 772.069H349.417V771.21H348.483V777ZM354.552 777.102C355.868 777.102 356.873 776.388 356.873 775.356V775.346C356.873 774.519 356.346 774.046 355.256 773.783L354.364 773.568C353.682 773.401 353.392 773.154 353.392 772.762V772.751C353.392 772.241 353.897 771.887 354.584 771.887C355.283 771.887 355.734 772.204 355.857 772.66H356.776C356.647 771.715 355.804 771.108 354.59 771.108C353.36 771.108 352.436 771.833 352.436 772.794V772.8C352.436 773.632 352.925 774.105 354.01 774.363L354.907 774.578C355.621 774.75 355.917 775.023 355.917 775.416V775.426C355.917 775.953 355.363 776.323 354.584 776.323C353.843 776.323 353.381 776.006 353.226 775.523H352.27C352.377 776.479 353.263 777.102 354.552 777.102Z" fill="black"/>
<path d="M21.5806 277H23.0747V272.725H26.0962C28.3457 272.725 29.9395 271.14 29.9395 268.865V268.849C29.9395 266.574 28.3457 265.022 26.0962 265.022H21.5806V277ZM25.7144 266.35C27.4243 266.35 28.4121 267.288 28.4121 268.865V268.882C28.4121 270.459 27.4243 271.397 25.7144 271.397H23.0747V266.35H25.7144ZM32.2056 277H33.6499V271.455C33.6499 270.144 34.6294 269.272 36.0073 269.272C36.3228 269.272 36.5967 269.305 36.8955 269.355V267.952C36.7544 267.927 36.4473 267.894 36.1733 267.894C34.9614 267.894 34.123 268.442 33.7827 269.38H33.6499V268.052H32.2056V277ZM42.1084 277.158C44.6567 277.158 46.2339 275.398 46.2339 272.534V272.518C46.2339 269.646 44.6567 267.894 42.1084 267.894C39.5601 267.894 37.9829 269.646 37.9829 272.518V272.534C37.9829 275.398 39.5601 277.158 42.1084 277.158ZM42.1084 275.879C40.415 275.879 39.4604 274.643 39.4604 272.534V272.518C39.4604 270.401 40.415 269.172 42.1084 269.172C43.8018 269.172 44.7563 270.401 44.7563 272.518V272.534C44.7563 274.643 43.8018 275.879 42.1084 275.879ZM51.7788 277.158C53.0239 277.158 54.02 276.568 54.5679 275.572H54.7007V277H56.145V264.499H54.7007V269.463H54.5679C54.0781 268.508 53.0073 267.894 51.7788 267.894C49.5044 267.894 48.0269 269.712 48.0269 272.518V272.534C48.0269 275.323 49.5127 277.158 51.7788 277.158ZM52.1108 275.879C50.4756 275.879 49.5044 274.618 49.5044 272.534V272.518C49.5044 270.434 50.4756 269.172 52.1108 269.172C53.7378 269.172 54.7339 270.451 54.7339 272.518V272.534C54.7339 274.601 53.7378 275.879 52.1108 275.879ZM61.9141 277.158C63.2256 277.158 64.1304 276.618 64.5703 275.664H64.7031V277H66.1475V268.052H64.7031V273.348C64.7031 274.917 63.8647 275.879 62.2876 275.879C60.8599 275.879 60.2788 275.107 60.2788 273.497V268.052H58.8345V273.846C58.8345 275.962 59.8804 277.158 61.9141 277.158ZM72.5059 277.158C74.6558 277.158 75.8594 276.004 76.2246 274.385L76.2412 274.294L74.8135 274.302L74.7969 274.352C74.4648 275.348 73.7012 275.879 72.4976 275.879C70.9038 275.879 69.8745 274.56 69.8745 272.501V272.484C69.8745 270.467 70.8872 269.172 72.4976 269.172C73.7842 269.172 74.5811 269.886 74.8052 270.766L74.8135 270.791H76.2495L76.2412 270.741C75.9756 269.147 74.6724 267.894 72.4976 267.894C69.9907 267.894 68.397 269.704 68.397 272.484V272.501C68.397 275.34 69.999 277.158 72.5059 277.158ZM81.7031 277.066C81.9854 277.066 82.2593 277.033 82.5415 276.983V275.755C82.2759 275.78 82.1348 275.788 81.8774 275.788C80.9478 275.788 80.5825 275.365 80.5825 274.311V269.247H82.5415V268.052H80.5825V265.736H79.0884V268.052H77.6772V269.247H79.0884V274.676C79.0884 276.386 79.8604 277.066 81.7031 277.066ZM89.6636 277H91.1577V265.022H89.6636V277ZM94.0298 277H95.4741V271.704C95.4741 270.135 96.3789 269.172 97.8066 269.172C99.2344 269.172 99.8984 269.944 99.8984 271.555V277H101.343V271.206C101.343 269.081 100.222 267.894 98.2134 267.894C96.8936 267.894 96.0552 268.45 95.6069 269.396H95.4741V268.052H94.0298V277ZM104.555 277H106V269.247H108.033V268.052H106V267.097C106 266.118 106.415 265.611 107.444 265.611C107.701 265.611 107.942 265.62 108.116 265.653V264.499C107.817 264.441 107.502 264.416 107.153 264.416C105.452 264.416 104.555 265.271 104.555 267.056V268.052H103.069V269.247H104.555V277ZM113.412 277.158C115.96 277.158 117.538 275.398 117.538 272.534V272.518C117.538 269.646 115.96 267.894 113.412 267.894C110.864 267.894 109.287 269.646 109.287 272.518V272.534C109.287 275.398 110.864 277.158 113.412 277.158ZM113.412 275.879C111.719 275.879 110.764 274.643 110.764 272.534V272.518C110.764 270.401 111.719 269.172 113.412 269.172C115.105 269.172 116.06 270.401 116.06 272.518V272.534C116.06 274.643 115.105 275.879 113.412 275.879Z" fill="#007AFF"/>
<path d="M354.92 260.326C354.705 260.115 354.43 260 354.106 260C353.459 260 352.939 260.498 352.939 261.131C352.939 261.447 353.076 261.734 353.302 261.955L360.169 268.51L353.302 275.045C353.076 275.266 352.939 275.563 352.939 275.869C352.939 276.502 353.459 277 354.106 277C354.43 277 354.705 276.885 354.92 276.674L362.553 269.391C362.828 269.142 362.956 268.835 362.965 268.5C362.965 268.165 362.828 267.877 362.553 267.618L354.92 260.326Z" fill="black"/>
</g>
<defs>
<clipPath id="clip0_8439_6992">
<rect width="375" height="812" rx="30" fill="white"/>
</clipPath>
</defs>
</svg>
