<svg width="837" height="790" viewBox="0 0 837 790" fill="none" xmlns="http://www.w3.org/2000/svg">
<line x1="417.595" y1="744.409" x2="417.595" y2="32.098" stroke="black" stroke-width="7"/>
<line x1="746.658" y1="391.218" x2="71.1043" y2="391.218" stroke="black" stroke-width="7"/>
<path d="M179.101 182H185.399V170.354H192.675C199.804 170.354 204.662 165.618 204.662 158.587V158.538C204.662 151.482 199.804 146.771 192.675 146.771H179.101V182ZM191.112 151.922C195.629 151.922 198.266 154.339 198.266 158.562V158.611C198.266 162.835 195.629 165.276 191.112 165.276H185.399V151.922H191.112ZM219.213 170.403H234.96V164.983H219.213V170.403ZM251.122 182H273.412V176.702H257.421V146.771H251.122V182ZM288.28 182.513C295.873 182.513 300.805 177.459 300.805 169.061V169.012C300.805 160.662 295.8 155.584 288.256 155.584C280.736 155.584 275.756 160.711 275.756 169.012V169.061C275.756 177.435 280.663 182.513 288.28 182.513ZM288.305 177.605C284.423 177.605 281.957 174.505 281.957 169.061V169.012C281.957 163.641 284.472 160.516 288.256 160.516C292.113 160.516 294.604 163.616 294.604 169.012V169.061C294.604 174.48 292.138 177.605 288.305 177.605ZM309.618 182H315.966L321.044 163.079H321.166L326.269 182H332.665L339.672 156.121H333.666L329.296 175.994H329.149L324.096 156.121H318.261L313.207 175.994H313.085L308.715 156.121H302.611L309.618 182ZM179.101 242H185.399V227.62H200.17V222.493H185.399V212.068H201.562V206.771H179.101V242ZM216.088 230.403H231.835V224.983H216.088V230.403ZM247.997 242H254.296V226.717H271.435V242H277.709V206.771H271.435V221.419H254.296V206.771H247.997V242ZM286.547 212.41C288.451 212.41 289.916 210.896 289.916 209.09C289.916 207.234 288.451 205.745 286.547 205.745C284.643 205.745 283.153 207.234 283.153 209.09C283.153 210.896 284.643 212.41 286.547 212.41ZM283.495 242H289.574V216.121H283.495V242ZM306.42 251.058C313.915 251.058 318.627 247.127 318.627 241.268V216.121H312.548V220.516H312.401C310.937 217.537 308.104 215.584 304.442 215.584C297.899 215.584 293.676 220.613 293.676 228.792V228.816C293.676 236.873 297.851 241.854 304.345 241.854C308.056 241.854 310.985 240.096 312.426 237.337H312.548V241.072C312.548 244.368 310.375 246.468 306.42 246.468C303.246 246.468 301.171 245.345 300.512 243.855L300.438 243.66H294.457L294.506 243.88C295.238 247.933 299.56 251.058 306.42 251.058ZM306.249 237.166C302.343 237.166 299.877 234.017 299.877 228.914V228.89C299.877 223.86 302.343 220.711 306.249 220.711C310.009 220.711 312.572 223.909 312.572 228.914V228.938C312.572 233.968 310.033 237.166 306.249 237.166ZM323.778 242H329.857V227.083C329.857 223.323 332.104 220.711 335.546 220.711C339.037 220.711 341.039 223.104 341.039 227.083V242H347.118V225.887C347.118 219.637 343.554 215.584 337.987 215.584C334.105 215.584 331.347 217.366 330.004 220.467H329.857V206.771H323.778V242Z" fill="#313F41"/>
<path d="M184.101 535H190.399V523.354H197.675C204.804 523.354 209.662 518.618 209.662 511.587V511.538C209.662 504.482 204.804 499.771 197.675 499.771H184.101V535ZM196.112 504.922C200.629 504.922 203.266 507.339 203.266 511.562V511.611C203.266 515.835 200.629 518.276 196.112 518.276H190.399V504.922H196.112ZM224.213 523.403H239.96V517.983H224.213V523.403ZM256.122 535H278.412V529.702H262.421V499.771H256.122V535ZM293.28 535.513C300.873 535.513 305.805 530.459 305.805 522.061V522.012C305.805 513.662 300.8 508.584 293.256 508.584C285.736 508.584 280.756 513.711 280.756 522.012V522.061C280.756 530.435 285.663 535.513 293.28 535.513ZM293.305 530.605C289.423 530.605 286.957 527.505 286.957 522.061V522.012C286.957 516.641 289.472 513.516 293.256 513.516C297.113 513.516 299.604 516.616 299.604 522.012V522.061C299.604 527.48 297.138 530.605 293.305 530.605ZM314.618 535H320.966L326.044 516.079H326.166L331.269 535H337.665L344.672 509.121H338.666L334.296 528.994H334.149L329.096 509.121H323.261L318.207 528.994H318.085L313.715 509.121H307.611L314.618 535ZM184.101 595H190.399V580.62H205.17V575.493H190.399V565.068H206.562V559.771H184.101V595ZM221.088 583.403H236.835V577.983H221.088V583.403ZM252.997 595H275.287V589.702H259.296V559.771H252.997V595ZM290.155 595.513C297.748 595.513 302.68 590.459 302.68 582.061V582.012C302.68 573.662 297.675 568.584 290.131 568.584C282.611 568.584 277.631 573.711 277.631 582.012V582.061C277.631 590.435 282.538 595.513 290.155 595.513ZM290.18 590.605C286.298 590.605 283.832 587.505 283.832 582.061V582.012C283.832 576.641 286.347 573.516 290.131 573.516C293.988 573.516 296.479 576.616 296.479 582.012V582.061C296.479 587.48 294.013 590.605 290.18 590.605ZM311.493 595H317.841L322.919 576.079H323.041L328.144 595H334.54L341.547 569.121H335.541L331.171 588.994H331.024L325.971 569.121H320.136L315.082 588.994H314.96L310.59 569.121H304.486L311.493 595Z" fill="#313F41"/>
<path d="M521.101 185H527.399V173.354H534.675C541.804 173.354 546.662 168.618 546.662 161.587V161.538C546.662 154.482 541.804 149.771 534.675 149.771H521.101V185ZM533.112 154.922C537.629 154.922 540.266 157.339 540.266 161.562V161.611C540.266 165.835 537.629 168.276 533.112 168.276H527.399V154.922H533.112ZM561.213 173.403H576.96V167.983H561.213V173.403ZM593.122 185H599.421V169.717H616.56V185H622.834V149.771H616.56V164.419H599.421V149.771H593.122V185ZM631.672 155.41C633.576 155.41 635.041 153.896 635.041 152.09C635.041 150.234 633.576 148.745 631.672 148.745C629.768 148.745 628.278 150.234 628.278 152.09C628.278 153.896 629.768 155.41 631.672 155.41ZM628.62 185H634.699V159.121H628.62V185ZM651.545 194.058C659.04 194.058 663.752 190.127 663.752 184.268V159.121H657.673V163.516H657.526C656.062 160.537 653.229 158.584 649.567 158.584C643.024 158.584 638.801 163.613 638.801 171.792V171.816C638.801 179.873 642.976 184.854 649.47 184.854C653.181 184.854 656.11 183.096 657.551 180.337H657.673V184.072C657.673 187.368 655.5 189.468 651.545 189.468C648.371 189.468 646.296 188.345 645.637 186.855L645.563 186.66H639.582L639.631 186.88C640.363 190.933 644.685 194.058 651.545 194.058ZM651.374 180.166C647.468 180.166 645.002 177.017 645.002 171.914V171.89C645.002 166.86 647.468 163.711 651.374 163.711C655.134 163.711 657.697 166.909 657.697 171.914V171.938C657.697 176.968 655.158 180.166 651.374 180.166ZM668.903 185H674.982V170.083C674.982 166.323 677.229 163.711 680.671 163.711C684.162 163.711 686.164 166.104 686.164 170.083V185H692.243V168.887C692.243 162.637 688.679 158.584 683.112 158.584C679.23 158.584 676.472 160.366 675.129 163.467H674.982V149.771H668.903V185ZM521.101 245H527.399V230.62H542.17V225.493H527.399V215.068H543.562V209.771H521.101V245ZM558.088 233.403H573.835V227.983H558.088V233.403ZM589.997 245H596.296V229.717H613.435V245H619.709V209.771H613.435V224.419H596.296V209.771H589.997V245ZM628.547 215.41C630.451 215.41 631.916 213.896 631.916 212.09C631.916 210.234 630.451 208.745 628.547 208.745C626.643 208.745 625.153 210.234 625.153 212.09C625.153 213.896 626.643 215.41 628.547 215.41ZM625.495 245H631.574V219.121H625.495V245ZM648.42 254.058C655.915 254.058 660.627 250.127 660.627 244.268V219.121H654.548V223.516H654.401C652.937 220.537 650.104 218.584 646.442 218.584C639.899 218.584 635.676 223.613 635.676 231.792V231.816C635.676 239.873 639.851 244.854 646.345 244.854C650.056 244.854 652.985 243.096 654.426 240.337H654.548V244.072C654.548 247.368 652.375 249.468 648.42 249.468C645.246 249.468 643.171 248.345 642.512 246.855L642.438 246.66H636.457L636.506 246.88C637.238 250.933 641.56 254.058 648.42 254.058ZM648.249 240.166C644.343 240.166 641.877 237.017 641.877 231.914V231.89C641.877 226.86 644.343 223.711 648.249 223.711C652.009 223.711 654.572 226.909 654.572 231.914V231.938C654.572 236.968 652.033 240.166 648.249 240.166ZM665.778 245H671.857V230.083C671.857 226.323 674.104 223.711 677.546 223.711C681.037 223.711 683.039 226.104 683.039 230.083V245H689.118V228.887C689.118 222.637 685.554 218.584 679.987 218.584C676.105 218.584 673.347 220.366 672.004 223.467H671.857V209.771H665.778V245Z" fill="#313F41"/>
<path d="M529.101 539H535.399V527.354H542.675C549.804 527.354 554.662 522.618 554.662 515.587V515.538C554.662 508.482 549.804 503.771 542.675 503.771H529.101V539ZM541.112 508.922C545.629 508.922 548.266 511.339 548.266 515.562V515.611C548.266 519.835 545.629 522.276 541.112 522.276H535.399V508.922H541.112ZM569.213 527.403H584.96V521.983H569.213V527.403ZM601.122 539H607.421V523.717H624.56V539H630.834V503.771H624.56V518.419H607.421V503.771H601.122V539ZM639.672 509.41C641.576 509.41 643.041 507.896 643.041 506.09C643.041 504.234 641.576 502.745 639.672 502.745C637.768 502.745 636.278 504.234 636.278 506.09C636.278 507.896 637.768 509.41 639.672 509.41ZM636.62 539H642.699V513.121H636.62V539ZM659.545 548.058C667.04 548.058 671.752 544.127 671.752 538.268V513.121H665.673V517.516H665.526C664.062 514.537 661.229 512.584 657.567 512.584C651.024 512.584 646.801 517.613 646.801 525.792V525.816C646.801 533.873 650.976 538.854 657.47 538.854C661.181 538.854 664.11 537.096 665.551 534.337H665.673V538.072C665.673 541.368 663.5 543.468 659.545 543.468C656.371 543.468 654.296 542.345 653.637 540.855L653.563 540.66H647.582L647.631 540.88C648.363 544.933 652.685 548.058 659.545 548.058ZM659.374 534.166C655.468 534.166 653.002 531.017 653.002 525.914V525.89C653.002 520.86 655.468 517.711 659.374 517.711C663.134 517.711 665.697 520.909 665.697 525.914V525.938C665.697 530.968 663.158 534.166 659.374 534.166ZM676.903 539H682.982V524.083C682.982 520.323 685.229 517.711 688.671 517.711C692.162 517.711 694.164 520.104 694.164 524.083V539H700.243V522.887C700.243 516.637 696.679 512.584 691.112 512.584C687.23 512.584 684.472 514.366 683.129 517.467H682.982V503.771H676.903V539ZM529.101 599H535.399V584.62H550.17V579.493H535.399V569.068H551.562V563.771H529.101V599ZM566.088 587.403H581.835V581.983H566.088V587.403ZM597.997 599H620.287V593.702H604.296V563.771H597.997V599ZM635.155 599.513C642.748 599.513 647.68 594.459 647.68 586.061V586.012C647.68 577.662 642.675 572.584 635.131 572.584C627.611 572.584 622.631 577.711 622.631 586.012V586.061C622.631 594.435 627.538 599.513 635.155 599.513ZM635.18 594.605C631.298 594.605 628.832 591.505 628.832 586.061V586.012C628.832 580.641 631.347 577.516 635.131 577.516C638.988 577.516 641.479 580.616 641.479 586.012V586.061C641.479 591.48 639.013 594.605 635.18 594.605ZM656.493 599H662.841L667.919 580.079H668.041L673.144 599H679.54L686.547 573.121H680.541L676.171 592.994H676.024L670.971 573.121H665.136L660.082 592.994H659.96L655.59 573.121H649.486L656.493 599Z" fill="#313F41"/>
<path d="M755.17 197.394C755.17 222.87 739.061 246.284 712.288 263.45C685.543 280.6 648.443 291.288 607.335 291.288C566.227 291.288 529.127 280.6 502.382 263.45C475.609 246.284 459.5 222.87 459.5 197.394C459.5 171.918 475.609 148.504 502.382 131.338C529.127 114.189 566.227 103.5 607.335 103.5C648.443 103.5 685.543 114.189 712.288 131.338C739.061 148.504 755.17 171.918 755.17 197.394Z" fill="#AA6008" fill-opacity="0.08"/>
<path d="M755.17 197.394C755.17 222.87 739.061 246.284 712.288 263.45C685.543 280.6 648.443 291.288 607.335 291.288C566.227 291.288 529.127 280.6 502.382 263.45C475.609 246.284 459.5 222.87 459.5 197.394C459.5 171.918 475.609 148.504 502.382 131.338C529.127 114.189 566.227 103.5 607.335 103.5C648.443 103.5 685.543 114.189 712.288 131.338C739.061 148.504 755.17 171.918 755.17 197.394Z" stroke="black" stroke-width="5"/>
<path d="M755.17 197.394C755.17 222.87 739.061 246.284 712.288 263.45C685.543 280.6 648.443 291.288 607.335 291.288C566.227 291.288 529.127 280.6 502.382 263.45C475.609 246.284 459.5 222.87 459.5 197.394C459.5 171.918 475.609 148.504 502.382 131.338C529.127 114.189 566.227 103.5 607.335 103.5C648.443 103.5 685.543 114.189 712.288 131.338C739.061 148.504 755.17 171.918 755.17 197.394Z" stroke="#E4572E" stroke-width="5"/>
<path d="M633.532 61H642.969V15.9062H633.532V61ZM649.688 61H658.813V40.7812C658.813 37 661.157 34.375 664.625 34.375C668 34.375 670.032 36.5 670.032 40.0938V61H678.813V40.625C678.813 36.9062 681.094 34.375 684.563 34.375C688.094 34.375 690.032 36.5 690.032 40.375V61H699.157V38.0938C699.157 31.3438 694.75 26.8125 688.188 26.8125C683.282 26.8125 679.282 29.5 677.782 33.7188H677.594C676.469 29.3125 673.063 26.8125 668.375 26.8125C663.875 26.8125 660.375 29.3125 659 33.125H658.813V27.5H649.688V61ZM704.938 71.9375H714.063V55.2812H714.25C716.063 59.25 719.844 61.6875 724.625 61.6875C733 61.6875 738.188 55.125 738.188 44.25V44.2188C738.188 33.3125 733 26.8125 724.5 26.8125C719.75 26.8125 716.094 29.2812 714.282 33.3438H714.063V27.5H704.938V71.9375ZM721.5 54.125C717.063 54.125 714.032 50.3125 714.032 44.2812V44.25C714.032 38.1875 717.063 34.375 721.5 34.375C726.032 34.375 728.907 38.0938 728.907 44.2188V44.25C728.907 50.3438 726.032 54.125 721.5 54.125ZM752.907 61.5312C757.313 61.5312 760.875 59.4375 762.782 56H762.969V61H772.094V38.0312C772.094 31.2812 766.5 26.8125 757.844 26.8125C749 26.8125 743.688 31.25 743.188 37.4375L743.157 37.8125H751.5L751.563 37.5312C752 35.375 754.063 33.7812 757.469 33.7812C761.032 33.7812 762.969 35.625 762.969 38.5938V40.6562L754.688 41.1562C746.375 41.6875 741.657 45.25 741.657 51.3438V51.4062C741.657 57.3125 746.188 61.5312 752.907 61.5312ZM750.688 50.9375V50.875C750.688 48.5 752.532 47 756.063 46.7812L762.969 46.3438V48.75C762.969 52.25 759.969 54.875 755.875 54.875C752.719 54.875 750.688 53.4062 750.688 50.9375ZM793.313 61.6875C802.25 61.6875 808.032 56.125 808.469 48.8125V48.625H799.969L799.938 48.9062C799.313 52.2812 797.032 54.5312 793.375 54.5312C788.875 54.5312 786.063 50.8125 786.063 44.25V44.2188C786.063 37.8125 788.875 33.9688 793.344 33.9688C797.125 33.9688 799.344 36.4062 799.907 39.5938L799.969 39.875H808.438V39.6562C808.094 32.4062 802.313 26.8125 793.219 26.8125C783.188 26.8125 776.782 33.4688 776.782 44.1875V44.2188C776.782 55.0312 783.094 61.6875 793.313 61.6875ZM826.188 61.6875C828.094 61.6875 829.563 61.5 830.594 61.3438V54.6562C830.032 54.7188 829.438 54.8125 828.625 54.8125C825.875 54.8125 824.469 53.75 824.469 50.625V34.375H830.594V27.5H824.469V19.3125H815.25V27.5H810.594V34.375H815.25V51.625C815.25 58.8125 818.75 61.6875 826.188 61.6875Z" fill="black"/>
<path d="M633.532 61H642.969V15.9062H633.532V61ZM649.688 61H658.813V40.7812C658.813 37 661.157 34.375 664.625 34.375C668 34.375 670.032 36.5 670.032 40.0938V61H678.813V40.625C678.813 36.9062 681.094 34.375 684.563 34.375C688.094 34.375 690.032 36.5 690.032 40.375V61H699.157V38.0938C699.157 31.3438 694.75 26.8125 688.188 26.8125C683.282 26.8125 679.282 29.5 677.782 33.7188H677.594C676.469 29.3125 673.063 26.8125 668.375 26.8125C663.875 26.8125 660.375 29.3125 659 33.125H658.813V27.5H649.688V61ZM704.938 71.9375H714.063V55.2812H714.25C716.063 59.25 719.844 61.6875 724.625 61.6875C733 61.6875 738.188 55.125 738.188 44.25V44.2188C738.188 33.3125 733 26.8125 724.5 26.8125C719.75 26.8125 716.094 29.2812 714.282 33.3438H714.063V27.5H704.938V71.9375ZM721.5 54.125C717.063 54.125 714.032 50.3125 714.032 44.2812V44.25C714.032 38.1875 717.063 34.375 721.5 34.375C726.032 34.375 728.907 38.0938 728.907 44.2188V44.25C728.907 50.3438 726.032 54.125 721.5 54.125ZM752.907 61.5312C757.313 61.5312 760.875 59.4375 762.782 56H762.969V61H772.094V38.0312C772.094 31.2812 766.5 26.8125 757.844 26.8125C749 26.8125 743.688 31.25 743.188 37.4375L743.157 37.8125H751.5L751.563 37.5312C752 35.375 754.063 33.7812 757.469 33.7812C761.032 33.7812 762.969 35.625 762.969 38.5938V40.6562L754.688 41.1562C746.375 41.6875 741.657 45.25 741.657 51.3438V51.4062C741.657 57.3125 746.188 61.5312 752.907 61.5312ZM750.688 50.9375V50.875C750.688 48.5 752.532 47 756.063 46.7812L762.969 46.3438V48.75C762.969 52.25 759.969 54.875 755.875 54.875C752.719 54.875 750.688 53.4062 750.688 50.9375ZM793.313 61.6875C802.25 61.6875 808.032 56.125 808.469 48.8125V48.625H799.969L799.938 48.9062C799.313 52.2812 797.032 54.5312 793.375 54.5312C788.875 54.5312 786.063 50.8125 786.063 44.25V44.2188C786.063 37.8125 788.875 33.9688 793.344 33.9688C797.125 33.9688 799.344 36.4062 799.907 39.5938L799.969 39.875H808.438V39.6562C808.094 32.4062 802.313 26.8125 793.219 26.8125C783.188 26.8125 776.782 33.4688 776.782 44.1875V44.2188C776.782 55.0312 783.094 61.6875 793.313 61.6875ZM826.188 61.6875C828.094 61.6875 829.563 61.5 830.594 61.3438V54.6562C830.032 54.7188 829.438 54.8125 828.625 54.8125C825.875 54.8125 824.469 53.75 824.469 50.625V34.375H830.594V27.5H824.469V19.3125H815.25V27.5H810.594V34.375H815.25V51.625C815.25 58.8125 818.75 61.6875 826.188 61.6875Z" fill="#E4572E"/>
<path d="M218.633 360.926L200.829 342.154C199.309 340.551 199.309 337.952 200.829 336.349L203.943 333.066C205.464 331.463 207.928 331.463 209.449 333.066L227.252 351.838L218.633 360.926Z" fill="#8EE2A5"/>
<path d="M218.554 360.915L282.816 293.156C284.337 291.553 286.801 291.553 288.322 293.156L291.436 296.439C292.956 298.042 292.956 300.641 291.436 302.244L229.926 367.1C228.406 368.703 225.941 368.703 224.421 367.1L218.554 360.915Z" fill="#8EE2A5"/>
<path d="M191.128 717.573L255.39 649.814C256.91 648.211 259.375 648.211 260.895 649.814L264.009 653.097C265.53 654.7 265.53 657.299 264.009 658.902L202.5 723.758C200.979 725.361 198.515 725.361 196.995 723.758L191.128 717.573Z" fill="#E4572E"/>
<path d="M199.585 646.912L263.847 714.67C265.367 716.273 265.367 718.872 263.847 720.475L260.733 723.758C259.213 725.361 256.748 725.361 255.228 723.758L193.718 658.902C192.198 657.299 192.198 654.7 193.718 653.097L199.585 646.912Z" fill="#E4572E"/>
<path d="M546.65 717.573L610.912 649.814C612.432 648.211 614.897 648.211 616.417 649.814L619.531 653.097C621.052 654.7 621.052 657.299 619.531 658.902L558.022 723.758C556.501 725.361 554.037 725.361 552.517 723.758L546.65 717.573Z" fill="#E4572E"/>
<path d="M555.107 646.912L619.369 714.67C620.889 716.273 620.889 718.872 619.369 720.475L616.255 723.758C614.735 725.361 612.27 725.361 610.75 723.758L549.24 658.902C547.72 657.299 547.72 654.7 549.24 653.097L555.107 646.912Z" fill="#E4572E"/>
<path d="M1.875 396H6.59375V388.891H10.9375C15.6875 388.891 18.8594 385.828 18.8594 381.188V381.156C18.8594 376.516 15.6875 373.453 10.9375 373.453H1.875V396ZM9.78125 377.188C12.4844 377.188 14.0781 378.609 14.0781 381.172V381.203C14.0781 383.766 12.4844 385.203 9.78125 385.203H6.59375V377.188H9.78125ZM25.1562 396.266C27.3594 396.266 29.1406 395.219 30.0938 393.5H30.1875V396H34.75V384.516C34.75 381.141 31.9531 378.906 27.625 378.906C23.2031 378.906 20.5469 381.125 20.2969 384.219L20.2812 384.406H24.4531L24.4844 384.266C24.7031 383.188 25.7344 382.391 27.4375 382.391C29.2188 382.391 30.1875 383.312 30.1875 384.797V385.828L26.0469 386.078C21.8906 386.344 19.5312 388.125 19.5312 391.172V391.203C19.5312 394.156 21.7969 396.266 25.1562 396.266ZM24.0469 390.969V390.938C24.0469 389.75 24.9688 389 26.7344 388.891L30.1875 388.672V389.875C30.1875 391.625 28.6875 392.938 26.6406 392.938C25.0625 392.938 24.0469 392.203 24.0469 390.969ZM40.0781 377.094C41.4531 377.094 42.5156 376.016 42.5156 374.719C42.5156 373.422 41.4531 372.344 40.0781 372.344C38.7031 372.344 37.6406 373.422 37.6406 374.719C37.6406 376.016 38.7031 377.094 40.0781 377.094ZM37.7969 396H42.3594V379.25H37.7969V396ZM45.4219 396H49.9844V386.375C49.9844 384.188 51.2812 382.688 53.3281 382.688C55.375 382.688 56.4062 383.938 56.4062 386.125V396H60.9688V385.188C60.9688 381.266 58.875 378.906 55.1875 378.906C52.6562 378.906 50.9375 380.078 50.0781 382H49.9844V379.25H45.4219V396Z" fill="black"/>
<path d="M341.875 777H346.594V768.125H355.766V764.391H346.594V758.344H356.641V754.453H341.875V777ZM359.047 777H363.609V767.625C363.609 765.188 364.922 763.844 367.172 763.844C367.828 763.844 368.453 763.938 368.828 764.094V760.078C368.484 759.984 368.016 759.906 367.516 759.906C365.562 759.906 364.203 761.109 363.703 763.172H363.609V760.25H359.047V777ZM377.766 777.344C382.547 777.344 384.859 774.516 385.375 772.047L385.422 771.875H381.234L381.203 771.969C380.875 772.906 379.734 773.938 377.859 773.938C375.531 773.938 374.078 772.375 374.031 769.703H385.562V768.297C385.562 763.234 382.484 759.906 377.578 759.906C372.672 759.906 369.531 763.312 369.531 768.641V768.656C369.531 774.016 372.641 777.344 377.766 777.344ZM377.656 763.312C379.547 763.312 380.906 764.516 381.188 766.828H374.078C374.375 764.562 375.781 763.312 377.656 763.312ZM399.359 782.469H403.922V760.25H399.359V763.172H399.266C398.359 761.188 396.531 759.922 394.172 759.922C389.938 759.922 387.312 763.172 387.312 768.594V768.609C387.312 774.047 389.906 777.328 394.094 777.328C396.516 777.328 398.391 776.125 399.266 774.188H399.359V782.469ZM395.672 773.547C393.391 773.547 391.953 771.656 391.953 768.609V768.594C391.953 765.578 393.406 763.703 395.672 763.703C397.891 763.703 399.375 765.594 399.375 768.609V768.625C399.375 771.641 397.906 773.547 395.672 773.547ZM412.594 777.344C415.125 777.344 416.844 776.156 417.703 774.234H417.797V777H422.359V760.25H417.797V769.875C417.797 772.062 416.5 773.562 414.453 773.562C412.406 773.562 411.375 772.297 411.375 770.109V760.25H406.812V771.062C406.812 774.984 408.906 777.344 412.594 777.344ZM432.953 777.344C437.734 777.344 440.047 774.516 440.562 772.047L440.609 771.875H436.422L436.391 771.969C436.062 772.906 434.922 773.938 433.047 773.938C430.719 773.938 429.266 772.375 429.219 769.703H440.75V768.297C440.75 763.234 437.672 759.906 432.766 759.906C427.859 759.906 424.719 763.312 424.719 768.641V768.656C424.719 774.016 427.828 777.344 432.953 777.344ZM432.844 763.312C434.734 763.312 436.094 764.516 436.375 766.828H429.266C429.562 764.562 430.969 763.312 432.844 763.312ZM443.109 777H447.672V767.375C447.672 765.188 448.969 763.688 451.016 763.688C453.062 763.688 454.094 764.938 454.094 767.125V777H458.656V766.188C458.656 762.266 456.562 759.906 452.875 759.906C450.344 759.906 448.625 761.078 447.766 763H447.672V760.25H443.109V777ZM469.203 777.344C473.672 777.344 476.562 774.562 476.781 770.906V770.812H472.531L472.516 770.953C472.203 772.641 471.062 773.766 469.234 773.766C466.984 773.766 465.578 771.906 465.578 768.625V768.609C465.578 765.406 466.984 763.484 469.219 763.484C471.109 763.484 472.219 764.703 472.5 766.297L472.531 766.438H476.766V766.328C476.594 762.703 473.703 759.906 469.156 759.906C464.141 759.906 460.938 763.234 460.938 768.594V768.609C460.938 774.016 464.094 777.344 469.203 777.344ZM481.609 782.516C485.328 782.516 487.578 781.25 488.891 777.297L494.641 760.25H489.828L486.281 773.344H486.156L482.625 760.25H477.609L483.531 777L483.328 777.547C482.922 778.688 482.172 779.078 480.812 779.078C480.141 779.078 479.609 778.984 479.281 778.922V782.312C479.812 782.406 480.719 782.516 481.609 782.516Z" fill="black"/>
</svg>
