<svg width="401" height="400" viewBox="0 0 401 400" fill="none" xmlns="http://www.w3.org/2000/svg">
<ellipse cx="92.5385" cy="91.3987" rx="92.5385" ry="91.3987" fill="black"/>
<ellipse cx="92.5385" cy="91.3987" rx="92.5385" ry="91.3987" fill="#CA7DA4"/>
<path d="M29.0579 97.291H31.5179V88.7495H40.2507V86.5628H31.5179V79.7843H41.0297V77.5703H29.0579V97.291ZM48.3276 97.5643C50.4869 97.5643 51.9356 96.594 52.7009 95.2684H52.7556V97.291H55.1335V83.0779H52.7556V91.4418C52.7556 93.8607 51.2932 95.4597 49.0519 95.4597C46.8653 95.4597 45.7857 94.1887 45.7857 91.8791V83.0779H43.4077V92.3028C43.4077 95.5417 45.2117 97.5643 48.3276 97.5643ZM58.2358 97.291H60.6138V88.9271C60.6138 86.5082 62.0761 84.9092 64.3174 84.9092C66.504 84.9092 67.5837 86.1802 67.5837 88.4898V97.291H69.9616V88.0662C69.9616 84.8272 68.1577 82.8046 65.0417 82.8046C62.8824 82.8046 61.4338 83.7749 60.6684 85.1005H60.6138V83.0779H58.2358V97.291ZM78.8858 97.5643C82.0975 97.5643 84.4344 95.4734 84.8171 92.7674L84.8307 92.6717H82.4938L82.4665 92.7811C82.0701 94.3664 80.8265 95.4597 78.8858 95.4597C76.4259 95.4597 74.7312 93.5054 74.7312 90.1981V90.1845C74.7312 86.9592 76.3849 84.9092 78.8585 84.9092C80.9495 84.9092 82.0975 86.1665 82.4528 87.5878L82.4801 87.6972H84.8034L84.7898 87.5878C84.4891 85.1552 82.3981 82.8046 78.8585 82.8046C74.9089 82.8046 72.2986 85.6745 72.2986 90.1571V90.1708C72.2986 94.6944 74.8542 97.5643 78.8858 97.5643ZM91.6366 97.5643C92.1013 97.5643 92.607 97.5097 92.9076 97.4687V95.5417C92.7026 95.5554 92.4293 95.5964 92.1423 95.5964C90.8713 95.5964 90.2017 95.1727 90.2017 93.6557V85.0459H92.9076V83.0779H90.2017V79.2376H87.7417V83.0779H85.6644V85.0459H87.7417V93.6694C87.7417 96.389 89.0264 97.5643 91.6366 97.5643ZM96.8026 80.6726C97.6362 80.6726 98.2922 80.0029 98.2922 79.1829C98.2922 78.3493 97.6362 77.6933 96.8026 77.6933C95.9826 77.6933 95.3129 78.3493 95.3129 79.1829C95.3129 80.0029 95.9826 80.6726 96.8026 80.6726ZM95.6136 97.291H97.9916V83.0779H95.6136V97.291ZM107.121 97.5643C111.043 97.5643 113.694 94.7217 113.694 90.1845V90.1571C113.694 85.6199 111.029 82.8046 107.107 82.8046C103.185 82.8046 100.534 85.6335 100.534 90.1571V90.1845C100.534 94.7081 103.171 97.5643 107.121 97.5643ZM107.134 95.4597C104.62 95.4597 102.966 93.5327 102.966 90.1845V90.1571C102.966 86.8362 104.633 84.9092 107.107 84.9092C109.622 84.9092 111.262 86.8225 111.262 90.1571V90.1845C111.262 93.5191 109.635 95.4597 107.134 95.4597ZM116.1 97.291H118.478V88.9271C118.478 86.5082 119.94 84.9092 122.181 84.9092C124.368 84.9092 125.447 86.1802 125.447 88.4898V97.291H127.825V88.0662C127.825 84.8272 126.021 82.8046 122.906 82.8046C120.746 82.8046 119.298 83.7749 118.532 85.1005H118.478V83.0779H116.1V97.291ZM135.014 97.5643C136.914 97.5643 138.622 96.5394 139.456 94.9814H139.51V97.291H141.888V87.4648C141.888 84.6222 139.784 82.8046 136.422 82.8046C133.073 82.8046 131.037 84.6905 130.832 87.0275L130.818 87.1778H133.114L133.142 87.0548C133.415 85.7839 134.563 84.9092 136.394 84.9092C138.376 84.9092 139.51 85.9615 139.51 87.6972V88.8861L135.438 89.1185C132.171 89.3098 130.285 90.8268 130.285 93.2457V93.2731C130.285 95.856 132.185 97.5643 135.014 97.5643ZM132.718 93.2731V93.2457C132.718 91.9201 133.811 91.0728 135.711 90.9634L139.51 90.7311V91.8928C139.51 93.9564 137.788 95.5007 135.547 95.5007C133.839 95.5007 132.718 94.6397 132.718 93.2731ZM145.032 97.291H147.41V77.5703H145.032V97.291Z" fill="#313F41"/>
<ellipse cx="308.462" cy="91.3987" rx="92.5385" ry="91.3987" fill="black"/>
<ellipse cx="308.462" cy="91.3987" rx="92.5385" ry="91.3987" fill="#FB6376"/>
<path d="M278.576 97.619C283.086 97.619 285.86 95.405 285.86 91.9064V91.8928C285.86 88.8861 284.166 87.2462 280.12 86.3578L277.934 85.8795C275.364 85.3192 274.175 84.3079 274.175 82.6952V82.6816C274.175 80.7819 275.897 79.5246 278.535 79.5109C281.036 79.5109 282.717 80.6999 283.018 82.7089L283.045 82.9002H285.505L285.491 82.6952C285.273 79.4699 282.457 77.2423 278.603 77.2423C274.544 77.2423 271.674 79.5109 271.661 82.7499V82.7636C271.661 85.6472 273.465 87.3828 277.319 88.2301L279.505 88.7085C282.211 89.3098 283.346 90.2801 283.346 92.0158V92.0294C283.346 94.0657 281.555 95.3504 278.713 95.3504C275.856 95.3504 273.943 94.1341 273.656 92.1524L273.629 91.9611H271.169L271.182 92.1524C271.428 95.528 274.312 97.619 278.576 97.619ZM294.265 97.5643C298.187 97.5643 300.839 94.7217 300.839 90.1845V90.1571C300.839 85.6199 298.174 82.8046 294.251 82.8046C290.329 82.8046 287.678 85.6335 287.678 90.1571V90.1845C287.678 94.7081 290.316 97.5643 294.265 97.5643ZM294.279 95.4597C291.764 95.4597 290.111 93.5327 290.111 90.1845V90.1571C290.111 86.8362 291.778 84.9092 294.251 84.9092C296.766 84.9092 298.406 86.8225 298.406 90.1571V90.1845C298.406 93.5191 296.78 95.4597 294.279 95.4597ZM309.134 97.5643C312.346 97.5643 314.683 95.4734 315.066 92.7674L315.079 92.6717H312.742L312.715 92.7811C312.319 94.3664 311.075 95.4597 309.134 95.4597C306.674 95.4597 304.98 93.5054 304.98 90.1981V90.1845C304.98 86.9592 306.633 84.9092 309.107 84.9092C311.198 84.9092 312.346 86.1665 312.701 87.5878L312.729 87.6972H315.052L315.038 87.5878C314.738 85.1552 312.647 82.8046 309.107 82.8046C305.157 82.8046 302.547 85.6745 302.547 90.1571V90.1708C302.547 94.6944 305.103 97.5643 309.134 97.5643ZM318.605 80.6726C319.439 80.6726 320.095 80.0029 320.095 79.1829C320.095 78.3493 319.439 77.6933 318.605 77.6933C317.785 77.6933 317.115 78.3493 317.115 79.1829C317.115 80.0029 317.785 80.6726 318.605 80.6726ZM317.416 97.291H319.794V83.0779H317.416V97.291ZM327.188 97.5643C329.087 97.5643 330.796 96.5394 331.629 94.9814H331.684V97.291H334.062V87.4648C334.062 84.6222 331.957 82.8046 328.595 82.8046C325.247 82.8046 323.211 84.6905 323.006 87.0275L322.992 87.1778H325.288L325.315 87.0548C325.589 85.7839 326.737 84.9092 328.568 84.9092C330.55 84.9092 331.684 85.9615 331.684 87.6972V88.8861L327.611 89.1185C324.345 89.3098 322.459 90.8268 322.459 93.2457V93.2731C322.459 95.856 324.359 97.5643 327.188 97.5643ZM324.892 93.2731V93.2457C324.892 91.9201 325.985 91.0728 327.885 90.9634L331.684 90.7311V91.8928C331.684 93.9564 329.962 95.5007 327.721 95.5007C326.012 95.5007 324.892 94.6397 324.892 93.2731ZM337.205 97.291H339.583V77.5703H337.205V97.291Z" fill="black"/>
<ellipse cx="199.589" cy="308.318" rx="92.5385" ry="91.3987" fill="black"/>
<ellipse cx="199.589" cy="308.318" rx="92.5385" ry="91.3987" fill="#F5896A"/>
<path d="M139.675 314.147H151.893V311.933H142.135V305.155H151.387V302.968H142.135V296.641H151.893V294.427H139.675V314.147ZM154.776 314.147H157.154V305.237C157.154 303.255 158.521 301.766 160.407 301.766C162.17 301.766 163.318 302.9 163.318 304.622V314.147H165.696V305.114C165.696 303.173 167.021 301.766 168.907 301.766C170.78 301.766 171.859 302.927 171.859 304.882V314.147H174.237V304.335C174.237 301.506 172.42 299.661 169.604 299.661C167.609 299.661 165.942 300.686 165.149 302.394H165.094C164.479 300.659 163.044 299.661 161.104 299.661C159.273 299.661 157.851 300.604 157.209 302.012H157.154V299.934H154.776V314.147ZM183.162 314.421C187.084 314.421 189.735 311.578 189.735 307.041V307.014C189.735 302.476 187.07 299.661 183.148 299.661C179.226 299.661 176.574 302.49 176.574 307.014V307.041C176.574 311.564 179.212 314.421 183.162 314.421ZM183.175 312.316C180.661 312.316 179.007 310.389 179.007 307.041V307.014C179.007 303.693 180.674 301.766 183.148 301.766C185.663 301.766 187.302 303.679 187.302 307.014V307.041C187.302 310.376 185.676 312.316 183.175 312.316ZM196.76 314.421C197.224 314.421 197.73 314.366 198.031 314.325V312.398C197.826 312.412 197.552 312.453 197.265 312.453C195.994 312.453 195.325 312.029 195.325 310.512V301.902H198.031V299.934H195.325V296.094H192.865V299.934H190.787V301.902H192.865V310.526C192.865 313.245 194.149 314.421 196.76 314.421ZM201.926 297.529C202.759 297.529 203.415 296.859 203.415 296.039C203.415 295.206 202.759 294.55 201.926 294.55C201.106 294.55 200.436 295.206 200.436 296.039C200.436 296.859 201.106 297.529 201.926 297.529ZM200.737 314.147H203.115V299.934H200.737V314.147ZM212.244 314.421C216.166 314.421 218.817 311.578 218.817 307.041V307.014C218.817 302.476 216.152 299.661 212.23 299.661C208.308 299.661 205.657 302.49 205.657 307.014V307.041C205.657 311.564 208.294 314.421 212.244 314.421ZM212.257 312.316C209.743 312.316 208.089 310.389 208.089 307.041V307.014C208.089 303.693 209.756 301.766 212.23 301.766C214.745 301.766 216.385 303.679 216.385 307.014V307.041C216.385 310.376 214.758 312.316 212.257 312.316ZM221.223 314.147H223.601V305.784C223.601 303.365 225.063 301.766 227.304 301.766C229.491 301.766 230.571 303.037 230.571 305.346V314.147H232.948V304.923C232.948 301.684 231.145 299.661 228.029 299.661C225.869 299.661 224.421 300.631 223.655 301.957H223.601V299.934H221.223V314.147ZM240.137 314.421C242.037 314.421 243.745 313.396 244.579 311.838H244.633V314.147H247.011V304.321C247.011 301.479 244.907 299.661 241.545 299.661C238.196 299.661 236.16 301.547 235.955 303.884L235.941 304.034H238.237L238.265 303.911C238.538 302.64 239.686 301.766 241.517 301.766C243.499 301.766 244.633 302.818 244.633 304.554V305.743L240.561 305.975C237.294 306.166 235.408 307.683 235.408 310.102V310.13C235.408 312.712 237.308 314.421 240.137 314.421ZM237.841 310.13V310.102C237.841 308.777 238.934 307.929 240.834 307.82L244.633 307.588V308.749C244.633 310.813 242.911 312.357 240.67 312.357C238.962 312.357 237.841 311.496 237.841 310.13ZM250.155 314.147H252.533V294.427H250.155V314.147Z" fill="#313F41"/>
<ellipse cx="198.649" cy="182.797" rx="92.5385" ry="91.3987" fill="#D9D9D9" fill-opacity="0.74"/>
<path d="M148.741 188.69H151.201V181.651H155.765C159.469 181.651 162.093 179.041 162.093 175.297V175.269C162.093 171.525 159.469 168.969 155.765 168.969H148.741V188.69ZM155.137 171.156C157.952 171.156 159.578 172.7 159.578 175.297V175.324C159.578 177.921 157.952 179.465 155.137 179.465H151.201V171.156H155.137ZM164.553 188.69H166.931V179.916C166.931 177.757 168.133 176.472 169.978 176.472C170.552 176.472 171.058 176.54 171.249 176.609V174.299C171.058 174.272 170.703 174.203 170.293 174.203C168.694 174.203 167.464 175.242 166.985 176.882H166.931V174.477H164.553V188.69ZM178.397 188.963C182.319 188.963 184.97 186.12 184.97 181.583V181.556C184.97 177.019 182.305 174.203 178.383 174.203C174.461 174.203 171.81 177.032 171.81 181.556V181.583C171.81 186.107 174.447 188.963 178.397 188.963ZM178.411 186.858C175.896 186.858 174.242 184.931 174.242 181.583V181.556C174.242 178.235 175.91 176.308 178.383 176.308C180.898 176.308 182.538 178.221 182.538 181.556V181.583C182.538 184.918 180.912 186.858 178.411 186.858ZM194.441 188.963C198.077 188.963 200.482 186.066 200.482 181.583V181.569C200.482 177.087 198.049 174.203 194.482 174.203C192.473 174.203 190.82 175.215 189.931 176.855H189.877V168.969H187.499V188.69H189.877V186.284H189.931C190.82 187.938 192.405 188.963 194.441 188.963ZM193.977 186.858C191.571 186.858 189.863 184.767 189.863 181.583V181.569C189.863 178.399 191.585 176.308 193.977 176.308C196.491 176.308 198.049 178.331 198.049 181.569V181.583C198.049 184.849 196.491 186.858 193.977 186.858ZM202.997 188.69H205.374V168.969H202.997V188.69ZM214.435 188.963C217.538 188.963 219.861 187.104 220.326 184.754L220.353 184.617H218.016L217.975 184.74C217.565 185.956 216.294 186.858 214.49 186.858C211.962 186.858 210.349 185.15 210.294 182.225H220.531V181.351C220.531 177.087 218.166 174.203 214.285 174.203C210.404 174.203 207.889 177.224 207.889 181.624V181.638C207.889 186.107 210.349 188.963 214.435 188.963ZM214.271 176.308C216.349 176.308 217.879 177.606 218.112 180.367H210.335C210.595 177.716 212.208 176.308 214.271 176.308ZM222.936 188.69H225.314V179.779C225.314 177.798 226.68 176.308 228.566 176.308C230.329 176.308 231.477 177.442 231.477 179.164V188.69H233.855V179.656C233.855 177.716 235.181 176.308 237.067 176.308C238.939 176.308 240.019 177.47 240.019 179.424V188.69H242.397V178.877C242.397 176.048 240.579 174.203 237.764 174.203C235.769 174.203 234.101 175.228 233.309 176.937H233.254C232.639 175.201 231.204 174.203 229.263 174.203C227.432 174.203 226.011 175.146 225.369 176.554H225.314V174.477H222.936V188.69Z" fill="#313F41"/>
</svg>
