<svg width="928" height="814" viewBox="0 0 928 814" fill="none" xmlns="http://www.w3.org/2000/svg">
<rect x="43" y="186" width="768" height="520" fill="white"/>
<path d="M169.398 21.1726V17.9438H162.94V21.1726H169.398ZM169.398 683.083L169.398 21.1726H162.94L162.94 683.083H169.398Z" fill="#153314"/>
<path d="M883.045 687.913H886.274V681.456H883.045V687.913ZM162.966 687.913H883.045V681.456H162.966V687.913Z" fill="#153314"/>
<path d="M411.264 786.356H414.092V813.478H411.264V786.356ZM394.293 813.478H391.426V786.356H394.293V813.478ZM411.535 800.963H393.983V798.445H411.535V800.963ZM430.655 813.672C428.692 813.672 426.923 813.233 425.347 812.355C423.797 811.451 422.57 810.224 421.666 808.674C420.762 807.098 420.31 805.303 420.31 803.288C420.31 801.248 420.762 799.452 421.666 797.902C422.57 796.353 423.797 795.139 425.347 794.26C426.897 793.382 428.666 792.943 430.655 792.943C432.67 792.943 434.452 793.382 436.002 794.26C437.578 795.139 438.805 796.353 439.683 797.902C440.587 799.452 441.039 801.248 441.039 803.288C441.039 805.303 440.587 807.098 439.683 808.674C438.805 810.224 437.578 811.451 436.002 812.355C434.427 813.233 432.644 813.672 430.655 813.672ZM430.655 811.231C432.128 811.231 433.432 810.908 434.569 810.262C435.705 809.591 436.596 808.661 437.242 807.473C437.914 806.259 438.25 804.864 438.25 803.288C438.25 801.687 437.914 800.292 437.242 799.104C436.596 797.915 435.705 796.998 434.569 796.353C433.432 795.681 432.141 795.345 430.694 795.345C429.248 795.345 427.956 795.681 426.819 796.353C425.683 796.998 424.779 797.915 424.107 799.104C423.436 800.292 423.1 801.687 423.1 803.288C423.1 804.864 423.436 806.259 424.107 807.473C424.779 808.661 425.683 809.591 426.819 810.262C427.956 810.908 429.235 811.231 430.655 811.231ZM455.063 813.672C453.333 813.672 451.822 813.349 450.53 812.703C449.239 812.058 448.231 811.089 447.508 809.797C446.811 808.506 446.462 806.892 446.462 804.954V793.137H449.213V804.644C449.213 806.814 449.742 808.454 450.801 809.565C451.886 810.65 453.397 811.192 455.335 811.192C456.755 811.192 457.982 810.908 459.016 810.34C460.075 809.746 460.875 808.893 461.418 807.783C461.986 806.672 462.27 805.342 462.27 803.792V793.137H465.021V813.478H462.386V807.899L462.813 808.906C462.167 810.404 461.159 811.58 459.79 812.432C458.447 813.259 456.872 813.672 455.063 813.672ZM472.688 813.478V793.137H475.323V798.677L475.052 797.709C475.62 796.159 476.576 794.984 477.919 794.183C479.262 793.356 480.928 792.943 482.917 792.943V795.616C482.814 795.616 482.71 795.616 482.607 795.616C482.504 795.591 482.4 795.578 482.297 795.578C480.153 795.578 478.474 796.236 477.26 797.554C476.046 798.845 475.439 800.692 475.439 803.094V813.478H472.688ZM493.627 813.672C491.948 813.672 490.359 813.44 488.861 812.975C487.363 812.484 486.188 811.877 485.335 811.154L486.575 808.984C487.402 809.604 488.461 810.146 489.752 810.611C491.044 811.05 492.4 811.27 493.821 811.27C495.758 811.27 497.153 810.973 498.005 810.379C498.858 809.759 499.284 808.945 499.284 807.938C499.284 807.189 499.038 806.607 498.548 806.194C498.083 805.755 497.463 805.432 496.688 805.225C495.913 804.993 495.048 804.799 494.092 804.644C493.136 804.489 492.18 804.308 491.225 804.102C490.295 803.895 489.442 803.598 488.667 803.211C487.892 802.797 487.26 802.242 486.769 801.545C486.304 800.847 486.071 799.917 486.071 798.755C486.071 797.644 486.381 796.65 487.001 795.771C487.621 794.893 488.525 794.209 489.714 793.718C490.928 793.201 492.4 792.943 494.131 792.943C495.448 792.943 496.765 793.124 498.083 793.485C499.4 793.821 500.485 794.273 501.337 794.842L500.136 797.05C499.232 796.43 498.264 795.991 497.23 795.733C496.197 795.449 495.164 795.306 494.131 795.306C492.297 795.306 490.941 795.629 490.062 796.275C489.21 796.895 488.784 797.696 488.784 798.677C488.784 799.452 489.016 800.059 489.481 800.498C489.972 800.938 490.605 801.286 491.38 801.545C492.18 801.777 493.046 801.971 493.976 802.126C494.931 802.281 495.874 802.474 496.804 802.707C497.76 802.914 498.625 803.211 499.4 803.598C500.201 803.96 500.834 804.489 501.299 805.187C501.789 805.858 502.035 806.749 502.035 807.86C502.035 809.048 501.699 810.082 501.027 810.96C500.382 811.812 499.426 812.484 498.16 812.975C496.92 813.44 495.409 813.672 493.627 813.672ZM522.686 813.672C521.007 813.672 519.419 813.44 517.921 812.975C516.422 812.484 515.247 811.877 514.395 811.154L515.635 808.984C516.461 809.604 517.52 810.146 518.812 810.611C520.103 811.05 521.459 811.27 522.88 811.27C524.817 811.27 526.212 810.973 527.065 810.379C527.917 809.759 528.343 808.945 528.343 807.938C528.343 807.189 528.098 806.607 527.607 806.194C527.142 805.755 526.522 805.432 525.747 805.225C524.972 804.993 524.107 804.799 523.151 804.644C522.196 804.489 521.24 804.308 520.284 804.102C519.354 803.895 518.502 803.598 517.727 803.211C516.952 802.797 516.319 802.242 515.828 801.545C515.363 800.847 515.131 799.917 515.131 798.755C515.131 797.644 515.441 796.65 516.061 795.771C516.681 794.893 517.585 794.209 518.773 793.718C519.987 793.201 521.459 792.943 523.19 792.943C524.507 792.943 525.825 793.124 527.142 793.485C528.46 793.821 529.544 794.273 530.397 794.842L529.196 797.05C528.292 796.43 527.323 795.991 526.29 795.733C525.257 795.449 524.223 795.306 523.19 795.306C521.356 795.306 520 795.629 519.122 796.275C518.269 796.895 517.843 797.696 517.843 798.677C517.843 799.452 518.076 800.059 518.541 800.498C519.031 800.938 519.664 801.286 520.439 801.545C521.24 801.777 522.105 801.971 523.035 802.126C523.991 802.281 524.934 802.474 525.864 802.707C526.819 802.914 527.685 803.211 528.46 803.598C529.26 803.96 529.893 804.489 530.358 805.187C530.849 805.858 531.094 806.749 531.094 807.86C531.094 809.048 530.758 810.082 530.087 810.96C529.441 811.812 528.485 812.484 527.22 812.975C525.98 813.44 524.469 813.672 522.686 813.672ZM542.574 813.672C540.662 813.672 539.19 813.155 538.157 812.122C537.124 811.089 536.607 809.63 536.607 807.744V788.642H539.358V807.589C539.358 808.777 539.655 809.694 540.249 810.34C540.869 810.986 541.747 811.309 542.884 811.309C544.098 811.309 545.105 810.96 545.906 810.262L546.875 812.238C546.332 812.729 545.674 813.091 544.899 813.323C544.15 813.556 543.375 813.672 542.574 813.672ZM532.965 795.423V793.137H545.557V795.423H532.965ZM560.291 813.672C558.56 813.672 557.049 813.349 555.757 812.703C554.466 812.058 553.458 811.089 552.735 809.797C552.038 808.506 551.689 806.892 551.689 804.954V793.137H554.44V804.644C554.44 806.814 554.969 808.454 556.028 809.565C557.113 810.65 558.624 811.192 560.562 811.192C561.982 811.192 563.209 810.908 564.243 810.34C565.302 809.746 566.102 808.893 566.645 807.783C567.213 806.672 567.497 805.342 567.497 803.792V793.137H570.248V813.478H567.614V807.899L568.04 808.906C567.394 810.404 566.387 811.58 565.018 812.432C563.674 813.259 562.099 813.672 560.291 813.672ZM586.013 813.672C584.076 813.672 582.332 813.233 580.782 812.355C579.258 811.476 578.057 810.262 577.179 808.713C576.301 807.137 575.862 805.329 575.862 803.288C575.862 801.222 576.301 799.414 577.179 797.864C578.057 796.314 579.258 795.113 580.782 794.26C582.332 793.382 584.076 792.943 586.013 792.943C587.795 792.943 589.384 793.343 590.779 794.144C592.199 794.945 593.323 796.12 594.15 797.67C595.002 799.194 595.428 801.067 595.428 803.288C595.428 805.484 595.015 807.356 594.188 808.906C593.362 810.456 592.238 811.644 590.818 812.471C589.423 813.272 587.821 813.672 586.013 813.672ZM586.207 811.231C587.653 811.231 588.945 810.908 590.081 810.262C591.244 809.591 592.148 808.661 592.794 807.473C593.465 806.259 593.801 804.864 593.801 803.288C593.801 801.687 593.465 800.292 592.794 799.104C592.148 797.915 591.244 796.998 590.081 796.353C588.945 795.681 587.653 795.345 586.207 795.345C584.786 795.345 583.507 795.681 582.371 796.353C581.234 796.998 580.33 797.915 579.659 799.104C578.987 800.292 578.651 801.687 578.651 803.288C578.651 804.864 578.987 806.259 579.659 807.473C580.33 808.661 581.234 809.591 582.371 810.262C583.507 810.908 584.786 811.231 586.207 811.231ZM593.878 813.478V807.356L594.15 803.249L593.762 799.142V784.729H596.513V813.478H593.878ZM604.175 813.478V793.137H606.926V813.478H604.175ZM605.569 788.642C605.001 788.642 604.523 788.448 604.136 788.061C603.748 787.674 603.555 787.209 603.555 786.666C603.555 786.124 603.748 785.672 604.136 785.31C604.523 784.923 605.001 784.729 605.569 784.729C606.138 784.729 606.616 784.91 607.003 785.271C607.391 785.633 607.584 786.085 607.584 786.627C607.584 787.196 607.391 787.674 607.003 788.061C606.641 788.448 606.164 788.642 605.569 788.642ZM623.22 813.672C621.102 813.672 619.242 813.233 617.641 812.355C616.039 811.451 614.787 810.224 613.883 808.674C612.979 807.098 612.526 805.303 612.526 803.288C612.526 801.273 612.953 799.491 613.805 797.941C614.683 796.391 615.872 795.177 617.37 794.299C618.894 793.395 620.599 792.943 622.484 792.943C624.396 792.943 626.088 793.382 627.56 794.26C629.058 795.113 630.233 796.327 631.086 797.902C631.938 799.452 632.364 801.248 632.364 803.288C632.364 803.417 632.352 803.559 632.326 803.714C632.326 803.844 632.326 803.986 632.326 804.141H614.619V802.087H630.853L629.768 802.901C629.768 801.428 629.446 800.124 628.8 798.987C628.18 797.825 627.327 796.921 626.243 796.275C625.158 795.629 623.905 795.306 622.484 795.306C621.089 795.306 619.837 795.629 618.726 796.275C617.615 796.921 616.75 797.825 616.13 798.987C615.51 800.15 615.2 801.48 615.2 802.978V803.404C615.2 804.954 615.536 806.323 616.207 807.511C616.905 808.674 617.861 809.591 619.075 810.262C620.314 810.908 621.722 811.231 623.298 811.231C624.538 811.231 625.687 811.012 626.746 810.572C627.831 810.133 628.761 809.462 629.536 808.558L631.086 810.34C630.182 811.425 629.045 812.251 627.676 812.82C626.333 813.388 624.848 813.672 623.22 813.672ZM646.062 813.672C644.124 813.672 642.381 813.233 640.831 812.355C639.307 811.476 638.106 810.262 637.228 808.713C636.349 807.137 635.91 805.329 635.91 803.288C635.91 801.222 636.349 799.414 637.228 797.864C638.106 796.314 639.307 795.113 640.831 794.26C642.381 793.382 644.124 792.943 646.062 792.943C647.844 792.943 649.433 793.343 650.827 794.144C652.248 794.945 653.372 796.12 654.198 797.67C655.051 799.194 655.477 801.067 655.477 803.288C655.477 805.484 655.064 807.356 654.237 808.906C653.411 810.456 652.287 811.644 650.866 812.471C649.471 813.272 647.87 813.672 646.062 813.672ZM646.255 811.231C647.702 811.231 648.993 810.908 650.13 810.262C651.292 809.591 652.196 808.661 652.842 807.473C653.514 806.259 653.85 804.864 653.85 803.288C653.85 801.687 653.514 800.292 652.842 799.104C652.196 797.915 651.292 796.998 650.13 796.353C648.993 795.681 647.702 795.345 646.255 795.345C644.835 795.345 643.556 795.681 642.42 796.353C641.283 796.998 640.379 797.915 639.707 799.104C639.036 800.292 638.7 801.687 638.7 803.288C638.7 804.864 639.036 806.259 639.707 807.473C640.379 808.661 641.283 809.591 642.42 810.262C643.556 810.908 644.835 811.231 646.255 811.231ZM653.927 813.478V807.356L654.198 803.249L653.811 799.142V784.729H656.562V813.478H653.927Z" fill="#124012"/>
<path d="M22.0053 468.278V453.942H24.4463V468.278H22.0053ZM34.5203 467.968V451.656H37V470.835H9.87782L9.87782 452.237H12.3576L12.3576 467.968H34.5203ZM37 449.165L25.8412 440.563L27.1973 440.602L16.6584 448.777L16.6584 445.677L25.3762 438.974L25.3375 440.137L16.6584 433.434V430.412L27.3135 438.664L25.8412 438.626L37 429.947V433.085L27.701 440.176L27.856 439.091L37 446.065V449.165ZM37 412.999H32.5055L31.7693 413.115H24.2526C22.5219 413.115 21.1916 413.606 20.2617 414.587C19.3318 415.543 18.8669 416.977 18.8669 418.888C18.8669 420.205 19.0864 421.458 19.5256 422.646C19.9647 423.835 20.5459 424.842 21.2691 425.669L19.2156 426.908C18.3374 425.875 17.6658 424.635 17.2008 423.189C16.71 421.742 16.4646 420.218 16.4646 418.617C16.4646 415.982 17.1233 413.954 18.4407 412.534C19.7322 411.087 21.7083 410.364 24.3688 410.364H37V412.999ZM37.1937 420.012C37.1937 421.536 36.9483 422.866 36.4576 424.002C35.9409 425.113 35.2435 425.966 34.3653 426.56C33.4612 427.154 32.428 427.451 31.2656 427.451C30.2065 427.451 29.2508 427.205 28.3984 426.715C27.5202 426.198 26.8227 425.371 26.3061 424.235C25.7637 423.073 25.4924 421.523 25.4924 419.585V412.572H27.546V419.508C27.546 421.471 27.8947 422.84 28.5921 423.615C29.2896 424.364 30.1549 424.739 31.1881 424.739C32.3505 424.739 33.2804 424.287 33.9778 423.383C34.6752 422.478 35.024 421.213 35.024 419.585C35.024 418.036 34.6752 416.705 33.9778 415.595C33.2546 414.458 32.2213 413.631 30.8781 413.115L32.7767 412.495C34.1199 413.012 35.1919 413.916 35.9926 415.207C36.7934 416.473 37.1937 418.074 37.1937 420.012ZM16.4646 377.475C16.4646 375.821 16.7875 374.388 17.4333 373.174C18.0532 371.934 19.009 370.978 20.3005 370.307C21.592 369.609 23.2193 369.26 25.1825 369.26H37V372.011H25.4537C23.3098 372.011 21.6953 372.528 20.6105 373.561C19.4997 374.569 18.9444 376.002 18.9444 377.862C18.9444 379.257 19.2414 380.471 19.8355 381.504C20.4038 382.512 21.2433 383.299 22.354 383.868C23.4389 384.41 24.7563 384.681 26.3061 384.681H37V387.432H25.4537C23.3098 387.432 21.6953 387.949 20.6105 388.982C19.4997 390.015 18.9444 391.462 18.9444 393.322C18.9444 394.691 19.2414 395.892 19.8355 396.925C20.4038 397.958 21.2433 398.759 22.354 399.327C23.4389 399.87 24.7563 400.141 26.3061 400.141H37V402.892H16.6584V400.257H22.1603L21.1916 400.683C19.7193 400.063 18.5698 399.069 17.7433 397.7C16.8908 396.305 16.4646 394.665 16.4646 392.779C16.4646 390.79 16.9683 389.098 17.9757 387.704C18.9573 386.309 20.4426 385.405 22.4315 384.991L22.0053 386.076C20.3521 385.482 19.0219 384.436 18.0145 382.938C16.9812 381.414 16.4646 379.593 16.4646 377.475ZM37.2325 343.6C37.2325 345.615 36.9096 347.552 36.2638 349.412C35.5922 351.246 34.7398 352.667 33.7066 353.674L31.4981 352.551C32.428 351.595 33.2158 350.316 33.8616 348.715C34.4815 347.087 34.7915 345.383 34.7915 343.6C34.7915 341.895 34.5848 340.514 34.1715 339.454C33.7324 338.37 33.1512 337.582 32.428 337.091C31.7047 336.574 30.904 336.316 30.0257 336.316C28.9667 336.316 28.1143 336.626 27.4685 337.246C26.8227 337.84 26.319 338.628 25.9574 339.609C25.5699 340.591 25.2341 341.676 24.95 342.864C24.6659 344.052 24.3688 345.241 24.0588 346.429C23.723 347.617 23.2839 348.715 22.7415 349.722C22.199 350.704 21.4887 351.504 20.6105 352.124C19.7064 352.719 18.5311 353.016 17.0846 353.016C15.7414 353.016 14.5144 352.667 13.4037 351.969C12.2672 351.246 11.3631 350.148 10.6915 348.676C9.99406 347.204 9.64534 345.318 9.64534 343.019C9.64534 341.495 9.8649 339.984 10.304 338.486C10.7173 336.988 11.2985 335.696 12.0476 334.611L14.3336 335.58C13.5587 336.742 12.9904 337.982 12.6288 339.3C12.2672 340.591 12.0863 341.844 12.0863 343.058C12.0863 344.685 12.3059 346.028 12.745 347.087C13.1841 348.147 13.7782 348.934 14.5273 349.451C15.2506 349.942 16.0772 350.187 17.0071 350.187C18.0661 350.187 18.9185 349.89 19.5643 349.296C20.2101 348.676 20.7138 347.875 21.0754 346.894C21.437 345.886 21.7599 344.789 22.0441 343.6C22.3282 342.412 22.6382 341.237 22.974 340.074C23.3098 338.886 23.7489 337.801 24.2913 336.82C24.8079 335.812 25.5054 335.012 26.3836 334.418C27.2618 333.798 28.4113 333.488 29.832 333.488C31.1494 333.488 32.3763 333.849 33.5129 334.573C34.6236 335.296 35.5277 336.406 36.2251 337.905C36.8967 339.377 37.2325 341.276 37.2325 343.6ZM37.1937 319.375C37.1937 321.39 36.7546 323.198 35.8764 324.799C34.9723 326.375 33.7453 327.615 32.1955 328.519C30.6198 329.423 28.8246 329.875 26.8098 329.875C24.7692 329.875 22.974 329.423 21.4241 328.519C19.8743 327.615 18.6602 326.375 17.782 324.799C16.9038 323.198 16.4646 321.39 16.4646 319.375C16.4646 317.644 16.8004 316.082 17.472 314.687C18.1436 313.292 19.151 312.194 20.4942 311.393L21.8891 313.447C20.8558 314.144 20.0938 315.01 19.6031 316.043C19.1123 317.076 18.8669 318.2 18.8669 319.414C18.8669 320.86 19.2027 322.165 19.8743 323.327C20.52 324.489 21.437 325.406 22.6252 326.078C23.8135 326.75 25.2083 327.085 26.8098 327.085C28.4113 327.085 29.8062 326.75 30.9944 326.078C32.1826 325.406 33.1125 324.489 33.7841 323.327C34.4299 322.165 34.7527 320.86 34.7527 319.414C34.7527 318.2 34.5073 317.076 34.0166 316.043C33.5258 315.01 32.7767 314.144 31.7693 313.447L33.1641 311.393C34.4815 312.194 35.4889 313.292 36.1863 314.687C36.8579 316.082 37.1937 317.644 37.1937 319.375ZM37.1937 298.038C37.1937 300.001 36.7546 301.771 35.8764 303.346C34.9723 304.896 33.7453 306.123 32.1955 307.027C30.6198 307.931 28.8246 308.383 26.8098 308.383C24.7692 308.383 22.974 307.931 21.4241 307.027C19.8743 306.123 18.6602 304.896 17.782 303.346C16.9038 301.796 16.4646 300.027 16.4646 298.038C16.4646 296.023 16.9038 294.241 17.782 292.691C18.6602 291.115 19.8743 289.889 21.4241 289.01C22.974 288.106 24.7692 287.654 26.8098 287.654C28.8246 287.654 30.6198 288.106 32.1955 289.01C33.7453 289.889 34.9723 291.115 35.8764 292.691C36.7546 294.267 37.1937 296.049 37.1937 298.038ZM34.7527 298.038C34.7527 296.566 34.4299 295.261 33.7841 294.125C33.1125 292.988 32.1826 292.097 30.9944 291.451C29.7803 290.78 28.3855 290.444 26.8098 290.444C25.2083 290.444 23.8135 290.78 22.6252 291.451C21.437 292.097 20.52 292.988 19.8743 294.125C19.2027 295.261 18.8669 296.553 18.8669 297.999C18.8669 299.446 19.2027 300.737 19.8743 301.874C20.52 303.01 21.437 303.915 22.6252 304.586C23.8135 305.258 25.2083 305.594 26.8098 305.594C28.3855 305.594 29.7803 305.258 30.9944 304.586C32.1826 303.915 33.1125 303.01 33.7841 301.874C34.4299 300.737 34.7527 299.459 34.7527 298.038ZM37 282.038H16.6584V279.403H22.199L21.2304 279.674C19.6806 279.106 18.5053 278.15 17.7045 276.807C16.8779 275.464 16.4646 273.798 16.4646 271.809H19.1381C19.1381 271.912 19.1381 272.016 19.1381 272.119C19.1123 272.222 19.0994 272.325 19.0994 272.429C19.0994 274.573 19.758 276.252 21.0754 277.466C22.3669 278.68 24.2138 279.287 26.6161 279.287H37V282.038ZM37.1937 258.338C37.1937 260.456 36.7546 262.316 35.8764 263.917C34.9723 265.519 33.7453 266.772 32.1955 267.676C30.6198 268.58 28.8246 269.032 26.8098 269.032C24.795 269.032 23.0127 268.606 21.4629 267.753C19.913 266.875 18.699 265.687 17.8207 264.189C16.9167 262.665 16.4646 260.96 16.4646 259.074C16.4646 257.163 16.9038 255.471 17.782 253.998C18.6344 252.5 19.8484 251.325 21.4241 250.473C22.974 249.62 24.7692 249.194 26.8098 249.194C26.939 249.194 27.081 249.207 27.236 249.233C27.3652 249.233 27.5072 249.233 27.6622 249.233V266.94H25.6087V250.705L26.4223 251.79C24.95 251.79 23.6456 252.113 22.509 252.759C21.3466 253.379 20.4426 254.231 19.7968 255.316C19.151 256.401 18.8281 257.653 18.8281 259.074C18.8281 260.469 19.151 261.722 19.7968 262.833C20.4426 263.943 21.3466 264.809 22.509 265.429C23.6714 266.048 25.0017 266.358 26.4998 266.358H26.926C28.4759 266.358 29.8449 266.023 31.0331 265.351C32.1955 264.654 33.1125 263.698 33.7841 262.484C34.4299 261.244 34.7527 259.836 34.7527 258.26C34.7527 257.021 34.5332 255.871 34.0941 254.812C33.6549 253.727 32.9833 252.797 32.0793 252.022L33.8616 250.473C34.9465 251.377 35.773 252.513 36.3413 253.882C36.9096 255.225 37.1937 256.711 37.1937 258.338Z" fill="#124012"/>
<path d="M856.668 228.495C857.439 228.047 857.701 227.059 857.253 226.288C856.805 225.517 855.817 225.255 855.046 225.703L856.668 228.495ZM164.85 630.401L856.668 228.495L855.046 225.703L163.228 627.609L164.85 630.401Z" fill="#7CBC7A"/>
<circle cx="340.552" cy="69.5921" r="8.07208" fill="#D9D9D9" stroke="#124012" stroke-width="3.22883"/>
<circle cx="379.298" cy="111.567" r="8.07208" fill="#D9D9D9" stroke="#124012" stroke-width="3.22883"/>
<circle cx="482.621" cy="111.567" r="8.07208" fill="#D9D9D9" stroke="#124012" stroke-width="3.22883"/>
<circle cx="482.621" cy="79.2786" r="8.07208" fill="#D9D9D9" stroke="#124012" stroke-width="3.22883"/>
<circle cx="511.68" cy="82.5074" r="8.07208" fill="#D9D9D9" stroke="#124012" stroke-width="3.22883"/>
<circle cx="521.367" cy="121.253" r="8.07208" fill="#D9D9D9" stroke="#124012" stroke-width="3.22883"/>
<circle cx="540.74" cy="153.542" r="8.07208" fill="#D9D9D9" stroke="#124012" stroke-width="3.22883"/>
<circle cx="472.934" cy="172.915" r="8.07208" fill="#D9D9D9" stroke="#124012" stroke-width="3.22883"/>
<circle cx="414.815" cy="195.517" r="8.07208" fill="#D9D9D9" stroke="#124012" stroke-width="3.22883"/>
<circle cx="482.621" cy="218.118" r="8.07208" fill="#D9D9D9" stroke="#124012" stroke-width="3.22883"/>
<circle cx="418.044" cy="240.72" r="8.07208" fill="#D9D9D9" stroke="#124012" stroke-width="3.22883"/>
<circle cx="285.662" cy="418.319" r="8.07208" fill="#D9D9D9" stroke="#124012" stroke-width="3.22883"/>
<circle cx="285.662" cy="618.506" r="8.07208" fill="#D9D9D9" stroke="#124012" stroke-width="3.22883"/>
<circle cx="414.815" cy="566.845" r="8.07208" fill="#D9D9D9" stroke="#124012" stroke-width="3.22883"/>
<circle cx="543.968" cy="563.616" r="8.07208" fill="#D9D9D9" stroke="#124012" stroke-width="3.22883"/>
<circle cx="618.232" cy="502.268" r="8.07208" fill="#D9D9D9" stroke="#124012" stroke-width="3.22883"/>
<circle cx="650.52" cy="250.42" r="8.07208" fill="#D9D9D9" stroke="#124012" stroke-width="3.22883"/>
<circle cx="647.291" cy="98.6645" r="8.07208" fill="#D9D9D9" stroke="#124012" stroke-width="3.22883"/>
<circle cx="566.57" cy="237.504" r="8.07208" fill="#D9D9D9" stroke="#124012" stroke-width="3.22883"/>
<circle cx="453.561" cy="308.538" r="8.07208" fill="#D9D9D9" stroke="#124012" stroke-width="3.22883"/>
<circle cx="392.213" cy="376.344" r="8.07208" fill="#D9D9D9" stroke="#124012" stroke-width="3.22883"/>
<circle cx="434.188" cy="437.692" r="8.07208" fill="#D9D9D9" stroke="#124012" stroke-width="3.22883"/>
<circle cx="679.579" cy="208.445" r="8.07208" fill="#D9D9D9" stroke="#124012" stroke-width="3.22883"/>
<circle cx="582.714" cy="63.1474" r="8.07208" fill="#D9D9D9" stroke="#124012" stroke-width="3.22883"/>
<circle cx="224.314" cy="508.726" r="8.07208" fill="#D9D9D9" stroke="#124012" stroke-width="3.22883"/>
<circle cx="382.527" cy="289.153" r="8.07208" fill="#D9D9D9" stroke="#124012" stroke-width="3.22883"/>
<circle cx="224.314" cy="379.573" r="8.07208" fill="#D9D9D9" stroke="#124012" stroke-width="3.22883"/>
<circle cx="608.545" cy="405.39" r="8.07208" fill="#D9D9D9" stroke="#124012" stroke-width="3.22883"/>
<circle cx="660.206" cy="405.39" r="8.07208" fill="#D9D9D9" stroke="#124012" stroke-width="3.22883"/>
<circle cx="669.893" cy="376.331" r="8.07208" fill="#D9D9D9" stroke="#124012" stroke-width="3.22883"/>
<circle cx="627.918" cy="376.331" r="8.07208" fill="#D9D9D9" stroke="#124012" stroke-width="3.22883"/>
<circle cx="618.232" cy="308.526" r="8.07208" fill="#D9D9D9" stroke="#124012" stroke-width="3.22883"/>
<circle cx="708.639" cy="279.466" r="8.07208" fill="#D9D9D9" stroke="#124012" stroke-width="3.22883"/>
<circle cx="737.698" cy="227.805" r="8.07208" fill="#D9D9D9" stroke="#124012" stroke-width="3.22883"/>
<circle cx="737.698" cy="163.228" r="8.07208" fill="#D9D9D9" stroke="#124012" stroke-width="3.22883"/>
<circle cx="521.367" cy="366.645" r="8.07208" fill="#D9D9D9" stroke="#124012" stroke-width="3.22883"/>
<circle cx="501.994" cy="450.594" r="8.07208" fill="#D9D9D9" stroke="#124012" stroke-width="3.22883"/>
<circle cx="327.637" cy="198.745" r="8.07208" fill="#D9D9D9" stroke="#124012" stroke-width="3.22883"/>
<circle cx="350.239" cy="153.542" r="8.07208" fill="#D9D9D9" stroke="#124012" stroke-width="3.22883"/>
<circle cx="285.662" cy="137.398" r="8.07208" fill="#D9D9D9" stroke="#124012" stroke-width="3.22883"/>
<path d="M159.647 739.66C157.555 739.66 155.695 739.117 154.068 738.033C152.44 736.922 151.162 735.346 150.232 733.306C149.302 731.239 148.837 728.759 148.837 725.866C148.837 722.973 149.302 720.506 150.232 718.466C151.162 716.399 152.44 714.824 154.068 713.739C155.695 712.628 157.555 712.073 159.647 712.073C161.739 712.073 163.599 712.628 165.227 713.739C166.854 714.824 168.132 716.399 169.062 718.466C170.018 720.506 170.496 722.973 170.496 725.866C170.496 728.759 170.018 731.239 169.062 733.306C168.132 735.346 166.854 736.922 165.227 738.033C163.599 739.117 161.739 739.66 159.647 739.66ZM159.647 737.103C161.249 737.103 162.643 736.676 163.832 735.824C165.02 734.946 165.95 733.68 166.621 732.027C167.293 730.348 167.629 728.294 167.629 725.866C167.629 723.438 167.293 721.398 166.621 719.744C165.95 718.065 165.02 716.8 163.832 715.947C162.643 715.069 161.249 714.63 159.647 714.63C158.097 714.63 156.715 715.069 155.501 715.947C154.287 716.8 153.344 718.065 152.673 719.744C152.001 721.398 151.665 723.438 151.665 725.866C151.665 728.294 152.001 730.348 152.673 732.027C153.344 733.68 154.287 734.946 155.501 735.824C156.715 736.676 158.097 737.103 159.647 737.103Z" fill="black"/>
<path d="M267.8 739.427V737.451L279.075 726.409C280.108 725.401 280.883 724.523 281.4 723.774C281.917 722.999 282.265 722.276 282.446 721.604C282.627 720.933 282.717 720.3 282.717 719.706C282.717 718.13 282.175 716.89 281.09 715.986C280.031 715.082 278.455 714.63 276.363 714.63C274.761 714.63 273.341 714.875 272.101 715.366C270.887 715.857 269.841 716.619 268.963 717.652L266.986 715.947C268.046 714.707 269.402 713.752 271.055 713.08C272.708 712.409 274.555 712.073 276.595 712.073C278.429 712.073 280.018 712.37 281.361 712.964C282.704 713.532 283.738 714.372 284.461 715.482C285.21 716.593 285.585 717.898 285.585 719.396C285.585 720.274 285.455 721.139 285.197 721.992C284.965 722.844 284.525 723.748 283.88 724.704C283.26 725.634 282.343 726.693 281.129 727.881L270.784 738.033L270.009 736.948H286.824V739.427H267.8ZM301.06 739.66C298.968 739.66 297.108 739.117 295.48 738.033C293.853 736.922 292.575 735.346 291.645 733.306C290.715 731.239 290.25 728.759 290.25 725.866C290.25 722.973 290.715 720.506 291.645 718.466C292.575 716.399 293.853 714.824 295.48 713.739C297.108 712.628 298.968 712.073 301.06 712.073C303.152 712.073 305.012 712.628 306.639 713.739C308.267 714.824 309.545 716.399 310.475 718.466C311.431 720.506 311.909 722.973 311.909 725.866C311.909 728.759 311.431 731.239 310.475 733.306C309.545 735.346 308.267 736.922 306.639 738.033C305.012 739.117 303.152 739.66 301.06 739.66ZM301.06 737.103C302.661 737.103 304.056 736.676 305.244 735.824C306.433 734.946 307.363 733.68 308.034 732.027C308.706 730.348 309.042 728.294 309.042 725.866C309.042 723.438 308.706 721.398 308.034 719.744C307.363 718.065 306.433 716.8 305.244 715.947C304.056 715.069 302.661 714.63 301.06 714.63C299.51 714.63 298.128 715.069 296.914 715.947C295.7 716.8 294.757 718.065 294.086 719.744C293.414 721.398 293.078 723.438 293.078 725.866C293.078 728.294 293.414 730.348 294.086 732.027C294.757 733.68 295.7 734.946 296.914 735.824C298.128 736.676 299.51 737.103 301.06 737.103Z" fill="black"/>
<path d="M406.679 732.298V730.283L421.053 712.305H424.153L409.895 730.283L408.383 729.818H430.197V732.298H406.679ZM421.983 739.427V732.298L422.061 729.818V723.542H424.773V739.427H421.983ZM443.57 739.66C441.478 739.66 439.618 739.117 437.99 738.033C436.363 736.922 435.085 735.346 434.155 733.306C433.225 731.239 432.76 728.759 432.76 725.866C432.76 722.973 433.225 720.506 434.155 718.466C435.085 716.399 436.363 714.824 437.99 713.739C439.618 712.628 441.478 712.073 443.57 712.073C445.662 712.073 447.522 712.628 449.149 713.739C450.777 714.824 452.055 716.399 452.985 718.466C453.941 720.506 454.419 722.973 454.419 725.866C454.419 728.759 453.941 731.239 452.985 733.306C452.055 735.346 450.777 736.922 449.149 738.033C447.522 739.117 445.662 739.66 443.57 739.66ZM443.57 737.103C445.171 737.103 446.566 736.676 447.754 735.824C448.943 734.946 449.873 733.68 450.544 732.027C451.216 730.348 451.552 728.294 451.552 725.866C451.552 723.438 451.216 721.398 450.544 719.744C449.873 718.065 448.943 716.8 447.754 715.947C446.566 715.069 445.171 714.63 443.57 714.63C442.02 714.63 440.638 715.069 439.424 715.947C438.21 716.8 437.267 718.065 436.596 719.744C435.924 721.398 435.588 723.438 435.588 725.866C435.588 728.294 435.924 730.348 436.596 732.027C437.267 733.68 438.21 734.946 439.424 735.824C440.638 736.676 442.02 737.103 443.57 737.103Z" fill="black"/>
<path d="M557.103 739.66C554.701 739.66 552.673 739.13 551.02 738.071C549.367 736.986 548.114 735.437 547.262 733.422C546.409 731.381 545.983 728.94 545.983 726.099C545.983 723.025 546.5 720.455 547.533 718.388C548.592 716.296 550.052 714.72 551.911 713.661C553.771 712.602 555.928 712.073 558.382 712.073C559.596 712.073 560.758 712.189 561.869 712.421C562.98 712.654 563.961 713.028 564.814 713.545L563.69 715.792C562.993 715.327 562.192 715.005 561.288 714.824C560.384 714.617 559.428 714.514 558.421 714.514C555.502 714.514 553.164 715.444 551.408 717.303C549.677 719.163 548.812 721.94 548.812 725.634C548.812 726.202 548.838 726.912 548.889 727.765C548.967 728.591 549.122 729.418 549.354 730.245L548.385 729.508C548.67 728.165 549.225 727.029 550.052 726.099C550.878 725.143 551.911 724.42 553.151 723.929C554.391 723.438 555.747 723.193 557.22 723.193C559.028 723.193 560.616 723.529 561.985 724.2C563.354 724.872 564.426 725.815 565.201 727.029C565.976 728.243 566.364 729.676 566.364 731.329C566.364 733.008 565.963 734.481 565.162 735.747C564.362 736.986 563.251 737.955 561.83 738.652C560.435 739.324 558.86 739.66 557.103 739.66ZM556.987 737.296C558.279 737.296 559.415 737.064 560.397 736.599C561.404 736.108 562.192 735.424 562.76 734.545C563.329 733.641 563.613 732.595 563.613 731.407C563.613 729.625 562.993 728.204 561.753 727.145C560.539 726.086 558.886 725.556 556.793 725.556C555.399 725.556 554.184 725.815 553.151 726.331C552.118 726.848 551.304 727.558 550.71 728.462C550.116 729.341 549.819 730.348 549.819 731.484C549.819 732.466 550.09 733.409 550.633 734.313C551.175 735.191 551.976 735.914 553.035 736.483C554.12 737.025 555.437 737.296 556.987 737.296ZM580.404 739.66C578.312 739.66 576.452 739.117 574.825 738.033C573.197 736.922 571.919 735.346 570.989 733.306C570.059 731.239 569.594 728.759 569.594 725.866C569.594 722.973 570.059 720.506 570.989 718.466C571.919 716.399 573.197 714.824 574.825 713.739C576.452 712.628 578.312 712.073 580.404 712.073C582.496 712.073 584.356 712.628 585.984 713.739C587.611 714.824 588.89 716.399 589.819 718.466C590.775 720.506 591.253 722.973 591.253 725.866C591.253 728.759 590.775 731.239 589.819 733.306C588.89 735.346 587.611 736.922 585.984 738.033C584.356 739.117 582.496 739.66 580.404 739.66ZM580.404 737.103C582.006 737.103 583.401 736.676 584.589 735.824C585.777 734.946 586.707 733.68 587.378 732.027C588.05 730.348 588.386 728.294 588.386 725.866C588.386 723.438 588.05 721.398 587.378 719.744C586.707 718.065 585.777 716.8 584.589 715.947C583.401 715.069 582.006 714.63 580.404 714.63C578.854 714.63 577.472 715.069 576.258 715.947C575.044 716.8 574.102 718.065 573.43 719.744C572.758 721.398 572.423 723.438 572.423 725.866C572.423 728.294 572.758 730.348 573.43 732.027C574.102 733.68 575.044 734.946 576.258 735.824C577.472 736.676 578.854 737.103 580.404 737.103Z" fill="black"/>
<path d="M695.129 739.66C692.96 739.66 691.087 739.35 689.511 738.73C687.961 738.11 686.76 737.219 685.908 736.056C685.081 734.868 684.668 733.473 684.668 731.872C684.668 730.322 685.068 729.005 685.869 727.92C686.696 726.809 687.884 725.957 689.434 725.363C691.009 724.768 692.908 724.471 695.129 724.471C697.325 724.471 699.211 724.768 700.786 725.363C702.362 725.957 703.563 726.809 704.39 727.92C705.242 729.005 705.668 730.322 705.668 731.872C705.668 733.473 705.242 734.868 704.39 736.056C703.537 737.219 702.323 738.11 700.748 738.73C699.172 739.35 697.299 739.66 695.129 739.66ZM695.129 737.296C697.532 737.296 699.404 736.806 700.748 735.824C702.117 734.842 702.801 733.512 702.801 731.833C702.801 730.154 702.117 728.837 700.748 727.881C699.404 726.9 697.532 726.409 695.129 726.409C692.727 726.409 690.854 726.9 689.511 727.881C688.168 728.837 687.496 730.154 687.496 731.833C687.496 733.512 688.168 734.842 689.511 735.824C690.854 736.806 692.727 737.296 695.129 737.296ZM695.129 726.06C693.115 726.06 691.397 725.789 689.976 725.246C688.581 724.704 687.509 723.929 686.76 722.922C686.011 721.888 685.637 720.661 685.637 719.241C685.637 717.743 686.024 716.464 686.799 715.405C687.6 714.32 688.71 713.493 690.131 712.925C691.552 712.357 693.218 712.073 695.129 712.073C697.041 712.073 698.707 712.357 700.128 712.925C701.574 713.493 702.698 714.32 703.499 715.405C704.299 716.464 704.7 717.743 704.7 719.241C704.7 720.661 704.325 721.888 703.576 722.922C702.827 723.929 701.729 724.704 700.283 725.246C698.862 725.789 697.144 726.06 695.129 726.06ZM695.129 724.2C697.247 724.2 698.901 723.761 700.089 722.883C701.277 722.005 701.871 720.829 701.871 719.357C701.871 717.807 701.251 716.606 700.011 715.754C698.797 714.875 697.17 714.436 695.129 714.436C693.089 714.436 691.461 714.875 690.247 715.754C689.033 716.606 688.426 717.794 688.426 719.318C688.426 720.816 689.008 722.005 690.17 722.883C691.358 723.761 693.011 724.2 695.129 724.2ZM720.341 739.66C718.249 739.66 716.389 739.117 714.762 738.033C713.134 736.922 711.856 735.346 710.926 733.306C709.996 731.239 709.531 728.759 709.531 725.866C709.531 722.973 709.996 720.506 710.926 718.466C711.856 716.399 713.134 714.824 714.762 713.739C716.389 712.628 718.249 712.073 720.341 712.073C722.433 712.073 724.293 712.628 725.921 713.739C727.548 714.824 728.827 716.399 729.756 718.466C730.712 720.506 731.19 722.973 731.19 725.866C731.19 728.759 730.712 731.239 729.756 733.306C728.827 735.346 727.548 736.922 725.921 738.033C724.293 739.117 722.433 739.66 720.341 739.66ZM720.341 737.103C721.943 737.103 723.338 736.676 724.526 735.824C725.714 734.946 726.644 733.68 727.315 732.027C727.987 730.348 728.323 728.294 728.323 725.866C728.323 723.438 727.987 721.398 727.315 719.744C726.644 718.065 725.714 716.8 724.526 715.947C723.338 715.069 721.943 714.63 720.341 714.63C718.791 714.63 717.409 715.069 716.195 715.947C714.981 716.8 714.039 718.065 713.367 719.744C712.695 721.398 712.36 723.438 712.36 725.866C712.36 728.294 712.695 730.348 713.367 732.027C714.039 733.68 714.981 734.946 716.195 735.824C717.409 736.676 718.791 737.103 720.341 737.103Z" fill="black"/>
<path d="M850.792 739.427V713.468L852.032 714.785H844.399V712.305H853.582V739.427H850.792ZM870.875 739.66C868.783 739.66 866.923 739.117 865.296 738.032C863.669 736.922 862.39 735.346 861.46 733.305C860.53 731.239 860.065 728.759 860.065 725.866C860.065 722.973 860.53 720.506 861.46 718.466C862.39 716.399 863.669 714.824 865.296 713.739C866.923 712.628 868.783 712.073 870.875 712.073C872.968 712.073 874.827 712.628 876.455 713.739C878.082 714.824 879.361 716.399 880.291 718.466C881.246 720.506 881.724 722.973 881.724 725.866C881.724 728.759 881.246 731.239 880.291 733.305C879.361 735.346 878.082 736.922 876.455 738.032C874.827 739.117 872.968 739.66 870.875 739.66ZM870.875 737.103C872.477 737.103 873.872 736.676 875.06 735.824C876.248 734.946 877.178 733.68 877.85 732.027C878.521 730.348 878.857 728.294 878.857 725.866C878.857 723.438 878.521 721.398 877.85 719.744C877.178 718.065 876.248 716.8 875.06 715.947C873.872 715.069 872.477 714.63 870.875 714.63C869.326 714.63 867.944 715.069 866.73 715.947C865.515 716.8 864.573 718.065 863.901 719.744C863.229 721.398 862.894 723.438 862.894 725.866C862.894 728.294 863.229 730.348 863.901 732.027C864.573 733.68 865.515 734.946 866.73 735.824C867.944 736.676 869.326 737.103 870.875 737.103ZM896.529 739.66C894.437 739.66 892.577 739.117 890.95 738.032C889.323 736.922 888.044 735.346 887.114 733.305C886.184 731.239 885.719 728.759 885.719 725.866C885.719 722.973 886.184 720.506 887.114 718.466C888.044 716.399 889.323 714.824 890.95 713.739C892.577 712.628 894.437 712.073 896.529 712.073C898.622 712.073 900.482 712.628 902.109 713.739C903.736 714.824 905.015 716.399 905.945 718.466C906.9 720.506 907.378 722.973 907.378 725.866C907.378 728.759 906.9 731.239 905.945 733.305C905.015 735.346 903.736 736.922 902.109 738.032C900.482 739.117 898.622 739.66 896.529 739.66ZM896.529 737.103C898.131 737.103 899.526 736.676 900.714 735.824C901.902 734.946 902.832 733.68 903.504 732.027C904.175 730.348 904.511 728.294 904.511 725.866C904.511 723.438 904.175 721.398 903.504 719.744C902.832 718.065 901.902 716.8 900.714 715.947C899.526 715.069 898.131 714.63 896.529 714.63C894.98 714.63 893.598 715.069 892.384 715.947C891.17 716.8 890.227 718.065 889.555 719.744C888.884 721.398 888.548 723.438 888.548 725.866C888.548 728.294 888.884 730.348 889.555 732.027C890.227 733.68 891.17 734.946 892.384 735.824C893.598 736.676 894.98 737.103 896.529 737.103Z" fill="black"/>
<path d="M75.0303 614.663V612.687L86.3054 601.645C87.3386 600.637 88.1135 599.759 88.6301 599.01C89.1467 598.235 89.4955 597.512 89.6763 596.84C89.8571 596.169 89.9475 595.536 89.9475 594.942C89.9475 593.366 89.405 592.126 88.3202 591.222C87.2611 590.318 85.6854 589.866 83.5931 589.866C81.9916 589.866 80.571 590.111 79.3311 590.602C78.1171 591.093 77.0709 591.855 76.1927 592.888L74.2166 591.183C75.2757 589.943 76.6318 588.988 78.285 588.316C79.9381 587.645 81.785 587.309 83.8256 587.309C85.6596 587.309 87.2482 587.606 88.5914 588.2C89.9346 588.768 90.9678 589.608 91.6911 590.718C92.4401 591.829 92.8147 593.134 92.8147 594.632C92.8147 595.51 92.6855 596.375 92.4272 597.228C92.1948 598.08 91.7556 598.984 91.1099 599.94C90.4899 600.87 89.5729 601.929 88.3589 603.117L78.0137 613.269L77.2388 612.184H94.0546V614.663H75.0303ZM108.29 614.896C106.198 614.896 104.338 614.353 102.711 613.269C101.083 612.158 99.8047 610.582 98.8748 608.542C97.9449 606.475 97.4799 603.995 97.4799 601.102C97.4799 598.209 97.9449 595.742 98.8748 593.702C99.8047 591.635 101.083 590.06 102.711 588.975C104.338 587.864 106.198 587.309 108.29 587.309C110.382 587.309 112.242 587.864 113.869 588.975C115.497 590.06 116.775 591.635 117.705 593.702C118.661 595.742 119.139 598.209 119.139 601.102C119.139 603.995 118.661 606.475 117.705 608.542C116.775 610.582 115.497 612.158 113.869 613.269C112.242 614.353 110.382 614.896 108.29 614.896ZM108.29 612.339C109.892 612.339 111.286 611.912 112.475 611.06C113.663 610.182 114.593 608.916 115.264 607.263C115.936 605.584 116.272 603.53 116.272 601.102C116.272 598.674 115.936 596.634 115.264 594.98C114.593 593.301 113.663 592.036 112.475 591.183C111.286 590.305 109.892 589.866 108.29 589.866C106.74 589.866 105.358 590.305 104.144 591.183C102.93 592.036 101.987 593.301 101.316 594.98C100.644 596.634 100.308 598.674 100.308 601.102C100.308 603.53 100.644 605.584 101.316 607.263C101.987 608.916 102.93 610.182 104.144 611.06C105.358 611.912 106.74 612.339 108.29 612.339Z" fill="black"/>
<path d="M75.069 461.918V459.903L89.4438 441.925H92.5435L78.285 459.903L76.7739 459.438H98.5878V461.918H75.069ZM90.3737 469.047V461.918L90.4512 459.438V453.162H93.1634V469.047H90.3737ZM111.96 469.28C109.868 469.28 108.008 468.737 106.381 467.653C104.754 466.542 103.475 464.966 102.545 462.926C101.615 460.859 101.15 458.379 101.15 455.486C101.15 452.593 101.615 450.126 102.545 448.086C103.475 446.019 104.754 444.444 106.381 443.359C108.008 442.248 109.868 441.693 111.96 441.693C114.053 441.693 115.912 442.248 117.54 443.359C119.167 444.444 120.446 446.019 121.376 448.086C122.331 450.126 122.809 452.593 122.809 455.486C122.809 458.379 122.331 460.859 121.376 462.926C120.446 464.966 119.167 466.542 117.54 467.653C115.912 468.737 114.053 469.28 111.96 469.28ZM111.96 466.723C113.562 466.723 114.957 466.296 116.145 465.444C117.333 464.566 118.263 463.3 118.935 461.647C119.606 459.968 119.942 457.914 119.942 455.486C119.942 453.058 119.606 451.018 118.935 449.364C118.263 447.685 117.333 446.42 116.145 445.567C114.957 444.689 113.562 444.25 111.96 444.25C110.411 444.25 109.029 444.689 107.815 445.567C106.6 446.42 105.658 447.685 104.986 449.364C104.314 451.018 103.979 453.058 103.979 455.486C103.979 457.914 104.314 459.968 104.986 461.647C105.658 463.3 106.6 464.566 107.815 465.444C109.029 466.296 110.411 466.723 111.96 466.723Z" fill="black"/>
<path d="M85.1428 325.264C82.7405 325.264 80.7128 324.735 79.0597 323.676C77.4065 322.591 76.1537 321.041 75.3013 319.026C74.4489 316.985 74.0227 314.544 74.0227 311.703C74.0227 308.629 74.5393 306.059 75.5725 303.993C76.6316 301.9 78.091 300.325 79.9508 299.266C81.8106 298.206 83.9675 297.677 86.4214 297.677C87.6354 297.677 88.7978 297.793 89.9085 298.026C91.0193 298.258 92.0008 298.633 92.8532 299.149L91.7296 301.397C91.0322 300.932 90.2314 300.609 89.3274 300.428C88.4233 300.221 87.4675 300.118 86.4602 300.118C83.5413 300.118 81.2036 301.048 79.4471 302.908C77.7165 304.767 76.8512 307.544 76.8512 311.238C76.8512 311.806 76.877 312.517 76.9286 313.369C77.0061 314.196 77.1611 315.022 77.3936 315.849L76.4249 315.113C76.7091 313.769 77.2644 312.633 78.091 311.703C78.9176 310.747 79.9508 310.024 81.1907 309.533C82.4306 309.042 83.7867 308.797 85.259 308.797C87.0672 308.797 88.6558 309.133 90.0248 309.804C91.3938 310.476 92.4658 311.419 93.2407 312.633C94.0156 313.847 94.4031 315.281 94.4031 316.934C94.4031 318.613 94.0027 320.085 93.202 321.351C92.4012 322.591 91.2905 323.559 89.8698 324.257C88.4749 324.928 86.8993 325.264 85.1428 325.264ZM85.0266 322.901C86.3181 322.901 87.4546 322.668 88.4362 322.203C89.4436 321.712 90.2314 321.028 90.7997 320.15C91.368 319.246 91.6521 318.199 91.6521 317.011C91.6521 315.229 91.0322 313.808 89.7923 312.749C88.5783 311.69 86.9251 311.161 84.8328 311.161C83.438 311.161 82.2239 311.419 81.1907 311.935C80.1575 312.452 79.3438 313.162 78.7497 314.067C78.1556 314.945 77.8585 315.952 77.8585 317.089C77.8585 318.07 78.1298 319.013 78.6722 319.917C79.2147 320.795 80.0154 321.519 81.0745 322.087C82.1593 322.629 83.4767 322.901 85.0266 322.901ZM108.444 325.264C106.351 325.264 104.492 324.722 102.864 323.637C101.237 322.526 99.9583 320.95 99.0284 318.91C98.0985 316.843 97.6335 314.364 97.6335 311.471C97.6335 308.577 98.0985 306.111 99.0284 304.07C99.9583 302.004 101.237 300.428 102.864 299.343C104.492 298.232 106.351 297.677 108.444 297.677C110.536 297.677 112.396 298.232 114.023 299.343C115.65 300.428 116.929 302.004 117.859 304.07C118.815 306.111 119.293 308.577 119.293 311.471C119.293 314.364 118.815 316.843 117.859 318.91C116.929 320.95 115.65 322.526 114.023 323.637C112.396 324.722 110.536 325.264 108.444 325.264ZM108.444 322.707C110.045 322.707 111.44 322.281 112.628 321.428C113.816 320.55 114.746 319.284 115.418 317.631C116.09 315.952 116.425 313.899 116.425 311.471C116.425 309.042 116.09 307.002 115.418 305.349C114.746 303.67 113.816 302.404 112.628 301.552C111.44 300.673 110.045 300.234 108.444 300.234C106.894 300.234 105.512 300.673 104.298 301.552C103.084 302.404 102.141 303.67 101.469 305.349C100.798 307.002 100.462 309.042 100.462 311.471C100.462 313.899 100.798 315.952 101.469 317.631C102.141 319.284 103.084 320.55 104.298 321.428C105.512 322.281 106.894 322.707 108.444 322.707Z" fill="black"/>
<path d="M85.8404 179.648C83.6706 179.648 81.7979 179.338 80.2222 178.718C78.6724 178.098 77.4713 177.207 76.6189 176.045C75.7923 174.857 75.379 173.462 75.379 171.86C75.379 170.31 75.7794 168.993 76.5801 167.908C77.4067 166.797 78.5949 165.945 80.1448 165.351C81.7204 164.757 83.619 164.46 85.8404 164.46C88.036 164.46 89.9217 164.757 91.4973 165.351C93.073 165.945 94.2741 166.797 95.1007 167.908C95.9531 168.993 96.3793 170.31 96.3793 171.86C96.3793 173.462 95.9531 174.857 95.1007 176.045C94.2483 177.207 93.0343 178.098 91.4586 178.718C89.8829 179.338 88.0102 179.648 85.8404 179.648ZM85.8404 177.285C88.2427 177.285 90.1154 176.794 91.4586 175.812C92.8276 174.831 93.5121 173.5 93.5121 171.821C93.5121 170.142 92.8276 168.825 91.4586 167.869C90.1154 166.888 88.2427 166.397 85.8404 166.397C83.4382 166.397 81.5654 166.888 80.2222 167.869C78.8791 168.825 78.2075 170.142 78.2075 171.821C78.2075 173.5 78.8791 174.831 80.2222 175.812C81.5654 176.794 83.4382 177.285 85.8404 177.285ZM85.8404 166.048C83.8256 166.048 82.1079 165.777 80.6872 165.235C79.2923 164.692 78.2204 163.917 77.4713 162.91C76.7222 161.877 76.3477 160.65 76.3477 159.229C76.3477 157.731 76.7351 156.452 77.51 155.393C78.3108 154.308 79.4215 153.482 80.8422 152.913C82.2629 152.345 83.9289 152.061 85.8404 152.061C87.7519 152.061 89.418 152.345 90.8386 152.913C92.2852 153.482 93.4088 154.308 94.2095 155.393C95.0103 156.452 95.4107 157.731 95.4107 159.229C95.4107 160.65 95.0361 161.877 94.287 162.91C93.5379 163.917 92.4401 164.692 90.9936 165.235C89.5729 165.777 87.8552 166.048 85.8404 166.048ZM85.8404 164.188C87.9585 164.188 89.6117 163.749 90.7999 162.871C91.9881 161.993 92.5822 160.818 92.5822 159.345C92.5822 157.795 91.9623 156.594 90.7224 155.742C89.5084 154.864 87.881 154.424 85.8404 154.424C83.7998 154.424 82.1725 154.864 80.9584 155.742C79.7444 156.594 79.1374 157.782 79.1374 159.306C79.1374 160.805 79.7186 161.993 80.8809 162.871C82.0691 163.749 83.7223 164.188 85.8404 164.188ZM111.052 179.648C108.96 179.648 107.1 179.106 105.473 178.021C103.845 176.91 102.567 175.334 101.637 173.294C100.707 171.227 100.242 168.748 100.242 165.855C100.242 162.962 100.707 160.495 101.637 158.454C102.567 156.388 103.845 154.812 105.473 153.727C107.1 152.616 108.96 152.061 111.052 152.061C113.145 152.061 115.004 152.616 116.632 153.727C118.259 154.812 119.538 156.388 120.468 158.454C121.423 160.495 121.901 162.962 121.901 165.855C121.901 168.748 121.423 171.227 120.468 173.294C119.538 175.334 118.259 176.91 116.632 178.021C115.004 179.106 113.145 179.648 111.052 179.648ZM111.052 177.091C112.654 177.091 114.049 176.665 115.237 175.812C116.425 174.934 117.355 173.668 118.027 172.015C118.698 170.336 119.034 168.283 119.034 165.855C119.034 163.426 118.698 161.386 118.027 159.733C117.355 158.054 116.425 156.788 115.237 155.936C114.049 155.057 112.654 154.618 111.052 154.618C109.502 154.618 108.12 155.057 106.906 155.936C105.692 156.788 104.75 158.054 104.078 159.733C103.406 161.386 103.071 163.426 103.071 165.855C103.071 168.283 103.406 170.336 104.078 172.015C104.75 173.668 105.692 174.934 106.906 175.812C108.12 176.665 109.502 177.091 111.052 177.091Z" fill="black"/>
<path d="M80.261 37L80.261 11.0402L81.5009 12.3576L73.8679 12.3576V9.87782L83.0507 9.87782L83.0507 37H80.261ZM100.344 37.2325C98.2518 37.2325 96.392 36.69 94.7647 35.6051C93.1374 34.4944 91.8588 32.9188 90.9289 30.8781C89.9989 28.8117 89.534 26.3319 89.534 23.4389C89.534 20.5459 89.9989 18.0791 90.9289 16.0384C91.8588 13.972 93.1374 12.3963 94.7647 11.3114C96.392 10.2007 98.2518 9.64534 100.344 9.64534C102.436 9.64534 104.296 10.2007 105.924 11.3114C107.551 12.3963 108.829 13.972 109.759 16.0384C110.715 18.0791 111.193 20.5459 111.193 23.4389C111.193 26.3319 110.715 28.8117 109.759 30.8781C108.829 32.9188 107.551 34.4944 105.924 35.6051C104.296 36.69 102.436 37.2325 100.344 37.2325ZM100.344 34.6752C101.946 34.6752 103.34 34.249 104.529 33.3966C105.717 32.5184 106.647 31.2527 107.318 29.5995C107.99 27.9205 108.326 25.867 108.326 23.4389C108.326 21.0108 107.99 18.9702 107.318 17.317C106.647 15.6381 105.717 14.3724 104.529 13.5199C103.34 12.6417 101.946 12.2026 100.344 12.2026C98.7943 12.2026 97.4123 12.6417 96.1983 13.5199C94.9843 14.3724 94.0414 15.6381 93.3698 17.317C92.6983 18.9702 92.3625 21.0108 92.3625 23.4389C92.3625 25.867 92.6983 27.9205 93.3698 29.5995C94.0414 31.2527 94.9843 32.5184 96.1983 33.3966C97.4123 34.249 98.7943 34.6752 100.344 34.6752ZM125.998 37.2325C123.906 37.2325 122.046 36.69 120.419 35.6051C118.791 34.4944 117.513 32.9188 116.583 30.8781C115.653 28.8117 115.188 26.3319 115.188 23.4389C115.188 20.5459 115.653 18.0791 116.583 16.0384C117.513 13.972 118.791 12.3963 120.419 11.3114C122.046 10.2007 123.906 9.64534 125.998 9.64534C128.09 9.64534 129.95 10.2007 131.578 11.3114C133.205 12.3963 134.484 13.972 135.413 16.0384C136.369 18.0791 136.847 20.5459 136.847 23.4389C136.847 26.3319 136.369 28.8117 135.413 30.8781C134.484 32.9188 133.205 34.4944 131.578 35.6051C129.95 36.69 128.09 37.2325 125.998 37.2325ZM125.998 34.6752C127.6 34.6752 128.995 34.249 130.183 33.3966C131.371 32.5184 132.301 31.2527 132.972 29.5995C133.644 27.9205 133.98 25.867 133.98 23.4389C133.98 21.0108 133.644 18.9702 132.972 17.317C132.301 15.6381 131.371 14.3724 130.183 13.5199C128.995 12.6417 127.6 12.2026 125.998 12.2026C124.448 12.2026 123.066 12.6417 121.852 13.5199C120.638 14.3724 119.696 15.6381 119.024 17.317C118.352 18.9702 118.017 21.0108 118.017 23.4389C118.017 25.867 118.352 27.9205 119.024 29.5995C119.696 31.2527 120.638 32.5184 121.852 33.3966C123.066 34.249 124.448 34.6752 125.998 34.6752Z" fill="black"/>
</svg>
