<svg width="2409" height="1855" viewBox="0 0 2409 1855" fill="none" xmlns="http://www.w3.org/2000/svg">
<rect width="2409" height="1855" rx="30.9159" fill="white"/>
<rect x="59.1771" y="163" width="2228.64" height="1508.98" fill="white"/>
<path d="M2143.29 1439.52V309.43" stroke="#0A6308" stroke-width="5.85541" stroke-dasharray="11.71 11.71"/>
<path d="M2134.65 309.334L67.8821 315.189" stroke="#0A6308" stroke-width="5.85541" stroke-dasharray="11.71 11.71"/>
<path d="M377.984 244.924V239.069H366.273V244.924H377.984ZM377.984 1445.28L377.984 244.924H366.273L366.273 1445.28H377.984Z" fill="#153314"/>
<path d="M2181.5 1454.04H2187.35V1442.33H2181.5V1454.04ZM366.32 1454.04H2181.5V1442.33H366.32V1454.04Z" fill="#153314"/>
<path d="M1071.97 1633.47H1077.1V1682.65H1071.97V1633.47ZM1041.19 1682.65H1035.99V1633.47H1041.19V1682.65ZM1072.46 1659.96H1040.63V1655.39H1072.46V1659.96ZM1107.13 1683C1103.57 1683 1100.36 1682.21 1097.51 1680.62C1094.7 1678.98 1092.47 1676.75 1090.83 1673.94C1089.19 1671.08 1088.37 1667.83 1088.37 1664.17C1088.37 1660.47 1089.19 1657.22 1090.83 1654.41C1092.47 1651.6 1094.7 1649.39 1097.51 1647.8C1100.32 1646.21 1103.53 1645.41 1107.13 1645.41C1110.79 1645.41 1114.02 1646.21 1116.83 1647.8C1119.69 1649.39 1121.91 1651.6 1123.5 1654.41C1125.14 1657.22 1125.96 1660.47 1125.96 1664.17C1125.96 1667.83 1125.14 1671.08 1123.5 1673.94C1121.91 1676.75 1119.69 1678.98 1116.83 1680.62C1113.97 1682.21 1110.74 1683 1107.13 1683ZM1107.13 1678.58C1109.8 1678.58 1112.17 1677.99 1114.23 1676.82C1116.29 1675.6 1117.91 1673.92 1119.08 1671.76C1120.3 1669.56 1120.9 1667.03 1120.9 1664.17C1120.9 1661.27 1120.3 1658.74 1119.08 1656.59C1117.91 1654.43 1116.29 1652.77 1114.23 1651.6C1112.17 1650.38 1109.83 1649.77 1107.2 1649.77C1104.58 1649.77 1102.24 1650.38 1100.18 1651.6C1098.12 1652.77 1096.48 1654.43 1095.26 1656.59C1094.04 1658.74 1093.43 1661.27 1093.43 1664.17C1093.43 1667.03 1094.04 1669.56 1095.26 1671.76C1096.48 1673.92 1098.12 1675.6 1100.18 1676.82C1102.24 1677.99 1104.56 1678.58 1107.13 1678.58ZM1151.4 1683C1148.26 1683 1145.52 1682.42 1143.18 1681.25C1140.83 1680.08 1139.01 1678.32 1137.69 1675.98C1136.43 1673.64 1135.8 1670.71 1135.8 1667.2V1645.76H1140.79V1666.63C1140.79 1670.57 1141.75 1673.54 1143.67 1675.56C1145.63 1677.52 1148.37 1678.51 1151.89 1678.51C1154.46 1678.51 1156.69 1677.99 1158.56 1676.96C1160.48 1675.88 1161.94 1674.34 1162.92 1672.32C1163.95 1670.31 1164.47 1667.9 1164.47 1665.09V1645.76H1169.45V1682.65H1164.68V1672.54L1165.45 1674.36C1164.28 1677.08 1162.45 1679.21 1159.97 1680.76C1157.53 1682.26 1154.68 1683 1151.4 1683ZM1183.36 1682.65V1645.76H1188.14V1655.81L1187.64 1654.06C1188.67 1651.25 1190.41 1649.11 1192.84 1647.66C1195.28 1646.16 1198.3 1645.41 1201.91 1645.41V1650.26C1201.72 1650.26 1201.53 1650.26 1201.35 1650.26C1201.16 1650.21 1200.97 1650.19 1200.78 1650.19C1196.9 1650.19 1193.85 1651.39 1191.65 1653.77C1189.45 1656.12 1188.35 1659.47 1188.35 1663.82V1682.65H1183.36ZM1221.33 1683C1218.29 1683 1215.4 1682.58 1212.69 1681.74C1209.97 1680.85 1207.84 1679.75 1206.29 1678.44L1208.54 1674.5C1210.04 1675.63 1211.96 1676.61 1214.3 1677.45C1216.65 1678.25 1219.11 1678.65 1221.68 1678.65C1225.19 1678.65 1227.72 1678.11 1229.27 1677.03C1230.82 1675.91 1231.59 1674.43 1231.59 1672.61C1231.59 1671.25 1231.14 1670.19 1230.25 1669.44C1229.41 1668.65 1228.29 1668.06 1226.88 1667.69C1225.48 1667.27 1223.91 1666.91 1222.17 1666.63C1220.44 1666.35 1218.71 1666.02 1216.97 1665.65C1215.29 1665.27 1213.74 1664.74 1212.34 1664.03C1210.93 1663.28 1209.78 1662.28 1208.89 1661.01C1208.05 1659.75 1207.63 1658.06 1207.63 1655.95C1207.63 1653.94 1208.19 1652.14 1209.31 1650.54C1210.44 1648.95 1212.08 1647.71 1214.23 1646.82C1216.44 1645.88 1219.11 1645.41 1222.24 1645.41C1224.63 1645.41 1227.02 1645.74 1229.41 1646.4C1231.8 1647.01 1233.77 1647.83 1235.31 1648.86L1233.13 1652.86C1231.5 1651.74 1229.74 1650.94 1227.86 1650.47C1225.99 1649.96 1224.12 1649.7 1222.24 1649.7C1218.92 1649.7 1216.46 1650.28 1214.87 1651.46C1213.32 1652.58 1212.55 1654.03 1212.55 1655.81C1212.55 1657.22 1212.97 1658.32 1213.81 1659.11C1214.7 1659.91 1215.85 1660.54 1217.25 1661.01C1218.71 1661.43 1220.28 1661.78 1221.96 1662.07C1223.7 1662.35 1225.41 1662.7 1227.09 1663.12C1228.83 1663.49 1230.39 1664.03 1231.8 1664.74C1233.25 1665.39 1234.4 1666.35 1235.24 1667.62C1236.13 1668.83 1236.58 1670.45 1236.58 1672.47C1236.58 1674.62 1235.97 1676.49 1234.75 1678.09C1233.58 1679.63 1231.85 1680.85 1229.55 1681.74C1227.3 1682.58 1224.56 1683 1221.33 1683ZM1274.03 1683C1270.98 1683 1268.1 1682.58 1265.39 1681.74C1262.67 1680.85 1260.54 1679.75 1258.99 1678.44L1261.24 1674.5C1262.74 1675.63 1264.66 1676.61 1267 1677.45C1269.34 1678.25 1271.8 1678.65 1274.38 1678.65C1277.89 1678.65 1280.42 1678.11 1281.97 1677.03C1283.51 1675.91 1284.29 1674.43 1284.29 1672.61C1284.29 1671.25 1283.84 1670.19 1282.95 1669.44C1282.11 1668.65 1280.99 1668.06 1279.58 1667.69C1278.17 1667.27 1276.61 1666.91 1274.87 1666.63C1273.14 1666.35 1271.41 1666.02 1269.67 1665.65C1267.99 1665.27 1266.44 1664.74 1265.03 1664.03C1263.63 1663.28 1262.48 1662.28 1261.59 1661.01C1260.75 1659.75 1260.33 1658.06 1260.33 1655.95C1260.33 1653.94 1260.89 1652.14 1262.01 1650.54C1263.14 1648.95 1264.78 1647.71 1266.93 1646.82C1269.13 1645.88 1271.8 1645.41 1274.94 1645.41C1277.33 1645.41 1279.72 1645.74 1282.11 1646.4C1284.5 1647.01 1286.47 1647.83 1288.01 1648.86L1285.83 1652.86C1284.19 1651.74 1282.44 1650.94 1280.56 1650.47C1278.69 1649.96 1276.82 1649.7 1274.94 1649.7C1271.62 1649.7 1269.16 1650.28 1267.56 1651.46C1266.02 1652.58 1265.25 1654.03 1265.25 1655.81C1265.25 1657.22 1265.67 1658.32 1266.51 1659.11C1267.4 1659.91 1268.55 1660.54 1269.95 1661.01C1271.41 1661.43 1272.97 1661.78 1274.66 1662.07C1276.39 1662.35 1278.1 1662.7 1279.79 1663.12C1281.52 1663.49 1283.09 1664.03 1284.5 1664.74C1285.95 1665.39 1287.1 1666.35 1287.94 1667.62C1288.83 1668.83 1289.28 1670.45 1289.28 1672.47C1289.28 1674.62 1288.67 1676.49 1287.45 1678.09C1286.28 1679.63 1284.55 1680.85 1282.25 1681.74C1280 1682.58 1277.26 1683 1274.03 1683ZM1310.09 1683C1306.63 1683 1303.96 1682.07 1302.08 1680.19C1300.21 1678.32 1299.27 1675.67 1299.27 1672.25V1637.61H1304.26V1671.97C1304.26 1674.13 1304.8 1675.79 1305.88 1676.96C1307 1678.13 1308.6 1678.72 1310.66 1678.72C1312.86 1678.72 1314.69 1678.09 1316.14 1676.82L1317.89 1680.41C1316.91 1681.3 1315.72 1681.95 1314.31 1682.37C1312.95 1682.79 1311.55 1683 1310.09 1683ZM1292.67 1649.91V1645.76H1315.5V1649.91H1292.67ZM1342.22 1683C1339.08 1683 1336.34 1682.42 1334 1681.25C1331.66 1680.08 1329.83 1678.32 1328.52 1675.98C1327.26 1673.64 1326.62 1670.71 1326.62 1667.2V1645.76H1331.61V1666.63C1331.61 1670.57 1332.57 1673.54 1334.49 1675.56C1336.46 1677.52 1339.2 1678.51 1342.71 1678.51C1345.29 1678.51 1347.52 1677.99 1349.39 1676.96C1351.31 1675.88 1352.76 1674.34 1353.75 1672.32C1354.78 1670.31 1355.29 1667.9 1355.29 1665.09V1645.76H1360.28V1682.65H1355.5V1672.54L1356.28 1674.36C1355.1 1677.08 1353.28 1679.21 1350.8 1680.76C1348.36 1682.26 1345.5 1683 1342.22 1683ZM1388.87 1683C1385.36 1683 1382.19 1682.21 1379.38 1680.62C1376.62 1679.02 1374.44 1676.82 1372.85 1674.01C1371.26 1671.15 1370.46 1667.87 1370.46 1664.17C1370.46 1660.43 1371.26 1657.15 1372.85 1654.34C1374.44 1651.53 1376.62 1649.35 1379.38 1647.8C1382.19 1646.21 1385.36 1645.41 1388.87 1645.41C1392.1 1645.41 1394.98 1646.14 1397.51 1647.59C1400.09 1649.04 1402.13 1651.17 1403.63 1653.99C1405.17 1656.75 1405.94 1660.15 1405.94 1664.17C1405.94 1668.16 1405.2 1671.55 1403.7 1674.36C1402.2 1677.17 1400.16 1679.33 1397.58 1680.83C1395.05 1682.28 1392.15 1683 1388.87 1683ZM1389.22 1678.58C1391.84 1678.58 1394.19 1677.99 1396.25 1676.82C1398.36 1675.6 1400 1673.92 1401.17 1671.76C1402.38 1669.56 1402.99 1667.03 1402.99 1664.17C1402.99 1661.27 1402.38 1658.74 1401.17 1656.59C1400 1654.43 1398.36 1652.77 1396.25 1651.6C1394.19 1650.38 1391.84 1649.77 1389.22 1649.77C1386.65 1649.77 1384.33 1650.38 1382.27 1651.6C1380.2 1652.77 1378.56 1654.43 1377.35 1656.59C1376.13 1658.74 1375.52 1661.27 1375.52 1664.17C1375.52 1667.03 1376.13 1669.56 1377.35 1671.76C1378.56 1673.92 1380.2 1675.6 1382.27 1676.82C1384.33 1677.99 1386.65 1678.58 1389.22 1678.58ZM1403.13 1682.65V1671.55L1403.63 1664.1L1402.92 1656.66V1630.52H1407.91V1682.65H1403.13ZM1421.81 1682.65V1645.76H1426.79V1682.65H1421.81ZM1424.34 1637.61C1423.3 1637.61 1422.44 1637.26 1421.74 1636.56C1421.03 1635.86 1420.68 1635.01 1420.68 1634.03C1420.68 1633.05 1421.03 1632.23 1421.74 1631.57C1422.44 1630.87 1423.3 1630.52 1424.34 1630.52C1425.37 1630.52 1426.23 1630.84 1426.94 1631.5C1427.64 1632.16 1427.99 1632.98 1427.99 1633.96C1427.99 1634.99 1427.64 1635.86 1426.94 1636.56C1426.28 1637.26 1425.41 1637.61 1424.34 1637.61ZM1456.34 1683C1452.5 1683 1449.13 1682.21 1446.23 1680.62C1443.32 1678.98 1441.05 1676.75 1439.41 1673.94C1437.77 1671.08 1436.95 1667.83 1436.95 1664.17C1436.95 1660.52 1437.72 1657.29 1439.27 1654.48C1440.86 1651.67 1443.02 1649.47 1445.73 1647.87C1448.5 1646.23 1451.59 1645.41 1455.01 1645.41C1458.48 1645.41 1461.54 1646.21 1464.21 1647.8C1466.93 1649.35 1469.06 1651.55 1470.61 1654.41C1472.15 1657.22 1472.93 1660.47 1472.93 1664.17C1472.93 1664.41 1472.9 1664.67 1472.86 1664.95C1472.86 1665.18 1472.86 1665.44 1472.86 1665.72H1440.75V1662H1470.19L1468.22 1663.47C1468.22 1660.8 1467.63 1658.44 1466.46 1656.37C1465.34 1654.27 1463.79 1652.63 1461.83 1651.46C1459.86 1650.28 1457.59 1649.7 1455.01 1649.7C1452.48 1649.7 1450.21 1650.28 1448.19 1651.46C1446.18 1652.63 1444.61 1654.27 1443.49 1656.37C1442.36 1658.48 1441.8 1660.89 1441.8 1663.61V1664.38C1441.8 1667.2 1442.41 1669.68 1443.63 1671.83C1444.89 1673.94 1446.62 1675.6 1448.83 1676.82C1451.07 1677.99 1453.63 1678.58 1456.49 1678.58C1458.73 1678.58 1460.82 1678.18 1462.74 1677.38C1464.71 1676.59 1466.39 1675.37 1467.8 1673.73L1470.61 1676.96C1468.97 1678.93 1466.91 1680.43 1464.43 1681.46C1461.99 1682.49 1459.3 1683 1456.34 1683ZM1497.77 1683C1494.25 1683 1491.09 1682.21 1488.28 1680.62C1485.52 1679.02 1483.34 1676.82 1481.75 1674.01C1480.15 1671.15 1479.36 1667.87 1479.36 1664.17C1479.36 1660.43 1480.15 1657.15 1481.75 1654.34C1483.34 1651.53 1485.52 1649.35 1488.28 1647.8C1491.09 1646.21 1494.25 1645.41 1497.77 1645.41C1501 1645.41 1503.88 1646.14 1506.41 1647.59C1508.99 1649.04 1511.02 1651.17 1512.52 1653.99C1514.07 1656.75 1514.84 1660.15 1514.84 1664.17C1514.84 1668.16 1514.09 1671.55 1512.59 1674.36C1511.09 1677.17 1509.06 1679.33 1506.48 1680.83C1503.95 1682.28 1501.05 1683 1497.77 1683ZM1498.12 1678.58C1500.74 1678.58 1503.08 1677.99 1505.14 1676.82C1507.25 1675.6 1508.89 1673.92 1510.06 1671.76C1511.28 1669.56 1511.89 1667.03 1511.89 1664.17C1511.89 1661.27 1511.28 1658.74 1510.06 1656.59C1508.89 1654.43 1507.25 1652.77 1505.14 1651.6C1503.08 1650.38 1500.74 1649.77 1498.12 1649.77C1495.54 1649.77 1493.22 1650.38 1491.16 1651.6C1489.1 1652.77 1487.46 1654.43 1486.24 1656.59C1485.03 1658.74 1484.42 1661.27 1484.42 1664.17C1484.42 1667.03 1485.03 1669.56 1486.24 1671.76C1487.46 1673.92 1489.1 1675.6 1491.16 1676.82C1493.22 1677.99 1495.54 1678.58 1498.12 1678.58ZM1512.03 1682.65V1671.55L1512.52 1664.1L1511.82 1656.66V1630.52H1516.81V1682.65H1512.03Z" fill="#124012"/>
<path d="M123.2 1055.74V1029.74H127.626V1055.74H123.2ZM145.895 1055.18V1025.6H150.392V1060.38H101.207V1026.65H105.704V1055.18H145.895ZM150.392 1021.08L130.156 1005.48L132.615 1005.55L113.503 1020.37V1014.75L129.313 1002.6L129.242 1004.71L113.503 992.55V987.069L132.826 1002.04L130.156 1001.97L150.392 986.226V991.917L133.529 1004.78L133.81 1002.81L150.392 1015.46V1021.08ZM150.392 955.491H142.241L140.906 955.702H127.275C124.136 955.702 121.724 956.592 120.038 958.372C118.351 960.105 117.508 962.705 117.508 966.171C117.508 968.56 117.906 970.832 118.703 972.987C119.499 975.142 120.553 976.969 121.865 978.468L118.141 980.716C116.548 978.843 115.33 976.594 114.487 973.971C113.597 971.348 113.152 968.584 113.152 965.68C113.152 960.902 114.346 957.224 116.735 954.648C119.077 952.025 122.661 950.713 127.486 950.713H150.392V955.491ZM150.743 968.209C150.743 970.973 150.298 973.385 149.408 975.446C148.472 977.461 147.207 979.006 145.614 980.084C143.975 981.161 142.101 981.7 139.993 981.7C138.072 981.7 136.339 981.255 134.793 980.365C133.201 979.428 131.936 977.929 130.999 975.868C130.015 973.76 129.523 970.949 129.523 967.436V954.718H133.247V967.296C133.247 970.856 133.88 973.338 135.145 974.744C136.409 976.102 137.979 976.781 139.852 976.781C141.96 976.781 143.647 975.962 144.911 974.322C146.176 972.683 146.809 970.387 146.809 967.436C146.809 964.626 146.176 962.213 144.911 960.199C143.6 958.138 141.726 956.639 139.29 955.702L142.733 954.578C145.169 955.515 147.113 957.154 148.565 959.496C150.017 961.792 150.743 964.696 150.743 968.209ZM113.152 891.069C113.152 888.071 113.737 885.471 114.908 883.27C116.033 881.021 117.766 879.288 120.108 878.07C122.45 876.805 125.401 876.173 128.961 876.173H150.392V881.162H129.453C125.565 881.162 122.637 882.099 120.67 883.972C118.656 885.799 117.649 888.399 117.649 891.772C117.649 894.301 118.187 896.503 119.265 898.377C120.295 900.204 121.818 901.632 123.832 902.663C125.799 903.647 128.188 904.139 130.999 904.139H150.392V909.127H129.453C125.565 909.127 122.637 910.064 120.67 911.938C118.656 913.812 117.649 916.435 117.649 919.808C117.649 922.29 118.187 924.468 119.265 926.342C120.295 928.216 121.818 929.668 123.832 930.699C125.799 931.682 128.188 932.174 130.999 932.174H150.392V937.163H113.503V932.385H123.481L121.724 933.158C119.054 932.034 116.969 930.23 115.47 927.748C113.925 925.218 113.152 922.243 113.152 918.824C113.152 915.217 114.065 912.149 115.892 909.619C117.672 907.09 120.366 905.45 123.972 904.701L123.2 906.668C120.202 905.591 117.789 903.693 115.962 900.977C114.089 898.213 113.152 894.91 113.152 891.069ZM150.814 829.639C150.814 833.293 150.228 836.806 149.057 840.179C147.839 843.505 146.293 846.081 144.42 847.908L140.414 845.87C142.101 844.137 143.53 841.818 144.701 838.914C145.825 835.963 146.387 832.871 146.387 829.639C146.387 826.547 146.012 824.041 145.263 822.121C144.466 820.153 143.412 818.725 142.101 817.835C140.789 816.898 139.337 816.429 137.744 816.429C135.824 816.429 134.278 816.991 133.107 818.116C131.936 819.193 131.022 820.622 130.367 822.402C129.664 824.182 129.055 826.149 128.54 828.304C128.024 830.459 127.486 832.614 126.924 834.768C126.315 836.923 125.518 838.914 124.535 840.741C123.551 842.521 122.263 843.973 120.67 845.097C119.031 846.175 116.899 846.713 114.276 846.713C111.84 846.713 109.615 846.081 107.601 844.816C105.54 843.505 103.9 841.514 102.682 838.844C101.417 836.174 100.785 832.754 100.785 828.585C100.785 825.821 101.183 823.081 101.98 820.364C102.729 817.647 103.783 815.305 105.142 813.338L109.287 815.094C107.882 817.202 106.851 819.451 106.195 821.84C105.54 824.182 105.212 826.454 105.212 828.655C105.212 831.606 105.61 834.042 106.406 835.963C107.203 837.883 108.28 839.312 109.638 840.249C110.95 841.139 112.449 841.584 114.135 841.584C116.056 841.584 117.602 841.045 118.773 839.968C119.944 838.844 120.857 837.392 121.513 835.612C122.169 833.785 122.755 831.794 123.27 829.639C123.785 827.484 124.347 825.353 124.956 823.245C125.565 821.09 126.362 819.123 127.345 817.343C128.282 815.516 129.547 814.064 131.14 812.986C132.732 811.862 134.817 811.3 137.393 811.3C139.782 811.3 142.007 811.956 144.068 813.267C146.083 814.579 147.722 816.593 148.987 819.31C150.205 821.98 150.814 825.423 150.814 829.639ZM150.743 785.707C150.743 789.361 149.947 792.64 148.354 795.544C146.715 798.402 144.49 800.65 141.679 802.29C138.822 803.929 135.566 804.749 131.912 804.749C128.212 804.749 124.956 803.929 122.146 802.29C119.335 800.65 117.133 798.402 115.541 795.544C113.948 792.64 113.152 789.361 113.152 785.707C113.152 782.569 113.761 779.735 114.979 777.205C116.197 774.675 118.023 772.685 120.459 771.232L122.989 774.957C121.115 776.221 119.733 777.791 118.843 779.664C117.953 781.538 117.508 783.576 117.508 785.777C117.508 788.401 118.117 790.766 119.335 792.874C120.506 794.982 122.169 796.645 124.324 797.863C126.479 799.081 129.008 799.69 131.912 799.69C134.817 799.69 137.346 799.081 139.501 797.863C141.656 796.645 143.342 794.982 144.56 792.874C145.731 790.766 146.317 788.401 146.317 785.777C146.317 783.576 145.872 781.538 144.982 779.664C144.092 777.791 142.733 776.221 140.906 774.957L143.436 771.232C145.825 772.685 147.652 774.675 148.917 777.205C150.134 779.735 150.743 782.569 150.743 785.707ZM150.743 747.013C150.743 750.573 149.947 753.782 148.354 756.639C146.715 759.45 144.49 761.675 141.679 763.315C138.822 764.954 135.566 765.774 131.912 765.774C128.212 765.774 124.956 764.954 122.146 763.315C119.335 761.675 117.133 759.45 115.541 756.639C113.948 753.829 113.152 750.62 113.152 747.013C113.152 743.359 113.948 740.127 115.541 737.317C117.133 734.459 119.335 732.234 122.146 730.641C124.956 729.002 128.212 728.182 131.912 728.182C135.566 728.182 138.822 729.002 141.679 730.641C144.49 732.234 146.715 734.459 148.354 737.317C149.947 740.174 150.743 743.406 150.743 747.013ZM146.317 747.013C146.317 744.343 145.731 741.977 144.56 739.916C143.342 737.855 141.656 736.239 139.501 735.068C137.299 733.85 134.77 733.241 131.912 733.241C129.008 733.241 126.479 733.85 124.324 735.068C122.169 736.239 120.506 737.855 119.335 739.916C118.117 741.977 117.508 744.32 117.508 746.943C117.508 749.566 118.117 751.908 119.335 753.969C120.506 756.03 122.169 757.67 124.324 758.888C126.479 760.106 129.008 760.715 131.912 760.715C134.77 760.715 137.299 760.106 139.501 758.888C141.656 757.67 143.342 756.03 144.56 753.969C145.731 751.908 146.317 749.589 146.317 747.013ZM150.392 717.997H113.503V713.219H123.551L121.794 713.711C118.984 712.68 116.852 710.947 115.4 708.511C113.901 706.075 113.152 703.054 113.152 699.447H118C118 699.634 118 699.822 118 700.009C117.953 700.197 117.93 700.384 117.93 700.571C117.93 704.459 119.124 707.504 121.513 709.706C123.855 711.907 127.205 713.008 131.561 713.008H150.392V717.997ZM150.743 675.018C150.743 678.859 149.947 682.232 148.354 685.136C146.715 688.04 144.49 690.312 141.679 691.952C138.822 693.591 135.566 694.411 131.912 694.411C128.259 694.411 125.026 693.638 122.216 692.092C119.405 690.5 117.204 688.345 115.611 685.628C113.971 682.864 113.152 679.773 113.152 676.353C113.152 672.887 113.948 669.818 115.541 667.148C117.087 664.431 119.288 662.3 122.146 660.754C124.956 659.208 128.212 658.435 131.912 658.435C132.147 658.435 132.404 658.459 132.685 658.506C132.92 658.506 133.177 658.506 133.458 658.506V690.617H129.734V661.176L131.21 663.143C128.54 663.143 126.174 663.729 124.113 664.9C122.005 666.024 120.366 667.57 119.194 669.537C118.023 671.505 117.438 673.777 117.438 676.353C117.438 678.882 118.023 681.154 119.194 683.169C120.366 685.183 122.005 686.752 124.113 687.876C126.221 689.001 128.633 689.563 131.35 689.563H132.123C134.934 689.563 137.417 688.954 139.571 687.736C141.679 686.471 143.342 684.738 144.56 682.536C145.731 680.288 146.317 677.735 146.317 674.877C146.317 672.629 145.919 670.544 145.122 668.624C144.326 666.656 143.108 664.97 141.468 663.565L144.701 660.754C146.668 662.394 148.167 664.455 149.198 666.937C150.228 669.373 150.743 672.067 150.743 675.018Z" fill="#124012"/>
<path d="M2136.12 323.576C2137.52 322.764 2138 320.972 2137.18 319.574C2136.37 318.176 2134.58 317.701 2133.18 318.513L2136.12 323.576ZM369.736 1349.75L2136.12 323.576L2133.18 318.513L366.795 1344.68L369.736 1349.75Z" fill="#7CBC7A"/>
<circle cx="688.367" cy="332.732" r="14.6385" fill="#D9D9D9" stroke="#124012" stroke-width="5.85541"/>
<circle cx="758.632" cy="408.852" r="14.6385" fill="#D9D9D9" stroke="#124012" stroke-width="5.85541"/>
<circle cx="946.005" cy="408.852" r="14.6385" fill="#D9D9D9" stroke="#124012" stroke-width="5.85541"/>
<circle cx="946.005" cy="350.298" r="14.6385" fill="#D9D9D9" stroke="#124012" stroke-width="5.85541"/>
<circle cx="998.704" cy="356.153" r="14.6385" fill="#D9D9D9" stroke="#124012" stroke-width="5.85541"/>
<circle cx="1016.27" cy="426.418" r="14.6385" fill="#D9D9D9" stroke="#124012" stroke-width="5.85541"/>
<circle cx="1051.4" cy="484.972" r="14.6385" fill="#D9D9D9" stroke="#124012" stroke-width="5.85541"/>
<circle cx="928.439" cy="520.105" r="14.6385" fill="#D9D9D9" stroke="#124012" stroke-width="5.85541"/>
<circle cx="823.042" cy="561.092" r="14.6385" fill="#D9D9D9" stroke="#124012" stroke-width="5.85541"/>
<circle cx="946.005" cy="602.08" r="14.6385" fill="#D9D9D9" stroke="#124012" stroke-width="5.85541"/>
<circle cx="828.897" cy="643.068" r="14.6385" fill="#D9D9D9" stroke="#124012" stroke-width="5.85541"/>
<circle cx="588.826" cy="965.139" r="14.6385" fill="#D9D9D9" stroke="#124012" stroke-width="5.85541"/>
<circle cx="588.826" cy="1328.17" r="14.6385" fill="#D9D9D9" stroke="#124012" stroke-width="5.85541"/>
<circle cx="823.042" cy="1234.49" r="14.6385" fill="#D9D9D9" stroke="#124012" stroke-width="5.85541"/>
<circle cx="1057.26" cy="1228.63" r="14.6385" fill="#D9D9D9" stroke="#124012" stroke-width="5.85541"/>
<circle cx="1191.93" cy="1117.38" r="14.6385" fill="#D9D9D9" stroke="#124012" stroke-width="5.85541"/>
<circle cx="1250.49" cy="660.658" r="14.6385" fill="#D9D9D9" stroke="#124012" stroke-width="5.85541"/>
<circle cx="1244.63" cy="385.454" r="14.6385" fill="#D9D9D9" stroke="#124012" stroke-width="5.85541"/>
<circle cx="1098.25" cy="637.236" r="14.6385" fill="#D9D9D9" stroke="#124012" stroke-width="5.85541"/>
<circle cx="893.307" cy="766.055" r="14.6385" fill="#D9D9D9" stroke="#124012" stroke-width="5.85541"/>
<circle cx="782.054" cy="889.019" r="14.6385" fill="#D9D9D9" stroke="#124012" stroke-width="5.85541"/>
<circle cx="858.174" cy="1000.27" r="14.6385" fill="#D9D9D9" stroke="#124012" stroke-width="5.85541"/>
<circle cx="1303.19" cy="584.537" r="14.6385" fill="#D9D9D9" stroke="#124012" stroke-width="5.85541"/>
<circle cx="1127.52" cy="321.044" r="14.6385" fill="#D9D9D9" stroke="#124012" stroke-width="5.85541"/>
<circle cx="477.573" cy="1129.09" r="14.6385" fill="#D9D9D9" stroke="#124012" stroke-width="5.85541"/>
<circle cx="764.488" cy="730.899" r="14.6385" fill="#D9D9D9" stroke="#124012" stroke-width="5.85541"/>
<circle cx="477.573" cy="894.874" r="14.6385" fill="#D9D9D9" stroke="#124012" stroke-width="5.85541"/>
<circle cx="1174.37" cy="941.694" r="14.6385" fill="#D9D9D9" stroke="#124012" stroke-width="5.85541"/>
<circle cx="1268.05" cy="941.694" r="14.6385" fill="#D9D9D9" stroke="#124012" stroke-width="5.85541"/>
<circle cx="1285.62" cy="888.995" r="14.6385" fill="#D9D9D9" stroke="#124012" stroke-width="5.85541"/>
<circle cx="1209.5" cy="888.995" r="14.6385" fill="#D9D9D9" stroke="#124012" stroke-width="5.85541"/>
<circle cx="1191.93" cy="766.032" r="14.6385" fill="#D9D9D9" stroke="#124012" stroke-width="5.85541"/>
<circle cx="1355.88" cy="713.333" r="14.6385" fill="#D9D9D9" stroke="#124012" stroke-width="5.85541"/>
<circle cx="1408.58" cy="619.647" r="14.6385" fill="#D9D9D9" stroke="#124012" stroke-width="5.85541"/>
<circle cx="1408.58" cy="502.538" r="14.6385" fill="#D9D9D9" stroke="#124012" stroke-width="5.85541"/>
<circle cx="2140.51" cy="309.334" r="14.6385" fill="#153314" stroke="#124012" stroke-width="5.85541"/>
<circle cx="1016.27" cy="871.429" r="14.6385" fill="#D9D9D9" stroke="#124012" stroke-width="5.85541"/>
<circle cx="981.138" cy="1023.67" r="14.6385" fill="#D9D9D9" stroke="#124012" stroke-width="5.85541"/>
<circle cx="664.946" cy="566.948" r="14.6385" fill="#D9D9D9" stroke="#124012" stroke-width="5.85541"/>
<circle cx="705.934" cy="484.972" r="14.6385" fill="#D9D9D9" stroke="#124012" stroke-width="5.85541"/>
<circle cx="588.826" cy="455.695" r="14.6385" fill="#D9D9D9" stroke="#124012" stroke-width="5.85541"/>
<path d="M360.301 1548.79C356.506 1548.79 353.134 1547.8 350.183 1545.83C347.231 1543.82 344.913 1540.96 343.226 1537.26C341.54 1533.51 340.697 1529.02 340.697 1523.77C340.697 1518.52 341.54 1514.05 343.226 1510.35C344.913 1506.6 347.231 1503.75 350.183 1501.78C353.134 1499.76 356.506 1498.76 360.301 1498.76C364.095 1498.76 367.468 1499.76 370.419 1501.78C373.37 1503.75 375.689 1506.6 377.375 1510.35C379.108 1514.05 379.975 1518.52 379.975 1523.77C379.975 1529.02 379.108 1533.51 377.375 1537.26C375.689 1540.96 373.37 1543.82 370.419 1545.83C367.468 1547.8 364.095 1548.79 360.301 1548.79ZM360.301 1544.15C363.205 1544.15 365.735 1543.37 367.889 1541.83C370.044 1540.24 371.73 1537.94 372.948 1534.94C374.166 1531.9 374.775 1528.17 374.775 1523.77C374.775 1519.37 374.166 1515.67 372.948 1512.67C371.73 1509.62 370.044 1507.33 367.889 1505.78C365.735 1504.19 363.205 1503.39 360.301 1503.39C357.49 1503.39 354.984 1504.19 352.782 1505.78C350.581 1507.33 348.871 1509.62 347.653 1512.67C346.435 1515.67 345.826 1519.37 345.826 1523.77C345.826 1528.17 346.435 1531.9 347.653 1534.94C348.871 1537.94 350.581 1540.24 352.782 1541.83C354.984 1543.37 357.49 1544.15 360.301 1544.15Z" fill="black"/>
<path d="M556.434 1548.36V1544.78L576.881 1524.75C578.754 1522.93 580.16 1521.34 581.096 1519.98C582.033 1518.57 582.666 1517.26 582.994 1516.04C583.322 1514.82 583.485 1513.68 583.485 1512.6C583.485 1509.74 582.502 1507.49 580.534 1505.85C578.614 1504.21 575.756 1503.39 571.962 1503.39C569.058 1503.39 566.481 1503.84 564.233 1504.73C562.031 1505.62 560.134 1507 558.541 1508.87L554.958 1505.78C556.879 1503.53 559.338 1501.8 562.336 1500.58C565.334 1499.37 568.683 1498.76 572.384 1498.76C575.71 1498.76 578.59 1499.3 581.026 1500.37C583.462 1501.4 585.336 1502.93 586.647 1504.94C588.006 1506.95 588.685 1509.32 588.685 1512.04C588.685 1513.63 588.451 1515.2 587.982 1516.74C587.561 1518.29 586.765 1519.93 585.593 1521.66C584.469 1523.35 582.806 1525.27 580.605 1527.42L561.844 1545.83L560.439 1543.87H590.934V1548.36H556.434ZM616.749 1548.79C612.955 1548.79 609.582 1547.8 606.631 1545.83C603.68 1543.82 601.361 1540.96 599.675 1537.26C597.989 1533.51 597.145 1529.02 597.145 1523.77C597.145 1518.52 597.989 1514.05 599.675 1510.35C601.361 1506.6 603.68 1503.75 606.631 1501.78C609.582 1499.76 612.955 1498.76 616.749 1498.76C620.544 1498.76 623.916 1499.76 626.867 1501.78C629.819 1503.75 632.137 1506.6 633.824 1510.35C635.557 1514.05 636.423 1518.52 636.423 1523.77C636.423 1529.02 635.557 1533.51 633.824 1537.26C632.137 1540.96 629.819 1543.82 626.867 1545.83C623.916 1547.8 620.544 1548.79 616.749 1548.79ZM616.749 1544.15C619.654 1544.15 622.183 1543.37 624.338 1541.83C626.493 1540.24 628.179 1537.94 629.397 1534.94C630.615 1531.9 631.224 1528.17 631.224 1523.77C631.224 1519.37 630.615 1515.67 629.397 1512.67C628.179 1509.62 626.493 1507.33 624.338 1505.78C622.183 1504.19 619.654 1503.39 616.749 1503.39C613.939 1503.39 611.433 1504.19 609.231 1505.78C607.029 1507.33 605.32 1509.62 604.102 1512.67C602.884 1515.67 602.275 1519.37 602.275 1523.77C602.275 1528.17 602.884 1531.9 604.102 1534.94C605.32 1537.94 607.029 1540.24 609.231 1541.83C611.433 1543.37 613.939 1544.15 616.749 1544.15Z" fill="black"/>
<path d="M808.286 1535.44V1531.78L834.355 1499.18H839.976L814.118 1531.78L811.378 1530.94H850.937V1535.44H808.286ZM836.041 1548.36V1535.44L836.181 1530.94V1519.56H841.1V1548.36H836.041ZM875.188 1548.79C871.393 1548.79 868.021 1547.8 865.07 1545.83C862.118 1543.82 859.8 1540.96 858.113 1537.26C856.427 1533.51 855.584 1529.02 855.584 1523.77C855.584 1518.52 856.427 1514.05 858.113 1510.35C859.8 1506.6 862.118 1503.75 865.07 1501.78C868.021 1499.76 871.393 1498.76 875.188 1498.76C878.982 1498.76 882.355 1499.76 885.306 1501.78C888.257 1503.75 890.576 1506.6 892.262 1510.35C893.995 1514.05 894.862 1518.52 894.862 1523.77C894.862 1529.02 893.995 1533.51 892.262 1537.26C890.576 1540.96 888.257 1543.82 885.306 1545.83C882.355 1547.8 878.982 1548.79 875.188 1548.79ZM875.188 1544.15C878.092 1544.15 880.622 1543.37 882.776 1541.83C884.931 1540.24 886.617 1537.94 887.835 1534.94C889.053 1531.9 889.662 1528.17 889.662 1523.77C889.662 1519.37 889.053 1515.67 887.835 1512.67C886.617 1509.62 884.931 1507.33 882.776 1505.78C880.622 1504.19 878.092 1503.39 875.188 1503.39C872.377 1503.39 869.871 1504.19 867.669 1505.78C865.468 1507.33 863.758 1509.62 862.54 1512.67C861.322 1515.67 860.713 1519.37 860.713 1523.77C860.713 1528.17 861.322 1531.9 862.54 1534.94C863.758 1537.94 865.468 1540.24 867.669 1541.83C869.871 1543.37 872.377 1544.15 875.188 1544.15Z" fill="black"/>
<path d="M1081.08 1548.79C1076.72 1548.79 1073.04 1547.83 1070.05 1545.9C1067.05 1543.94 1064.78 1541.13 1063.23 1537.47C1061.68 1533.77 1060.91 1529.35 1060.91 1524.19C1060.91 1518.62 1061.85 1513.96 1063.72 1510.21C1065.64 1506.42 1068.29 1503.56 1071.66 1501.64C1075.04 1499.72 1078.95 1498.76 1083.4 1498.76C1085.6 1498.76 1087.71 1498.97 1089.72 1499.39C1091.73 1499.81 1093.51 1500.49 1095.06 1501.43L1093.02 1505.5C1091.76 1504.66 1090.31 1504.07 1088.67 1503.75C1087.03 1503.37 1085.29 1503.18 1083.47 1503.18C1078.17 1503.18 1073.93 1504.87 1070.75 1508.24C1067.61 1511.62 1066.04 1516.65 1066.04 1523.35C1066.04 1524.38 1066.09 1525.67 1066.18 1527.21C1066.32 1528.71 1066.6 1530.21 1067.02 1531.71L1065.27 1530.38C1065.78 1527.94 1066.79 1525.88 1068.29 1524.19C1069.79 1522.46 1071.66 1521.15 1073.91 1520.26C1076.16 1519.37 1078.62 1518.92 1081.29 1518.92C1084.57 1518.92 1087.45 1519.53 1089.93 1520.75C1092.41 1521.97 1094.36 1523.68 1095.76 1525.88C1097.17 1528.08 1097.87 1530.68 1097.87 1533.68C1097.87 1536.72 1097.15 1539.39 1095.69 1541.69C1094.24 1543.94 1092.23 1545.69 1089.65 1546.96C1087.12 1548.18 1084.26 1548.79 1081.08 1548.79ZM1080.87 1544.5C1083.21 1544.5 1085.27 1544.08 1087.05 1543.23C1088.88 1542.34 1090.31 1541.1 1091.34 1539.51C1092.37 1537.87 1092.88 1535.97 1092.88 1533.82C1092.88 1530.59 1091.76 1528.01 1089.51 1526.09C1087.31 1524.17 1084.31 1523.21 1080.52 1523.21C1077.99 1523.21 1075.78 1523.68 1073.91 1524.61C1072.04 1525.55 1070.56 1526.84 1069.48 1528.48C1068.41 1530.07 1067.87 1531.9 1067.87 1533.96C1067.87 1535.74 1068.36 1537.45 1069.34 1539.09C1070.33 1540.68 1071.78 1541.99 1073.7 1543.02C1075.67 1544.01 1078.06 1544.5 1080.87 1544.5ZM1123.33 1548.79C1119.54 1548.79 1116.17 1547.8 1113.22 1545.83C1110.26 1543.82 1107.95 1540.96 1106.26 1537.26C1104.57 1533.51 1103.73 1529.02 1103.73 1523.77C1103.73 1518.52 1104.57 1514.05 1106.26 1510.35C1107.95 1506.6 1110.26 1503.75 1113.22 1501.78C1116.17 1499.76 1119.54 1498.76 1123.33 1498.76C1127.13 1498.76 1130.5 1499.76 1133.45 1501.78C1136.4 1503.75 1138.72 1506.6 1140.41 1510.35C1142.14 1514.05 1143.01 1518.52 1143.01 1523.77C1143.01 1529.02 1142.14 1533.51 1140.41 1537.26C1138.72 1540.96 1136.4 1543.82 1133.45 1545.83C1130.5 1547.8 1127.13 1548.79 1123.33 1548.79ZM1123.33 1544.15C1126.24 1544.15 1128.77 1543.37 1130.92 1541.83C1133.08 1540.24 1134.76 1537.94 1135.98 1534.94C1137.2 1531.9 1137.81 1528.17 1137.81 1523.77C1137.81 1519.37 1137.2 1515.67 1135.98 1512.67C1134.76 1509.62 1133.08 1507.33 1130.92 1505.78C1128.77 1504.19 1126.24 1503.39 1123.33 1503.39C1120.52 1503.39 1118.02 1504.19 1115.82 1505.78C1113.61 1507.33 1111.9 1509.62 1110.69 1512.67C1109.47 1515.67 1108.86 1519.37 1108.86 1523.77C1108.86 1528.17 1109.47 1531.9 1110.69 1534.94C1111.9 1537.94 1113.61 1540.24 1115.82 1541.83C1118.02 1543.37 1120.52 1544.15 1123.33 1544.15Z" fill="black"/>
<path d="M1331.38 1548.79C1327.45 1548.79 1324.05 1548.22 1321.2 1547.1C1318.39 1545.97 1316.21 1544.36 1314.66 1542.25C1313.16 1540.1 1312.41 1537.57 1312.41 1534.66C1312.41 1531.85 1313.14 1529.46 1314.59 1527.5C1316.09 1525.48 1318.25 1523.94 1321.06 1522.86C1323.91 1521.78 1327.36 1521.24 1331.38 1521.24C1335.37 1521.24 1338.79 1521.78 1341.64 1522.86C1344.5 1523.94 1346.68 1525.48 1348.18 1527.5C1349.72 1529.46 1350.5 1531.85 1350.5 1534.66C1350.5 1537.57 1349.72 1540.1 1348.18 1542.25C1346.63 1544.36 1344.43 1545.97 1341.57 1547.1C1338.72 1548.22 1335.32 1548.79 1331.38 1548.79ZM1331.38 1544.5C1335.74 1544.5 1339.14 1543.61 1341.57 1541.83C1344.06 1540.05 1345.3 1537.64 1345.3 1534.59C1345.3 1531.55 1344.06 1529.16 1341.57 1527.42C1339.14 1525.64 1335.74 1524.75 1331.38 1524.75C1327.03 1524.75 1323.63 1525.64 1321.2 1527.42C1318.76 1529.16 1317.54 1531.55 1317.54 1534.59C1317.54 1537.64 1318.76 1540.05 1321.2 1541.83C1323.63 1543.61 1327.03 1544.5 1331.38 1544.5ZM1331.38 1524.12C1327.73 1524.12 1324.62 1523.63 1322.04 1522.65C1319.51 1521.66 1317.57 1520.26 1316.21 1518.43C1314.85 1516.56 1314.17 1514.33 1314.17 1511.76C1314.17 1509.04 1314.87 1506.72 1316.28 1504.8C1317.73 1502.83 1319.74 1501.33 1322.32 1500.3C1324.9 1499.27 1327.92 1498.76 1331.38 1498.76C1334.85 1498.76 1337.87 1499.27 1340.45 1500.3C1343.07 1501.33 1345.11 1502.83 1346.56 1504.8C1348.01 1506.72 1348.74 1509.04 1348.74 1511.76C1348.74 1514.33 1348.06 1516.56 1346.7 1518.43C1345.34 1520.26 1343.35 1521.66 1340.73 1522.65C1338.15 1523.63 1335.04 1524.12 1331.38 1524.12ZM1331.38 1520.75C1335.23 1520.75 1338.22 1519.95 1340.38 1518.36C1342.53 1516.77 1343.61 1514.64 1343.61 1511.97C1343.61 1509.16 1342.49 1506.98 1340.24 1505.43C1338.04 1503.84 1335.09 1503.04 1331.38 1503.04C1327.68 1503.04 1324.73 1503.84 1322.53 1505.43C1320.33 1506.98 1319.23 1509.13 1319.23 1511.9C1319.23 1514.61 1320.28 1516.77 1322.39 1518.36C1324.55 1519.95 1327.54 1520.75 1331.38 1520.75ZM1377.11 1548.79C1373.31 1548.79 1369.94 1547.8 1366.99 1545.83C1364.04 1543.82 1361.72 1540.96 1360.03 1537.26C1358.35 1533.51 1357.5 1529.02 1357.5 1523.77C1357.5 1518.52 1358.35 1514.05 1360.03 1510.35C1361.72 1506.6 1364.04 1503.75 1366.99 1501.78C1369.94 1499.76 1373.31 1498.76 1377.11 1498.76C1380.9 1498.76 1384.27 1499.76 1387.22 1501.78C1390.18 1503.75 1392.49 1506.6 1394.18 1510.35C1395.91 1514.05 1396.78 1518.52 1396.78 1523.77C1396.78 1529.02 1395.91 1533.51 1394.18 1537.26C1392.49 1540.96 1390.18 1543.82 1387.22 1545.83C1384.27 1547.8 1380.9 1548.79 1377.11 1548.79ZM1377.11 1544.15C1380.01 1544.15 1382.54 1543.37 1384.69 1541.83C1386.85 1540.24 1388.54 1537.94 1389.75 1534.94C1390.97 1531.9 1391.58 1528.17 1391.58 1523.77C1391.58 1519.37 1390.97 1515.67 1389.75 1512.67C1388.54 1509.62 1386.85 1507.33 1384.69 1505.78C1382.54 1504.19 1380.01 1503.39 1377.11 1503.39C1374.3 1503.39 1371.79 1504.19 1369.59 1505.78C1367.39 1507.33 1365.68 1509.62 1364.46 1512.67C1363.24 1515.67 1362.63 1519.37 1362.63 1523.77C1362.63 1528.17 1363.24 1531.9 1364.46 1534.94C1365.68 1537.94 1367.39 1540.24 1369.59 1541.83C1371.79 1543.37 1374.3 1544.15 1377.11 1544.15Z" fill="black"/>
<path d="M1573.05 1548.36V1501.29L1575.3 1503.68H1561.46V1499.18H1578.11V1548.36H1573.05ZM1609.47 1548.79C1605.68 1548.79 1602.3 1547.8 1599.35 1545.83C1596.4 1543.82 1594.08 1540.96 1592.4 1537.26C1590.71 1533.51 1589.87 1529.02 1589.87 1523.77C1589.87 1518.52 1590.71 1514.05 1592.4 1510.35C1594.08 1506.6 1596.4 1503.75 1599.35 1501.78C1602.3 1499.76 1605.68 1498.76 1609.47 1498.76C1613.26 1498.76 1616.64 1499.76 1619.59 1501.78C1622.54 1503.75 1624.86 1506.6 1626.54 1510.35C1628.28 1514.05 1629.14 1518.52 1629.14 1523.77C1629.14 1529.02 1628.28 1533.51 1626.54 1537.26C1624.86 1540.96 1622.54 1543.82 1619.59 1545.83C1616.64 1547.8 1613.26 1548.79 1609.47 1548.79ZM1609.47 1544.15C1612.37 1544.15 1614.9 1543.37 1617.06 1541.83C1619.21 1540.24 1620.9 1537.94 1622.12 1534.94C1623.34 1531.9 1623.94 1528.17 1623.94 1523.77C1623.94 1519.37 1623.34 1515.67 1622.12 1512.67C1620.9 1509.62 1619.21 1507.33 1617.06 1505.78C1614.9 1504.19 1612.37 1503.39 1609.47 1503.39C1606.66 1503.39 1604.15 1504.19 1601.95 1505.78C1599.75 1507.33 1598.04 1509.62 1596.82 1512.67C1595.6 1515.67 1594.99 1519.37 1594.99 1523.77C1594.99 1528.17 1595.6 1531.9 1596.82 1534.94C1598.04 1537.94 1599.75 1540.24 1601.95 1541.83C1604.15 1543.37 1606.66 1544.15 1609.47 1544.15ZM1655.99 1548.79C1652.2 1548.79 1648.83 1547.8 1645.87 1545.83C1642.92 1543.82 1640.6 1540.96 1638.92 1537.26C1637.23 1533.51 1636.39 1529.02 1636.39 1523.77C1636.39 1518.52 1637.23 1514.05 1638.92 1510.35C1640.6 1506.6 1642.92 1503.75 1645.87 1501.78C1648.83 1499.76 1652.2 1498.76 1655.99 1498.76C1659.79 1498.76 1663.16 1499.76 1666.11 1501.78C1669.06 1503.75 1671.38 1506.6 1673.07 1510.35C1674.8 1514.05 1675.67 1518.52 1675.67 1523.77C1675.67 1529.02 1674.8 1533.51 1673.07 1537.26C1671.38 1540.96 1669.06 1543.82 1666.11 1545.83C1663.16 1547.8 1659.79 1548.79 1655.99 1548.79ZM1655.99 1544.15C1658.9 1544.15 1661.43 1543.37 1663.58 1541.83C1665.74 1540.24 1667.42 1537.94 1668.64 1534.94C1669.86 1531.9 1670.47 1528.17 1670.47 1523.77C1670.47 1519.37 1669.86 1515.67 1668.64 1512.67C1667.42 1509.62 1665.74 1507.33 1663.58 1505.78C1661.43 1504.19 1658.9 1503.39 1655.99 1503.39C1653.18 1503.39 1650.68 1504.19 1648.47 1505.78C1646.27 1507.33 1644.56 1509.62 1643.34 1512.67C1642.13 1515.67 1641.52 1519.37 1641.52 1523.77C1641.52 1528.17 1642.13 1531.9 1643.34 1534.94C1644.56 1537.94 1646.27 1540.24 1648.47 1541.83C1650.68 1543.37 1653.18 1544.15 1655.99 1544.15Z" fill="black"/>
<path d="M1871.67 1548.36V1501.29L1873.92 1503.68H1860.08V1499.18H1876.73V1548.36H1871.67ZM1887.58 1548.36V1544.78L1908.02 1524.75C1909.9 1522.93 1911.3 1521.34 1912.24 1519.98C1913.18 1518.57 1913.81 1517.26 1914.14 1516.04C1914.47 1514.82 1914.63 1513.68 1914.63 1512.6C1914.63 1509.74 1913.65 1507.49 1911.68 1505.85C1909.76 1504.21 1906.9 1503.39 1903.11 1503.39C1900.2 1503.39 1897.63 1503.84 1895.38 1504.73C1893.18 1505.62 1891.28 1507 1889.69 1508.87L1886.1 1505.78C1888.02 1503.53 1890.48 1501.8 1893.48 1500.58C1896.48 1499.37 1899.83 1498.76 1903.53 1498.76C1906.85 1498.76 1909.73 1499.3 1912.17 1500.37C1914.61 1501.4 1916.48 1502.93 1917.79 1504.94C1919.15 1506.95 1919.83 1509.32 1919.83 1512.04C1919.83 1513.63 1919.6 1515.2 1919.13 1516.74C1918.71 1518.29 1917.91 1519.93 1916.74 1521.66C1915.61 1523.35 1913.95 1525.27 1911.75 1527.42L1892.99 1545.83L1891.58 1543.87H1922.08V1548.36H1887.58ZM1943.96 1548.79C1940.44 1548.79 1937.09 1548.22 1933.91 1547.1C1930.72 1545.93 1928.19 1544.38 1926.32 1542.46L1928.78 1538.46C1930.32 1540.1 1932.43 1541.45 1935.1 1542.53C1937.82 1543.61 1940.75 1544.15 1943.89 1544.15C1948.05 1544.15 1951.22 1543.23 1953.37 1541.41C1955.57 1539.53 1956.67 1537.1 1956.67 1534.1C1956.67 1531.99 1956.16 1530.19 1955.13 1528.69C1954.14 1527.14 1952.46 1525.95 1950.07 1525.11C1947.68 1524.26 1944.4 1523.84 1940.23 1523.84H1929.76L1932.29 1499.18H1959.2V1503.68H1934.33L1936.93 1501.22L1934.75 1521.87L1932.15 1519.34H1941.36C1946.32 1519.34 1950.3 1519.95 1953.3 1521.17C1956.3 1522.39 1958.45 1524.1 1959.77 1526.3C1961.12 1528.46 1961.8 1530.98 1961.8 1533.89C1961.8 1536.65 1961.15 1539.18 1959.84 1541.48C1958.52 1543.73 1956.56 1545.51 1953.93 1546.82C1951.31 1548.13 1947.98 1548.79 1943.96 1548.79Z" fill="black"/>
<path d="M2129.31 1548.36V1501.29L2131.56 1503.68H2117.72V1499.18H2134.37V1548.36H2129.31ZM2161.66 1548.79C2158.14 1548.79 2154.79 1548.22 2151.61 1547.1C2148.42 1545.93 2145.89 1544.38 2144.02 1542.46L2146.48 1538.46C2148.03 1540.1 2150.13 1541.45 2152.8 1542.53C2155.52 1543.61 2158.45 1544.15 2161.59 1544.15C2165.76 1544.15 2168.92 1543.23 2171.07 1541.41C2173.27 1539.53 2174.38 1537.1 2174.38 1534.1C2174.38 1531.99 2173.86 1530.19 2172.83 1528.69C2171.85 1527.14 2170.16 1525.95 2167.77 1525.11C2165.38 1524.26 2162.1 1523.84 2157.93 1523.84H2147.46L2149.99 1499.18H2176.9V1503.68H2152.03L2154.63 1501.22L2152.45 1521.87L2149.85 1519.34H2159.06C2164.02 1519.34 2168 1519.95 2171 1521.17C2174 1522.39 2176.16 1524.1 2177.47 1526.3C2178.83 1528.46 2179.5 1530.98 2179.5 1533.89C2179.5 1536.65 2178.85 1539.18 2177.54 1541.48C2176.23 1543.73 2174.26 1545.51 2171.64 1546.82C2169.01 1548.13 2165.69 1548.79 2161.66 1548.79ZM2205.53 1548.79C2201.74 1548.79 2198.36 1547.8 2195.41 1545.83C2192.46 1543.82 2190.14 1540.96 2188.46 1537.26C2186.77 1533.51 2185.93 1529.02 2185.93 1523.77C2185.93 1518.52 2186.77 1514.05 2188.46 1510.35C2190.14 1506.6 2192.46 1503.75 2195.41 1501.78C2198.36 1499.76 2201.74 1498.76 2205.53 1498.76C2209.33 1498.76 2212.7 1499.76 2215.65 1501.78C2218.6 1503.75 2220.92 1506.6 2222.61 1510.35C2224.34 1514.05 2225.21 1518.52 2225.21 1523.77C2225.21 1529.02 2224.34 1533.51 2222.61 1537.26C2220.92 1540.96 2218.6 1543.82 2215.65 1545.83C2212.7 1547.8 2209.33 1548.79 2205.53 1548.79ZM2205.53 1544.15C2208.44 1544.15 2210.97 1543.37 2213.12 1541.83C2215.27 1540.24 2216.96 1537.94 2218.18 1534.94C2219.4 1531.9 2220.01 1528.17 2220.01 1523.77C2220.01 1519.37 2219.4 1515.67 2218.18 1512.67C2216.96 1509.62 2215.27 1507.33 2213.12 1505.78C2210.97 1504.19 2208.44 1503.39 2205.53 1503.39C2202.72 1503.39 2200.21 1504.19 2198.01 1505.78C2195.81 1507.33 2194.1 1509.62 2192.88 1512.67C2191.67 1515.67 2191.06 1519.37 2191.06 1523.77C2191.06 1528.17 2191.67 1531.9 2192.88 1534.94C2194.1 1537.94 2195.81 1540.24 2198.01 1541.83C2200.21 1543.37 2202.72 1544.15 2205.53 1544.15Z" fill="black"/>
<path d="M206.85 1322.11V1318.52L227.297 1298.5C229.171 1296.67 230.576 1295.08 231.513 1293.72C232.45 1292.31 233.082 1291 233.41 1289.79C233.738 1288.57 233.902 1287.42 233.902 1286.34C233.902 1283.48 232.918 1281.24 230.951 1279.6C229.03 1277.96 226.173 1277.14 222.379 1277.14C219.474 1277.14 216.898 1277.58 214.65 1278.47C212.448 1279.36 210.551 1280.74 208.958 1282.62L205.375 1279.53C207.295 1277.28 209.754 1275.54 212.752 1274.33C215.75 1273.11 219.1 1272.5 222.8 1272.5C226.126 1272.5 229.007 1273.04 231.443 1274.12C233.879 1275.15 235.752 1276.67 237.064 1278.68C238.422 1280.7 239.102 1283.06 239.102 1285.78C239.102 1287.37 238.867 1288.94 238.399 1290.49C237.977 1292.03 237.181 1293.67 236.01 1295.41C234.886 1297.09 233.223 1299.01 231.021 1301.17L212.26 1319.58L210.855 1317.61H241.35V1322.11H206.85ZM267.166 1322.53C263.372 1322.53 259.999 1321.55 257.048 1319.58C254.097 1317.56 251.778 1314.71 250.092 1311.01C248.405 1307.26 247.562 1302.76 247.562 1297.51C247.562 1292.27 248.405 1287.79 250.092 1284.09C251.778 1280.35 254.097 1277.49 257.048 1275.52C259.999 1273.51 263.372 1272.5 267.166 1272.5C270.96 1272.5 274.333 1273.51 277.284 1275.52C280.235 1277.49 282.554 1280.35 284.24 1284.09C285.973 1287.79 286.84 1292.27 286.84 1297.51C286.84 1302.76 285.973 1307.26 284.24 1311.01C282.554 1314.71 280.235 1317.56 277.284 1319.58C274.333 1321.55 270.96 1322.53 267.166 1322.53ZM267.166 1317.89C270.07 1317.89 272.6 1317.12 274.755 1315.57C276.909 1313.98 278.596 1311.68 279.814 1308.69C281.032 1305.64 281.64 1301.92 281.64 1297.51C281.64 1293.11 281.032 1289.41 279.814 1286.41C278.596 1283.37 276.909 1281.07 274.755 1279.53C272.6 1277.93 270.07 1277.14 267.166 1277.14C264.355 1277.14 261.849 1277.93 259.648 1279.53C257.446 1281.07 255.736 1283.37 254.518 1286.41C253.3 1289.41 252.691 1293.11 252.691 1297.51C252.691 1301.92 253.3 1305.64 254.518 1308.69C255.736 1311.68 257.446 1313.98 259.648 1315.57C261.849 1317.12 264.355 1317.89 267.166 1317.89Z" fill="black"/>
<path d="M206.92 1045.11V1041.45L232.989 1008.85H238.61L212.752 1041.45L210.012 1040.61L249.571 1040.61V1045.11H206.92ZM234.675 1058.04V1045.11L234.816 1040.61V1029.23H239.734V1058.04H234.675ZM273.822 1058.46C270.028 1058.46 266.655 1057.47 263.704 1055.51C260.753 1053.49 258.434 1050.63 256.747 1046.93C255.061 1043.19 254.218 1038.69 254.218 1033.44C254.218 1028.2 255.061 1023.72 256.747 1020.02C258.434 1016.28 260.753 1013.42 263.704 1011.45C266.655 1009.44 270.028 1008.43 273.822 1008.43C277.616 1008.43 280.989 1009.44 283.94 1011.45C286.891 1013.42 289.21 1016.28 290.896 1020.02C292.629 1023.72 293.496 1028.2 293.496 1033.44C293.496 1038.69 292.629 1043.19 290.896 1046.93C289.21 1050.63 286.891 1053.49 283.94 1055.51C280.989 1057.47 277.616 1058.46 273.822 1058.46ZM273.822 1053.82C276.726 1053.82 279.256 1053.05 281.41 1051.5C283.565 1049.91 285.252 1047.61 286.47 1044.62C287.687 1041.57 288.296 1037.85 288.296 1033.44C288.296 1029.04 287.687 1025.34 286.47 1022.34C285.252 1019.3 283.565 1017 281.41 1015.46C279.256 1013.86 276.726 1013.07 273.822 1013.07C271.011 1013.07 268.505 1013.86 266.304 1015.46C264.102 1017 262.392 1019.3 261.174 1022.34C259.956 1025.34 259.347 1029.04 259.347 1033.44C259.347 1037.85 259.956 1041.57 261.174 1044.62C262.392 1047.61 264.102 1049.91 266.304 1051.5C268.505 1053.05 271.011 1053.82 273.822 1053.82Z" fill="black"/>
<path d="M225.189 797.289C220.832 797.289 217.155 796.328 214.157 794.408C211.159 792.441 208.887 789.63 207.342 785.976C205.796 782.276 205.023 777.849 205.023 772.696C205.023 767.122 205.96 762.461 207.833 758.713C209.754 754.919 212.401 752.062 215.773 750.141C219.146 748.22 223.058 747.26 227.508 747.26C229.709 747.26 231.817 747.471 233.831 747.893C235.846 748.314 237.626 748.993 239.172 749.93L237.134 754.006C235.869 753.162 234.417 752.577 232.778 752.249C231.138 751.874 229.405 751.687 227.578 751.687C222.285 751.687 218.045 753.373 214.86 756.746C211.721 760.119 210.152 765.154 210.152 771.853C210.152 772.883 210.199 774.172 210.293 775.717C210.433 777.216 210.714 778.715 211.136 780.214L209.379 778.879C209.895 776.444 210.902 774.382 212.401 772.696C213.9 770.963 215.773 769.651 218.022 768.761C220.27 767.871 222.73 767.426 225.4 767.426C228.679 767.426 231.56 768.035 234.042 769.253C236.525 770.471 238.469 772.181 239.874 774.382C241.28 776.584 241.982 779.184 241.982 782.182C241.982 785.227 241.256 787.897 239.804 790.192C238.352 792.441 236.338 794.197 233.761 795.462C231.232 796.68 228.374 797.289 225.189 797.289ZM224.978 793.003C227.32 793.003 229.381 792.581 231.161 791.738C232.988 790.848 234.417 789.606 235.448 788.014C236.478 786.374 236.993 784.477 236.993 782.322C236.993 779.09 235.869 776.514 233.621 774.593C231.419 772.673 228.421 771.712 224.627 771.712C222.097 771.712 219.896 772.181 218.022 773.118C216.148 774.055 214.673 775.343 213.595 776.982C212.518 778.575 211.979 780.402 211.979 782.463C211.979 784.243 212.471 785.953 213.455 787.592C214.438 789.185 215.891 790.497 217.811 791.527C219.779 792.511 222.168 793.003 224.978 793.003ZM267.444 797.289C263.65 797.289 260.277 796.305 257.326 794.338C254.375 792.323 252.056 789.466 250.37 785.765C248.684 782.018 247.841 777.521 247.841 772.274C247.841 767.028 248.684 762.555 250.37 758.854C252.056 755.106 254.375 752.249 257.326 750.282C260.277 748.267 263.65 747.26 267.444 747.26C271.239 747.26 274.611 748.267 277.563 750.282C280.514 752.249 282.832 755.106 284.519 758.854C286.252 762.555 287.119 767.028 287.119 772.274C287.119 777.521 286.252 782.018 284.519 785.765C282.832 789.466 280.514 792.323 277.563 794.338C274.611 796.305 271.239 797.289 267.444 797.289ZM267.444 792.651C270.349 792.651 272.878 791.878 275.033 790.333C277.188 788.74 278.874 786.445 280.092 783.447C281.31 780.402 281.919 776.678 281.919 772.274C281.919 767.871 281.31 764.171 280.092 761.173C278.874 758.128 277.188 755.833 275.033 754.287C272.878 752.694 270.349 751.898 267.444 751.898C264.634 751.898 262.128 752.694 259.926 754.287C257.724 755.833 256.015 758.128 254.797 761.173C253.579 764.171 252.97 767.871 252.97 772.274C252.97 776.678 253.579 780.402 254.797 783.447C256.015 786.445 257.724 788.74 259.926 790.333C262.128 791.878 264.634 792.651 267.444 792.651Z" fill="black"/>
<path d="M226.454 533.217C222.519 533.217 219.123 532.655 216.266 531.531C213.455 530.407 211.277 528.791 209.731 526.683C208.232 524.528 207.482 521.999 207.482 519.094C207.482 516.284 208.209 513.895 209.661 511.927C211.16 509.913 213.314 508.367 216.125 507.29C218.983 506.212 222.425 505.674 226.454 505.674C230.436 505.674 233.855 506.212 236.713 507.29C239.57 508.367 241.748 509.913 243.247 511.927C244.793 513.895 245.566 516.284 245.566 519.094C245.566 521.999 244.793 524.528 243.247 526.683C241.701 528.791 239.5 530.407 236.642 531.531C233.785 532.655 230.389 533.217 226.454 533.217ZM226.454 528.931C230.81 528.931 234.207 528.041 236.642 526.261C239.125 524.481 240.366 522.069 240.366 519.024C240.366 515.979 239.125 513.59 236.642 511.857C234.207 510.077 230.81 509.187 226.454 509.187C222.098 509.187 218.701 510.077 216.266 511.857C213.83 513.59 212.612 515.979 212.612 519.024C212.612 522.069 213.83 524.481 216.266 526.261C218.701 528.041 222.098 528.931 226.454 528.931ZM226.454 508.555C222.8 508.555 219.685 508.063 217.109 507.079C214.579 506.095 212.635 504.69 211.277 502.863C209.918 500.989 209.239 498.764 209.239 496.188C209.239 493.471 209.942 491.152 211.347 489.232C212.799 487.264 214.813 485.765 217.39 484.735C219.966 483.704 222.988 483.189 226.454 483.189C229.92 483.189 232.942 483.704 235.518 484.735C238.141 485.765 240.179 487.264 241.631 489.232C243.083 491.152 243.809 493.471 243.809 496.188C243.809 498.764 243.13 500.989 241.772 502.863C240.413 504.69 238.422 506.095 235.799 507.079C233.223 508.063 230.108 508.555 226.454 508.555ZM226.454 505.182C230.295 505.182 233.293 504.385 235.448 502.793C237.603 501.2 238.68 499.069 238.68 496.399C238.68 493.588 237.556 491.41 235.307 489.864C233.106 488.271 230.155 487.475 226.454 487.475C222.753 487.475 219.802 488.271 217.601 489.864C215.399 491.41 214.298 493.565 214.298 496.328C214.298 499.045 215.352 501.2 217.46 502.793C219.615 504.385 222.613 505.182 226.454 505.182ZM272.175 533.217C268.381 533.217 265.008 532.234 262.057 530.266C259.106 528.252 256.787 525.395 255.101 521.694C253.414 517.947 252.571 513.45 252.571 508.203C252.571 502.957 253.414 498.483 255.101 494.783C256.787 491.035 259.106 488.178 262.057 486.21C265.008 484.196 268.381 483.189 272.175 483.189C275.969 483.189 279.342 484.196 282.293 486.21C285.244 488.178 287.563 491.035 289.249 494.783C290.983 498.483 291.849 502.957 291.849 508.203C291.849 513.45 290.983 517.947 289.249 521.694C287.563 525.395 285.244 528.252 282.293 530.266C279.342 532.234 275.969 533.217 272.175 533.217ZM272.175 528.58C275.079 528.58 277.609 527.807 279.764 526.261C281.918 524.669 283.605 522.373 284.823 519.375C286.041 516.33 286.65 512.606 286.65 508.203C286.65 503.8 286.041 500.099 284.823 497.101C283.605 494.057 281.918 491.761 279.764 490.215C277.609 488.623 275.079 487.826 272.175 487.826C269.364 487.826 266.858 488.623 264.657 490.215C262.455 491.761 260.745 494.057 259.527 497.101C258.309 500.099 257.7 503.8 257.7 508.203C257.7 512.606 258.309 516.33 259.527 519.375C260.745 522.373 262.455 524.669 264.657 526.261C266.858 527.807 269.364 528.58 272.175 528.58Z" fill="black"/>
<path d="M216.336 274.528L216.336 227.451L218.584 229.84H204.742V225.343H221.395V274.528H216.336ZM252.756 274.95C248.962 274.95 245.589 273.966 242.638 271.999C239.687 269.984 237.368 267.127 235.682 263.426C233.995 259.679 233.152 255.182 233.152 249.935C233.152 244.689 233.995 240.216 235.682 236.515C237.368 232.767 239.687 229.91 242.638 227.943C245.589 225.928 248.962 224.921 252.756 224.921C256.55 224.921 259.923 225.928 262.874 227.943C265.825 229.91 268.144 232.767 269.831 236.515C271.564 240.216 272.43 244.689 272.43 249.935C272.43 255.182 271.564 259.679 269.831 263.426C268.144 267.127 265.825 269.984 262.874 271.999C259.923 273.966 256.55 274.95 252.756 274.95ZM252.756 270.312C255.66 270.312 258.19 269.539 260.345 267.994C262.5 266.401 264.186 264.106 265.404 261.108C266.622 258.063 267.231 254.339 267.231 249.935C267.231 245.532 266.622 241.832 265.404 238.834C264.186 235.789 262.5 233.494 260.345 231.948C258.19 230.355 255.66 229.559 252.756 229.559C249.946 229.559 247.439 230.355 245.238 231.948C243.036 233.494 241.326 235.789 240.108 238.834C238.891 241.832 238.282 245.532 238.282 249.935C238.282 254.339 238.891 258.063 240.108 261.108C241.326 264.106 243.036 266.401 245.238 267.994C247.439 269.539 249.946 270.312 252.756 270.312ZM299.279 274.95C295.485 274.95 292.112 273.966 289.161 271.999C286.21 269.984 283.891 267.127 282.205 263.426C280.518 259.679 279.675 255.182 279.675 249.935C279.675 244.689 280.518 240.216 282.205 236.515C283.891 232.767 286.21 229.91 289.161 227.943C292.112 225.928 295.485 224.921 299.279 224.921C303.073 224.921 306.446 225.928 309.397 227.943C312.348 229.91 314.667 232.767 316.354 236.515C318.087 240.216 318.953 244.689 318.953 249.935C318.953 255.182 318.087 259.679 316.354 263.426C314.667 267.127 312.348 269.984 309.397 271.999C306.446 273.966 303.073 274.95 299.279 274.95ZM299.279 270.312C302.183 270.312 304.713 269.539 306.868 267.994C309.023 266.401 310.709 264.106 311.927 261.108C313.145 258.063 313.754 254.339 313.754 249.935C313.754 245.532 313.145 241.832 311.927 238.834C310.709 235.789 309.023 233.494 306.868 231.948C304.713 230.355 302.183 229.559 299.279 229.559C296.469 229.559 293.962 230.355 291.761 231.948C289.559 233.494 287.849 235.789 286.632 238.834C285.414 241.832 284.805 245.532 284.805 249.935C284.805 254.339 285.414 258.063 286.632 261.108C287.849 264.106 289.559 266.401 291.761 267.994C293.962 269.539 296.469 270.312 299.279 270.312Z" fill="black"/>
<path d="M1931.87 236.804V187.618H1936.15L1970.09 230.339H1967.84V187.618H1972.97V236.804H1968.69L1934.82 194.083H1937.07V236.804H1931.87ZM2003.64 237.155C1999.8 237.155 1996.43 236.359 1993.52 234.766C1990.62 233.126 1988.35 230.901 1986.71 228.091C1985.07 225.233 1984.25 221.978 1984.25 218.324C1984.25 214.67 1985.02 211.438 1986.57 208.627C1988.16 205.817 1990.32 203.615 1993.03 202.023C1995.8 200.383 1998.89 199.563 2002.31 199.563C2005.77 199.563 2008.84 200.36 2011.51 201.952C2014.23 203.498 2016.36 205.7 2017.91 208.557C2019.45 211.368 2020.22 214.623 2020.22 218.324C2020.22 218.558 2020.2 218.816 2020.15 219.097C2020.15 219.331 2020.15 219.589 2020.15 219.87H1988.04V216.146H2017.48L2015.52 217.621C2015.52 214.951 2014.93 212.586 2013.76 210.525C2012.64 208.417 2011.09 206.777 2009.12 205.606C2007.16 204.435 2004.88 203.849 2002.31 203.849C1999.78 203.849 1997.51 204.435 1995.49 205.606C1993.48 206.777 1991.91 208.417 1990.78 210.525C1989.66 212.633 1989.1 215.045 1989.1 217.762V218.535C1989.1 221.345 1989.71 223.828 1990.92 225.983C1992.19 228.091 1993.92 229.754 1996.12 230.972C1998.37 232.143 2000.93 232.728 2003.78 232.728C2006.03 232.728 2008.12 232.33 2010.04 231.534C2012 230.737 2013.69 229.52 2015.1 227.88L2017.91 231.112C2016.27 233.08 2014.21 234.579 2011.72 235.609C2009.29 236.64 2006.59 237.155 2003.64 237.155ZM2037.21 236.804L2023.3 199.915H2028.08L2040.72 234.134H2038.55L2051.55 199.915H2055.83L2068.69 234.134H2066.51L2079.37 199.915H2083.94L2069.95 236.804H2065.25L2052.88 204.622H2054.36L2041.92 236.804H2037.21ZM2110.89 236.804V187.618H2130.92C2136.16 187.618 2140.76 188.672 2144.69 190.78C2148.67 192.841 2151.76 195.722 2153.97 199.423C2156.17 203.123 2157.27 207.386 2157.27 212.211C2157.27 217.036 2156.17 221.299 2153.97 224.999C2151.76 228.7 2148.67 231.604 2144.69 233.712C2140.76 235.773 2136.16 236.804 2130.92 236.804H2110.89ZM2116.09 232.307H2130.64C2134.99 232.307 2138.76 231.464 2141.95 229.777C2145.18 228.044 2147.69 225.678 2149.47 222.68C2151.25 219.636 2152.14 216.146 2152.14 212.211C2152.14 208.229 2151.25 204.739 2149.47 201.741C2147.69 198.744 2145.18 196.401 2141.95 194.715C2138.76 192.982 2134.99 192.115 2130.64 192.115H2116.09V232.307ZM2191.01 236.804V228.653L2190.8 227.318V213.687C2190.8 210.548 2189.91 208.136 2188.13 206.449C2186.39 204.763 2183.79 203.92 2180.33 203.92C2177.94 203.92 2175.67 204.318 2173.51 205.114C2171.36 205.911 2169.53 206.965 2168.03 208.276L2165.78 204.552C2167.66 202.959 2169.9 201.741 2172.53 200.898C2175.15 200.008 2177.91 199.563 2180.82 199.563C2185.6 199.563 2189.27 200.758 2191.85 203.147C2194.47 205.489 2195.78 209.072 2195.78 213.897V236.804H2191.01ZM2178.29 237.155C2175.53 237.155 2173.11 236.71 2171.05 235.82C2169.04 234.883 2167.49 233.618 2166.41 232.026C2165.34 230.386 2164.8 228.512 2164.8 226.404C2164.8 224.484 2165.24 222.751 2166.13 221.205C2167.07 219.612 2168.57 218.347 2170.63 217.411C2172.74 216.427 2175.55 215.935 2179.06 215.935H2191.78V219.659H2179.2C2175.64 219.659 2173.16 220.291 2171.75 221.556C2170.4 222.821 2169.72 224.39 2169.72 226.264C2169.72 228.372 2170.54 230.058 2172.18 231.323C2173.82 232.588 2176.11 233.22 2179.06 233.22C2181.87 233.22 2184.28 232.588 2186.3 231.323C2188.36 230.011 2189.86 228.138 2190.8 225.702L2191.92 229.145C2190.98 231.581 2189.34 233.525 2187 234.977C2184.71 236.429 2181.8 237.155 2178.29 237.155ZM2221 237.155C2217.53 237.155 2214.86 236.218 2212.99 234.344C2211.12 232.471 2210.18 229.824 2210.18 226.404V191.764H2215.17V226.123C2215.17 228.278 2215.71 229.941 2216.78 231.112C2217.91 232.283 2219.5 232.869 2221.56 232.869C2223.76 232.869 2225.59 232.236 2227.04 230.972L2228.8 234.555C2227.81 235.445 2226.62 236.101 2225.21 236.523C2223.86 236.944 2222.45 237.155 2221 237.155ZM2203.57 204.06V199.915H2226.41V204.06H2203.57ZM2261 236.804V228.653L2260.79 227.318V213.687C2260.79 210.548 2259.9 208.136 2258.12 206.449C2256.38 204.763 2253.78 203.92 2250.32 203.92C2247.93 203.92 2245.66 204.318 2243.5 205.114C2241.35 205.911 2239.52 206.965 2238.02 208.276L2235.77 204.552C2237.65 202.959 2239.89 201.741 2242.52 200.898C2245.14 200.008 2247.9 199.563 2250.81 199.563C2255.59 199.563 2259.26 200.758 2261.84 203.147C2264.46 205.489 2265.78 209.072 2265.78 213.897V236.804H2261ZM2248.28 237.155C2245.52 237.155 2243.1 236.71 2241.04 235.82C2239.03 234.883 2237.48 233.618 2236.4 232.026C2235.33 230.386 2234.79 228.512 2234.79 226.404C2234.79 224.484 2235.23 222.751 2236.12 221.205C2237.06 219.612 2238.56 218.347 2240.62 217.411C2242.73 216.427 2245.54 215.935 2249.05 215.935H2261.77V219.659H2249.19C2245.63 219.659 2243.15 220.291 2241.74 221.556C2240.39 222.821 2239.71 224.39 2239.71 226.264C2239.71 228.372 2240.53 230.058 2242.17 231.323C2243.81 232.588 2246.1 233.22 2249.05 233.22C2251.86 233.22 2254.28 232.588 2256.29 231.323C2258.35 230.011 2259.85 228.138 2260.79 225.702L2261.91 229.145C2260.97 231.581 2259.33 233.525 2256.99 234.977C2254.7 236.429 2251.79 237.155 2248.28 237.155Z" fill="black"/>
</svg>
