<svg width="1305" height="782" viewBox="0 0 1305 782" fill="none" xmlns="http://www.w3.org/2000/svg">
<path d="M164.507 13V9.86434H158.236V13H164.507ZM164.507 655.8L164.507 13H158.236L158.236 655.8H164.507Z" fill="#153314"/>
<path d="M828.261 660.491H831.397V654.219H828.261V660.491ZM158.261 660.491H828.261V654.219H158.261V660.491Z" fill="#153314"/>
<path d="M397.885 755.16H402.776V781.499H397.885V755.16ZM384.264 781.499H379.372V755.16H384.264V781.499ZM398.261 770.211H383.85V766.034H398.261V770.211ZM418.413 781.762C416.356 781.762 414.525 781.323 412.92 780.445C411.314 779.542 410.047 778.313 409.119 776.758C408.191 775.203 407.727 773.434 407.727 771.453C407.727 769.446 408.191 767.677 409.119 766.147C410.047 764.592 411.314 763.375 412.92 762.497C414.525 761.619 416.356 761.18 418.413 761.18C420.495 761.18 422.339 761.619 423.944 762.497C425.575 763.375 426.842 764.579 427.745 766.109C428.673 767.64 429.137 769.421 429.137 771.453C429.137 773.434 428.673 775.203 427.745 776.758C426.842 778.313 425.575 779.542 423.944 780.445C422.339 781.323 420.495 781.762 418.413 781.762ZM418.413 777.736C419.567 777.736 420.596 777.485 421.499 776.984C422.402 776.482 423.104 775.755 423.606 774.801C424.132 773.848 424.396 772.732 424.396 771.453C424.396 770.148 424.132 769.032 423.606 768.104C423.104 767.15 422.402 766.423 421.499 765.921C420.596 765.42 419.58 765.169 418.451 765.169C417.297 765.169 416.268 765.42 415.365 765.921C414.487 766.423 413.785 767.15 413.258 768.104C412.731 769.032 412.468 770.148 412.468 771.453C412.468 772.732 412.731 773.848 413.258 774.801C413.785 775.755 414.487 776.482 415.365 776.984C416.268 777.485 417.284 777.736 418.413 777.736ZM442.138 781.762C440.433 781.762 438.927 781.449 437.623 780.822C436.319 780.17 435.303 779.191 434.575 777.887C433.848 776.557 433.484 774.889 433.484 772.882V761.406H438.187V772.243C438.187 774.049 438.589 775.403 439.392 776.306C440.219 777.184 441.386 777.623 442.891 777.623C443.995 777.623 444.948 777.398 445.751 776.946C446.578 776.495 447.218 775.817 447.67 774.914C448.146 774.011 448.384 772.895 448.384 771.565V761.406H453.088V781.499H448.61V776.081L449.4 777.736C448.723 779.041 447.732 780.044 446.428 780.746C445.123 781.424 443.694 781.762 442.138 781.762ZM459.246 781.499V761.406H463.724V766.937L463.197 765.319C463.799 763.965 464.74 762.936 466.019 762.234C467.323 761.531 468.941 761.18 470.873 761.18V765.658C470.672 765.608 470.484 765.583 470.309 765.583C470.133 765.558 469.957 765.545 469.782 765.545C468.001 765.545 466.583 766.072 465.53 767.125C464.476 768.154 463.95 769.697 463.95 771.754V781.499H459.246ZM481.255 781.762C479.574 781.762 477.956 781.549 476.401 781.123C474.871 780.671 473.654 780.132 472.751 779.505L474.557 775.93C475.461 776.507 476.539 776.984 477.793 777.36C479.048 777.736 480.302 777.924 481.556 777.924C483.036 777.924 484.102 777.724 484.754 777.322C485.432 776.921 485.77 776.382 485.77 775.704C485.77 775.153 485.545 774.739 485.093 774.463C484.642 774.162 484.052 773.936 483.325 773.785C482.597 773.635 481.782 773.497 480.879 773.372C480.001 773.246 479.11 773.083 478.207 772.882C477.329 772.657 476.527 772.343 475.799 771.942C475.072 771.515 474.482 770.951 474.031 770.248C473.579 769.546 473.353 768.618 473.353 767.464C473.353 766.185 473.717 765.081 474.445 764.153C475.172 763.2 476.188 762.472 477.492 761.97C478.822 761.444 480.39 761.18 482.196 761.18C483.55 761.18 484.918 761.331 486.297 761.632C487.677 761.933 488.818 762.359 489.721 762.911L487.915 766.486C486.962 765.909 485.996 765.52 485.018 765.319C484.065 765.094 483.111 764.981 482.158 764.981C480.728 764.981 479.662 765.194 478.96 765.62C478.283 766.047 477.944 766.586 477.944 767.238C477.944 767.84 478.17 768.292 478.621 768.593C479.073 768.894 479.662 769.132 480.39 769.308C481.117 769.483 481.92 769.634 482.798 769.759C483.701 769.86 484.591 770.023 485.469 770.248C486.347 770.474 487.15 770.788 487.878 771.189C488.63 771.565 489.232 772.105 489.684 772.807C490.135 773.509 490.361 774.425 490.361 775.554C490.361 776.808 489.985 777.899 489.232 778.827C488.505 779.756 487.464 780.483 486.109 781.01C484.754 781.512 483.137 781.762 481.255 781.762ZM511.019 781.762C509.338 781.762 507.72 781.549 506.165 781.123C504.635 780.671 503.418 780.132 502.515 779.505L504.321 775.93C505.224 776.507 506.303 776.984 507.557 777.36C508.811 777.736 510.066 777.924 511.32 777.924C512.8 777.924 513.866 777.724 514.518 777.322C515.196 776.921 515.534 776.382 515.534 775.704C515.534 775.153 515.308 774.739 514.857 774.463C514.405 774.162 513.816 773.936 513.088 773.785C512.361 773.635 511.546 773.497 510.643 773.372C509.765 773.246 508.874 773.083 507.971 772.882C507.093 772.657 506.29 772.343 505.563 771.942C504.836 771.515 504.246 770.951 503.795 770.248C503.343 769.546 503.117 768.618 503.117 767.464C503.117 766.185 503.481 765.081 504.208 764.153C504.936 763.2 505.952 762.472 507.256 761.97C508.586 761.444 510.154 761.18 511.96 761.18C513.314 761.18 514.681 761.331 516.061 761.632C517.441 761.933 518.582 762.359 519.485 762.911L517.679 766.486C516.726 765.909 515.76 765.52 514.782 765.319C513.828 765.094 512.875 764.981 511.922 764.981C510.492 764.981 509.426 765.194 508.724 765.62C508.046 766.047 507.708 766.586 507.708 767.238C507.708 767.84 507.934 768.292 508.385 768.593C508.837 768.894 509.426 769.132 510.154 769.308C510.881 769.483 511.684 769.634 512.562 769.759C513.465 769.86 514.355 770.023 515.233 770.248C516.111 770.474 516.914 770.788 517.641 771.189C518.394 771.565 518.996 772.105 519.447 772.807C519.899 773.509 520.125 774.425 520.125 775.554C520.125 776.808 519.748 777.899 518.996 778.827C518.268 779.756 517.227 780.483 515.873 781.01C514.518 781.512 512.9 781.762 511.019 781.762ZM531.738 781.762C529.531 781.762 527.825 781.198 526.621 780.069C525.417 778.915 524.815 777.222 524.815 774.989V756.966H529.518V774.877C529.518 775.83 529.757 776.57 530.233 777.097C530.735 777.623 531.425 777.887 532.303 777.887C533.356 777.887 534.234 777.611 534.937 777.059L536.254 780.408C535.702 780.859 535.024 781.198 534.222 781.424C533.419 781.65 532.591 781.762 531.738 781.762ZM521.504 765.319V761.557H534.899V765.319H521.504ZM548.627 781.762C546.921 781.762 545.416 781.449 544.111 780.822C542.807 780.17 541.791 779.191 541.063 777.887C540.336 776.557 539.972 774.889 539.972 772.882V761.406H544.676V772.243C544.676 774.049 545.077 775.403 545.88 776.306C546.708 777.184 547.874 777.623 549.379 777.623C550.483 777.623 551.436 777.398 552.239 776.946C553.067 776.495 553.706 775.817 554.158 774.914C554.634 774.011 554.873 772.895 554.873 771.565V761.406H559.576V781.499H555.098V776.081L555.889 777.736C555.211 779.041 554.22 780.044 552.916 780.746C551.612 781.424 550.182 781.762 548.627 781.762ZM574.238 781.762C572.307 781.762 570.563 781.336 569.008 780.483C567.478 779.605 566.274 778.401 565.396 776.871C564.518 775.341 564.079 773.535 564.079 771.453C564.079 769.37 564.518 767.564 565.396 766.034C566.274 764.504 567.478 763.312 569.008 762.46C570.563 761.607 572.307 761.18 574.238 761.18C575.919 761.18 577.424 761.557 578.753 762.309C580.083 763.037 581.136 764.153 581.914 765.658C582.692 767.163 583.081 769.095 583.081 771.453C583.081 773.785 582.704 775.717 581.952 777.247C581.199 778.752 580.158 779.881 578.829 780.634C577.499 781.386 575.969 781.762 574.238 781.762ZM574.803 777.736C575.931 777.736 576.935 777.485 577.813 776.984C578.716 776.482 579.431 775.755 579.957 774.801C580.509 773.848 580.785 772.732 580.785 771.453C580.785 770.148 580.509 769.032 579.957 768.104C579.431 767.15 578.716 766.423 577.813 765.921C576.935 765.42 575.931 765.169 574.803 765.169C573.674 765.169 572.658 765.42 571.755 765.921C570.877 766.423 570.162 767.15 569.61 768.104C569.083 769.032 568.82 770.148 568.82 771.453C568.82 772.732 569.083 773.848 569.61 774.801C570.162 775.755 570.877 776.482 571.755 776.984C572.658 777.485 573.674 777.736 574.803 777.736ZM580.898 781.499V776.758L581.086 771.415L580.71 766.072V753.58H585.376V781.499H580.898ZM591.566 781.499V761.406H596.27V781.499H591.566ZM593.937 758.095C593.059 758.095 592.331 757.819 591.754 757.267C591.203 756.715 590.927 756.05 590.927 755.273C590.927 754.47 591.203 753.805 591.754 753.279C592.331 752.727 593.059 752.451 593.937 752.451C594.815 752.451 595.53 752.714 596.082 753.241C596.659 753.743 596.947 754.382 596.947 755.16C596.947 755.988 596.671 756.69 596.119 757.267C595.567 757.819 594.84 758.095 593.937 758.095ZM611.887 781.762C609.655 781.762 607.698 781.323 606.018 780.445C604.362 779.542 603.07 778.313 602.142 776.758C601.239 775.203 600.787 773.434 600.787 771.453C600.787 769.446 601.226 767.677 602.104 766.147C603.007 764.592 604.237 763.375 605.792 762.497C607.372 761.619 609.166 761.18 611.173 761.18C613.129 761.18 614.873 761.607 616.403 762.46C617.933 763.312 619.137 764.517 620.015 766.072C620.893 767.627 621.332 769.458 621.332 771.565C621.332 771.766 621.319 771.992 621.294 772.243C621.294 772.494 621.282 772.732 621.257 772.958H604.513V769.835H618.773L616.93 770.813C616.955 769.659 616.716 768.643 616.215 767.765C615.713 766.887 615.023 766.197 614.145 765.696C613.292 765.194 612.301 764.943 611.173 764.943C610.019 764.943 609.003 765.194 608.125 765.696C607.272 766.197 606.595 766.9 606.093 767.803C605.616 768.681 605.378 769.722 605.378 770.926V771.678C605.378 772.882 605.654 773.948 606.206 774.877C606.758 775.805 607.535 776.52 608.539 777.021C609.542 777.523 610.696 777.774 612 777.774C613.129 777.774 614.145 777.598 615.048 777.247C615.951 776.896 616.754 776.344 617.456 775.592L619.977 778.489C619.074 779.542 617.933 780.358 616.553 780.935C615.199 781.486 613.643 781.762 611.887 781.762ZM634.354 781.762C632.422 781.762 630.679 781.336 629.123 780.483C627.593 779.605 626.389 778.401 625.511 776.871C624.633 775.341 624.194 773.535 624.194 771.453C624.194 769.37 624.633 767.564 625.511 766.034C626.389 764.504 627.593 763.312 629.123 762.46C630.679 761.607 632.422 761.18 634.354 761.18C636.034 761.18 637.539 761.557 638.869 762.309C640.198 763.037 641.252 764.153 642.03 765.658C642.807 767.163 643.196 769.095 643.196 771.453C643.196 773.785 642.82 775.717 642.067 777.247C641.315 778.752 640.274 779.881 638.944 780.634C637.615 781.386 636.084 781.762 634.354 781.762ZM634.918 777.736C636.047 777.736 637.05 777.485 637.928 776.984C638.831 776.482 639.546 775.755 640.073 774.801C640.625 773.848 640.901 772.732 640.901 771.453C640.901 770.148 640.625 769.032 640.073 768.104C639.546 767.15 638.831 766.423 637.928 765.921C637.05 765.42 636.047 765.169 634.918 765.169C633.789 765.169 632.773 765.42 631.87 765.921C630.992 766.423 630.277 767.15 629.725 768.104C629.199 769.032 628.935 770.148 628.935 771.453C628.935 772.732 629.199 773.848 629.725 774.801C630.277 775.755 630.992 776.482 631.87 776.984C632.773 777.485 633.789 777.736 634.918 777.736ZM641.014 781.499V776.758L641.202 771.415L640.825 766.072V753.58H645.491V781.499H641.014Z" fill="#124012"/>
<path d="M20.6104 445.917V432.823H24.6366V445.917H20.6104ZM31.8986 445.541V430.678H36V450.432H9.66089L9.66089 431.205H13.7623L13.7623 445.541H31.8986ZM36 428.754L24.486 419.912L27.0071 419.987L15.907 428.415V423.185L23.8088 417.278V419.272L15.907 413.327L15.907 408.247L27.0071 416.751L24.486 416.713L36 407.908V413.214L27.6091 419.422L27.8725 417.466L36 423.561V428.754ZM36 392.426H31.9363L31.0708 392.689H23.9593C22.5796 392.689 21.5135 393.103 20.7609 393.931C19.9833 394.759 19.5945 396.013 19.5945 397.693C19.5945 398.822 19.7701 399.939 20.1213 401.042C20.4725 402.121 20.9616 403.037 21.5887 403.789L18.1647 405.633C17.3369 404.554 16.7223 403.275 16.3209 401.795C15.8945 400.29 15.6813 398.735 15.6813 397.129C15.6813 394.219 16.3836 391.974 17.7884 390.394C19.1681 388.788 21.3128 387.986 24.2227 387.986H36V392.426ZM36.2634 398.747C36.2634 400.252 36.0125 401.569 35.5108 402.698C34.9841 403.827 34.2691 404.705 33.3661 405.332C32.4379 405.934 31.3969 406.235 30.243 406.235C29.1142 406.235 28.0983 405.971 27.1952 405.445C26.2922 404.893 25.5772 404.002 25.0505 402.773C24.5237 401.544 24.2603 399.913 24.2603 397.882V392.049H27.3833V397.543C27.3833 399.148 27.6467 400.227 28.1735 400.779C28.6752 401.331 29.3023 401.607 30.0549 401.607C30.9078 401.607 31.5851 401.268 32.0868 400.591C32.5885 399.913 32.8393 398.973 32.8393 397.769C32.8393 396.615 32.5759 395.586 32.0491 394.683C31.5224 393.755 30.7447 393.09 29.7162 392.689L32.5383 391.899C33.7173 392.35 34.6329 393.166 35.2851 394.345C35.9373 395.499 36.2634 396.966 36.2634 398.747ZM15.6813 356.589C15.6813 354.983 15.9948 353.566 16.6219 352.337C17.2491 351.082 18.2148 350.104 19.5192 349.402C20.7986 348.699 22.4542 348.348 24.486 348.348H36V353.052H25.0881C23.3071 353.052 21.9776 353.44 21.0996 354.218C20.2216 354.996 19.7826 356.112 19.7826 357.567C19.7826 358.595 20.0084 359.511 20.4599 360.314C20.9115 361.091 21.5762 361.706 22.4542 362.157C23.3321 362.584 24.4484 362.797 25.803 362.797H36V367.501H25.0881C23.3071 367.501 21.9776 367.889 21.0996 368.667C20.2216 369.445 19.7826 370.561 19.7826 372.016C19.7826 373.044 20.0084 373.96 20.4599 374.763C20.9115 375.54 21.5762 376.155 22.4542 376.606C23.3321 377.033 24.4484 377.246 25.803 377.246H36V381.949H15.907L15.907 377.472H21.2501L19.6697 378.262C18.3653 377.585 17.3745 376.606 16.6972 375.327C16.0199 374.023 15.6813 372.543 15.6813 370.887C15.6813 369.006 16.1453 367.375 17.0735 365.995C18.0016 364.591 19.4064 363.663 21.2877 363.211L20.6481 365.055C19.143 364.403 17.9389 363.324 17.0358 361.819C16.1328 360.314 15.6813 358.57 15.6813 356.589ZM36.3763 323.322C36.3763 325.379 36.0878 327.348 35.5108 329.23C34.9088 331.111 34.1437 332.604 33.2156 333.707L29.4152 332.014C30.243 330.961 30.9329 329.656 31.4847 328.101C32.0366 326.546 32.3125 324.953 32.3125 323.322C32.3125 321.943 32.162 320.826 31.861 319.973C31.56 319.121 31.1586 318.493 30.6569 318.092C30.1301 317.691 29.5406 317.49 28.8884 317.49C28.0857 317.49 27.4461 317.778 26.9694 318.355C26.4677 318.932 26.0789 319.685 25.803 320.613C25.502 321.516 25.226 322.532 24.9752 323.661C24.7244 324.765 24.4359 325.881 24.1098 327.01C23.7586 328.113 23.3196 329.129 22.7928 330.058C22.2409 330.961 21.5135 331.701 20.6104 332.278C19.7074 332.854 18.5535 333.143 17.1487 333.143C15.7189 333.143 14.4145 332.767 13.2355 332.014C12.0314 331.237 11.0782 330.07 10.3758 328.515C9.64834 326.934 9.28461 324.94 9.28461 322.532C9.28461 320.952 9.48529 319.384 9.88665 317.829C10.288 316.273 10.865 314.919 11.6175 313.765L15.4179 315.308C14.7155 316.487 14.2012 317.703 13.8751 318.957C13.524 320.212 13.3484 321.416 13.3484 322.57C13.3484 323.924 13.5114 325.028 13.8375 325.881C14.1636 326.709 14.5901 327.323 15.1168 327.725C15.6436 328.101 16.2457 328.289 16.923 328.289C17.7257 328.289 18.3779 328.013 18.8796 327.461C19.3562 326.884 19.7325 326.144 20.0084 325.241C20.2843 324.313 20.5603 323.285 20.8362 322.156C21.087 321.027 21.3755 319.911 21.7016 318.807C22.0277 317.678 22.4542 316.662 22.981 315.759C23.5077 314.831 24.2227 314.091 25.1257 313.539C26.0288 312.962 27.1701 312.674 28.5498 312.674C29.9545 312.674 31.259 313.063 32.463 313.84C33.642 314.593 34.5952 315.759 35.3227 317.339C36.0251 318.92 36.3763 320.914 36.3763 323.322ZM36.2634 299.056C36.2634 301.163 35.8244 303.045 34.9464 304.7C34.0434 306.331 32.8142 307.61 31.259 308.538C29.7037 309.466 27.9352 309.93 25.9535 309.93C23.9467 309.93 22.1782 309.466 20.6481 308.538C19.0928 307.61 17.8762 306.331 16.9982 304.7C16.1202 303.045 15.6813 301.163 15.6813 299.056C15.6813 297.1 16.0826 295.381 16.8853 293.901C17.663 292.396 18.8169 291.255 20.347 290.477L22.4542 294.089C21.5009 294.691 20.7986 295.431 20.347 296.309C19.8955 297.162 19.6697 298.09 19.6697 299.094C19.6697 300.248 19.9206 301.289 20.4223 302.217C20.924 303.145 21.6515 303.872 22.6047 304.399C23.5328 304.926 24.6491 305.189 25.9535 305.189C27.2579 305.189 28.3867 304.926 29.34 304.399C30.2681 303.872 30.983 303.145 31.4847 302.217C31.9864 301.289 32.2373 300.248 32.2373 299.094C32.2373 298.09 32.0115 297.162 31.56 296.309C31.1085 295.431 30.4061 294.691 29.4528 294.089L31.56 290.477C33.0651 291.255 34.2315 292.396 35.0593 293.901C35.862 295.381 36.2634 297.1 36.2634 299.056ZM36.2634 277.675C36.2634 279.732 35.8244 281.563 34.9464 283.168C34.0434 284.774 32.8142 286.041 31.259 286.969C29.7037 287.897 27.9352 288.361 25.9535 288.361C23.9467 288.361 22.1782 287.897 20.6481 286.969C19.0928 286.041 17.8762 284.774 16.9982 283.168C16.1202 281.563 15.6813 279.732 15.6813 277.675C15.6813 275.593 16.1202 273.749 16.9982 272.144C17.8762 270.513 19.0803 269.246 20.6104 268.343C22.1406 267.415 23.9216 266.951 25.9535 266.951C27.9352 266.951 29.7037 267.415 31.259 268.343C32.8142 269.246 34.0434 270.513 34.9464 272.144C35.8244 273.749 36.2634 275.593 36.2634 277.675ZM32.2373 277.675C32.2373 276.521 31.9864 275.492 31.4847 274.589C30.983 273.686 30.2556 272.984 29.3023 272.482C28.3491 271.955 27.2328 271.692 25.9535 271.692C24.6491 271.692 23.5328 271.955 22.6047 272.482C21.6515 272.984 20.924 273.686 20.4223 274.589C19.9206 275.492 19.6697 276.508 19.6697 277.637C19.6697 278.791 19.9206 279.819 20.4223 280.723C20.924 281.601 21.6515 282.303 22.6047 282.83C23.5328 283.356 24.6491 283.62 25.9535 283.62C27.2328 283.62 28.3491 283.356 29.3023 282.83C30.2556 282.303 30.983 281.601 31.4847 280.723C31.9864 279.819 32.2373 278.804 32.2373 277.675ZM36 262.453H15.907V257.976H21.4382L19.8203 258.502C18.4657 257.9 17.4372 256.96 16.7348 255.68C16.0324 254.376 15.6813 252.758 15.6813 250.826H20.1589C20.1087 251.027 20.0837 251.215 20.0837 251.391C20.0586 251.566 20.046 251.742 20.046 251.918C20.046 253.699 20.5728 255.116 21.6264 256.17C22.6548 257.223 24.1976 257.75 26.2545 257.75H36V262.453ZM36.2634 237.576C36.2634 239.808 35.8244 241.765 34.9464 243.446C34.0434 245.101 32.8142 246.393 31.259 247.321C29.7037 248.224 27.9352 248.676 25.9535 248.676C23.9467 248.676 22.1782 248.237 20.6481 247.359C19.0928 246.456 17.8762 245.227 16.9982 243.671C16.1202 242.091 15.6813 240.297 15.6813 238.291C15.6813 236.334 16.1077 234.591 16.9606 233.061C17.8135 231.53 19.0175 230.326 20.5728 229.448C22.1281 228.57 23.9593 228.131 26.0664 228.131C26.2671 228.131 26.4928 228.144 26.7437 228.169C26.9945 228.169 27.2328 228.182 27.4586 228.207V244.951H24.3355V230.69L25.3138 232.534C24.1599 232.509 23.144 232.747 22.266 233.249C21.3881 233.75 20.6982 234.44 20.1965 235.318C19.6948 236.171 19.444 237.162 19.444 238.291C19.444 239.445 19.6948 240.461 20.1965 241.339C20.6982 242.191 21.4006 242.869 22.3037 243.37C23.1816 243.847 24.2227 244.085 25.4267 244.085H26.1793C27.3833 244.085 28.4495 243.809 29.3776 243.258C30.3057 242.706 31.0207 241.928 31.5224 240.925C32.024 239.921 32.2749 238.767 32.2749 237.463C32.2749 236.334 32.0993 235.318 31.7481 234.415C31.3969 233.512 30.8451 232.709 30.0925 232.007L32.9898 229.486C34.0434 230.389 34.8586 231.53 35.4356 232.91C35.9875 234.265 36.2634 235.82 36.2634 237.576Z" fill="#124012"/>
<path d="M804.775 29.819C805.395 29.2145 805.407 28.2219 804.803 27.602C804.198 26.9821 803.206 26.9695 802.586 27.574L804.775 29.819ZM160.398 658.133L804.775 29.819L802.586 27.574L158.209 655.888L160.398 658.133Z" fill="#7CBC7A"/>
<circle cx="581.644" cy="147.089" r="7.83902" fill="#D9D9D9" stroke="#124012" stroke-width="3.13561"/>
<circle cx="362.645" cy="412.089" r="7.83902" fill="#D9D9D9" stroke="#124012" stroke-width="3.13561"/>
<circle cx="793.644" cy="79.089" r="7.83902" fill="#D9D9D9" stroke="#124012" stroke-width="3.13561"/>
<circle cx="754.644" cy="167.089" r="7.83902" fill="#D9D9D9" stroke="#124012" stroke-width="3.13561"/>
<circle cx="688.644" cy="79.089" r="7.83902" fill="#D9D9D9" stroke="#124012" stroke-width="3.13561"/>
<circle cx="653.644" cy="120.089" r="7.83902" fill="#D9D9D9" stroke="#124012" stroke-width="3.13561"/>
<circle cx="525.128" cy="141.547" r="7.83902" fill="#D9D9D9" stroke="#124012" stroke-width="3.13561"/>
<circle cx="600.644" cy="182.089" r="7.83902" fill="#D9D9D9" stroke="#124012" stroke-width="3.13561"/>
<circle cx="647.644" cy="293.089" r="7.83902" fill="#D9D9D9" stroke="#124012" stroke-width="3.13561"/>
<circle cx="468.687" cy="204.259" r="7.83902" fill="#D9D9D9" stroke="#124012" stroke-width="3.13561"/>
<circle cx="399.644" cy="480.089" r="7.83902" fill="#D9D9D9" stroke="#124012" stroke-width="3.13561"/>
<circle cx="277.645" cy="499.089" r="7.83902" fill="#D9D9D9" stroke="#124012" stroke-width="3.13561"/>
<circle cx="277.414" cy="593.087" r="7.83902" fill="#D9D9D9" stroke="#124012" stroke-width="3.13561"/>
<circle cx="340.645" cy="539.089" r="7.83902" fill="#D9D9D9" stroke="#124012" stroke-width="3.13561"/>
<circle cx="424.645" cy="509.089" r="7.83902" fill="#D9D9D9" stroke="#124012" stroke-width="3.13561"/>
<circle cx="600.382" cy="480.206" r="7.83902" fill="#D9D9D9" stroke="#124012" stroke-width="3.13561"/>
<circle cx="631.738" cy="235.628" r="7.83902" fill="#D9D9D9" stroke="#124012" stroke-width="3.13561"/>
<circle cx="628.603" cy="88.2545" r="7.83902" fill="#D9D9D9" stroke="#124012" stroke-width="3.13561"/>
<circle cx="550.212" cy="223.086" r="7.83902" fill="#D9D9D9" stroke="#124012" stroke-width="3.13561"/>
<circle cx="440.466" cy="292.069" r="7.83902" fill="#D9D9D9" stroke="#124012" stroke-width="3.13561"/>
<circle cx="380.889" cy="357.917" r="7.83902" fill="#D9D9D9" stroke="#124012" stroke-width="3.13561"/>
<circle cx="421.652" cy="417.493" r="7.83902" fill="#D9D9D9" stroke="#124012" stroke-width="3.13561"/>
<circle cx="659.959" cy="194.865" r="7.83902" fill="#D9D9D9" stroke="#124012" stroke-width="3.13561"/>
<circle cx="754.644" cy="120.089" r="7.83902" fill="#D9D9D9" stroke="#124012" stroke-width="3.13561"/>
<circle cx="236.645" cy="530.089" r="7.83902" fill="#D9D9D9" stroke="#124012" stroke-width="3.13561"/>
<circle cx="371.483" cy="273.243" r="7.83902" fill="#D9D9D9" stroke="#124012" stroke-width="3.13561"/>
<circle cx="299.645" cy="436.089" r="7.83902" fill="#D9D9D9" stroke="#124012" stroke-width="3.13561"/>
<circle cx="590.975" cy="386.125" r="7.83902" fill="#D9D9D9" stroke="#124012" stroke-width="3.13561"/>
<circle cx="641.145" cy="386.125" r="7.83902" fill="#D9D9D9" stroke="#124012" stroke-width="3.13561"/>
<circle cx="650.552" cy="357.904" r="7.83902" fill="#D9D9D9" stroke="#124012" stroke-width="3.13561"/>
<circle cx="609.789" cy="357.904" r="7.83902" fill="#D9D9D9" stroke="#124012" stroke-width="3.13561"/>
<circle cx="600.382" cy="292.056" r="7.83902" fill="#D9D9D9" stroke="#124012" stroke-width="3.13561"/>
<circle cx="688.179" cy="263.836" r="7.83902" fill="#D9D9D9" stroke="#124012" stroke-width="3.13561"/>
<circle cx="716.4" cy="213.666" r="7.83902" fill="#D9D9D9" stroke="#124012" stroke-width="3.13561"/>
<circle cx="716.4" cy="150.954" r="7.83902" fill="#D9D9D9" stroke="#124012" stroke-width="3.13561"/>
<circle cx="506.314" cy="348.497" r="7.83902" fill="#D9D9D9" stroke="#124012" stroke-width="3.13561"/>
<circle cx="487.5" cy="430.023" r="7.83902" fill="#D9D9D9" stroke="#124012" stroke-width="3.13561"/>
<path d="M548.483 438.089C548.483 442.418 544.974 445.928 540.644 445.928C536.315 445.928 532.805 442.418 532.805 438.089C532.805 433.76 536.315 430.25 540.644 430.25C544.974 430.25 548.483 433.76 548.483 438.089Z" fill="#D9D9D9" stroke="#124012" stroke-width="3.13561"/>
<circle cx="559.644" cy="324.089" r="7.83902" fill="#D9D9D9" stroke="#124012" stroke-width="3.13561"/>
<circle cx="487.645" cy="250.089" r="7.83902" fill="#D9D9D9" stroke="#124012" stroke-width="3.13561"/>
<path d="M155.038 710.811C153.006 710.811 151.2 710.284 149.619 709.231C148.039 708.152 146.797 706.622 145.894 704.64C144.991 702.634 144.54 700.225 144.54 697.416C144.54 694.606 144.991 692.211 145.894 690.229C146.797 688.222 148.039 686.692 149.619 685.639C151.2 684.56 153.006 684.021 155.038 684.021C157.07 684.021 158.876 684.56 160.456 685.639C162.036 686.692 163.278 688.222 164.181 690.229C165.109 692.211 165.573 694.606 165.573 697.416C165.573 700.225 165.109 702.634 164.181 704.64C163.278 706.622 162.036 708.152 160.456 709.231C158.876 710.284 157.07 710.811 155.038 710.811ZM155.038 708.328C156.593 708.328 157.948 707.914 159.102 707.086C160.255 706.233 161.158 705.004 161.811 703.399C162.463 701.768 162.789 699.774 162.789 697.416C162.789 695.058 162.463 693.076 161.811 691.471C161.158 689.84 160.255 688.611 159.102 687.783C157.948 686.93 156.593 686.504 155.038 686.504C153.533 686.504 152.191 686.93 151.012 687.783C149.833 688.611 148.917 689.84 148.265 691.471C147.613 693.076 147.287 695.058 147.287 697.416C147.287 699.774 147.613 701.768 148.265 703.399C148.917 705.004 149.833 706.233 151.012 707.086C152.191 707.914 153.533 708.328 155.038 708.328Z" fill="black"/>
<path d="M258.068 710.585V708.666L269.018 697.943C270.021 696.964 270.774 696.111 271.275 695.384C271.777 694.631 272.116 693.929 272.291 693.277C272.467 692.625 272.555 692.01 272.555 691.433C272.555 689.903 272.028 688.699 270.974 687.821C269.946 686.943 268.416 686.504 266.384 686.504C264.829 686.504 263.449 686.742 262.245 687.219C261.066 687.696 260.05 688.436 259.197 689.439L257.278 687.783C258.306 686.579 259.623 685.651 261.229 684.999C262.834 684.347 264.628 684.021 266.61 684.021C268.391 684.021 269.933 684.309 271.238 684.886C272.542 685.438 273.546 686.253 274.248 687.332C274.975 688.41 275.339 689.677 275.339 691.132C275.339 691.985 275.214 692.825 274.963 693.653C274.737 694.481 274.311 695.359 273.684 696.287C273.081 697.19 272.191 698.219 271.012 699.373L260.965 709.231L260.213 708.177H276.543V710.585H258.068ZM290.368 710.811C288.336 710.811 286.53 710.284 284.949 709.231C283.369 708.152 282.127 706.622 281.224 704.64C280.321 702.634 279.87 700.225 279.87 697.416C279.87 694.606 280.321 692.211 281.224 690.229C282.127 688.222 283.369 686.692 284.949 685.639C286.53 684.56 288.336 684.021 290.368 684.021C292.4 684.021 294.206 684.56 295.786 685.639C297.366 686.692 298.608 688.222 299.511 690.229C300.439 692.211 300.903 694.606 300.903 697.416C300.903 700.225 300.439 702.634 299.511 704.64C298.608 706.622 297.366 708.152 295.786 709.231C294.206 710.284 292.4 710.811 290.368 710.811ZM290.368 708.328C291.923 708.328 293.278 707.914 294.431 707.086C295.585 706.233 296.488 705.004 297.141 703.399C297.793 701.768 298.119 699.774 298.119 697.416C298.119 695.058 297.793 693.076 297.141 691.471C296.488 689.84 295.585 688.611 294.431 687.783C293.278 686.93 291.923 686.504 290.368 686.504C288.863 686.504 287.521 686.93 286.342 687.783C285.163 688.611 284.247 689.84 283.595 691.471C282.943 693.076 282.616 695.058 282.616 697.416C282.616 699.774 282.943 701.768 283.595 703.399C284.247 705.004 285.163 706.233 286.342 707.086C287.521 707.914 288.863 708.328 290.368 708.328Z" fill="black"/>
<path d="M393.937 703.662V701.705L407.897 684.246H410.907L397.06 701.705L395.592 701.254H416.777V703.662H393.937ZM408.8 710.585V703.662L408.875 701.254V695.158H411.509V710.585H408.8ZM429.763 710.811C427.731 710.811 425.925 710.284 424.345 709.231C422.764 708.152 421.523 706.622 420.62 704.64C419.717 702.634 419.265 700.225 419.265 697.416C419.265 694.606 419.717 692.211 420.62 690.229C421.523 688.222 422.764 686.692 424.345 685.639C425.925 684.56 427.731 684.021 429.763 684.021C431.795 684.021 433.601 684.56 435.181 685.639C436.762 686.692 438.003 688.222 438.906 690.229C439.835 692.211 440.299 694.606 440.299 697.416C440.299 700.225 439.835 702.634 438.906 704.64C438.003 706.622 436.762 708.152 435.181 709.231C433.601 710.284 431.795 710.811 429.763 710.811ZM429.763 708.328C431.318 708.328 432.673 707.914 433.827 707.086C434.981 706.233 435.884 705.004 436.536 703.399C437.188 701.768 437.514 699.774 437.514 697.416C437.514 695.058 437.188 693.076 436.536 691.471C435.884 689.84 434.981 688.611 433.827 687.783C432.673 686.93 431.318 686.504 429.763 686.504C428.258 686.504 426.916 686.93 425.737 687.783C424.558 688.611 423.642 689.84 422.99 691.471C422.338 693.076 422.012 695.058 422.012 697.416C422.012 699.774 422.338 701.768 422.99 703.399C423.642 705.004 424.558 706.233 425.737 707.086C426.916 707.914 428.258 708.328 429.763 708.328Z" fill="black"/>
<path d="M541.018 710.811C538.686 710.811 536.716 710.297 535.111 709.268C533.506 708.215 532.289 706.71 531.461 704.753C530.633 702.772 530.219 700.401 530.219 697.642C530.219 694.657 530.721 692.161 531.725 690.154C532.753 688.122 534.17 686.592 535.976 685.563C537.783 684.535 539.877 684.021 542.26 684.021C543.439 684.021 544.568 684.133 545.647 684.359C546.725 684.585 547.679 684.949 548.506 685.45L547.415 687.633C546.738 687.181 545.96 686.868 545.082 686.692C544.204 686.491 543.276 686.391 542.298 686.391C539.463 686.391 537.193 687.294 535.487 689.1C533.807 690.906 532.966 693.603 532.966 697.19C532.966 697.742 532.991 698.432 533.041 699.26C533.117 700.062 533.267 700.865 533.493 701.668L532.552 700.953C532.828 699.648 533.368 698.545 534.17 697.642C534.973 696.714 535.976 696.011 537.18 695.535C538.385 695.058 539.702 694.82 541.131 694.82C542.887 694.82 544.43 695.146 545.76 695.798C547.089 696.45 548.13 697.366 548.883 698.545C549.635 699.724 550.011 701.116 550.011 702.721C550.011 704.352 549.623 705.782 548.845 707.011C548.067 708.215 546.989 709.156 545.609 709.833C544.254 710.485 542.724 710.811 541.018 710.811ZM540.906 708.516C542.16 708.516 543.264 708.29 544.217 707.839C545.195 707.362 545.96 706.697 546.512 705.844C547.064 704.966 547.34 703.951 547.34 702.797C547.34 701.066 546.738 699.686 545.534 698.658C544.355 697.629 542.749 697.115 540.717 697.115C539.363 697.115 538.184 697.366 537.18 697.867C536.177 698.369 535.387 699.059 534.81 699.937C534.233 700.79 533.945 701.768 533.945 702.872C533.945 703.825 534.208 704.741 534.735 705.619C535.261 706.472 536.039 707.174 537.068 707.726C538.121 708.253 539.401 708.516 540.906 708.516ZM563.647 710.811C561.615 710.811 559.809 710.284 558.228 709.231C556.648 708.152 555.406 706.622 554.503 704.64C553.6 702.634 553.149 700.225 553.149 697.416C553.149 694.606 553.6 692.211 554.503 690.229C555.406 688.222 556.648 686.692 558.228 685.639C559.809 684.56 561.615 684.021 563.647 684.021C565.678 684.021 567.485 684.56 569.065 685.639C570.645 686.692 571.887 688.222 572.79 690.229C573.718 692.211 574.182 694.606 574.182 697.416C574.182 700.225 573.718 702.634 572.79 704.64C571.887 706.622 570.645 708.152 569.065 709.231C567.485 710.284 565.678 710.811 563.647 710.811ZM563.647 708.328C565.202 708.328 566.556 707.914 567.71 707.086C568.864 706.233 569.767 705.004 570.42 703.399C571.072 701.768 571.398 699.774 571.398 697.416C571.398 695.058 571.072 693.076 570.42 691.471C569.767 689.84 568.864 688.611 567.71 687.783C566.556 686.93 565.202 686.504 563.647 686.504C562.142 686.504 560.799 686.93 559.62 687.783C558.441 688.611 557.526 689.84 556.874 691.471C556.221 693.076 555.895 695.058 555.895 697.416C555.895 699.774 556.221 701.768 556.874 703.399C557.526 705.004 558.441 706.233 559.62 707.086C560.799 707.914 562.142 708.328 563.647 708.328Z" fill="black"/>
<path d="M676.06 710.811C673.952 710.811 672.134 710.51 670.604 709.908C669.099 709.306 667.932 708.441 667.104 707.312C666.302 706.158 665.9 704.803 665.9 703.248C665.9 701.743 666.289 700.464 667.067 699.41C667.869 698.331 669.023 697.504 670.528 696.927C672.059 696.35 673.902 696.061 676.06 696.061C678.192 696.061 680.023 696.35 681.553 696.927C683.083 697.504 684.25 698.331 685.053 699.41C685.88 700.464 686.294 701.743 686.294 703.248C686.294 704.803 685.88 706.158 685.053 707.312C684.225 708.441 683.046 709.306 681.516 709.908C679.985 710.51 678.167 710.811 676.06 710.811ZM676.06 708.516C678.392 708.516 680.211 708.039 681.516 707.086C682.845 706.133 683.51 704.841 683.51 703.21C683.51 701.58 682.845 700.301 681.516 699.373C680.211 698.419 678.392 697.943 676.06 697.943C673.727 697.943 671.908 698.419 670.604 699.373C669.299 700.301 668.647 701.58 668.647 703.21C668.647 704.841 669.299 706.133 670.604 707.086C671.908 708.039 673.727 708.516 676.06 708.516ZM676.06 697.604C674.103 697.604 672.435 697.341 671.055 696.814C669.701 696.287 668.66 695.535 667.932 694.556C667.205 693.553 666.841 692.361 666.841 690.982C666.841 689.527 667.217 688.285 667.97 687.257C668.747 686.203 669.826 685.4 671.206 684.848C672.585 684.297 674.203 684.021 676.06 684.021C677.916 684.021 679.534 684.297 680.914 684.848C682.318 685.4 683.409 686.203 684.187 687.257C684.965 688.285 685.354 689.527 685.354 690.982C685.354 692.361 684.99 693.553 684.262 694.556C683.535 695.535 682.469 696.287 681.064 696.814C679.684 697.341 678.016 697.604 676.06 697.604ZM676.06 695.798C678.117 695.798 679.722 695.371 680.876 694.519C682.03 693.666 682.607 692.524 682.607 691.095C682.607 689.589 682.005 688.423 680.801 687.595C679.622 686.742 678.041 686.316 676.06 686.316C674.078 686.316 672.498 686.742 671.319 687.595C670.14 688.423 669.55 689.577 669.55 691.057C669.55 692.512 670.114 693.666 671.243 694.519C672.397 695.371 674.003 695.798 676.06 695.798ZM700.544 710.811C698.512 710.811 696.706 710.284 695.125 709.231C693.545 708.152 692.303 706.622 691.4 704.64C690.497 702.634 690.045 700.225 690.045 697.416C690.045 694.606 690.497 692.211 691.4 690.229C692.303 688.222 693.545 686.692 695.125 685.639C696.706 684.56 698.512 684.021 700.544 684.021C702.575 684.021 704.381 684.56 705.962 685.639C707.542 686.692 708.784 688.222 709.687 690.229C710.615 692.211 711.079 694.606 711.079 697.416C711.079 700.225 710.615 702.634 709.687 704.64C708.784 706.622 707.542 708.152 705.962 709.231C704.381 710.284 702.575 710.811 700.544 710.811ZM700.544 708.328C702.099 708.328 703.453 707.914 704.607 707.086C705.761 706.233 706.664 705.004 707.316 703.399C707.969 701.768 708.295 699.774 708.295 697.416C708.295 695.058 707.969 693.076 707.316 691.471C706.664 689.84 705.761 688.611 704.607 687.783C703.453 686.93 702.099 686.504 700.544 686.504C699.038 686.504 697.696 686.93 696.517 687.783C695.338 688.611 694.423 689.84 693.771 691.471C693.118 693.076 692.792 695.058 692.792 697.416C692.792 699.774 693.118 701.768 693.771 703.399C694.423 705.004 695.338 706.233 696.517 707.086C697.696 707.914 699.038 708.328 700.544 708.328Z" fill="black"/>
<path d="M806.228 710.585V685.375L807.432 686.654H800.02V684.246H808.938V710.585H806.228ZM825.732 710.811C823.7 710.811 821.894 710.284 820.313 709.231C818.733 708.152 817.491 706.622 816.588 704.64C815.685 702.634 815.234 700.225 815.234 697.416C815.234 694.606 815.685 692.211 816.588 690.229C817.491 688.222 818.733 686.692 820.313 685.639C821.894 684.56 823.7 684.021 825.732 684.021C827.764 684.021 829.57 684.56 831.15 685.639C832.73 686.692 833.972 688.222 834.875 690.229C835.803 692.211 836.267 694.606 836.267 697.416C836.267 700.225 835.803 702.634 834.875 704.64C833.972 706.622 832.73 708.152 831.15 709.231C829.57 710.284 827.764 710.811 825.732 710.811ZM825.732 708.328C827.287 708.328 828.642 707.914 829.795 707.086C830.949 706.233 831.852 705.004 832.505 703.399C833.157 701.768 833.483 699.774 833.483 697.416C833.483 695.058 833.157 693.076 832.505 691.471C831.852 689.84 830.949 688.611 829.795 687.783C828.642 686.93 827.287 686.504 825.732 686.504C824.227 686.504 822.885 686.93 821.706 687.783C820.527 688.611 819.611 689.84 818.959 691.471C818.307 693.076 817.98 695.058 817.98 697.416C817.98 699.774 818.307 701.768 818.959 703.399C819.611 705.004 820.527 706.233 821.706 707.086C822.885 707.914 824.227 708.328 825.732 708.328ZM850.645 710.811C848.613 710.811 846.807 710.284 845.227 709.231C843.646 708.152 842.405 706.622 841.502 704.64C840.599 702.634 840.147 700.225 840.147 697.416C840.147 694.606 840.599 692.211 841.502 690.229C842.405 688.222 843.646 686.692 845.227 685.639C846.807 684.56 848.613 684.021 850.645 684.021C852.677 684.021 854.483 684.56 856.063 685.639C857.644 686.692 858.885 688.222 859.789 690.229C860.717 692.211 861.181 694.606 861.181 697.416C861.181 700.225 860.717 702.634 859.789 704.64C858.885 706.622 857.644 708.152 856.063 709.231C854.483 710.284 852.677 710.811 850.645 710.811ZM850.645 708.328C852.2 708.328 853.555 707.914 854.709 707.086C855.863 706.233 856.766 705.004 857.418 703.399C858.07 701.768 858.396 699.774 858.396 697.416C858.396 695.058 858.07 693.076 857.418 691.471C856.766 689.84 855.863 688.611 854.709 687.783C853.555 686.93 852.2 686.504 850.645 686.504C849.14 686.504 847.798 686.93 846.619 687.783C845.44 688.611 844.524 689.84 843.872 691.471C843.22 693.076 842.894 695.058 842.894 697.416C842.894 699.774 843.22 701.768 843.872 703.399C844.524 705.004 845.44 706.233 846.619 707.086C847.798 707.914 849.14 708.328 850.645 708.328Z" fill="black"/>
<path d="M71.7868 560.98V559.061L82.7363 548.338C83.7397 547.359 84.4923 546.506 84.994 545.779C85.4957 545.026 85.8343 544.324 86.0099 543.672C86.1855 543.02 86.2733 542.405 86.2733 541.828C86.2733 540.298 85.7465 539.094 84.693 538.216C83.6645 537.338 82.1343 536.899 80.1024 536.899C78.5472 536.899 77.1675 537.137 75.9634 537.614C74.7844 538.091 73.7685 538.831 72.9156 539.834L70.9966 538.178C72.0251 536.974 73.3421 536.046 74.9475 535.394C76.5529 534.742 78.3465 534.416 80.3282 534.416C82.1092 534.416 83.6519 534.704 84.9564 535.281C86.2608 535.833 87.2642 536.648 87.9665 537.727C88.694 538.805 89.0577 540.072 89.0577 541.527C89.0577 542.38 88.9323 543.22 88.6815 544.048C88.4557 544.876 88.0293 545.754 87.4021 546.682C86.8001 547.585 85.9096 548.614 84.7306 549.768L74.6841 559.626L73.9316 558.572H90.2618V560.98H71.7868ZM104.086 561.206C102.054 561.206 100.248 560.679 98.668 559.626C97.0876 558.547 95.8459 557.017 94.9429 555.035C94.0398 553.029 93.5883 550.62 93.5883 547.811C93.5883 545.001 94.0398 542.606 94.9429 540.624C95.8459 538.617 97.0876 537.087 98.668 536.034C100.248 534.955 102.054 534.416 104.086 534.416C106.118 534.416 107.924 534.955 109.505 536.034C111.085 537.087 112.327 538.617 113.23 540.624C114.158 542.606 114.622 545.001 114.622 547.811C114.622 550.62 114.158 553.029 113.23 555.035C112.327 557.017 111.085 558.547 109.505 559.626C107.924 560.679 106.118 561.206 104.086 561.206ZM104.086 558.723C105.642 558.723 106.996 558.309 108.15 557.481C109.304 556.628 110.207 555.399 110.859 553.794C111.511 552.163 111.838 550.169 111.838 547.811C111.838 545.453 111.511 543.471 110.859 541.866C110.207 540.235 109.304 539.006 108.15 538.178C106.996 537.325 105.642 536.899 104.086 536.899C102.581 536.899 101.239 537.325 100.06 538.178C98.8812 539.006 97.9656 540.235 97.3134 541.866C96.6612 543.471 96.3351 545.453 96.3351 547.811C96.3351 550.169 96.6612 552.163 97.3134 553.794C97.9656 555.399 98.8812 556.628 100.06 557.481C101.239 558.309 102.581 558.723 104.086 558.723Z" fill="black"/>
<path d="M71.8242 422.649V420.692L85.7839 403.233H88.7941L74.9473 420.692L73.4798 420.241H94.664V422.649H71.8242ZM86.687 429.572V422.649L86.7622 420.241V414.145H89.3961V429.572H86.687ZM107.65 429.798C105.619 429.798 103.812 429.271 102.232 428.218C100.652 427.139 99.41 425.609 98.5069 423.627C97.6039 421.62 97.1524 419.212 97.1524 416.403C97.1524 413.593 97.6039 411.198 98.5069 409.216C99.41 407.209 100.652 405.679 102.232 404.625C103.812 403.547 105.619 403.007 107.65 403.007C109.682 403.007 111.488 403.547 113.069 404.625C114.649 405.679 115.891 407.209 116.794 409.216C117.722 411.198 118.186 413.593 118.186 416.403C118.186 419.212 117.722 421.62 116.794 423.627C115.891 425.609 114.649 427.139 113.069 428.218C111.488 429.271 109.682 429.798 107.65 429.798ZM107.65 427.315C109.206 427.315 110.56 426.901 111.714 426.073C112.868 425.22 113.771 423.991 114.423 422.385C115.075 420.755 115.402 418.761 115.402 416.403C115.402 414.045 115.075 412.063 114.423 410.458C113.771 408.827 112.868 407.598 111.714 406.77C110.56 405.917 109.206 405.491 107.65 405.491C106.145 405.491 104.803 405.917 103.624 406.77C102.445 407.598 101.53 408.827 100.877 410.458C100.225 412.063 99.8992 414.045 99.8992 416.403C99.8992 418.761 100.225 420.755 100.877 422.385C101.53 423.991 102.445 425.22 103.624 426.073C104.803 426.901 106.145 427.315 107.65 427.315Z" fill="black"/>
<path d="M81.6846 299.942C79.3517 299.942 77.3826 299.427 75.7771 298.399C74.1717 297.345 72.9551 295.84 72.1273 293.884C71.2995 291.902 70.8856 289.531 70.8856 286.772C70.8856 283.787 71.3873 281.291 72.3907 279.284C73.4191 277.252 74.8364 275.722 76.6426 274.694C78.4487 273.665 80.5432 273.151 82.9263 273.151C84.1053 273.151 85.2341 273.264 86.3128 273.49C87.3914 273.715 88.3446 274.079 89.1724 274.581L88.0813 276.763C87.404 276.312 86.6263 275.998 85.7484 275.822C84.8704 275.622 83.9423 275.521 82.9639 275.521C80.1294 275.521 77.8592 276.425 76.1534 278.231C74.4727 280.037 73.6324 282.733 73.6324 286.32C73.6324 286.872 73.6575 287.562 73.7076 288.39C73.7829 289.193 73.9334 289.995 74.1592 290.798L73.2185 290.083C73.4944 288.779 74.0337 287.675 74.8364 286.772C75.6392 285.844 76.6426 285.142 77.8466 284.665C79.0507 284.188 80.3677 283.95 81.7975 283.95C83.5534 283.95 85.0962 284.276 86.4257 284.928C87.7552 285.58 88.7962 286.496 89.5487 287.675C90.3013 288.854 90.6775 290.246 90.6775 291.852C90.6775 293.482 90.2887 294.912 89.5111 296.141C88.7335 297.345 87.6548 298.286 86.2751 298.963C84.9206 299.615 83.3904 299.942 81.6846 299.942ZM81.5717 297.646C82.826 297.646 83.9297 297.421 84.8829 296.969C85.8612 296.492 86.6263 295.828 87.1782 294.975C87.7301 294.097 88.006 293.081 88.006 291.927C88.006 290.196 87.404 288.816 86.1999 287.788C85.0209 286.759 83.4155 286.245 81.3836 286.245C80.029 286.245 78.85 286.496 77.8466 286.998C76.8432 287.499 76.0531 288.189 75.4761 289.067C74.8992 289.92 74.6107 290.898 74.6107 292.002C74.6107 292.955 74.8741 293.871 75.4009 294.749C75.9276 295.602 76.7053 296.304 77.7337 296.856C78.7873 297.383 80.0666 297.646 81.5717 297.646ZM104.313 299.942C102.281 299.942 100.475 299.415 98.8944 298.361C97.3141 297.283 96.0724 295.752 95.1693 293.771C94.2662 291.764 93.8147 289.356 93.8147 286.546C93.8147 283.737 94.2662 281.341 95.1693 279.359C96.0724 277.353 97.3141 275.822 98.8944 274.769C100.475 273.69 102.281 273.151 104.313 273.151C106.345 273.151 108.151 273.69 109.731 274.769C111.311 275.822 112.553 277.353 113.456 279.359C114.384 281.341 114.848 283.737 114.848 286.546C114.848 289.356 114.384 291.764 113.456 293.771C112.553 295.752 111.311 297.283 109.731 298.361C108.151 299.415 106.345 299.942 104.313 299.942ZM104.313 297.458C105.868 297.458 107.223 297.044 108.376 296.216C109.53 295.364 110.433 294.134 111.086 292.529C111.738 290.898 112.064 288.904 112.064 286.546C112.064 284.188 111.738 282.207 111.086 280.601C110.433 278.971 109.53 277.741 108.376 276.914C107.223 276.061 105.868 275.634 104.313 275.634C102.808 275.634 101.466 276.061 100.287 276.914C99.1076 277.741 98.192 278.971 97.5398 280.601C96.8876 282.207 96.5615 284.188 96.5615 286.546C96.5615 288.904 96.8876 290.898 97.5398 292.529C98.192 294.134 99.1076 295.364 100.287 296.216C101.466 297.044 102.808 297.458 104.313 297.458Z" fill="black"/>
<path d="M82.2846 168.53C80.1774 168.53 78.3588 168.229 76.8286 167.627C75.3235 167.025 74.1571 166.159 73.3293 165.031C72.5266 163.877 72.1252 162.522 72.1252 160.967C72.1252 159.462 72.514 158.182 73.2916 157.129C74.0944 156.05 75.2483 155.222 76.7534 154.645C78.2835 154.069 80.1273 153.78 82.2846 153.78C84.4168 153.78 86.248 154.069 87.7782 154.645C89.3083 155.222 90.4748 156.05 91.2775 157.129C92.1053 158.182 92.5192 159.462 92.5192 160.967C92.5192 162.522 92.1053 163.877 91.2775 165.031C90.4497 166.159 89.2707 167.025 87.7405 167.627C86.2104 168.229 84.3917 168.53 82.2846 168.53ZM82.2846 166.235C84.6175 166.235 86.4361 165.758 87.7405 164.805C89.07 163.852 89.7348 162.56 89.7348 160.929C89.7348 159.299 89.07 158.019 87.7405 157.091C86.4361 156.138 84.6175 155.661 82.2846 155.661C79.9517 155.661 78.133 156.138 76.8286 157.091C75.5242 158.019 74.872 159.299 74.872 160.929C74.872 162.56 75.5242 163.852 76.8286 164.805C78.133 165.758 79.9517 166.235 82.2846 166.235ZM82.2846 155.323C80.328 155.323 78.6598 155.059 77.2801 154.533C75.9256 154.006 74.8845 153.253 74.1571 152.275C73.4296 151.272 73.0659 150.08 73.0659 148.7C73.0659 147.245 73.4422 146.004 74.1947 144.975C74.9723 143.922 76.051 143.119 77.4307 142.567C78.8103 142.015 80.4283 141.739 82.2846 141.739C84.1409 141.739 85.7588 142.015 87.1385 142.567C88.5433 143.119 89.6344 143.922 90.4121 144.975C91.1897 146.004 91.5785 147.245 91.5785 148.7C91.5785 150.08 91.2148 151.272 90.4873 152.275C89.7599 153.253 88.6938 154.006 87.289 154.533C85.9093 155.059 84.2412 155.323 82.2846 155.323ZM82.2846 153.517C84.3415 153.517 85.947 153.09 87.1009 152.237C88.2548 151.384 88.8317 150.243 88.8317 148.813C88.8317 147.308 88.2297 146.142 87.0256 145.314C85.8466 144.461 84.2663 144.035 82.2846 144.035C80.3029 144.035 78.7225 144.461 77.5435 145.314C76.3645 146.142 75.7751 147.296 75.7751 148.776C75.7751 150.231 76.3395 151.384 77.4683 152.237C78.6222 153.09 80.2276 153.517 82.2846 153.517ZM106.768 168.53C104.737 168.53 102.93 168.003 101.35 166.95C99.7698 165.871 98.5281 164.341 97.625 162.359C96.722 160.352 96.2705 157.944 96.2705 155.135C96.2705 152.325 96.722 149.93 97.625 147.948C98.5281 145.941 99.7698 144.411 101.35 143.357C102.93 142.279 104.737 141.739 106.768 141.739C108.8 141.739 110.606 142.279 112.187 143.357C113.767 144.411 115.009 145.941 115.912 147.948C116.84 149.93 117.304 152.325 117.304 155.135C117.304 157.944 116.84 160.352 115.912 162.359C115.009 164.341 113.767 165.871 112.187 166.95C110.606 168.003 108.8 168.53 106.768 168.53ZM106.768 166.047C108.324 166.047 109.678 165.633 110.832 164.805C111.986 163.952 112.889 162.723 113.541 161.117C114.194 159.487 114.52 157.493 114.52 155.135C114.52 152.777 114.194 150.795 113.541 149.19C112.889 147.559 111.986 146.33 110.832 145.502C109.678 144.649 108.324 144.223 106.768 144.223C105.263 144.223 103.921 144.649 102.742 145.502C101.563 146.33 100.648 147.559 99.9956 149.19C99.3434 150.795 99.0173 152.777 99.0173 155.135C99.0173 157.493 99.3434 159.487 99.9956 161.117C100.648 162.723 101.563 163.952 102.742 164.805C103.921 165.633 105.263 166.047 106.768 166.047Z" fill="black"/>
<path d="M76.8662 36L76.8662 10.7897L78.0703 12.069L70.6577 12.069V9.66089L79.5754 9.66089L79.5754 36H76.8662ZM96.3695 36.2258C94.3377 36.2258 92.5315 35.699 90.9512 34.6454C89.3709 33.5668 88.1292 32.0366 87.2261 30.0549C86.323 28.0481 85.8715 25.6399 85.8715 22.8304C85.8715 20.0209 86.323 17.6253 87.2261 15.6436C88.1292 13.6368 89.3709 12.1067 90.9512 11.0531C92.5315 9.97445 94.3377 9.43512 96.3695 9.43512C98.4014 9.43512 100.208 9.97445 101.788 11.0531C103.368 12.1067 104.61 13.6368 105.513 15.6436C106.441 17.6253 106.905 20.0209 106.905 22.8304C106.905 25.6399 106.441 28.0481 105.513 30.0549C104.61 32.0366 103.368 33.5668 101.788 34.6454C100.208 35.699 98.4014 36.2258 96.3695 36.2258ZM96.3695 33.7424C97.9248 33.7424 99.2794 33.3285 100.433 32.5007C101.587 31.6478 102.49 30.4186 103.142 28.8132C103.795 27.1827 104.121 25.1884 104.121 22.8304C104.121 20.4725 103.795 18.4908 103.142 16.8853C102.49 15.2548 101.587 14.0257 100.433 13.1979C99.2794 12.345 97.9248 11.9185 96.3695 11.9185C94.8644 11.9185 93.5224 12.345 92.3434 13.1979C91.1644 14.0257 90.2488 15.2548 89.5966 16.8853C88.9444 18.4908 88.6183 20.4725 88.6183 22.8304C88.6183 25.1884 88.9444 27.1827 89.5966 28.8132C90.2488 30.4186 91.1644 31.6478 92.3434 32.5007C93.5224 33.3285 94.8644 33.7424 96.3695 33.7424ZM121.283 36.2258C119.251 36.2258 117.445 35.699 115.865 34.6454C114.284 33.5668 113.043 32.0366 112.139 30.0549C111.236 28.0481 110.785 25.6399 110.785 22.8304C110.785 20.0209 111.236 17.6253 112.139 15.6436C113.043 13.6368 114.284 12.1067 115.865 11.0531C117.445 9.97445 119.251 9.43512 121.283 9.43512C123.315 9.43512 125.121 9.97445 126.701 11.0531C128.282 12.1067 129.523 13.6368 130.426 15.6436C131.354 17.6253 131.819 20.0209 131.819 22.8304C131.819 25.6399 131.354 28.0481 130.426 30.0549C129.523 32.0366 128.282 33.5668 126.701 34.6454C125.121 35.699 123.315 36.2258 121.283 36.2258ZM121.283 33.7424C122.838 33.7424 124.193 33.3285 125.347 32.5007C126.501 31.6478 127.404 30.4186 128.056 28.8132C128.708 27.1827 129.034 25.1884 129.034 22.8304C129.034 20.4725 128.708 18.4908 128.056 16.8853C127.404 15.2548 126.501 14.0257 125.347 13.1979C124.193 12.345 122.838 11.9185 121.283 11.9185C119.778 11.9185 118.436 12.345 117.257 13.1979C116.078 14.0257 115.162 15.2548 114.51 16.8853C113.858 18.4908 113.532 20.4725 113.532 22.8304C113.532 25.1884 113.858 27.1827 114.51 28.8132C115.162 30.4186 116.078 31.6478 117.257 32.5007C118.436 33.3285 119.778 33.7424 121.283 33.7424Z" fill="black"/>
<line x1="540.898" y1="429.881" x2="542.898" y2="277.959" stroke="#153314" stroke-width="6.20419"/>
<line x1="553.653" y1="438.595" x2="975.538" y2="438.595" stroke="black" stroke-width="1.55105" stroke-dasharray="3.1 3.1"/>
<line x1="545.551" y1="278.041" x2="967.436" y2="278.041" stroke="black" stroke-width="1.55105" stroke-dasharray="3.1 3.1"/>
<path d="M1001.28 279V252.711H1011.12C1013.35 252.711 1015.26 253.074 1016.87 253.8C1018.47 254.501 1019.7 255.527 1020.55 256.879C1021.42 258.206 1021.86 259.821 1021.86 261.724C1021.86 263.577 1021.42 265.179 1020.55 266.531C1019.7 267.858 1018.47 268.885 1016.87 269.611C1015.26 270.337 1013.35 270.7 1011.12 270.7H1002.82L1004.06 269.386V279H1001.28ZM1004.06 269.611L1002.82 268.259H1011.05C1013.68 268.259 1015.67 267.696 1017.02 266.569C1018.39 265.417 1019.08 263.802 1019.08 261.724C1019.08 259.621 1018.39 257.993 1017.02 256.842C1015.67 255.69 1013.68 255.114 1011.05 255.114H1002.82L1004.06 253.8V269.611ZM1026.83 279V259.283H1029.39V264.653L1029.12 263.715C1029.67 262.212 1030.6 261.073 1031.9 260.297C1033.2 259.496 1034.82 259.095 1036.75 259.095V261.687C1036.65 261.687 1036.55 261.687 1036.45 261.687C1036.35 261.661 1036.25 261.649 1036.15 261.649C1034.07 261.649 1032.44 262.287 1031.26 263.564C1030.09 264.816 1029.5 266.606 1029.5 268.935V279H1026.83ZM1049.8 279.188C1047.75 279.188 1045.95 278.762 1044.4 277.911C1042.84 277.035 1041.63 275.845 1040.75 274.343C1039.88 272.816 1039.44 271.076 1039.44 269.123C1039.44 267.17 1039.85 265.442 1040.68 263.94C1041.53 262.438 1042.68 261.261 1044.13 260.41C1045.61 259.533 1047.26 259.095 1049.09 259.095C1050.94 259.095 1052.58 259.521 1054.01 260.372C1055.46 261.198 1056.6 262.375 1057.43 263.902C1058.25 265.405 1058.67 267.145 1058.67 269.123C1058.67 269.248 1058.65 269.386 1058.63 269.536C1058.63 269.661 1058.63 269.799 1058.63 269.949H1041.47V267.958H1057.2L1056.15 268.747C1056.15 267.32 1055.84 266.056 1055.21 264.954C1054.61 263.827 1053.78 262.951 1052.73 262.325C1051.68 261.699 1050.47 261.386 1049.09 261.386C1047.74 261.386 1046.52 261.699 1045.45 262.325C1044.37 262.951 1043.53 263.827 1042.93 264.954C1042.33 266.081 1042.03 267.37 1042.03 268.822V269.235C1042.03 270.738 1042.35 272.065 1043.01 273.216C1043.68 274.343 1044.61 275.232 1045.79 275.883C1046.99 276.509 1048.35 276.822 1049.88 276.822C1051.08 276.822 1052.19 276.609 1053.22 276.183C1054.27 275.758 1055.17 275.107 1055.93 274.23L1057.43 275.958C1056.55 277.01 1055.45 277.811 1054.12 278.362C1052.82 278.912 1051.38 279.188 1049.8 279.188ZM1071.94 279.188C1070.07 279.188 1068.38 278.762 1066.87 277.911C1065.4 277.06 1064.23 275.883 1063.38 274.381C1062.53 272.853 1062.1 271.101 1062.1 269.123C1062.1 267.12 1062.53 265.367 1063.38 263.865C1064.23 262.363 1065.4 261.198 1066.87 260.372C1068.38 259.521 1070.07 259.095 1071.94 259.095C1073.67 259.095 1075.21 259.483 1076.56 260.259C1077.94 261.036 1079.03 262.175 1079.83 263.677C1080.66 265.154 1081.07 266.969 1081.07 269.123C1081.07 271.251 1080.67 273.066 1079.87 274.568C1079.07 276.071 1077.98 277.222 1076.6 278.024C1075.25 278.8 1073.7 279.188 1071.94 279.188ZM1072.13 276.822C1073.53 276.822 1074.79 276.509 1075.89 275.883C1077.01 275.232 1077.89 274.33 1078.52 273.179C1079.17 272.002 1079.49 270.65 1079.49 269.123C1079.49 267.57 1079.17 266.218 1078.52 265.067C1077.89 263.915 1077.01 263.026 1075.89 262.4C1074.79 261.749 1073.53 261.424 1072.13 261.424C1070.75 261.424 1069.52 261.749 1068.41 262.4C1067.31 263.026 1066.44 263.915 1065.78 265.067C1065.13 266.218 1064.81 267.57 1064.81 269.123C1064.81 270.65 1065.13 272.002 1065.78 273.179C1066.44 274.33 1067.31 275.232 1068.41 275.883C1069.52 276.509 1070.75 276.822 1072.13 276.822ZM1079.57 279V273.066L1079.83 269.085L1079.46 265.104V251.133H1082.12V279H1079.57ZM1089.55 279V259.283H1092.21V279H1089.55ZM1090.9 254.926C1090.35 254.926 1089.89 254.739 1089.51 254.363C1089.13 253.987 1088.95 253.537 1088.95 253.011C1088.95 252.485 1089.13 252.047 1089.51 251.697C1089.89 251.321 1090.35 251.133 1090.9 251.133C1091.45 251.133 1091.91 251.308 1092.29 251.659C1092.66 252.009 1092.85 252.448 1092.85 252.973C1092.85 253.524 1092.66 253.987 1092.29 254.363C1091.94 254.739 1091.48 254.926 1090.9 254.926ZM1107.82 279.188C1105.87 279.188 1104.12 278.762 1102.56 277.911C1101.04 277.035 1099.83 275.845 1098.96 274.343C1098.08 272.816 1097.64 271.076 1097.64 269.123C1097.64 267.145 1098.08 265.405 1098.96 263.902C1099.83 262.4 1101.04 261.223 1102.56 260.372C1104.12 259.521 1105.87 259.095 1107.82 259.095C1109.5 259.095 1111.01 259.421 1112.37 260.072C1113.72 260.723 1114.78 261.699 1115.56 263.001L1113.57 264.353C1112.89 263.352 1112.05 262.613 1111.05 262.137C1110.05 261.661 1108.96 261.424 1107.78 261.424C1106.38 261.424 1105.12 261.749 1103.99 262.4C1102.86 263.026 1101.97 263.915 1101.32 265.067C1100.67 266.218 1100.35 267.57 1100.35 269.123C1100.35 270.675 1100.67 272.027 1101.32 273.179C1101.97 274.33 1102.86 275.232 1103.99 275.883C1105.12 276.509 1106.38 276.822 1107.78 276.822C1108.96 276.822 1110.05 276.584 1111.05 276.108C1112.05 275.632 1112.89 274.906 1113.57 273.93L1115.56 275.282C1114.78 276.559 1113.72 277.535 1112.37 278.211C1111.01 278.862 1109.5 279.188 1107.82 279.188ZM1127.25 279.188C1125.4 279.188 1123.97 278.687 1122.97 277.686C1121.97 276.684 1121.47 275.269 1121.47 273.442V254.926H1124.13V273.291C1124.13 274.443 1124.42 275.332 1125 275.958C1125.6 276.584 1126.45 276.897 1127.55 276.897C1128.73 276.897 1129.7 276.559 1130.48 275.883L1131.42 277.798C1130.89 278.274 1130.25 278.624 1129.5 278.85C1128.78 279.075 1128.03 279.188 1127.25 279.188ZM1117.94 261.499V259.283H1130.14V261.499H1117.94ZM1143.95 279.188C1141.9 279.188 1140.1 278.762 1138.54 277.911C1136.99 277.035 1135.78 275.845 1134.9 274.343C1134.02 272.816 1133.59 271.076 1133.59 269.123C1133.59 267.17 1134 265.442 1134.83 263.94C1135.68 262.438 1136.83 261.261 1138.28 260.41C1139.76 259.533 1141.41 259.095 1143.24 259.095C1145.09 259.095 1146.73 259.521 1148.16 260.372C1149.61 261.198 1150.75 262.375 1151.58 263.902C1152.4 265.405 1152.81 267.145 1152.81 269.123C1152.81 269.248 1152.8 269.386 1152.78 269.536C1152.78 269.661 1152.78 269.799 1152.78 269.949H1135.61V267.958H1151.35L1150.3 268.747C1150.3 267.32 1149.99 266.056 1149.36 264.954C1148.76 263.827 1147.93 262.951 1146.88 262.325C1145.83 261.699 1144.61 261.386 1143.24 261.386C1141.89 261.386 1140.67 261.699 1139.59 262.325C1138.52 262.951 1137.68 263.827 1137.08 264.954C1136.48 266.081 1136.18 267.37 1136.18 268.822V269.235C1136.18 270.738 1136.5 272.065 1137.15 273.216C1137.83 274.343 1138.76 275.232 1139.93 275.883C1141.13 276.509 1142.5 276.822 1144.03 276.822C1145.23 276.822 1146.34 276.609 1147.37 276.183C1148.42 275.758 1149.32 275.107 1150.07 274.23L1151.58 275.958C1150.7 277.01 1149.6 277.811 1148.27 278.362C1146.97 278.912 1145.53 279.188 1143.95 279.188ZM1166.09 279.188C1164.21 279.188 1162.52 278.762 1161.02 277.911C1159.54 277.06 1158.38 275.883 1157.53 274.381C1156.68 272.853 1156.25 271.101 1156.25 269.123C1156.25 267.12 1156.68 265.367 1157.53 263.865C1158.38 262.363 1159.54 261.198 1161.02 260.372C1162.52 259.521 1164.21 259.095 1166.09 259.095C1167.82 259.095 1169.36 259.483 1170.71 260.259C1172.09 261.036 1173.18 262.175 1173.98 263.677C1174.8 265.154 1175.22 266.969 1175.22 269.123C1175.22 271.251 1174.82 273.066 1174.02 274.568C1173.21 276.071 1172.13 277.222 1170.75 278.024C1169.4 278.8 1167.84 279.188 1166.09 279.188ZM1166.28 276.822C1167.68 276.822 1168.93 276.509 1170.03 275.883C1171.16 275.232 1172.04 274.33 1172.66 273.179C1173.31 272.002 1173.64 270.65 1173.64 269.123C1173.64 267.57 1173.31 266.218 1172.66 265.067C1172.04 263.915 1171.16 263.026 1170.03 262.4C1168.93 261.749 1167.68 261.424 1166.28 261.424C1164.9 261.424 1163.66 261.749 1162.56 262.4C1161.46 263.026 1160.58 263.915 1159.93 265.067C1159.28 266.218 1158.96 267.57 1158.96 269.123C1158.96 270.65 1159.28 272.002 1159.93 273.179C1160.58 274.33 1161.46 275.232 1162.56 275.883C1163.66 276.509 1164.9 276.822 1166.28 276.822ZM1173.72 279V273.066L1173.98 269.085L1173.6 265.104V251.133H1176.27V279H1173.72ZM1201.56 279L1189.92 252.711H1192.92L1203.82 277.46H1202.16L1213.13 252.711H1215.95L1204.3 279H1201.56ZM1230.05 279V274.643L1229.94 273.93V266.644C1229.94 264.966 1229.46 263.677 1228.51 262.776C1227.58 261.874 1226.19 261.424 1224.34 261.424C1223.06 261.424 1221.85 261.636 1220.7 262.062C1219.55 262.488 1218.57 263.051 1217.77 263.752L1216.57 261.762C1217.57 260.91 1218.77 260.259 1220.17 259.809C1221.57 259.333 1223.05 259.095 1224.6 259.095C1227.16 259.095 1229.12 259.734 1230.5 261.01C1231.9 262.262 1232.6 264.178 1232.6 266.757V279H1230.05ZM1223.25 279.188C1221.78 279.188 1220.49 278.95 1219.38 278.474C1218.31 277.973 1217.48 277.297 1216.91 276.446C1216.33 275.57 1216.04 274.568 1216.04 273.442C1216.04 272.415 1216.28 271.489 1216.76 270.662C1217.26 269.811 1218.06 269.135 1219.16 268.634C1220.29 268.109 1221.79 267.846 1223.67 267.846H1230.46V269.836H1223.74C1221.84 269.836 1220.51 270.174 1219.76 270.85C1219.03 271.526 1218.67 272.365 1218.67 273.367C1218.67 274.493 1219.11 275.395 1219.99 276.071C1220.86 276.747 1222.09 277.085 1223.67 277.085C1225.17 277.085 1226.46 276.747 1227.53 276.071C1228.64 275.37 1229.44 274.368 1229.94 273.066L1230.54 274.906C1230.04 276.208 1229.16 277.247 1227.91 278.024C1226.68 278.8 1225.13 279.188 1223.25 279.188ZM1239.85 279V251.133H1242.51V279H1239.85ZM1258.08 279.188C1256.4 279.188 1254.94 278.875 1253.69 278.249C1252.44 277.623 1251.46 276.684 1250.76 275.432C1250.08 274.18 1249.74 272.615 1249.74 270.738V259.283H1252.41V270.437C1252.41 272.54 1252.92 274.13 1253.95 275.207C1255 276.258 1256.47 276.784 1258.35 276.784C1259.72 276.784 1260.91 276.509 1261.91 275.958C1262.94 275.382 1263.72 274.556 1264.24 273.479C1264.79 272.403 1265.07 271.113 1265.07 269.611V259.283H1267.73V279H1265.18V273.592L1265.59 274.568C1264.97 276.021 1263.99 277.16 1262.66 277.986C1261.36 278.787 1259.83 279.188 1258.08 279.188ZM1283.54 279.188C1281.49 279.188 1279.68 278.762 1278.13 277.911C1276.58 277.035 1275.37 275.845 1274.49 274.343C1273.61 272.816 1273.18 271.076 1273.18 269.123C1273.18 267.17 1273.59 265.442 1274.41 263.94C1275.27 262.438 1276.42 261.261 1277.87 260.41C1279.35 259.533 1281 259.095 1282.83 259.095C1284.68 259.095 1286.32 259.521 1287.75 260.372C1289.2 261.198 1290.34 262.375 1291.16 263.902C1291.99 265.405 1292.4 267.145 1292.4 269.123C1292.4 269.248 1292.39 269.386 1292.37 269.536C1292.37 269.661 1292.37 269.799 1292.37 269.949H1275.2V267.958H1290.94L1289.89 268.747C1289.89 267.32 1289.57 266.056 1288.95 264.954C1288.35 263.827 1287.52 262.951 1286.47 262.325C1285.42 261.699 1284.2 261.386 1282.83 261.386C1281.48 261.386 1280.26 261.699 1279.18 262.325C1278.11 262.951 1277.27 263.827 1276.67 264.954C1276.07 266.081 1275.77 267.37 1275.77 268.822V269.235C1275.77 270.738 1276.09 272.065 1276.74 273.216C1277.42 274.343 1278.35 275.232 1279.52 275.883C1280.72 276.509 1282.09 276.822 1283.62 276.822C1284.82 276.822 1285.93 276.609 1286.96 276.183C1288.01 275.758 1288.91 275.107 1289.66 274.23L1291.16 275.958C1290.29 277.01 1289.19 277.811 1287.86 278.362C1286.56 278.912 1285.12 279.188 1283.54 279.188Z" fill="#0A6308"/>
<path d="M999.075 438L1011.09 411.711H1013.83L1025.85 438H1022.92L1011.88 413.325H1013.01L1001.97 438H999.075ZM1003.81 430.977L1004.63 428.724H1019.92L1020.75 430.977H1003.81ZM1037.64 438.188C1035.69 438.188 1033.94 437.762 1032.38 436.911C1030.86 436.035 1029.66 434.845 1028.78 433.343C1027.9 431.816 1027.46 430.076 1027.46 428.123C1027.46 426.145 1027.9 424.405 1028.78 422.902C1029.66 421.4 1030.86 420.223 1032.38 419.372C1033.94 418.521 1035.69 418.095 1037.64 418.095C1039.32 418.095 1040.83 418.421 1042.19 419.072C1043.54 419.723 1044.6 420.699 1045.38 422.001L1043.39 423.353C1042.71 422.352 1041.87 421.613 1040.87 421.137C1039.87 420.661 1038.78 420.424 1037.6 420.424C1036.2 420.424 1034.94 420.749 1033.81 421.4C1032.68 422.026 1031.8 422.915 1031.15 424.067C1030.49 425.218 1030.17 426.57 1030.17 428.123C1030.17 429.675 1030.49 431.027 1031.15 432.179C1031.8 433.33 1032.68 434.232 1033.81 434.883C1034.94 435.509 1036.2 435.822 1037.6 435.822C1038.78 435.822 1039.87 435.584 1040.87 435.108C1041.87 434.632 1042.71 433.906 1043.39 432.93L1045.38 434.282C1044.6 435.559 1043.54 436.535 1042.19 437.211C1040.83 437.862 1039.32 438.188 1037.64 438.188ZM1057.07 438.188C1055.22 438.188 1053.79 437.687 1052.79 436.686C1051.79 435.684 1051.29 434.269 1051.29 432.442V413.926H1053.95V432.291C1053.95 433.443 1054.24 434.332 1054.82 434.958C1055.42 435.584 1056.27 435.897 1057.37 435.897C1058.55 435.897 1059.53 435.559 1060.3 434.883L1061.24 436.798C1060.71 437.274 1060.08 437.624 1059.32 437.85C1058.6 438.075 1057.85 438.188 1057.07 438.188ZM1047.76 420.499V418.283H1059.96V420.499H1047.76ZM1074.24 438.188C1072.57 438.188 1071.1 437.875 1069.85 437.249C1068.6 436.623 1067.62 435.684 1066.92 434.432C1066.24 433.18 1065.91 431.615 1065.91 429.738V418.283H1068.57V429.437C1068.57 431.54 1069.09 433.13 1070.11 434.207C1071.16 435.258 1072.63 435.784 1074.51 435.784C1075.88 435.784 1077.07 435.509 1078.07 434.958C1079.1 434.382 1079.88 433.556 1080.4 432.479C1080.95 431.403 1081.23 430.113 1081.23 428.611V418.283H1083.9V438H1081.34V432.592L1081.76 433.568C1081.13 435.021 1080.15 436.16 1078.83 436.986C1077.52 437.787 1076 438.188 1074.24 438.188ZM1103.68 438V433.643L1103.57 432.93V425.644C1103.57 423.966 1103.1 422.677 1102.14 421.776C1101.22 420.874 1099.83 420.424 1097.98 420.424C1096.7 420.424 1095.48 420.636 1094.33 421.062C1093.18 421.488 1092.2 422.051 1091.4 422.752L1090.2 420.762C1091.2 419.91 1092.4 419.259 1093.81 418.809C1095.21 418.333 1096.69 418.095 1098.24 418.095C1100.79 418.095 1102.76 418.734 1104.13 420.01C1105.54 421.262 1106.24 423.178 1106.24 425.757V438H1103.68ZM1096.89 438.188C1095.41 438.188 1094.12 437.95 1093.02 437.474C1091.94 436.973 1091.11 436.297 1090.54 435.446C1089.96 434.57 1089.68 433.568 1089.68 432.442C1089.68 431.415 1089.91 430.489 1090.39 429.662C1090.89 428.811 1091.69 428.135 1092.79 427.634C1093.92 427.109 1095.42 426.846 1097.3 426.846H1104.1V428.836H1097.37C1095.47 428.836 1094.14 429.174 1093.39 429.85C1092.67 430.526 1092.3 431.365 1092.3 432.367C1092.3 433.493 1092.74 434.395 1093.62 435.071C1094.49 435.747 1095.72 436.085 1097.3 436.085C1098.8 436.085 1100.09 435.747 1101.17 435.071C1102.27 434.37 1103.07 433.368 1103.57 432.066L1104.17 433.906C1103.67 435.208 1102.79 436.247 1101.54 437.024C1100.32 437.8 1098.76 438.188 1096.89 438.188ZM1113.48 438V410.133H1116.15V438H1113.48ZM1141.43 438L1129.79 411.711H1132.79L1143.69 436.46H1142.03L1153 411.711H1155.82L1144.17 438H1141.43ZM1169.92 438V433.643L1169.81 432.93V425.644C1169.81 423.966 1169.33 422.677 1168.38 421.776C1167.45 420.874 1166.07 420.424 1164.21 420.424C1162.94 420.424 1161.72 420.636 1160.57 421.062C1159.42 421.488 1158.44 422.051 1157.64 422.752L1156.44 420.762C1157.44 419.91 1158.64 419.259 1160.04 418.809C1161.45 418.333 1162.92 418.095 1164.48 418.095C1167.03 418.095 1168.99 418.734 1170.37 420.01C1171.77 421.262 1172.47 423.178 1172.47 425.757V438H1169.92ZM1163.12 438.188C1161.65 438.188 1160.36 437.95 1159.25 437.474C1158.18 436.973 1157.35 436.297 1156.78 435.446C1156.2 434.57 1155.91 433.568 1155.91 432.442C1155.91 431.415 1156.15 430.489 1156.63 429.662C1157.13 428.811 1157.93 428.135 1159.03 427.634C1160.16 427.109 1161.66 426.846 1163.54 426.846H1170.33V428.836H1163.61C1161.71 428.836 1160.38 429.174 1159.63 429.85C1158.9 430.526 1158.54 431.365 1158.54 432.367C1158.54 433.493 1158.98 434.395 1159.86 435.071C1160.73 435.747 1161.96 436.085 1163.54 436.085C1165.04 436.085 1166.33 435.747 1167.4 435.071C1168.51 434.37 1169.31 433.368 1169.81 432.066L1170.41 433.906C1169.91 435.208 1169.03 436.247 1167.78 437.024C1166.55 437.8 1165 438.188 1163.12 438.188ZM1179.72 438V410.133H1182.38V438H1179.72ZM1197.95 438.188C1196.28 438.188 1194.81 437.875 1193.56 437.249C1192.31 436.623 1191.33 435.684 1190.63 434.432C1189.95 433.18 1189.62 431.615 1189.62 429.738V418.283H1192.28V429.437C1192.28 431.54 1192.8 433.13 1193.82 434.207C1194.87 435.258 1196.34 435.784 1198.22 435.784C1199.59 435.784 1200.78 435.509 1201.78 434.958C1202.81 434.382 1203.59 433.556 1204.11 432.479C1204.66 431.403 1204.94 430.113 1204.94 428.611V418.283H1207.6V438H1205.05V432.592L1205.46 433.568C1204.84 435.021 1203.86 436.16 1202.53 436.986C1201.23 437.787 1199.71 438.188 1197.95 438.188ZM1223.41 438.188C1221.36 438.188 1219.56 437.762 1218 436.911C1216.45 436.035 1215.24 434.845 1214.36 433.343C1213.48 431.816 1213.05 430.076 1213.05 428.123C1213.05 426.17 1213.46 424.442 1214.29 422.94C1215.14 421.438 1216.29 420.261 1217.74 419.41C1219.22 418.533 1220.87 418.095 1222.7 418.095C1224.55 418.095 1226.19 418.521 1227.62 419.372C1229.07 420.198 1230.21 421.375 1231.04 422.902C1231.86 424.405 1232.27 426.145 1232.27 428.123C1232.27 428.248 1232.26 428.386 1232.24 428.536C1232.24 428.661 1232.24 428.799 1232.24 428.949H1215.07V426.958H1230.81L1229.76 427.747C1229.76 426.32 1229.45 425.056 1228.82 423.954C1228.22 422.827 1227.39 421.951 1226.34 421.325C1225.29 420.699 1224.07 420.386 1222.7 420.386C1221.35 420.386 1220.13 420.699 1219.05 421.325C1217.98 421.951 1217.14 422.827 1216.54 423.954C1215.94 425.081 1215.64 426.37 1215.64 427.822V428.235C1215.64 429.738 1215.96 431.065 1216.61 432.216C1217.29 433.343 1218.22 434.232 1219.39 434.883C1220.59 435.509 1221.96 435.822 1223.49 435.822C1224.69 435.822 1225.8 435.609 1226.83 435.183C1227.88 434.758 1228.78 434.107 1229.53 433.23L1231.04 434.958C1230.16 436.01 1229.06 436.811 1227.73 437.362C1226.43 437.912 1224.99 438.188 1223.41 438.188Z" fill="#0A6308"/>
<path d="M947.701 439.099C948.306 439.706 949.288 439.707 949.895 439.102L959.778 429.244C960.384 428.639 960.386 427.657 959.781 427.05C959.176 426.444 958.194 426.442 957.587 427.047L948.802 435.81L940.039 427.025C939.434 426.419 938.452 426.418 937.846 427.023C937.239 427.627 937.238 428.61 937.843 429.216L947.701 439.099ZM950.098 277.905C949.493 277.298 948.511 277.297 947.905 277.902L938.021 287.76C937.415 288.365 937.414 289.347 938.019 289.954C938.624 290.56 939.606 290.561 940.212 289.956L948.997 281.194L957.76 289.979C958.365 290.585 959.347 290.586 959.954 289.981C960.56 289.376 960.561 288.394 959.956 287.788L950.098 277.905ZM950.35 438.006L950.551 279.002L947.449 278.998L947.248 438.002L950.35 438.006Z" fill="#0A6308"/>
<path d="M773.183 355.797V329.507H783.023C785.252 329.507 787.167 329.87 788.769 330.597C790.372 331.298 791.599 332.324 792.45 333.676C793.326 335.003 793.764 336.618 793.764 338.521C793.764 340.374 793.326 341.976 792.45 343.328C791.599 344.655 790.372 345.682 788.769 346.408C787.167 347.109 785.252 347.459 783.023 347.459H774.723L775.963 346.182V355.797H773.183ZM791.135 355.797L784.375 346.258H787.38L794.177 355.797H791.135ZM775.963 346.408L774.723 345.093H782.948C785.577 345.093 787.567 344.517 788.92 343.366C790.297 342.214 790.985 340.599 790.985 338.521C790.985 336.418 790.297 334.79 788.92 333.639C787.567 332.487 785.577 331.911 782.948 331.911H774.723L775.963 330.597V346.408ZM808.135 355.985C806.082 355.985 804.28 355.559 802.727 354.708C801.175 353.831 799.961 352.642 799.084 351.14C798.208 349.613 797.77 347.872 797.77 345.92C797.77 343.967 798.183 342.239 799.009 340.737C799.861 339.235 801.012 338.058 802.464 337.206C803.942 336.33 805.594 335.892 807.422 335.892C809.275 335.892 810.915 336.318 812.342 337.169C813.794 337.995 814.933 339.172 815.759 340.699C816.586 342.201 816.999 343.942 816.999 345.92C816.999 346.045 816.986 346.182 816.961 346.333C816.961 346.458 816.961 346.596 816.961 346.746H799.798V344.755H815.534L814.483 345.544C814.483 344.117 814.17 342.852 813.544 341.751C812.943 340.624 812.116 339.748 811.065 339.122C810.013 338.496 808.799 338.183 807.422 338.183C806.07 338.183 804.856 338.496 803.779 339.122C802.702 339.748 801.864 340.624 801.263 341.751C800.662 342.877 800.361 344.167 800.361 345.619V346.032C800.361 347.534 800.687 348.861 801.338 350.013C802.014 351.14 802.94 352.029 804.117 352.68C805.319 353.306 806.683 353.619 808.211 353.619C809.412 353.619 810.527 353.406 811.553 352.98C812.605 352.555 813.506 351.904 814.257 351.027L815.759 352.755C814.883 353.806 813.781 354.608 812.454 355.158C811.153 355.709 809.713 355.985 808.135 355.985ZM827.722 355.985C826.094 355.985 824.554 355.759 823.102 355.309C821.65 354.833 820.511 354.245 819.685 353.543L820.886 351.44C821.688 352.041 822.714 352.567 823.966 353.018C825.218 353.443 826.532 353.656 827.909 353.656C829.787 353.656 831.139 353.368 831.966 352.792C832.792 352.191 833.205 351.403 833.205 350.426C833.205 349.7 832.967 349.137 832.491 348.736C832.041 348.311 831.44 347.998 830.689 347.797C829.938 347.572 829.099 347.384 828.172 347.234C827.246 347.084 826.32 346.909 825.393 346.708C824.492 346.508 823.666 346.22 822.914 345.844C822.163 345.444 821.55 344.906 821.074 344.23C820.624 343.553 820.398 342.652 820.398 341.525C820.398 340.449 820.699 339.485 821.3 338.634C821.9 337.782 822.777 337.119 823.929 336.643C825.105 336.142 826.532 335.892 828.21 335.892C829.487 335.892 830.764 336.067 832.041 336.418C833.318 336.743 834.369 337.181 835.195 337.732L834.031 339.873C833.155 339.272 832.216 338.846 831.214 338.596C830.213 338.321 829.211 338.183 828.21 338.183C826.432 338.183 825.118 338.496 824.267 339.122C823.44 339.723 823.027 340.499 823.027 341.45C823.027 342.201 823.253 342.79 823.703 343.215C824.179 343.641 824.792 343.979 825.543 344.23C826.32 344.455 827.158 344.643 828.06 344.793C828.986 344.943 829.9 345.131 830.801 345.356C831.728 345.557 832.566 345.844 833.318 346.22C834.094 346.571 834.707 347.084 835.158 347.76C835.634 348.411 835.871 349.275 835.871 350.351C835.871 351.503 835.546 352.504 834.895 353.356C834.269 354.182 833.343 354.833 832.116 355.309C830.914 355.759 829.449 355.985 827.722 355.985ZM840.764 355.797V336.08H843.431V355.797H840.764ZM842.116 331.723C841.566 331.723 841.102 331.535 840.727 331.16C840.351 330.784 840.163 330.334 840.163 329.808C840.163 329.282 840.351 328.844 840.727 328.493C841.102 328.118 841.566 327.93 842.116 327.93C842.667 327.93 843.13 328.105 843.506 328.456C843.882 328.806 844.069 329.245 844.069 329.77C844.069 330.321 843.882 330.784 843.506 331.16C843.155 331.535 842.692 331.723 842.116 331.723ZM858.7 355.985C856.822 355.985 855.132 355.559 853.629 354.708C852.152 353.856 850.988 352.68 850.137 351.177C849.285 349.65 848.86 347.898 848.86 345.92C848.86 343.917 849.285 342.164 850.137 340.662C850.988 339.159 852.152 337.995 853.629 337.169C855.132 336.318 856.822 335.892 858.7 335.892C860.427 335.892 861.967 336.28 863.319 337.056C864.696 337.832 865.785 338.972 866.586 340.474C867.413 341.951 867.826 343.766 867.826 345.92C867.826 348.048 867.425 349.863 866.624 351.365C865.823 352.867 864.734 354.019 863.357 354.82C862.005 355.597 860.452 355.985 858.7 355.985ZM858.887 353.619C860.289 353.619 861.541 353.306 862.643 352.68C863.77 352.029 864.646 351.127 865.272 349.976C865.923 348.799 866.248 347.447 866.248 345.92C866.248 344.367 865.923 343.015 865.272 341.863C864.646 340.712 863.77 339.823 862.643 339.197C861.541 338.546 860.289 338.22 858.887 338.22C857.51 338.22 856.271 338.546 855.169 339.197C854.068 339.823 853.191 340.712 852.54 341.863C851.889 343.015 851.564 344.367 851.564 345.92C851.564 347.447 851.889 348.799 852.54 349.976C853.191 351.127 854.068 352.029 855.169 352.68C856.271 353.306 857.51 353.619 858.887 353.619ZM866.324 355.797V349.863L866.586 345.882L866.211 341.901V327.93H868.877V355.797H866.324ZM884.453 355.985C882.776 355.985 881.311 355.672 880.059 355.046C878.807 354.42 877.831 353.481 877.13 352.229C876.454 350.977 876.116 349.412 876.116 347.534V336.08H878.782V347.234C878.782 349.337 879.296 350.927 880.322 352.004C881.374 353.055 882.838 353.581 884.716 353.581C886.093 353.581 887.283 353.306 888.284 352.755C889.311 352.179 890.087 351.353 890.613 350.276C891.163 349.199 891.439 347.91 891.439 346.408V336.08H894.105V355.797H891.551V350.389L891.965 351.365C891.339 352.817 890.362 353.957 889.035 354.783C887.733 355.584 886.206 355.985 884.453 355.985ZM913.893 355.797V351.44L913.78 350.727V343.441C913.78 341.763 913.304 340.474 912.353 339.573C911.427 338.671 910.037 338.22 908.184 338.22C906.907 338.22 905.693 338.433 904.541 338.859C903.389 339.285 902.413 339.848 901.612 340.549L900.41 338.558C901.412 337.707 902.613 337.056 904.015 336.606C905.418 336.13 906.895 335.892 908.447 335.892C911.001 335.892 912.966 336.53 914.343 337.807C915.746 339.059 916.447 340.975 916.447 343.553V355.797H913.893ZM907.095 355.985C905.618 355.985 904.328 355.747 903.227 355.271C902.15 354.77 901.324 354.094 900.748 353.243C900.172 352.367 899.884 351.365 899.884 350.239C899.884 349.212 900.122 348.286 900.598 347.459C901.099 346.608 901.9 345.932 903.001 345.431C904.128 344.906 905.63 344.643 907.508 344.643H914.306V346.633H907.583C905.68 346.633 904.353 346.971 903.602 347.647C902.876 348.323 902.513 349.162 902.513 350.163C902.513 351.29 902.951 352.191 903.828 352.867C904.704 353.543 905.931 353.881 907.508 353.881C909.01 353.881 910.3 353.543 911.376 352.867C912.478 352.166 913.279 351.165 913.78 349.863L914.381 351.703C913.88 353.005 913.004 354.044 911.752 354.82C910.525 355.597 908.973 355.985 907.095 355.985ZM923.689 355.797V327.93H926.356V355.797H923.689Z" fill="#0A6308"/>
</svg>
