<svg width="1334" height="813" viewBox="0 0 1334 813" fill="none" xmlns="http://www.w3.org/2000/svg">
<rect width="1191.2" height="806.544" fill="white"/>
<path d="M170.401 43.7882V40.6585H164.142V43.7882H170.401ZM170.401 685.376L170.401 43.7882H164.142L164.142 685.376H170.401Z" fill="#153314"/>
<path d="M862.138 690.058H865.268V683.799H862.138V690.058ZM164.167 690.058H862.138V683.799H164.167V690.058Z" fill="#153314"/>
<path d="M404.841 785.615H407.582V811.904H404.841V785.615ZM388.391 811.904H385.612V785.615H388.391V811.904ZM405.104 799.774H388.091V797.332H405.104V799.774ZM423.637 812.092C421.734 812.092 420.019 811.666 418.492 810.815C416.989 809.939 415.8 808.75 414.924 807.247C414.048 805.72 413.609 803.98 413.609 802.027C413.609 800.049 414.048 798.309 414.924 796.807C415.8 795.304 416.989 794.128 418.492 793.276C419.994 792.425 421.709 791.999 423.637 791.999C425.59 791.999 427.317 792.425 428.82 793.276C430.347 794.128 431.536 795.304 432.388 796.807C433.264 798.309 433.702 800.049 433.702 802.027C433.702 803.98 433.264 805.72 432.388 807.247C431.536 808.75 430.347 809.939 428.82 810.815C427.292 811.666 425.565 812.092 423.637 812.092ZM423.637 809.726C425.064 809.726 426.328 809.413 427.43 808.787C428.532 808.136 429.396 807.235 430.022 806.083C430.673 804.906 430.998 803.554 430.998 802.027C430.998 800.475 430.673 799.123 430.022 797.971C429.396 796.819 428.532 795.93 427.43 795.304C426.328 794.653 425.077 794.328 423.674 794.328C422.272 794.328 421.021 794.653 419.919 795.304C418.817 795.93 417.941 796.819 417.29 797.971C416.639 799.123 416.313 800.475 416.313 802.027C416.313 803.554 416.639 804.906 417.29 806.083C417.941 807.235 418.817 808.136 419.919 808.787C421.021 809.413 422.26 809.726 423.637 809.726ZM447.296 812.092C445.618 812.092 444.153 811.779 442.902 811.153C441.65 810.527 440.673 809.588 439.972 808.336C439.296 807.085 438.958 805.52 438.958 803.642V792.187H441.625V803.341C441.625 805.445 442.138 807.035 443.164 808.111C444.216 809.163 445.681 809.689 447.559 809.689C448.936 809.689 450.125 809.413 451.126 808.862C452.153 808.286 452.929 807.46 453.455 806.384C454.006 805.307 454.281 804.017 454.281 802.515V792.187H456.948V811.904H454.394V806.496L454.807 807.473C454.181 808.925 453.205 810.064 451.878 810.89C450.576 811.692 449.048 812.092 447.296 812.092ZM464.379 811.904V792.187H466.933V797.558L466.67 796.619C467.221 795.117 468.147 793.977 469.449 793.201C470.751 792.4 472.366 791.999 474.294 791.999V794.591C474.194 794.591 474.094 794.591 473.994 794.591C473.893 794.566 473.793 794.553 473.693 794.553C471.615 794.553 469.988 795.192 468.811 796.469C467.634 797.721 467.046 799.511 467.046 801.839V811.904H464.379ZM484.675 812.092C483.048 812.092 481.508 811.867 480.056 811.416C478.604 810.94 477.464 810.352 476.638 809.651L477.84 807.548C478.641 808.149 479.668 808.674 480.92 809.125C482.171 809.551 483.486 809.764 484.863 809.764C486.741 809.764 488.093 809.476 488.919 808.9C489.745 808.299 490.158 807.51 490.158 806.534C490.158 805.808 489.921 805.244 489.445 804.844C488.994 804.418 488.393 804.105 487.642 803.905C486.891 803.679 486.052 803.492 485.126 803.341C484.199 803.191 483.273 803.016 482.347 802.816C481.445 802.615 480.619 802.327 479.868 801.952C479.117 801.551 478.503 801.013 478.028 800.337C477.577 799.661 477.352 798.76 477.352 797.633C477.352 796.556 477.652 795.592 478.253 794.741C478.854 793.89 479.73 793.226 480.882 792.751C482.059 792.25 483.486 791.999 485.163 791.999C486.44 791.999 487.717 792.175 488.994 792.525C490.271 792.851 491.323 793.289 492.149 793.84L490.985 795.98C490.108 795.38 489.169 794.954 488.168 794.704C487.166 794.428 486.165 794.29 485.163 794.29C483.386 794.29 482.071 794.603 481.22 795.229C480.394 795.83 479.981 796.606 479.981 797.558C479.981 798.309 480.206 798.897 480.657 799.323C481.132 799.749 481.746 800.087 482.497 800.337C483.273 800.562 484.112 800.75 485.013 800.9C485.94 801.051 486.853 801.238 487.755 801.464C488.681 801.664 489.52 801.952 490.271 802.327C491.047 802.678 491.661 803.191 492.111 803.867C492.587 804.518 492.825 805.382 492.825 806.459C492.825 807.61 492.499 808.612 491.848 809.463C491.222 810.289 490.296 810.94 489.069 811.416C487.867 811.867 486.403 812.092 484.675 812.092ZM512.842 812.092C511.215 812.092 509.675 811.867 508.223 811.416C506.771 810.94 505.632 810.352 504.805 809.651L506.007 807.548C506.808 808.149 507.835 808.674 509.087 809.125C510.339 809.551 511.653 809.764 513.03 809.764C514.908 809.764 516.26 809.476 517.086 808.9C517.913 808.299 518.326 807.51 518.326 806.534C518.326 805.808 518.088 805.244 517.612 804.844C517.161 804.418 516.561 804.105 515.809 803.905C515.058 803.679 514.219 803.492 513.293 803.341C512.367 803.191 511.44 803.016 510.514 802.816C509.613 802.615 508.786 802.327 508.035 801.952C507.284 801.551 506.671 801.013 506.195 800.337C505.744 799.661 505.519 798.76 505.519 797.633C505.519 796.556 505.819 795.592 506.42 794.741C507.021 793.89 507.898 793.226 509.049 792.751C510.226 792.25 511.653 791.999 513.331 791.999C514.608 791.999 515.884 792.175 517.161 792.525C518.438 792.851 519.49 793.289 520.316 793.84L519.152 795.98C518.276 795.38 517.337 794.954 516.335 794.704C515.334 794.428 514.332 794.29 513.331 794.29C511.553 794.29 510.239 794.603 509.387 795.229C508.561 795.83 508.148 796.606 508.148 797.558C508.148 798.309 508.373 798.897 508.824 799.323C509.3 799.749 509.913 800.087 510.664 800.337C511.44 800.562 512.279 800.75 513.18 800.9C514.107 801.051 515.021 801.238 515.922 801.464C516.848 801.664 517.687 801.952 518.438 802.327C519.214 802.678 519.828 803.191 520.279 803.867C520.754 804.518 520.992 805.382 520.992 806.459C520.992 807.61 520.667 808.612 520.016 809.463C519.39 810.289 518.463 810.94 517.237 811.416C516.035 811.867 514.57 812.092 512.842 812.092ZM532.119 812.092C530.267 812.092 528.839 811.591 527.838 810.59C526.836 809.588 526.336 808.174 526.336 806.346V787.831H529.002V806.196C529.002 807.347 529.29 808.236 529.866 808.862C530.467 809.488 531.318 809.801 532.42 809.801C533.597 809.801 534.573 809.463 535.349 808.787L536.288 810.703C535.762 811.178 535.124 811.529 534.373 811.754C533.647 811.979 532.896 812.092 532.119 812.092ZM522.805 794.403V792.187H535.011V794.403H522.805ZM549.292 812.092C547.615 812.092 546.15 811.779 544.898 811.153C543.646 810.527 542.67 809.588 541.969 808.336C541.293 807.085 540.955 805.52 540.955 803.642V792.187H543.621V803.341C543.621 805.445 544.134 807.035 545.161 808.111C546.212 809.163 547.677 809.689 549.555 809.689C550.932 809.689 552.121 809.413 553.123 808.862C554.149 808.286 554.926 807.46 555.451 806.384C556.002 805.307 556.278 804.017 556.278 802.515V792.187H558.944V811.904H556.39V806.496L556.803 807.473C556.177 808.925 555.201 810.064 553.874 810.89C552.572 811.692 551.045 812.092 549.292 812.092ZM574.225 812.092C572.347 812.092 570.657 811.666 569.155 810.815C567.677 809.964 566.513 808.787 565.662 807.285C564.811 805.758 564.385 804.005 564.385 802.027C564.385 800.024 564.811 798.271 565.662 796.769C566.513 795.267 567.677 794.103 569.155 793.276C570.657 792.425 572.347 791.999 574.225 791.999C575.952 791.999 577.492 792.388 578.844 793.164C580.221 793.94 581.31 795.079 582.112 796.581C582.938 798.059 583.351 799.874 583.351 802.027C583.351 804.155 582.95 805.97 582.149 807.473C581.348 808.975 580.259 810.127 578.882 810.928C577.53 811.704 575.977 812.092 574.225 812.092ZM574.413 809.726C575.815 809.726 577.067 809.413 578.168 808.787C579.295 808.136 580.171 807.235 580.797 806.083C581.448 804.906 581.774 803.554 581.774 802.027C581.774 800.475 581.448 799.123 580.797 797.971C580.171 796.819 579.295 795.93 578.168 795.304C577.067 794.653 575.815 794.328 574.413 794.328C573.036 794.328 571.796 794.653 570.695 795.304C569.593 795.93 568.717 796.819 568.066 797.971C567.415 799.123 567.089 800.475 567.089 802.027C567.089 803.554 567.415 804.906 568.066 806.083C568.717 807.235 569.593 808.136 570.695 808.787C571.796 809.413 573.036 809.726 574.413 809.726ZM581.849 811.904V805.97L582.112 801.989L581.736 798.008V784.037H584.403V811.904H581.849ZM591.829 811.904V792.187H594.495V811.904H591.829ZM593.181 787.831C592.63 787.831 592.167 787.643 591.791 787.267C591.416 786.892 591.228 786.441 591.228 785.915C591.228 785.39 591.416 784.951 591.791 784.601C592.167 784.225 592.63 784.037 593.181 784.037C593.732 784.037 594.195 784.213 594.57 784.563C594.946 784.914 595.134 785.352 595.134 785.878C595.134 786.429 594.946 786.892 594.57 787.267C594.22 787.643 593.757 787.831 593.181 787.831ZM610.29 812.092C608.237 812.092 606.434 811.666 604.882 810.815C603.329 809.939 602.115 808.75 601.239 807.247C600.362 805.72 599.924 803.98 599.924 802.027C599.924 800.074 600.337 798.346 601.164 796.844C602.015 795.342 603.167 794.165 604.619 793.314C606.096 792.438 607.748 791.999 609.576 791.999C611.429 791.999 613.069 792.425 614.496 793.276C615.948 794.103 617.087 795.279 617.914 796.807C618.74 798.309 619.153 800.049 619.153 802.027C619.153 802.152 619.141 802.29 619.116 802.44C619.116 802.565 619.116 802.703 619.116 802.853H601.952V800.863H617.688L616.637 801.651C616.637 800.224 616.324 798.96 615.698 797.858C615.097 796.732 614.271 795.855 613.219 795.229C612.168 794.603 610.953 794.29 609.576 794.29C608.224 794.29 607.01 794.603 605.933 795.229C604.857 795.855 604.018 796.732 603.417 797.858C602.816 798.985 602.516 800.274 602.516 801.727V802.14C602.516 803.642 602.841 804.969 603.492 806.121C604.168 807.247 605.094 808.136 606.271 808.787C607.473 809.413 608.838 809.726 610.365 809.726C611.567 809.726 612.681 809.513 613.707 809.088C614.759 808.662 615.66 808.011 616.411 807.135L617.914 808.862C617.037 809.914 615.936 810.715 614.609 811.266C613.307 811.817 611.867 812.092 610.29 812.092ZM632.43 812.092C630.552 812.092 628.862 811.666 627.36 810.815C625.883 809.964 624.718 808.787 623.867 807.285C623.016 805.758 622.59 804.005 622.59 802.027C622.59 800.024 623.016 798.271 623.867 796.769C624.718 795.267 625.883 794.103 627.36 793.276C628.862 792.425 630.552 791.999 632.43 791.999C634.157 791.999 635.697 792.388 637.049 793.164C638.426 793.94 639.515 795.079 640.317 796.581C641.143 798.059 641.556 799.874 641.556 802.027C641.556 804.155 641.155 805.97 640.354 807.473C639.553 808.975 638.464 810.127 637.087 810.928C635.735 811.704 634.182 812.092 632.43 812.092ZM632.618 809.726C634.02 809.726 635.272 809.413 636.373 808.787C637.5 808.136 638.376 807.235 639.002 806.083C639.653 804.906 639.979 803.554 639.979 802.027C639.979 800.475 639.653 799.123 639.002 797.971C638.376 796.819 637.5 795.93 636.373 795.304C635.272 794.653 634.02 794.328 632.618 794.328C631.241 794.328 630.001 794.653 628.9 795.304C627.798 795.93 626.922 796.819 626.271 797.971C625.62 799.123 625.294 800.475 625.294 802.027C625.294 803.554 625.62 804.906 626.271 806.083C626.922 807.235 627.798 808.136 628.9 808.787C630.001 809.413 631.241 809.726 632.618 809.726ZM640.054 811.904V805.97L640.317 801.989L639.941 798.008V784.037H642.608V811.904H640.054Z" fill="#124012"/>
<path d="M27.6698 477.166V463.27H30.0358V477.166H27.6698ZM39.8005 476.866V461.055H42.2041V479.645H15.9146L15.9146 461.618H18.3182V476.866H39.8005ZM42.2041 458.64L31.3879 450.302L32.7023 450.34L22.487 458.264V455.26L30.9372 448.763L30.8996 449.889L22.487 443.392V440.463L32.815 448.462L31.3879 448.425L42.2041 440.012V443.054L33.1906 449.927L33.3408 448.875L42.2041 455.635V458.64ZM42.2041 423.584H37.8476L37.134 423.697H29.8481C28.1705 423.697 26.8811 424.173 25.9797 425.124C25.0784 426.05 24.6277 427.44 24.6277 429.293C24.6277 430.57 24.8405 431.784 25.2662 432.936C25.6918 434.087 26.2552 435.064 26.9562 435.865L24.9657 437.067C24.1144 436.065 23.4635 434.864 23.0128 433.462C22.5371 432.059 22.2992 430.582 22.2992 429.03C22.2992 426.476 22.9377 424.511 24.2146 423.134C25.4665 421.731 27.3819 421.03 29.9607 421.03H42.2041V423.584ZM42.3919 430.382C42.3919 431.859 42.154 433.149 41.6783 434.25C41.1776 435.327 40.5015 436.153 39.6503 436.729C38.774 437.305 37.7724 437.593 36.6458 437.593C35.6192 437.593 34.6928 437.355 33.8666 436.879C33.0153 436.378 32.3393 435.577 31.8385 434.476C31.3128 433.349 31.0499 431.847 31.0499 429.969V423.171H33.0403V429.894C33.0403 431.797 33.3784 433.124 34.0544 433.875C34.7304 434.601 35.5691 434.964 36.5706 434.964C37.6973 434.964 38.5987 434.526 39.2747 433.649C39.9507 432.773 40.2887 431.546 40.2887 429.969C40.2887 428.467 39.9507 427.177 39.2747 426.1C38.5737 424.999 37.5721 424.198 36.2702 423.697L38.1105 423.096C39.4124 423.597 40.4515 424.473 41.2276 425.725C42.0038 426.952 42.3919 428.504 42.3919 430.382ZM22.2992 389.151C22.2992 387.548 22.6122 386.159 23.2381 384.982C23.839 383.78 24.7654 382.854 26.0173 382.203C27.2692 381.527 28.8466 381.189 30.7494 381.189H42.2041V383.855H31.0123C28.9342 383.855 27.3693 384.356 26.3178 385.358C25.2411 386.334 24.7028 387.724 24.7028 389.526C24.7028 390.878 24.9908 392.055 25.5666 393.057C26.1175 394.033 26.9312 394.797 28.0078 395.348C29.0594 395.873 30.3363 396.136 31.8385 396.136H42.2041V398.803H31.0123C28.9342 398.803 27.3693 399.304 26.3178 400.305C25.2411 401.307 24.7028 402.709 24.7028 404.511C24.7028 405.838 24.9908 407.003 25.5666 408.004C26.1175 409.006 26.9312 409.782 28.0078 410.333C29.0594 410.858 30.3363 411.121 31.8385 411.121H42.2041V413.788H22.487V411.234H27.82L26.8811 411.647C25.454 411.046 24.3398 410.082 23.5386 408.755C22.7123 407.403 22.2992 405.813 22.2992 403.986C22.2992 402.058 22.7875 400.418 23.7639 399.066C24.7153 397.714 26.155 396.837 28.0829 396.437L27.6698 397.488C26.0674 396.913 24.7779 395.899 23.8015 394.446C22.8 392.969 22.2992 391.204 22.2992 389.151ZM42.4294 356.317C42.4294 358.27 42.1165 360.147 41.4905 361.95C40.8396 363.728 40.0133 365.105 39.0118 366.081L36.8711 364.992C37.7724 364.066 38.5361 362.826 39.162 361.274C39.7629 359.697 40.0634 358.044 40.0634 356.317C40.0634 354.664 39.8631 353.325 39.4625 352.298C39.0368 351.247 38.4735 350.483 37.7724 350.007C37.0714 349.506 36.2952 349.256 35.444 349.256C34.4174 349.256 33.5912 349.556 32.9652 350.157C32.3393 350.733 31.8511 351.497 31.5005 352.448C31.125 353.4 30.7995 354.451 30.5241 355.603C30.2487 356.755 29.9607 357.907 29.6603 359.058C29.3348 360.21 28.9091 361.274 28.3834 362.251C27.8576 363.202 27.169 363.978 26.3178 364.579C25.4414 365.155 24.3022 365.443 22.9001 365.443C21.5982 365.443 20.4089 365.105 19.3323 364.429C18.2306 363.728 17.3543 362.664 16.7033 361.237C16.0273 359.809 15.6893 357.982 15.6893 355.753C15.6893 354.276 15.9021 352.811 16.3278 351.359C16.7284 349.907 17.2917 348.655 18.0178 347.604L20.2336 348.542C19.4825 349.669 18.9317 350.871 18.5811 352.148C18.2306 353.4 18.0554 354.614 18.0554 355.791C18.0554 357.368 18.2682 358.67 18.6938 359.697C19.1194 360.723 19.6953 361.487 20.4214 361.988C21.1225 362.463 21.9237 362.701 22.825 362.701C23.8516 362.701 24.6778 362.413 25.3037 361.837C25.9297 361.237 26.4179 360.46 26.7684 359.509C27.119 358.532 27.4319 357.468 27.7073 356.317C27.9828 355.165 28.2832 354.026 28.6087 352.899C28.9342 351.747 29.3598 350.696 29.8856 349.744C30.3864 348.768 31.0624 347.992 31.9137 347.416C32.7649 346.815 33.8791 346.514 35.2562 346.514C36.5331 346.514 37.7224 346.865 38.824 347.566C39.9006 348.267 40.777 349.344 41.453 350.796C42.104 352.223 42.4294 354.063 42.4294 356.317ZM42.3919 332.835C42.3919 334.788 41.9662 336.541 41.115 338.093C40.2387 339.62 39.0494 340.822 37.5471 341.698C36.0198 342.575 34.2797 343.013 32.3268 343.013C30.3488 343.013 28.6087 342.575 27.1064 341.698C25.6042 340.822 24.4274 339.62 23.5761 338.093C22.7249 336.541 22.2992 334.788 22.2992 332.835C22.2992 331.158 22.6247 329.643 23.2757 328.291C23.9267 326.939 24.9031 325.875 26.2051 325.098L27.5571 327.089C26.5556 327.765 25.817 328.604 25.3413 329.605C24.8656 330.607 24.6277 331.696 24.6277 332.873C24.6277 334.275 24.9532 335.539 25.6042 336.666C26.2301 337.793 27.119 338.681 28.2707 339.332C29.4224 339.983 30.7744 340.309 32.3268 340.309C33.8791 340.309 35.2311 339.983 36.3829 339.332C37.5346 338.681 38.4359 337.793 39.0869 336.666C39.7129 335.539 40.0258 334.275 40.0258 332.873C40.0258 331.696 39.788 330.607 39.3123 329.605C38.8365 328.604 38.1105 327.765 37.134 327.089L38.486 325.098C39.7629 325.875 40.7394 326.939 41.4154 328.291C42.0664 329.643 42.3919 331.158 42.3919 332.835ZM42.3919 312.153C42.3919 314.056 41.9662 315.771 41.115 317.299C40.2387 318.801 39.0494 319.99 37.5471 320.866C36.0198 321.743 34.2797 322.181 32.3268 322.181C30.3488 322.181 28.6087 321.743 27.1064 320.866C25.6042 319.99 24.4274 318.801 23.5761 317.299C22.7249 315.796 22.2992 314.081 22.2992 312.153C22.2992 310.2 22.7249 308.473 23.5761 306.971C24.4274 305.443 25.6042 304.254 27.1064 303.403C28.6087 302.526 30.3488 302.088 32.3268 302.088C34.2797 302.088 36.0198 302.526 37.5471 303.403C39.0494 304.254 40.2387 305.443 41.115 306.971C41.9662 308.498 42.3919 310.225 42.3919 312.153ZM40.0258 312.153C40.0258 310.726 39.7129 309.462 39.0869 308.36C38.4359 307.258 37.5346 306.395 36.3829 305.769C35.2061 305.118 33.8541 304.792 32.3268 304.792C30.7744 304.792 29.4224 305.118 28.2707 305.769C27.119 306.395 26.2301 307.258 25.6042 308.36C24.9532 309.462 24.6277 310.714 24.6277 312.116C24.6277 313.518 24.9532 314.77 25.6042 315.871C26.2301 316.973 27.119 317.849 28.2707 318.5C29.4224 319.151 30.7744 319.477 32.3268 319.477C33.8541 319.477 35.2061 319.151 36.3829 318.5C37.5346 317.849 38.4359 316.973 39.0869 315.871C39.7129 314.77 40.0258 313.53 40.0258 312.153ZM42.2041 296.644H22.487V294.09H27.8576L26.9187 294.353C25.4164 293.802 24.2772 292.876 23.501 291.574C22.6998 290.272 22.2992 288.657 22.2992 286.729H24.8906C24.8906 286.83 24.8906 286.93 24.8906 287.03C24.8656 287.13 24.8531 287.23 24.8531 287.33C24.8531 289.408 25.4915 291.036 26.7684 292.213C28.0203 293.389 29.8105 293.978 32.139 293.978H42.2041V296.644ZM42.3919 273.672C42.3919 275.725 41.9662 277.528 41.115 279.08C40.2387 280.633 39.0494 281.847 37.5471 282.723C36.0198 283.599 34.2797 284.038 32.3268 284.038C30.3738 284.038 28.6462 283.625 27.144 282.798C25.6417 281.947 24.465 280.795 23.6137 279.343C22.7374 277.866 22.2992 276.213 22.2992 274.386C22.2992 272.533 22.7249 270.893 23.5761 269.466C24.4024 268.014 25.5791 266.874 27.1064 266.048C28.6087 265.222 30.3488 264.809 32.3268 264.809C32.452 264.809 32.5897 264.821 32.7399 264.846C32.8651 264.846 33.0028 264.846 33.153 264.846V282.01H31.1625L31.1625 266.273L31.9512 267.325C30.5241 267.325 29.2597 267.638 28.158 268.264C27.0313 268.865 26.155 269.691 25.5291 270.743C24.9031 271.794 24.5902 273.009 24.5902 274.386C24.5902 275.738 24.9031 276.952 25.5291 278.029C26.155 279.105 27.0313 279.944 28.158 280.545C29.2847 281.146 30.5741 281.446 32.0263 281.446H32.4394C33.9417 281.446 35.2687 281.121 36.4204 280.47C37.5471 279.794 38.4359 278.867 39.0869 277.691C39.7129 276.489 40.0258 275.124 40.0258 273.597C40.0258 272.395 39.813 271.281 39.3874 270.254C38.9617 269.203 38.3108 268.302 37.4344 267.55L39.162 266.048C40.2136 266.924 41.0148 268.026 41.5656 269.353C42.1165 270.655 42.3919 272.095 42.3919 273.672Z" fill="#124012"/>
<path d="M836.57 244.745C837.317 244.311 837.571 243.353 837.137 242.606C836.703 241.859 835.745 241.605 834.998 242.039L836.57 244.745ZM165.993 634.312L836.57 244.745L834.998 242.039L164.421 631.606L165.993 634.312Z" fill="#7CBC7A"/>
<circle cx="336.3" cy="90.7211" r="7.82424" fill="#D9D9D9" stroke="#124012" stroke-width="3.1297"/>
<circle cx="373.857" cy="131.407" r="7.82424" fill="#D9D9D9" stroke="#124012" stroke-width="3.1297"/>
<circle cx="474.007" cy="131.407" r="7.82424" fill="#D9D9D9" stroke="#124012" stroke-width="3.1297"/>
<circle cx="474.007" cy="100.11" r="7.82424" fill="#D9D9D9" stroke="#124012" stroke-width="3.1297"/>
<circle cx="502.174" cy="103.24" r="7.82424" fill="#D9D9D9" stroke="#124012" stroke-width="3.1297"/>
<circle cx="511.563" cy="140.796" r="7.82424" fill="#D9D9D9" stroke="#124012" stroke-width="3.1297"/>
<circle cx="530.342" cy="172.093" r="7.82424" fill="#D9D9D9" stroke="#124012" stroke-width="3.1297"/>
<circle cx="464.618" cy="190.871" r="7.82424" fill="#D9D9D9" stroke="#124012" stroke-width="3.1297"/>
<circle cx="408.283" cy="212.779" r="7.82424" fill="#D9D9D9" stroke="#124012" stroke-width="3.1297"/>
<circle cx="474.007" cy="234.687" r="7.82424" fill="#D9D9D9" stroke="#124012" stroke-width="3.1297"/>
<circle cx="411.413" cy="256.595" r="7.82424" fill="#D9D9D9" stroke="#124012" stroke-width="3.1297"/>
<circle cx="283.095" cy="428.741" r="7.82424" fill="#D9D9D9" stroke="#124012" stroke-width="3.1297"/>
<circle cx="283.095" cy="622.782" r="7.82424" fill="#D9D9D9" stroke="#124012" stroke-width="3.1297"/>
<circle cx="408.283" cy="572.707" r="7.82424" fill="#D9D9D9" stroke="#124012" stroke-width="3.1297"/>
<circle cx="533.471" cy="569.577" r="7.82424" fill="#D9D9D9" stroke="#124012" stroke-width="3.1297"/>
<circle cx="605.454" cy="510.113" r="7.82424" fill="#D9D9D9" stroke="#124012" stroke-width="3.1297"/>
<circle cx="636.751" cy="265.997" r="7.82424" fill="#D9D9D9" stroke="#124012" stroke-width="3.1297"/>
<circle cx="633.622" cy="118.901" r="7.82424" fill="#D9D9D9" stroke="#124012" stroke-width="3.1297"/>
<circle cx="555.379" cy="253.478" r="7.82424" fill="#D9D9D9" stroke="#124012" stroke-width="3.1297"/>
<circle cx="445.84" cy="322.331" r="7.82424" fill="#D9D9D9" stroke="#124012" stroke-width="3.1297"/>
<circle cx="386.376" cy="388.055" r="7.82424" fill="#D9D9D9" stroke="#124012" stroke-width="3.1297"/>
<circle cx="427.061" cy="447.519" r="7.82424" fill="#D9D9D9" stroke="#124012" stroke-width="3.1297"/>
<circle cx="664.919" cy="225.311" r="7.82424" fill="#D9D9D9" stroke="#124012" stroke-width="3.1297"/>
<circle cx="571.028" cy="84.4742" r="7.82424" fill="#D9D9D9" stroke="#124012" stroke-width="3.1297"/>
<circle cx="223.631" cy="516.373" r="7.82424" fill="#D9D9D9" stroke="#124012" stroke-width="3.1297"/>
<circle cx="376.986" cy="303.541" r="7.82424" fill="#D9D9D9" stroke="#124012" stroke-width="3.1297"/>
<circle cx="223.631" cy="391.185" r="7.82424" fill="#D9D9D9" stroke="#124012" stroke-width="3.1297"/>
<circle cx="596.065" cy="416.21" r="7.82424" fill="#D9D9D9" stroke="#124012" stroke-width="3.1297"/>
<circle cx="646.141" cy="416.21" r="7.82424" fill="#D9D9D9" stroke="#124012" stroke-width="3.1297"/>
<circle cx="655.529" cy="388.042" r="7.82424" fill="#D9D9D9" stroke="#124012" stroke-width="3.1297"/>
<circle cx="614.843" cy="388.042" r="7.82424" fill="#D9D9D9" stroke="#124012" stroke-width="3.1297"/>
<circle cx="605.454" cy="322.319" r="7.82424" fill="#D9D9D9" stroke="#124012" stroke-width="3.1297"/>
<circle cx="693.086" cy="294.151" r="7.82424" fill="#D9D9D9" stroke="#124012" stroke-width="3.1297"/>
<circle cx="721.253" cy="244.076" r="7.82424" fill="#D9D9D9" stroke="#124012" stroke-width="3.1297"/>
<circle cx="721.253" cy="181.482" r="7.82424" fill="#D9D9D9" stroke="#124012" stroke-width="3.1297"/>
<circle cx="511.563" cy="378.653" r="7.82424" fill="#D9D9D9" stroke="#124012" stroke-width="3.1297"/>
<circle cx="492.785" cy="460.026" r="7.82424" fill="#D9D9D9" stroke="#124012" stroke-width="3.1297"/>
<circle cx="323.781" cy="215.909" r="7.82424" fill="#D9D9D9" stroke="#124012" stroke-width="3.1297"/>
<circle cx="345.689" cy="172.093" r="7.82424" fill="#D9D9D9" stroke="#124012" stroke-width="3.1297"/>
<circle cx="283.095" cy="156.445" r="7.82424" fill="#D9D9D9" stroke="#124012" stroke-width="3.1297"/>
<path d="M160.95 740.352C158.922 740.352 157.119 739.826 155.542 738.775C153.964 737.698 152.725 736.171 151.824 734.193C150.922 732.19 150.471 729.786 150.471 726.982C150.471 724.178 150.922 721.787 151.824 719.809C152.725 717.806 153.964 716.278 155.542 715.227C157.119 714.15 158.922 713.612 160.95 713.612C162.978 713.612 164.78 714.15 166.358 715.227C167.935 716.278 169.175 717.806 170.076 719.809C171.002 721.787 171.465 724.178 171.465 726.982C171.465 729.786 171.002 732.19 170.076 734.193C169.175 736.171 167.935 737.698 166.358 738.775C164.78 739.826 162.978 740.352 160.95 740.352ZM160.95 737.873C162.502 737.873 163.854 737.46 165.006 736.634C166.158 735.783 167.059 734.556 167.71 732.954C168.361 731.326 168.686 729.336 168.686 726.982C168.686 724.629 168.361 722.651 167.71 721.048C167.059 719.421 166.158 718.194 165.006 717.368C163.854 716.516 162.502 716.091 160.95 716.091C159.447 716.091 158.108 716.516 156.931 717.368C155.754 718.194 154.841 719.421 154.19 721.048C153.539 722.651 153.213 724.629 153.213 726.982C153.213 729.336 153.539 731.326 154.19 732.954C154.841 734.556 155.754 735.783 156.931 736.634C158.108 737.46 159.447 737.873 160.95 737.873Z" fill="black"/>
<path d="M265.782 740.127V738.211L276.711 727.508C277.712 726.531 278.463 725.68 278.964 724.954C279.465 724.203 279.803 723.502 279.978 722.851C280.153 722.2 280.241 721.586 280.241 721.011C280.241 719.483 279.715 718.281 278.664 717.405C277.637 716.529 276.11 716.091 274.082 716.091C272.529 716.091 271.152 716.329 269.951 716.804C268.774 717.28 267.76 718.019 266.909 719.02L264.993 717.368C266.02 716.166 267.334 715.239 268.937 714.588C270.539 713.937 272.329 713.612 274.307 713.612C276.085 713.612 277.625 713.9 278.927 714.476C280.229 715.027 281.23 715.84 281.931 716.917C282.657 717.994 283.02 719.258 283.02 720.71C283.02 721.561 282.895 722.4 282.645 723.226C282.419 724.053 281.994 724.929 281.368 725.855C280.767 726.757 279.878 727.783 278.701 728.935L268.674 738.775L267.923 737.723H284.222V740.127H265.782ZM298.02 740.352C295.992 740.352 294.19 739.826 292.612 738.775C291.035 737.698 289.796 736.171 288.894 734.193C287.993 732.19 287.542 729.786 287.542 726.982C287.542 724.178 287.993 721.787 288.894 719.809C289.796 717.806 291.035 716.278 292.612 715.227C294.19 714.15 295.992 713.612 298.02 713.612C300.049 713.612 301.851 714.15 303.429 715.227C305.006 716.278 306.245 717.806 307.147 719.809C308.073 721.787 308.536 724.178 308.536 726.982C308.536 729.786 308.073 732.19 307.147 734.193C306.245 736.171 305.006 737.698 303.429 738.775C301.851 739.826 300.049 740.352 298.02 740.352ZM298.02 737.873C299.573 737.873 300.925 737.46 302.077 736.634C303.228 735.783 304.13 734.556 304.781 732.954C305.432 731.326 305.757 729.336 305.757 726.982C305.757 724.629 305.432 722.651 304.781 721.048C304.13 719.421 303.228 718.194 302.077 717.368C300.925 716.516 299.573 716.091 298.02 716.091C296.518 716.091 295.179 716.516 294.002 717.368C292.825 718.194 291.911 719.421 291.26 721.048C290.609 722.651 290.284 724.629 290.284 726.982C290.284 729.336 290.609 731.326 291.26 732.954C291.911 734.556 292.825 735.783 294.002 736.634C295.179 737.46 296.518 737.873 298.02 737.873Z" fill="black"/>
<path d="M400.397 733.216V731.263L414.33 713.837H417.334L403.514 731.263L402.049 730.813H423.193V733.216H400.397ZM415.231 740.127V733.216L415.306 730.813V724.729H417.935V740.127H415.231ZM436.155 740.352C434.127 740.352 432.324 739.826 430.747 738.775C429.17 737.698 427.93 736.171 427.029 734.193C426.128 732.19 425.677 729.786 425.677 726.982C425.677 724.178 426.128 721.787 427.029 719.809C427.93 717.806 429.17 716.278 430.747 715.227C432.324 714.15 434.127 713.612 436.155 713.612C438.183 713.612 439.986 714.15 441.563 715.227C443.141 716.278 444.38 717.806 445.281 719.809C446.208 721.787 446.671 724.178 446.671 726.982C446.671 729.786 446.208 732.19 445.281 734.193C444.38 736.171 443.141 737.698 441.563 738.775C439.986 739.826 438.183 740.352 436.155 740.352ZM436.155 737.873C437.708 737.873 439.06 737.46 440.211 736.634C441.363 735.783 442.264 734.556 442.915 732.954C443.566 731.326 443.892 729.336 443.892 726.982C443.892 724.629 443.566 722.651 442.915 721.048C442.264 719.421 441.363 718.194 440.211 717.368C439.06 716.516 437.708 716.091 436.155 716.091C434.653 716.091 433.313 716.516 432.137 717.368C430.96 718.194 430.046 719.421 429.395 721.048C428.744 722.651 428.419 724.629 428.419 726.982C428.419 729.336 428.744 731.326 429.395 732.954C430.046 734.556 430.96 735.783 432.137 736.634C433.313 737.46 434.653 737.873 436.155 737.873Z" fill="black"/>
<path d="M546.203 740.352C543.874 740.352 541.909 739.839 540.307 738.812C538.704 737.761 537.49 736.258 536.664 734.306C535.837 732.328 535.424 729.962 535.424 727.207C535.424 724.228 535.925 721.737 536.927 719.734C537.953 717.706 539.368 716.178 541.17 715.152C542.973 714.125 545.064 713.612 547.442 713.612C548.619 713.612 549.746 713.725 550.822 713.95C551.899 714.175 552.85 714.538 553.677 715.039L552.588 717.217C551.911 716.767 551.135 716.454 550.259 716.278C549.383 716.078 548.456 715.978 547.48 715.978C544.651 715.978 542.385 716.879 540.682 718.682C539.005 720.485 538.166 723.176 538.166 726.757C538.166 727.308 538.191 727.996 538.241 728.822C538.316 729.624 538.466 730.425 538.692 731.226L537.753 730.512C538.028 729.21 538.566 728.109 539.368 727.207C540.169 726.281 541.17 725.58 542.372 725.104C543.574 724.629 544.888 724.391 546.316 724.391C548.068 724.391 549.608 724.716 550.935 725.367C552.262 726.018 553.301 726.932 554.052 728.109C554.803 729.285 555.179 730.675 555.179 732.277C555.179 733.905 554.791 735.332 554.015 736.559C553.238 737.761 552.162 738.7 550.785 739.376C549.433 740.027 547.905 740.352 546.203 740.352ZM546.09 738.061C547.342 738.061 548.444 737.836 549.395 737.385C550.372 736.909 551.135 736.246 551.686 735.395C552.237 734.518 552.512 733.504 552.512 732.353C552.512 730.625 551.911 729.248 550.71 728.221C549.533 727.195 547.931 726.682 545.902 726.682C544.55 726.682 543.374 726.932 542.372 727.433C541.371 727.933 540.582 728.622 540.006 729.498C539.43 730.35 539.142 731.326 539.142 732.428C539.142 733.379 539.405 734.293 539.931 735.169C540.457 736.021 541.233 736.722 542.26 737.272C543.311 737.798 544.588 738.061 546.09 738.061ZM568.788 740.352C566.76 740.352 564.958 739.826 563.38 738.775C561.803 737.698 560.564 736.171 559.662 734.193C558.761 732.19 558.31 729.786 558.31 726.982C558.31 724.178 558.761 721.787 559.662 719.809C560.564 717.806 561.803 716.278 563.38 715.227C564.958 714.15 566.76 713.612 568.788 713.612C570.816 713.612 572.619 714.15 574.197 715.227C575.774 716.278 577.013 717.806 577.915 719.809C578.841 721.787 579.304 724.178 579.304 726.982C579.304 729.786 578.841 732.19 577.915 734.193C577.013 736.171 575.774 737.698 574.197 738.775C572.619 739.826 570.816 740.352 568.788 740.352ZM568.788 737.873C570.341 737.873 571.693 737.46 572.844 736.634C573.996 735.783 574.898 734.556 575.549 732.954C576.2 731.326 576.525 729.336 576.525 726.982C576.525 724.629 576.2 722.651 575.549 721.048C574.898 719.421 573.996 718.194 572.844 717.368C571.693 716.516 570.341 716.091 568.788 716.091C567.286 716.091 565.947 716.516 564.77 717.368C563.593 718.194 562.679 719.421 562.028 721.048C561.377 722.651 561.052 724.629 561.052 726.982C561.052 729.336 561.377 731.326 562.028 732.954C562.679 734.556 563.593 735.783 564.77 736.634C565.947 737.46 567.286 737.873 568.788 737.873Z" fill="black"/>
<path d="M679.991 740.352C677.888 740.352 676.073 740.052 674.546 739.451C673.043 738.85 671.879 737.986 671.053 736.859C670.252 735.708 669.851 734.356 669.851 732.803C669.851 731.301 670.239 730.024 671.015 728.973C671.816 727.896 672.968 727.07 674.47 726.494C675.998 725.918 677.838 725.63 679.991 725.63C682.119 725.63 683.947 725.918 685.474 726.494C687.002 727.07 688.166 727.896 688.967 728.973C689.793 730.024 690.207 731.301 690.207 732.803C690.207 734.356 689.793 735.708 688.967 736.859C688.141 737.986 686.964 738.85 685.437 739.451C683.91 740.052 682.094 740.352 679.991 740.352ZM679.991 738.061C682.32 738.061 684.135 737.585 685.437 736.634C686.764 735.683 687.427 734.393 687.427 732.766C687.427 731.138 686.764 729.861 685.437 728.935C684.135 727.984 682.32 727.508 679.991 727.508C677.663 727.508 675.848 727.984 674.546 728.935C673.244 729.861 672.593 731.138 672.593 732.766C672.593 734.393 673.244 735.683 674.546 736.634C675.848 737.585 677.663 738.061 679.991 738.061ZM679.991 727.17C678.038 727.17 676.373 726.907 674.996 726.381C673.644 725.855 672.605 725.104 671.879 724.128C671.153 723.126 670.79 721.937 670.79 720.56C670.79 719.108 671.166 717.868 671.917 716.842C672.693 715.79 673.769 714.989 675.146 714.438C676.524 713.887 678.138 713.612 679.991 713.612C681.844 713.612 683.459 713.887 684.836 714.438C686.238 714.989 687.327 715.79 688.103 716.842C688.88 717.868 689.268 719.108 689.268 720.56C689.268 721.937 688.905 723.126 688.179 724.128C687.452 725.104 686.388 725.855 684.986 726.381C683.609 726.907 681.944 727.17 679.991 727.17ZM679.991 725.367C682.044 725.367 683.647 724.941 684.798 724.09C685.95 723.239 686.526 722.1 686.526 720.673C686.526 719.17 685.925 718.006 684.723 717.18C683.547 716.329 681.969 715.903 679.991 715.903C678.013 715.903 676.436 716.329 675.259 717.18C674.082 718.006 673.494 719.158 673.494 720.635C673.494 722.087 674.057 723.239 675.184 724.09C676.336 724.941 677.938 725.367 679.991 725.367ZM704.429 740.352C702.401 740.352 700.598 739.826 699.021 738.775C697.444 737.698 696.204 736.171 695.303 734.193C694.401 732.19 693.951 729.786 693.951 726.982C693.951 724.178 694.401 721.787 695.303 719.809C696.204 717.806 697.444 716.278 699.021 715.227C700.598 714.15 702.401 713.612 704.429 713.612C706.457 713.612 708.26 714.15 709.837 715.227C711.415 716.278 712.654 717.806 713.555 719.809C714.482 721.787 714.945 724.178 714.945 726.982C714.945 729.786 714.482 732.19 713.555 734.193C712.654 736.171 711.415 737.698 709.837 738.775C708.26 739.826 706.457 740.352 704.429 740.352ZM704.429 737.873C705.981 737.873 707.333 737.46 708.485 736.634C709.637 735.783 710.538 734.556 711.189 732.954C711.84 731.326 712.166 729.336 712.166 726.982C712.166 724.629 711.84 722.651 711.189 721.048C710.538 719.421 709.637 718.194 708.485 717.368C707.333 716.516 705.981 716.091 704.429 716.091C702.927 716.091 701.587 716.516 700.41 717.368C699.234 718.194 698.32 719.421 697.669 721.048C697.018 722.651 696.692 724.629 696.692 726.982C696.692 729.336 697.018 731.326 697.669 732.954C698.32 734.556 699.234 735.783 700.41 736.634C701.587 737.46 702.927 737.873 704.429 737.873Z" fill="black"/>
<path d="M830.875 740.127V714.964L832.077 716.241H824.678V713.837H833.579V740.127H830.875ZM850.341 740.352C848.313 740.352 846.511 739.826 844.933 738.775C843.356 737.698 842.117 736.171 841.215 734.193C840.314 732.19 839.863 729.786 839.863 726.982C839.863 724.178 840.314 721.787 841.215 719.809C842.117 717.806 843.356 716.278 844.933 715.227C846.511 714.15 848.313 713.612 850.341 713.612C852.369 713.612 854.172 714.15 855.75 715.227C857.327 716.278 858.566 717.806 859.468 719.809C860.394 721.787 860.857 724.178 860.857 726.982C860.857 729.786 860.394 732.19 859.468 734.193C858.566 736.171 857.327 737.698 855.75 738.775C854.172 739.826 852.369 740.352 850.341 740.352ZM850.341 737.873C851.894 737.873 853.246 737.46 854.398 736.634C855.549 735.783 856.451 734.556 857.102 732.954C857.753 731.326 858.078 729.336 858.078 726.982C858.078 724.629 857.753 722.651 857.102 721.048C856.451 719.421 855.549 718.194 854.398 717.368C853.246 716.516 851.894 716.091 850.341 716.091C848.839 716.091 847.5 716.516 846.323 717.368C845.146 718.194 844.232 719.421 843.581 721.048C842.93 722.651 842.605 724.629 842.605 726.982C842.605 729.336 842.93 731.326 843.581 732.954C844.232 734.556 845.146 735.783 846.323 736.634C847.5 737.46 848.839 737.873 850.341 737.873ZM875.208 740.352C873.18 740.352 871.377 739.826 869.8 738.775C868.222 737.698 866.983 736.171 866.082 734.193C865.18 732.19 864.73 729.786 864.73 726.982C864.73 724.178 865.18 721.787 866.082 719.809C866.983 717.806 868.222 716.278 869.8 715.227C871.377 714.15 873.18 713.612 875.208 713.612C877.236 713.612 879.039 714.15 880.616 715.227C882.193 716.278 883.433 717.806 884.334 719.809C885.26 721.787 885.724 724.178 885.724 726.982C885.724 729.786 885.26 732.19 884.334 734.193C883.433 736.171 882.193 737.698 880.616 738.775C879.039 739.826 877.236 740.352 875.208 740.352ZM875.208 737.873C876.76 737.873 878.112 737.46 879.264 736.634C880.416 735.783 881.317 734.556 881.968 732.954C882.619 731.326 882.944 729.336 882.944 726.982C882.944 724.629 882.619 722.651 881.968 721.048C881.317 719.421 880.416 718.194 879.264 717.368C878.112 716.516 876.76 716.091 875.208 716.091C873.706 716.091 872.366 716.516 871.189 717.368C870.013 718.194 869.099 719.421 868.448 721.048C867.797 722.651 867.471 724.629 867.471 726.982C867.471 729.336 867.797 731.326 868.448 732.954C869.099 734.556 870.013 735.783 871.189 736.634C872.366 737.46 873.706 737.873 875.208 737.873Z" fill="black"/>
<path d="M78.9305 619.193V617.278L89.8594 606.574C90.8609 605.598 91.6121 604.747 92.1128 604.021C92.6136 603.27 92.9516 602.568 93.1268 601.917C93.3021 601.267 93.3897 600.653 93.3897 600.077C93.3897 598.55 92.8639 597.348 91.8124 596.472C90.7858 595.595 89.2585 595.157 87.2305 595.157C85.6781 595.157 84.3011 595.395 83.0993 595.871C81.9225 596.347 80.9085 597.085 80.0572 598.087L78.1418 596.434C79.1684 595.232 80.4828 594.306 82.0853 593.655C83.6877 593.004 85.4778 592.679 87.4558 592.679C89.2335 592.679 90.7733 592.967 92.0753 593.542C93.3772 594.093 94.3787 594.907 95.0798 595.984C95.8059 597.06 96.1689 598.325 96.1689 599.777C96.1689 600.628 96.0437 601.467 95.7933 602.293C95.568 603.119 95.1424 603.996 94.5164 604.922C93.9155 605.823 93.0267 606.85 91.8499 608.002L81.8224 617.841L81.0712 616.79L97.3707 616.79V619.193H78.9305ZM111.169 619.419C109.141 619.419 107.338 618.893 105.761 617.841C104.184 616.765 102.944 615.237 102.043 613.26C101.142 611.257 100.691 608.853 100.691 606.049C100.691 603.244 101.142 600.853 102.043 598.875C102.944 596.872 104.184 595.345 105.761 594.294C107.338 593.217 109.141 592.679 111.169 592.679C113.197 592.679 115 593.217 116.577 594.294C118.155 595.345 119.394 596.872 120.295 598.875C121.222 600.853 121.685 603.244 121.685 606.049C121.685 608.853 121.222 611.257 120.295 613.26C119.394 615.237 118.155 616.765 116.577 617.841C115 618.893 113.197 619.419 111.169 619.419ZM111.169 616.94C112.721 616.94 114.074 616.527 115.225 615.701C116.377 614.849 117.278 613.623 117.929 612.02C118.58 610.393 118.906 608.402 118.906 606.049C118.906 603.695 118.58 601.717 117.929 600.115C117.278 598.487 116.377 597.26 115.225 596.434C114.074 595.583 112.721 595.157 111.169 595.157C109.667 595.157 108.327 595.583 107.151 596.434C105.974 597.26 105.06 598.487 104.409 600.115C103.758 601.717 103.433 603.695 103.433 606.049C103.433 608.402 103.758 610.393 104.409 612.02C105.06 613.623 105.974 614.849 107.151 615.701C108.327 616.527 109.667 616.94 111.169 616.94Z" fill="black"/>
<path d="M78.9681 471.138V469.185L92.9015 451.759H95.906L82.0853 469.185L80.6206 468.734H101.765V471.138H78.9681ZM93.8028 478.048V471.138L93.878 468.734V462.65H96.5069V478.048H93.8028ZM114.727 478.274C112.699 478.274 110.896 477.748 109.319 476.696C107.741 475.62 106.502 474.092 105.601 472.114C104.699 470.111 104.249 467.708 104.249 464.903C104.249 462.099 104.699 459.708 105.601 457.73C106.502 455.727 107.741 454.2 109.319 453.148C110.896 452.072 112.699 451.533 114.727 451.533C116.755 451.533 118.557 452.072 120.135 453.148C121.712 454.2 122.952 455.727 123.853 457.73C124.779 459.708 125.243 462.099 125.243 464.903C125.243 467.708 124.779 470.111 123.853 472.114C122.952 474.092 121.712 475.62 120.135 476.696C118.557 477.748 116.755 478.274 114.727 478.274ZM114.727 475.795C116.279 475.795 117.631 475.382 118.783 474.555C119.935 473.704 120.836 472.477 121.487 470.875C122.138 469.247 122.463 467.257 122.463 464.903C122.463 462.55 122.138 460.572 121.487 458.97C120.836 457.342 119.935 456.115 118.783 455.289C117.631 454.438 116.279 454.012 114.727 454.012C113.224 454.012 111.885 454.438 110.708 455.289C109.531 456.115 108.618 457.342 107.967 458.97C107.316 460.572 106.99 462.55 106.99 464.903C106.99 467.257 107.316 469.247 107.967 470.875C108.618 472.477 109.531 473.704 110.708 474.555C111.885 475.382 113.224 475.795 114.727 475.795Z" fill="black"/>
<path d="M88.7326 338.679C86.4041 338.679 84.4386 338.166 82.8362 337.14C81.2338 336.088 80.0195 334.586 79.1933 332.633C78.367 330.655 77.9539 328.289 77.9539 325.535C77.9539 322.555 78.4547 320.064 79.4562 318.061C80.4827 316.033 81.8973 314.506 83.7 313.479C85.5027 312.452 87.5934 311.939 89.9719 311.939C91.1487 311.939 92.2754 312.052 93.352 312.277C94.4286 312.503 95.3801 312.866 96.2063 313.366L95.1172 315.545C94.4412 315.094 93.665 314.781 92.7887 314.606C91.9124 314.405 90.986 314.305 90.0095 314.305C87.1803 314.305 84.9144 315.207 83.2118 317.009C81.5343 318.812 80.6955 321.504 80.6955 325.084C80.6955 325.635 80.7206 326.323 80.7706 327.15C80.8457 327.951 80.996 328.752 81.2213 329.553L80.2824 328.84C80.5578 327.538 81.0961 326.436 81.8973 325.535C82.6985 324.608 83.7 323.907 84.9018 323.431C86.1036 322.956 87.4181 322.718 88.8453 322.718C90.5979 322.718 92.1377 323.043 93.4647 323.694C94.7917 324.345 95.8307 325.259 96.5819 326.436C97.333 327.613 97.7086 329.002 97.7086 330.605C97.7086 332.232 97.3205 333.659 96.5443 334.886C95.7681 336.088 94.6915 337.027 93.3145 337.703C91.9624 338.354 90.4351 338.679 88.7326 338.679ZM88.6199 336.388C89.8718 336.388 90.9735 336.163 91.9249 335.712C92.9013 335.237 93.665 334.573 94.2158 333.722C94.7666 332.846 95.0421 331.832 95.0421 330.68C95.0421 328.952 94.4412 327.575 93.2394 326.549C92.0626 325.522 90.4602 325.009 88.4321 325.009C87.0801 325.009 85.9033 325.259 84.9018 325.76C83.9003 326.261 83.1117 326.949 82.5358 327.826C81.9599 328.677 81.672 329.653 81.672 330.755C81.672 331.706 81.9349 332.62 82.4607 333.497C82.9865 334.348 83.7626 335.049 84.7892 335.6C85.8407 336.126 87.1177 336.388 88.6199 336.388ZM111.318 338.679C109.29 338.679 107.487 338.154 105.91 337.102C104.333 336.025 103.093 334.498 102.192 332.52C101.291 330.517 100.84 328.113 100.84 325.309C100.84 322.505 101.291 320.114 102.192 318.136C103.093 316.133 104.333 314.606 105.91 313.554C107.487 312.478 109.29 311.939 111.318 311.939C113.346 311.939 115.149 312.478 116.726 313.554C118.304 314.606 119.543 316.133 120.444 318.136C121.371 320.114 121.834 322.505 121.834 325.309C121.834 328.113 121.371 330.517 120.444 332.52C119.543 334.498 118.304 336.025 116.726 337.102C115.149 338.154 113.346 338.679 111.318 338.679ZM111.318 336.201C112.87 336.201 114.222 335.788 115.374 334.961C116.526 334.11 117.427 332.883 118.078 331.281C118.729 329.653 119.055 327.663 119.055 325.309C119.055 322.956 118.729 320.978 118.078 319.375C117.427 317.748 116.526 316.521 115.374 315.695C114.222 314.844 112.87 314.418 111.318 314.418C109.816 314.418 108.476 314.844 107.3 315.695C106.123 316.521 105.209 317.748 104.558 319.375C103.907 320.978 103.581 322.956 103.581 325.309C103.581 327.663 103.907 329.653 104.558 331.281C105.209 332.883 106.123 334.11 107.3 334.961C108.476 335.788 109.816 336.201 111.318 336.201Z" fill="black"/>
<path d="M89.4087 197.534C87.3056 197.534 85.4904 197.234 83.9631 196.633C82.4608 196.032 81.2966 195.168 80.4703 194.041C79.6691 192.89 79.2685 191.538 79.2685 189.985C79.2685 188.483 79.6566 187.206 80.4328 186.155C81.234 185.078 82.3857 184.252 83.888 183.676C85.4153 183.1 87.2555 182.812 89.4087 182.812C91.5369 182.812 93.3647 183.1 94.892 183.676C96.4193 184.252 97.5835 185.078 98.3847 186.155C99.211 187.206 99.6241 188.483 99.6241 189.985C99.6241 191.538 99.211 192.89 98.3847 194.041C97.5585 195.168 96.3817 196.032 94.8544 196.633C93.3271 197.234 91.5119 197.534 89.4087 197.534ZM89.4087 195.243C91.7372 195.243 93.5525 194.767 94.8544 193.816C96.1814 192.865 96.8449 191.575 96.8449 189.948C96.8449 188.32 96.1814 187.043 94.8544 186.117C93.5525 185.166 91.7372 184.69 89.4087 184.69C87.0803 184.69 85.265 185.166 83.9631 186.117C82.6611 187.043 82.0101 188.32 82.0101 189.948C82.0101 191.575 82.6611 192.865 83.9631 193.816C85.265 194.767 87.0803 195.243 89.4087 195.243ZM89.4087 184.352C87.4558 184.352 85.7908 184.089 84.4137 183.563C83.0617 183.037 82.0227 182.286 81.2966 181.31C80.5705 180.308 80.2074 179.119 80.2074 177.742C80.2074 176.29 80.583 175.05 81.3341 174.024C82.1103 172.972 83.1869 172.171 84.564 171.62C85.941 171.069 87.556 170.794 89.4087 170.794C91.2615 170.794 92.8765 171.069 94.2535 171.62C95.6556 172.171 96.7448 172.972 97.5209 174.024C98.2971 175.05 98.6852 176.29 98.6852 177.742C98.6852 179.119 98.3221 180.308 97.596 181.31C96.8699 182.286 95.8059 183.037 94.4037 183.563C93.0267 184.089 91.3617 184.352 89.4087 184.352ZM89.4087 182.549C91.4618 182.549 93.0642 182.124 94.216 181.272C95.3677 180.421 95.9436 179.282 95.9436 177.855C95.9436 176.352 95.3427 175.188 94.1409 174.362C92.9641 173.511 91.3867 173.085 89.4087 173.085C87.4308 173.085 85.8534 173.511 84.6766 174.362C83.4999 175.188 82.9115 176.34 82.9115 177.817C82.9115 179.269 83.4748 180.421 84.6015 181.272C85.7533 182.124 87.3557 182.549 89.4087 182.549ZM113.847 197.534C111.818 197.534 110.016 197.008 108.438 195.957C106.861 194.88 105.622 193.353 104.72 191.375C103.819 189.372 103.368 186.968 103.368 184.164C103.368 181.36 103.819 178.969 104.72 176.991C105.622 174.988 106.861 173.461 108.438 172.409C110.016 171.332 111.818 170.794 113.847 170.794C115.875 170.794 117.677 171.332 119.255 172.409C120.832 173.461 122.071 174.988 122.973 176.991C123.899 178.969 124.362 181.36 124.362 184.164C124.362 186.968 123.899 189.372 122.973 191.375C122.071 193.353 120.832 194.88 119.255 195.957C117.677 197.008 115.875 197.534 113.847 197.534ZM113.847 195.055C115.399 195.055 116.751 194.642 117.903 193.816C119.054 192.965 119.956 191.738 120.607 190.136C121.258 188.508 121.583 186.518 121.583 184.164C121.583 181.811 121.258 179.833 120.607 178.23C119.956 176.603 119.054 175.376 117.903 174.55C116.751 173.698 115.399 173.273 113.847 173.273C112.344 173.273 111.005 173.698 109.828 174.55C108.651 175.376 107.737 176.603 107.086 178.23C106.435 179.833 106.11 181.811 106.11 184.164C106.11 186.518 106.435 188.508 107.086 190.136C107.737 191.738 108.651 192.965 109.828 193.816C111.005 194.642 112.344 195.055 113.847 195.055Z" fill="black"/>
<path d="M84.0006 59.2657L84.0006 34.1029L85.2024 35.3798H77.8038V32.9762H86.7047L86.7047 59.2657H84.0006ZM103.467 59.491C101.439 59.491 99.6364 58.9652 98.059 57.9136C96.4817 56.837 95.2423 55.3097 94.341 53.3317C93.4396 51.3287 92.9889 48.9251 92.9889 46.1209C92.9889 43.3167 93.4396 40.9256 94.341 38.9477C95.2423 36.9446 96.4817 35.4174 98.059 34.3658C99.6364 33.2892 101.439 32.7509 103.467 32.7509C105.495 32.7509 107.298 33.2892 108.875 34.3658C110.453 35.4174 111.692 36.9446 112.593 38.9477C113.52 40.9256 113.983 43.3167 113.983 46.1209C113.983 48.9251 113.52 51.3287 112.593 53.3317C111.692 55.3097 110.453 56.837 108.875 57.9136C107.298 58.9652 105.495 59.491 103.467 59.491ZM103.467 57.0123C105.019 57.0123 106.372 56.5992 107.523 55.7729C108.675 54.9216 109.576 53.6948 110.227 52.0924C110.878 50.4649 111.204 48.4745 111.204 46.1209C111.204 43.7674 110.878 41.7894 110.227 40.187C109.576 38.5596 108.675 37.3327 107.523 36.5065C106.372 35.6552 105.019 35.2296 103.467 35.2296C101.965 35.2296 100.625 35.6552 99.4486 36.5065C98.2719 37.3327 97.358 38.5596 96.707 40.187C96.056 41.7894 95.7305 43.7674 95.7305 46.1209C95.7305 48.4745 96.056 50.4649 96.707 52.0924C97.358 53.6948 98.2719 54.9216 99.4486 55.7729C100.625 56.5992 101.965 57.0123 103.467 57.0123ZM128.334 59.491C126.306 59.491 124.503 58.9652 122.925 57.9136C121.348 56.837 120.109 55.3097 119.207 53.3317C118.306 51.3287 117.855 48.9251 117.855 46.1209C117.855 43.3167 118.306 40.9256 119.207 38.9477C120.109 36.9446 121.348 35.4174 122.925 34.3658C124.503 33.2892 126.306 32.7509 128.334 32.7509C130.362 32.7509 132.164 33.2892 133.742 34.3658C135.319 35.4174 136.558 36.9446 137.46 38.9477C138.386 40.9256 138.849 43.3167 138.849 46.1209C138.849 48.9251 138.386 51.3287 137.46 53.3317C136.558 55.3097 135.319 56.837 133.742 57.9136C132.164 58.9652 130.362 59.491 128.334 59.491ZM128.334 57.0123C129.886 57.0123 131.238 56.5992 132.39 55.7729C133.541 54.9216 134.443 53.6948 135.094 52.0924C135.745 50.4649 136.07 48.4745 136.07 46.1209C136.07 43.7674 135.745 41.7894 135.094 40.187C134.443 38.5596 133.541 37.3327 132.39 36.5065C131.238 35.6552 129.886 35.2296 128.334 35.2296C126.831 35.2296 125.492 35.6552 124.315 36.5065C123.138 37.3327 122.224 38.5596 121.573 40.187C120.922 41.7894 120.597 43.7674 120.597 46.1209C120.597 48.4745 120.922 50.4649 121.573 52.0924C122.224 53.6948 123.138 54.9216 124.315 55.7729C125.492 56.5992 126.831 57.0123 128.334 57.0123Z" fill="black"/>
<line x1="553.724" y1="407.892" x2="555.275" y2="262.094" stroke="#153314" stroke-width="6.20419"/>
<line x1="561.479" y1="405.599" x2="983.363" y2="405.599" stroke="black" stroke-width="1.55105" stroke-dasharray="3.1 3.1"/>
<line x1="558.377" y1="252.045" x2="980.261" y2="252.045" stroke="black" stroke-width="1.55105" stroke-dasharray="3.1 3.1"/>
<path d="M1032.63 419.108V392.819H1042.46C1044.69 392.819 1046.61 393.182 1048.21 393.908C1049.81 394.609 1051.04 395.636 1051.89 396.988C1052.77 398.315 1053.21 399.93 1053.21 401.833C1053.21 403.685 1052.77 405.288 1051.89 406.64C1051.04 407.967 1049.81 408.993 1048.21 409.719C1046.61 410.445 1044.69 410.809 1042.46 410.809H1034.16L1035.4 409.494V419.108H1032.63ZM1035.4 409.719L1034.16 408.367H1042.39C1045.02 408.367 1047.01 407.804 1048.36 406.677C1049.74 405.526 1050.43 403.911 1050.43 401.833C1050.43 399.729 1049.74 398.102 1048.36 396.95C1047.01 395.798 1045.02 395.223 1042.39 395.223H1034.16L1035.4 393.908V409.719ZM1058.18 419.108V399.391H1060.73V404.762L1060.47 403.823C1061.02 402.321 1061.94 401.182 1063.25 400.405C1064.55 399.604 1066.16 399.204 1068.09 399.204V401.795C1067.99 401.795 1067.89 401.795 1067.79 401.795C1067.69 401.77 1067.59 401.757 1067.49 401.757C1065.41 401.757 1063.78 402.396 1062.61 403.673C1061.43 404.925 1060.84 406.715 1060.84 409.043V419.108H1058.18ZM1081.15 419.296C1079.09 419.296 1077.29 418.871 1075.74 418.019C1074.19 417.143 1072.97 415.954 1072.1 414.451C1071.22 412.924 1070.78 411.184 1070.78 409.231C1070.78 407.278 1071.19 405.551 1072.02 404.048C1072.87 402.546 1074.02 401.369 1075.48 400.518C1076.95 399.642 1078.61 399.204 1080.43 399.204C1082.29 399.204 1083.93 399.629 1085.35 400.48C1086.81 401.307 1087.95 402.484 1088.77 404.011C1089.6 405.513 1090.01 407.253 1090.01 409.231C1090.01 409.356 1090 409.494 1089.97 409.644C1089.97 409.769 1089.97 409.907 1089.97 410.057H1072.81V408.067H1088.55L1087.49 408.856C1087.49 407.428 1087.18 406.164 1086.56 405.062C1085.95 403.936 1085.13 403.059 1084.08 402.433C1083.03 401.807 1081.81 401.495 1080.43 401.495C1079.08 401.495 1077.87 401.807 1076.79 402.433C1075.71 403.059 1074.88 403.936 1074.27 405.062C1073.67 406.189 1073.37 407.479 1073.37 408.931V409.344C1073.37 410.846 1073.7 412.173 1074.35 413.325C1075.03 414.451 1075.95 415.34 1077.13 415.991C1078.33 416.617 1079.7 416.93 1081.22 416.93C1082.42 416.93 1083.54 416.717 1084.56 416.292C1085.62 415.866 1086.52 415.215 1087.27 414.339L1088.77 416.066C1087.89 417.118 1086.79 417.919 1085.47 418.47C1084.16 419.021 1082.72 419.296 1081.15 419.296ZM1103.29 419.296C1101.41 419.296 1099.72 418.871 1098.22 418.019C1096.74 417.168 1095.58 415.991 1094.72 414.489C1093.87 412.962 1093.45 411.209 1093.45 409.231C1093.45 407.228 1093.87 405.475 1094.72 403.973C1095.58 402.471 1096.74 401.307 1098.22 400.48C1099.72 399.629 1101.41 399.204 1103.29 399.204C1105.01 399.204 1106.55 399.592 1107.91 400.368C1109.28 401.144 1110.37 402.283 1111.17 403.785C1112 405.263 1112.41 407.078 1112.41 409.231C1112.41 411.359 1112.01 413.175 1111.21 414.677C1110.41 416.179 1109.32 417.331 1107.94 418.132C1106.59 418.908 1105.04 419.296 1103.29 419.296ZM1103.48 416.93C1104.88 416.93 1106.13 416.617 1107.23 415.991C1108.36 415.34 1109.23 414.439 1109.86 413.287C1110.51 412.11 1110.84 410.758 1110.84 409.231C1110.84 407.679 1110.51 406.327 1109.86 405.175C1109.23 404.023 1108.36 403.134 1107.23 402.509C1106.13 401.858 1104.88 401.532 1103.48 401.532C1102.1 401.532 1100.86 401.858 1099.76 402.509C1098.66 403.134 1097.78 404.023 1097.13 405.175C1096.48 406.327 1096.15 407.679 1096.15 409.231C1096.15 410.758 1096.48 412.11 1097.13 413.287C1097.78 414.439 1098.66 415.34 1099.76 415.991C1100.86 416.617 1102.1 416.93 1103.48 416.93ZM1110.91 419.108V413.175L1111.17 409.194L1110.8 405.213V391.242H1113.47V419.108H1110.91ZM1120.89 419.108V399.391H1123.56V419.108H1120.89ZM1122.24 395.035C1121.69 395.035 1121.23 394.847 1120.85 394.471C1120.48 394.096 1120.29 393.645 1120.29 393.119C1120.29 392.594 1120.48 392.155 1120.85 391.805C1121.23 391.429 1121.69 391.242 1122.24 391.242C1122.79 391.242 1123.26 391.417 1123.63 391.767C1124.01 392.118 1124.2 392.556 1124.2 393.082C1124.2 393.633 1124.01 394.096 1123.63 394.471C1123.28 394.847 1122.82 395.035 1122.24 395.035ZM1139.16 419.296C1137.21 419.296 1135.46 418.871 1133.91 418.019C1132.38 417.143 1131.18 415.954 1130.3 414.451C1129.42 412.924 1128.99 411.184 1128.99 409.231C1128.99 407.253 1129.42 405.513 1130.3 404.011C1131.18 402.509 1132.38 401.332 1133.91 400.48C1135.46 399.629 1137.21 399.204 1139.16 399.204C1140.84 399.204 1142.36 399.529 1143.71 400.18C1145.06 400.831 1146.13 401.807 1146.9 403.109L1144.91 404.461C1144.23 403.46 1143.4 402.721 1142.39 402.246C1141.39 401.77 1140.3 401.532 1139.13 401.532C1137.72 401.532 1136.46 401.858 1135.33 402.509C1134.21 403.134 1133.32 404.023 1132.67 405.175C1132.02 406.327 1131.69 407.679 1131.69 409.231C1131.69 410.783 1132.02 412.135 1132.67 413.287C1133.32 414.439 1134.21 415.34 1135.33 415.991C1136.46 416.617 1137.72 416.93 1139.13 416.93C1140.3 416.93 1141.39 416.692 1142.39 416.217C1143.4 415.741 1144.23 415.015 1144.91 414.038L1146.9 415.39C1146.13 416.667 1145.06 417.644 1143.71 418.32C1142.36 418.971 1140.84 419.296 1139.16 419.296ZM1158.59 419.296C1156.74 419.296 1155.31 418.795 1154.31 417.794C1153.31 416.792 1152.81 415.378 1152.81 413.55V395.035H1155.48V413.4C1155.48 414.552 1155.76 415.44 1156.34 416.066C1156.94 416.692 1157.79 417.005 1158.89 417.005C1160.07 417.005 1161.05 416.667 1161.82 415.991L1162.76 417.907C1162.24 418.382 1161.6 418.733 1160.85 418.958C1160.12 419.184 1159.37 419.296 1158.59 419.296ZM1149.28 401.607V399.391H1161.49V401.607H1149.28ZM1175.29 419.296C1173.24 419.296 1171.44 418.871 1169.89 418.019C1168.33 417.143 1167.12 415.954 1166.24 414.451C1165.37 412.924 1164.93 411.184 1164.93 409.231C1164.93 407.278 1165.34 405.551 1166.17 404.048C1167.02 402.546 1168.17 401.369 1169.62 400.518C1171.1 399.642 1172.75 399.204 1174.58 399.204C1176.43 399.204 1178.07 399.629 1179.5 400.48C1180.95 401.307 1182.09 402.484 1182.92 404.011C1183.75 405.513 1184.16 407.253 1184.16 409.231C1184.16 409.356 1184.15 409.494 1184.12 409.644C1184.12 409.769 1184.12 409.907 1184.12 410.057H1166.96V408.067H1182.69L1181.64 408.856C1181.64 407.428 1181.33 406.164 1180.7 405.062C1180.1 403.936 1179.28 403.059 1178.22 402.433C1177.17 401.807 1175.96 401.495 1174.58 401.495C1173.23 401.495 1172.02 401.807 1170.94 402.433C1169.86 403.059 1169.02 403.936 1168.42 405.062C1167.82 406.189 1167.52 407.479 1167.52 408.931V409.344C1167.52 410.846 1167.85 412.173 1168.5 413.325C1169.17 414.451 1170.1 415.34 1171.28 415.991C1172.48 416.617 1173.84 416.93 1175.37 416.93C1176.57 416.93 1177.69 416.717 1178.71 416.292C1179.76 415.866 1180.67 415.215 1181.42 414.339L1182.92 416.066C1182.04 417.118 1180.94 417.919 1179.61 418.47C1178.31 419.021 1176.87 419.296 1175.29 419.296ZM1197.44 419.296C1195.56 419.296 1193.87 418.871 1192.36 418.019C1190.89 417.168 1189.72 415.991 1188.87 414.489C1188.02 412.962 1187.6 411.209 1187.6 409.231C1187.6 407.228 1188.02 405.475 1188.87 403.973C1189.72 402.471 1190.89 401.307 1192.36 400.48C1193.87 399.629 1195.56 399.204 1197.44 399.204C1199.16 399.204 1200.7 399.592 1202.05 400.368C1203.43 401.144 1204.52 402.283 1205.32 403.785C1206.15 405.263 1206.56 407.078 1206.56 409.231C1206.56 411.359 1206.16 413.175 1205.36 414.677C1204.56 416.179 1203.47 417.331 1202.09 418.132C1200.74 418.908 1199.19 419.296 1197.44 419.296ZM1197.62 416.93C1199.02 416.93 1200.28 416.617 1201.38 415.991C1202.51 415.34 1203.38 414.439 1204.01 413.287C1204.66 412.11 1204.98 410.758 1204.98 409.231C1204.98 407.679 1204.66 406.327 1204.01 405.175C1203.38 404.023 1202.51 403.134 1201.38 402.509C1200.28 401.858 1199.02 401.532 1197.62 401.532C1196.25 401.532 1195.01 401.858 1193.9 402.509C1192.8 403.134 1191.93 404.023 1191.28 405.175C1190.62 406.327 1190.3 407.679 1190.3 409.231C1190.3 410.758 1190.62 412.11 1191.28 413.287C1191.93 414.439 1192.8 415.34 1193.9 415.991C1195.01 416.617 1196.25 416.93 1197.62 416.93ZM1205.06 419.108V413.175L1205.32 409.194L1204.95 405.213V391.242H1207.61V419.108H1205.06ZM1232.91 419.108L1221.26 392.819H1224.27L1235.16 417.569H1233.51L1244.47 392.819H1247.29L1235.65 419.108H1232.91ZM1261.39 419.108V414.752L1261.28 414.038V406.752C1261.28 405.075 1260.81 403.785 1259.85 402.884C1258.93 401.983 1257.54 401.532 1255.69 401.532C1254.41 401.532 1253.19 401.745 1252.04 402.171C1250.89 402.596 1249.91 403.16 1249.11 403.861L1247.91 401.87C1248.91 401.019 1250.11 400.368 1251.52 399.917C1252.92 399.441 1254.4 399.204 1255.95 399.204C1258.5 399.204 1260.47 399.842 1261.84 401.119C1263.25 402.371 1263.95 404.286 1263.95 406.865V419.108H1261.39ZM1254.6 419.296C1253.12 419.296 1251.83 419.058 1250.73 418.583C1249.65 418.082 1248.82 417.406 1248.25 416.555C1247.67 415.678 1247.39 414.677 1247.39 413.55C1247.39 412.524 1247.62 411.597 1248.1 410.771C1248.6 409.92 1249.4 409.244 1250.5 408.743C1251.63 408.217 1253.13 407.954 1255.01 407.954H1261.81V409.945H1255.08C1253.18 409.945 1251.85 410.283 1251.1 410.959C1250.38 411.635 1250.01 412.473 1250.01 413.475C1250.01 414.602 1250.45 415.503 1251.33 416.179C1252.21 416.855 1253.43 417.193 1255.01 417.193C1256.51 417.193 1257.8 416.855 1258.88 416.179C1259.98 415.478 1260.78 414.477 1261.28 413.175L1261.88 415.015C1261.38 416.317 1260.5 417.356 1259.25 418.132C1258.03 418.908 1256.47 419.296 1254.6 419.296ZM1271.19 419.108V391.242H1273.86V419.108H1271.19ZM1289.43 419.296C1287.75 419.296 1286.28 418.983 1285.03 418.357C1283.78 417.731 1282.8 416.792 1282.1 415.541C1281.43 414.289 1281.09 412.724 1281.09 410.846V399.391H1283.75V410.546C1283.75 412.649 1284.27 414.239 1285.29 415.315C1286.35 416.367 1287.81 416.893 1289.69 416.893C1291.07 416.893 1292.26 416.617 1293.26 416.066C1294.28 415.491 1295.06 414.664 1295.59 413.588C1296.14 412.511 1296.41 411.222 1296.41 409.719V399.391H1299.08V419.108H1296.52V413.7L1296.94 414.677C1296.31 416.129 1295.33 417.268 1294.01 418.094C1292.71 418.896 1291.18 419.296 1289.43 419.296ZM1314.88 419.296C1312.83 419.296 1311.03 418.871 1309.48 418.019C1307.92 417.143 1306.71 415.954 1305.83 414.451C1304.96 412.924 1304.52 411.184 1304.52 409.231C1304.52 407.278 1304.93 405.551 1305.76 404.048C1306.61 402.546 1307.76 401.369 1309.21 400.518C1310.69 399.642 1312.34 399.204 1314.17 399.204C1316.02 399.204 1317.66 399.629 1319.09 400.48C1320.54 401.307 1321.68 402.484 1322.51 404.011C1323.33 405.513 1323.75 407.253 1323.75 409.231C1323.75 409.356 1323.74 409.494 1323.71 409.644C1323.71 409.769 1323.71 409.907 1323.71 410.057H1306.55V408.067H1322.28L1321.23 408.856C1321.23 407.428 1320.92 406.164 1320.29 405.062C1319.69 403.936 1318.87 403.059 1317.81 402.433C1316.76 401.807 1315.55 401.495 1314.17 401.495C1312.82 401.495 1311.6 401.807 1310.53 402.433C1309.45 403.059 1308.61 403.936 1308.01 405.062C1307.41 406.189 1307.11 407.479 1307.11 408.931V409.344C1307.11 410.846 1307.44 412.173 1308.09 413.325C1308.76 414.451 1309.69 415.34 1310.87 415.991C1312.07 416.617 1313.43 416.93 1314.96 416.93C1316.16 416.93 1317.28 416.717 1318.3 416.292C1319.35 415.866 1320.25 415.215 1321.01 414.339L1322.51 416.066C1321.63 417.118 1320.53 417.919 1319.2 418.47C1317.9 419.021 1316.46 419.296 1314.88 419.296Z" fill="#0A6308"/>
<path d="M1028.42 264.004L1040.44 237.714H1043.18L1055.2 264.004H1052.27L1041.23 239.329H1042.35L1031.31 264.004H1028.42ZM1033.15 256.981L1033.98 254.727H1049.26L1050.09 256.981H1033.15ZM1066.99 264.192C1065.03 264.192 1063.28 263.766 1061.73 262.915C1060.2 262.038 1059 260.849 1058.12 259.347C1057.25 257.82 1056.81 256.079 1056.81 254.126C1056.81 252.148 1057.25 250.408 1058.12 248.906C1059 247.404 1060.2 246.227 1061.73 245.376C1063.28 244.525 1065.03 244.099 1066.99 244.099C1068.66 244.099 1070.18 244.424 1071.53 245.075C1072.88 245.726 1073.95 246.703 1074.72 248.005L1072.73 249.357C1072.06 248.355 1071.22 247.617 1070.22 247.141C1069.21 246.665 1068.13 246.427 1066.95 246.427C1065.55 246.427 1064.28 246.753 1063.16 247.404C1062.03 248.03 1061.14 248.919 1060.49 250.07C1059.84 251.222 1059.51 252.574 1059.51 254.126C1059.51 255.679 1059.84 257.031 1060.49 258.183C1061.14 259.334 1062.03 260.236 1063.16 260.887C1064.28 261.513 1065.55 261.826 1066.95 261.826C1068.13 261.826 1069.21 261.588 1070.22 261.112C1071.22 260.636 1072.06 259.91 1072.73 258.934L1074.72 260.286C1073.95 261.563 1072.88 262.539 1071.53 263.215C1070.18 263.866 1068.66 264.192 1066.99 264.192ZM1086.42 264.192C1084.56 264.192 1083.14 263.691 1082.13 262.689C1081.13 261.688 1080.63 260.273 1080.63 258.445V239.93H1083.3V258.295C1083.3 259.447 1083.59 260.336 1084.16 260.962C1084.76 261.588 1085.61 261.901 1086.72 261.901C1087.89 261.901 1088.87 261.563 1089.65 260.887L1090.58 262.802C1090.06 263.278 1089.42 263.628 1088.67 263.854C1087.94 264.079 1087.19 264.192 1086.42 264.192ZM1077.1 246.503V244.287H1089.31V246.503H1077.1ZM1103.59 264.192C1101.91 264.192 1100.45 263.879 1099.19 263.253C1097.94 262.627 1096.97 261.688 1096.26 260.436C1095.59 259.184 1095.25 257.619 1095.25 255.741V244.287H1097.92V255.441C1097.92 257.544 1098.43 259.134 1099.46 260.211C1100.51 261.262 1101.97 261.788 1103.85 261.788C1105.23 261.788 1106.42 261.513 1107.42 260.962C1108.45 260.386 1109.22 259.56 1109.75 258.483C1110.3 257.406 1110.57 256.117 1110.57 254.615V244.287H1113.24V264.004H1110.69V258.596L1111.1 259.572C1110.47 261.024 1109.5 262.164 1108.17 262.99C1106.87 263.791 1105.34 264.192 1103.59 264.192ZM1133.03 264.004V259.647L1132.91 258.934V251.648C1132.91 249.97 1132.44 248.681 1131.49 247.779C1130.56 246.878 1129.17 246.427 1127.32 246.427C1126.04 246.427 1124.83 246.64 1123.68 247.066C1122.52 247.491 1121.55 248.055 1120.75 248.756L1119.54 246.765C1120.55 245.914 1121.75 245.263 1123.15 244.812C1124.55 244.337 1126.03 244.099 1127.58 244.099C1130.14 244.099 1132.1 244.737 1133.48 246.014C1134.88 247.266 1135.58 249.182 1135.58 251.76V264.004H1133.03ZM1126.23 264.192C1124.75 264.192 1123.46 263.954 1122.36 263.478C1121.28 262.977 1120.46 262.301 1119.88 261.45C1119.31 260.574 1119.02 259.572 1119.02 258.445C1119.02 257.419 1119.26 256.493 1119.73 255.666C1120.23 254.815 1121.03 254.139 1122.14 253.638C1123.26 253.112 1124.76 252.85 1126.64 252.85H1133.44V254.84H1126.72C1124.81 254.84 1123.49 255.178 1122.74 255.854C1122.01 256.53 1121.65 257.369 1121.65 258.37C1121.65 259.497 1122.09 260.398 1122.96 261.074C1123.84 261.75 1125.07 262.088 1126.64 262.088C1128.14 262.088 1129.43 261.75 1130.51 261.074C1131.61 260.373 1132.41 259.372 1132.91 258.07L1133.52 259.91C1133.01 261.212 1132.14 262.251 1130.89 263.027C1129.66 263.803 1128.11 264.192 1126.23 264.192ZM1142.82 264.004V236.137H1145.49V264.004H1142.82ZM1170.78 264.004L1159.13 237.714H1162.14L1173.03 262.464H1171.38L1182.34 237.714H1185.16L1173.52 264.004H1170.78ZM1199.26 264.004V259.647L1199.15 258.934V251.648C1199.15 249.97 1198.68 248.681 1197.72 247.779C1196.8 246.878 1195.41 246.427 1193.56 246.427C1192.28 246.427 1191.06 246.64 1189.91 247.066C1188.76 247.491 1187.78 248.055 1186.98 248.756L1185.78 246.765C1186.78 245.914 1187.99 245.263 1189.39 244.812C1190.79 244.337 1192.27 244.099 1193.82 244.099C1196.37 244.099 1198.34 244.737 1199.72 246.014C1201.12 247.266 1201.82 249.182 1201.82 251.76V264.004H1199.26ZM1192.47 264.192C1190.99 264.192 1189.7 263.954 1188.6 263.478C1187.52 262.977 1186.7 262.301 1186.12 261.45C1185.54 260.574 1185.26 259.572 1185.26 258.445C1185.26 257.419 1185.49 256.493 1185.97 255.666C1186.47 254.815 1187.27 254.139 1188.37 253.638C1189.5 253.112 1191 252.85 1192.88 252.85H1199.68V254.84H1192.95C1191.05 254.84 1189.73 255.178 1188.97 255.854C1188.25 256.53 1187.88 257.369 1187.88 258.37C1187.88 259.497 1188.32 260.398 1189.2 261.074C1190.08 261.75 1191.3 262.088 1192.88 262.088C1194.38 262.088 1195.67 261.75 1196.75 261.074C1197.85 260.373 1198.65 259.372 1199.15 258.07L1199.75 259.91C1199.25 261.212 1198.38 262.251 1197.12 263.027C1195.9 263.803 1194.34 264.192 1192.47 264.192ZM1209.06 264.004V236.137H1211.73V264.004H1209.06ZM1227.3 264.192C1225.62 264.192 1224.15 263.879 1222.9 263.253C1221.65 262.627 1220.67 261.688 1219.97 260.436C1219.3 259.184 1218.96 257.619 1218.96 255.741V244.287H1221.63V255.441C1221.63 257.544 1222.14 259.134 1223.17 260.211C1224.22 261.262 1225.68 261.788 1227.56 261.788C1228.94 261.788 1230.13 261.513 1231.13 260.962C1232.15 260.386 1232.93 259.56 1233.46 258.483C1234.01 257.406 1234.28 256.117 1234.28 254.615V244.287H1236.95V264.004H1234.39V258.596L1234.81 259.572C1234.18 261.024 1233.21 262.164 1231.88 262.99C1230.58 263.791 1229.05 264.192 1227.3 264.192ZM1252.75 264.192C1250.7 264.192 1248.9 263.766 1247.35 262.915C1245.79 262.038 1244.58 260.849 1243.7 259.347C1242.83 257.82 1242.39 256.079 1242.39 254.126C1242.39 252.174 1242.8 250.446 1243.63 248.944C1244.48 247.441 1245.63 246.265 1247.08 245.413C1248.56 244.537 1250.21 244.099 1252.04 244.099C1253.89 244.099 1255.53 244.525 1256.96 245.376C1258.41 246.202 1259.55 247.379 1260.38 248.906C1261.21 250.408 1261.62 252.148 1261.62 254.126C1261.62 254.252 1261.61 254.389 1261.58 254.54C1261.58 254.665 1261.58 254.802 1261.58 254.953H1244.42V252.962H1260.15L1259.1 253.751C1259.1 252.324 1258.79 251.059 1258.16 249.958C1257.56 248.831 1256.74 247.955 1255.68 247.329C1254.63 246.703 1253.42 246.39 1252.04 246.39C1250.69 246.39 1249.48 246.703 1248.4 247.329C1247.32 247.955 1246.48 248.831 1245.88 249.958C1245.28 251.084 1244.98 252.374 1244.98 253.826V254.239C1244.98 255.741 1245.31 257.068 1245.96 258.22C1246.63 259.347 1247.56 260.236 1248.74 260.887C1249.94 261.513 1251.3 261.826 1252.83 261.826C1254.03 261.826 1255.15 261.613 1256.17 261.187C1257.22 260.761 1258.13 260.11 1258.88 259.234L1260.38 260.962C1259.5 262.013 1258.4 262.814 1257.07 263.365C1255.77 263.916 1254.33 264.192 1252.75 264.192Z" fill="#0A6308"/>
<path d="M963.521 253.275C962.915 252.669 961.933 252.669 961.327 253.275L951.457 263.146C950.851 263.751 950.851 264.733 951.457 265.339C952.062 265.945 953.044 265.945 953.65 265.339L962.424 256.565L971.198 265.339C971.804 265.945 972.786 265.945 973.392 265.339C973.997 264.733 973.997 263.751 973.392 263.146L963.521 253.275ZM961.327 401.267C961.933 401.872 962.915 401.872 963.521 401.267L973.392 391.396C973.997 390.79 973.997 389.808 973.392 389.202C972.786 388.597 971.804 388.597 971.198 389.202L962.424 397.976L953.65 389.202C953.044 388.597 952.062 388.597 951.457 389.202C950.851 389.808 950.851 390.79 951.457 391.396L961.327 401.267ZM960.873 254.372V400.17H963.975V254.372H960.873Z" fill="#0A6308"/>
<path d="M786.009 333.801V307.511H795.849C798.077 307.511 799.992 307.874 801.595 308.601C803.197 309.302 804.424 310.328 805.275 311.68C806.152 313.007 806.59 314.622 806.59 316.525C806.59 318.378 806.152 319.98 805.275 321.332C804.424 322.659 803.197 323.686 801.595 324.412C799.992 325.113 798.077 325.463 795.849 325.463H787.549L788.788 324.186V333.801H786.009ZM803.961 333.801L797.201 324.262H800.205L807.003 333.801H803.961ZM788.788 324.412L787.549 323.097H795.774C798.402 323.097 800.393 322.521 801.745 321.37C803.122 320.218 803.811 318.603 803.811 316.525C803.811 314.422 803.122 312.794 801.745 311.643C800.393 310.491 798.402 309.915 795.774 309.915H787.549L788.788 308.601V324.412ZM820.961 333.989C818.908 333.989 817.105 333.563 815.553 332.712C814 331.835 812.786 330.646 811.91 329.144C811.034 327.617 810.595 325.876 810.595 323.924C810.595 321.971 811.008 320.243 811.835 318.741C812.686 317.239 813.838 316.062 815.29 315.21C816.767 314.334 818.42 313.896 820.247 313.896C822.1 313.896 823.74 314.322 825.167 315.173C826.619 315.999 827.759 317.176 828.585 318.703C829.411 320.205 829.824 321.946 829.824 323.924C829.824 324.049 829.812 324.186 829.787 324.337C829.787 324.462 829.787 324.6 829.787 324.75H812.623V322.759H828.36L827.308 323.548C827.308 322.121 826.995 320.856 826.369 319.755C825.768 318.628 824.942 317.752 823.89 317.126C822.839 316.5 821.624 316.187 820.247 316.187C818.895 316.187 817.681 316.5 816.604 317.126C815.528 317.752 814.689 318.628 814.088 319.755C813.487 320.881 813.187 322.171 813.187 323.623V324.036C813.187 325.538 813.512 326.865 814.163 328.017C814.839 329.144 815.766 330.033 816.942 330.684C818.144 331.31 819.509 331.623 821.036 331.623C822.238 331.623 823.352 331.41 824.379 330.984C825.43 330.559 826.331 329.908 827.083 329.031L828.585 330.759C827.709 331.81 826.607 332.612 825.28 333.162C823.978 333.713 822.538 333.989 820.961 333.989ZM840.547 333.989C838.92 333.989 837.38 333.763 835.928 333.313C834.476 332.837 833.336 332.249 832.51 331.547L833.712 329.444C834.513 330.045 835.54 330.571 836.792 331.022C838.043 331.447 839.358 331.66 840.735 331.66C842.613 331.66 843.965 331.372 844.791 330.796C845.617 330.195 846.03 329.407 846.03 328.43C846.03 327.704 845.793 327.141 845.317 326.74C844.866 326.315 844.265 326.002 843.514 325.801C842.763 325.576 841.924 325.388 840.998 325.238C840.071 325.088 839.145 324.913 838.219 324.712C837.317 324.512 836.491 324.224 835.74 323.848C834.989 323.448 834.375 322.91 833.9 322.234C833.449 321.557 833.224 320.656 833.224 319.529C833.224 318.453 833.524 317.489 834.125 316.638C834.726 315.786 835.602 315.123 836.754 314.647C837.931 314.146 839.358 313.896 841.035 313.896C842.312 313.896 843.589 314.071 844.866 314.422C846.143 314.747 847.195 315.185 848.021 315.736L846.857 317.877C845.98 317.276 845.041 316.85 844.04 316.6C843.038 316.325 842.037 316.187 841.035 316.187C839.258 316.187 837.943 316.5 837.092 317.126C836.266 317.727 835.853 318.503 835.853 319.454C835.853 320.205 836.078 320.794 836.529 321.219C837.004 321.645 837.618 321.983 838.369 322.234C839.145 322.459 839.984 322.647 840.885 322.797C841.812 322.947 842.725 323.135 843.627 323.36C844.553 323.561 845.392 323.848 846.143 324.224C846.919 324.575 847.533 325.088 847.983 325.764C848.459 326.415 848.697 327.279 848.697 328.355C848.697 329.507 848.371 330.508 847.72 331.36C847.094 332.186 846.168 332.837 844.941 333.313C843.739 333.763 842.275 333.989 840.547 333.989ZM853.59 333.801V314.084H856.256V333.801H853.59ZM854.942 309.727C854.391 309.727 853.928 309.539 853.552 309.164C853.177 308.788 852.989 308.338 852.989 307.812C852.989 307.286 853.177 306.848 853.552 306.497C853.928 306.122 854.391 305.934 854.942 305.934C855.493 305.934 855.956 306.109 856.331 306.46C856.707 306.81 856.895 307.249 856.895 307.774C856.895 308.325 856.707 308.788 856.331 309.164C855.981 309.539 855.518 309.727 854.942 309.727ZM871.525 333.989C869.647 333.989 867.957 333.563 866.455 332.712C864.978 331.86 863.813 330.684 862.962 329.181C862.111 327.654 861.685 325.902 861.685 323.924C861.685 321.921 862.111 320.168 862.962 318.666C863.813 317.163 864.978 315.999 866.455 315.173C867.957 314.322 869.647 313.896 871.525 313.896C873.253 313.896 874.792 314.284 876.144 315.06C877.522 315.836 878.611 316.976 879.412 318.478C880.238 319.955 880.651 321.77 880.651 323.924C880.651 326.052 880.251 327.867 879.449 329.369C878.648 330.871 877.559 332.023 876.182 332.824C874.83 333.601 873.278 333.989 871.525 333.989ZM871.713 331.623C873.115 331.623 874.367 331.31 875.468 330.684C876.595 330.033 877.471 329.131 878.097 327.98C878.748 326.803 879.074 325.451 879.074 323.924C879.074 322.371 878.748 321.019 878.097 319.867C877.471 318.716 876.595 317.827 875.468 317.201C874.367 316.55 873.115 316.224 871.713 316.224C870.336 316.224 869.096 316.55 867.995 317.201C866.893 317.827 866.017 318.716 865.366 319.867C864.715 321.019 864.389 322.371 864.389 323.924C864.389 325.451 864.715 326.803 865.366 327.98C866.017 329.131 866.893 330.033 867.995 330.684C869.096 331.31 870.336 331.623 871.713 331.623ZM879.149 333.801V327.867L879.412 323.886L879.036 319.905V305.934H881.703V333.801H879.149ZM897.279 333.989C895.601 333.989 894.136 333.676 892.885 333.05C891.633 332.424 890.656 331.485 889.955 330.233C889.279 328.981 888.941 327.416 888.941 325.538V314.084H891.608V325.238C891.608 327.341 892.121 328.931 893.147 330.008C894.199 331.059 895.664 331.585 897.542 331.585C898.919 331.585 900.108 331.31 901.109 330.759C902.136 330.183 902.912 329.357 903.438 328.28C903.989 327.203 904.264 325.914 904.264 324.412V314.084H906.931V333.801H904.377V328.393L904.79 329.369C904.164 330.821 903.188 331.961 901.861 332.787C900.559 333.588 899.031 333.989 897.279 333.989ZM926.718 333.801V329.444L926.606 328.731V321.445C926.606 319.767 926.13 318.478 925.178 317.577C924.252 316.675 922.862 316.224 921.01 316.224C919.733 316.224 918.518 316.437 917.367 316.863C916.215 317.289 915.238 317.852 914.437 318.553L913.235 316.562C914.237 315.711 915.439 315.06 916.841 314.61C918.243 314.134 919.72 313.896 921.273 313.896C923.826 313.896 925.792 314.534 927.169 315.811C928.571 317.063 929.272 318.979 929.272 321.557V333.801H926.718ZM919.92 333.989C918.443 333.989 917.154 333.751 916.052 333.275C914.976 332.774 914.149 332.098 913.573 331.247C912.998 330.371 912.71 329.369 912.71 328.243C912.71 327.216 912.948 326.29 913.423 325.463C913.924 324.612 914.725 323.936 915.827 323.435C916.954 322.91 918.456 322.647 920.334 322.647H927.131V324.637H920.409C918.506 324.637 917.179 324.975 916.428 325.651C915.702 326.327 915.339 327.166 915.339 328.167C915.339 329.294 915.777 330.195 916.653 330.871C917.529 331.547 918.756 331.885 920.334 331.885C921.836 331.885 923.125 331.547 924.202 330.871C925.304 330.17 926.105 329.169 926.606 327.867L927.206 329.707C926.706 331.009 925.829 332.048 924.577 332.824C923.351 333.601 921.798 333.989 919.92 333.989ZM936.515 333.801V305.934H939.181V333.801H936.515Z" fill="#153314"/>
</svg>
