<svg width="882" height="782" viewBox="0 0 882 782" fill="none" xmlns="http://www.w3.org/2000/svg">
<path d="M164.507 13V9.86434H158.236V13H164.507ZM164.507 655.8L164.507 13H158.236L158.236 655.8H164.507Z" fill="#153314"/>
<path d="M828.261 660.491H831.397V654.219H828.261V660.491ZM158.261 660.491H828.261V654.219H158.261V660.491Z" fill="#153314"/>
<path d="M397.885 755.16H402.776V781.499H397.885V755.16ZM384.264 781.499H379.372V755.16H384.264V781.499ZM398.261 770.211H383.85V766.034H398.261V770.211ZM418.413 781.762C416.356 781.762 414.525 781.323 412.92 780.445C411.314 779.542 410.047 778.313 409.119 776.758C408.191 775.202 407.727 773.434 407.727 771.452C407.727 769.445 408.191 767.677 409.119 766.147C410.047 764.592 411.314 763.375 412.92 762.497C414.525 761.619 416.356 761.18 418.413 761.18C420.495 761.18 422.339 761.619 423.944 762.497C425.575 763.375 426.842 764.579 427.745 766.109C428.673 767.639 429.137 769.42 429.137 771.452C429.137 773.434 428.673 775.202 427.745 776.758C426.842 778.313 425.575 779.542 423.944 780.445C422.339 781.323 420.495 781.762 418.413 781.762ZM418.413 777.736C419.567 777.736 420.596 777.485 421.499 776.984C422.402 776.482 423.104 775.754 423.606 774.801C424.132 773.848 424.396 772.732 424.396 771.452C424.396 770.148 424.132 769.032 423.606 768.103C423.104 767.15 422.402 766.423 421.499 765.921C420.596 765.419 419.58 765.169 418.451 765.169C417.297 765.169 416.268 765.419 415.365 765.921C414.487 766.423 413.785 767.15 413.258 768.103C412.731 769.032 412.468 770.148 412.468 771.452C412.468 772.732 412.731 773.848 413.258 774.801C413.785 775.754 414.487 776.482 415.365 776.984C416.268 777.485 417.284 777.736 418.413 777.736ZM442.138 781.762C440.433 781.762 438.927 781.449 437.623 780.821C436.319 780.169 435.303 779.191 434.575 777.887C433.848 776.557 433.484 774.889 433.484 772.882V761.406H438.187V772.242C438.187 774.049 438.589 775.403 439.392 776.306C440.219 777.184 441.386 777.623 442.891 777.623C443.995 777.623 444.948 777.397 445.751 776.946C446.578 776.494 447.218 775.817 447.67 774.914C448.146 774.011 448.384 772.895 448.384 771.565V761.406H453.088V781.499H448.61V776.08L449.4 777.736C448.723 779.04 447.732 780.044 446.428 780.746C445.123 781.424 443.694 781.762 442.138 781.762ZM459.246 781.499V761.406H463.724V766.937L463.197 765.319C463.799 763.964 464.74 762.936 466.019 762.234C467.323 761.531 468.941 761.18 470.873 761.18V765.658C470.672 765.608 470.484 765.582 470.309 765.582C470.133 765.557 469.957 765.545 469.782 765.545C468.001 765.545 466.583 766.072 465.53 767.125C464.476 768.154 463.95 769.696 463.95 771.753V781.499H459.246ZM481.255 781.762C479.574 781.762 477.956 781.549 476.401 781.123C474.871 780.671 473.654 780.132 472.751 779.505L474.557 775.93C475.461 776.507 476.539 776.984 477.793 777.36C479.048 777.736 480.302 777.924 481.556 777.924C483.036 777.924 484.102 777.724 484.754 777.322C485.432 776.921 485.77 776.381 485.77 775.704C485.77 775.152 485.545 774.738 485.093 774.462C484.642 774.161 484.052 773.936 483.325 773.785C482.597 773.635 481.782 773.497 480.879 773.371C480.001 773.246 479.11 773.083 478.207 772.882C477.329 772.656 476.527 772.343 475.799 771.941C475.072 771.515 474.482 770.951 474.031 770.248C473.579 769.546 473.353 768.618 473.353 767.464C473.353 766.184 473.717 765.081 474.445 764.153C475.172 763.199 476.188 762.472 477.492 761.97C478.822 761.443 480.39 761.18 482.196 761.18C483.55 761.18 484.918 761.331 486.297 761.632C487.677 761.933 488.818 762.359 489.721 762.911L487.915 766.485C486.962 765.909 485.996 765.52 485.018 765.319C484.065 765.093 483.111 764.98 482.158 764.98C480.728 764.98 479.662 765.194 478.96 765.62C478.283 766.046 477.944 766.586 477.944 767.238C477.944 767.84 478.17 768.292 478.621 768.593C479.073 768.894 479.662 769.132 480.39 769.308C481.117 769.483 481.92 769.634 482.798 769.759C483.701 769.859 484.591 770.022 485.469 770.248C486.347 770.474 487.15 770.788 487.878 771.189C488.63 771.565 489.232 772.104 489.684 772.807C490.135 773.509 490.361 774.425 490.361 775.554C490.361 776.808 489.985 777.899 489.232 778.827C488.505 779.755 487.464 780.483 486.109 781.01C484.754 781.511 483.137 781.762 481.255 781.762ZM511.019 781.762C509.338 781.762 507.72 781.549 506.165 781.123C504.635 780.671 503.418 780.132 502.515 779.505L504.321 775.93C505.224 776.507 506.303 776.984 507.557 777.36C508.811 777.736 510.066 777.924 511.32 777.924C512.8 777.924 513.866 777.724 514.518 777.322C515.196 776.921 515.534 776.381 515.534 775.704C515.534 775.152 515.308 774.738 514.857 774.462C514.405 774.161 513.816 773.936 513.088 773.785C512.361 773.635 511.546 773.497 510.643 773.371C509.765 773.246 508.874 773.083 507.971 772.882C507.093 772.656 506.29 772.343 505.563 771.941C504.836 771.515 504.246 770.951 503.795 770.248C503.343 769.546 503.117 768.618 503.117 767.464C503.117 766.184 503.481 765.081 504.208 764.153C504.936 763.199 505.952 762.472 507.256 761.97C508.586 761.443 510.154 761.18 511.96 761.18C513.314 761.18 514.681 761.331 516.061 761.632C517.441 761.933 518.582 762.359 519.485 762.911L517.679 766.485C516.726 765.909 515.76 765.52 514.782 765.319C513.828 765.093 512.875 764.98 511.922 764.98C510.492 764.98 509.426 765.194 508.724 765.62C508.046 766.046 507.708 766.586 507.708 767.238C507.708 767.84 507.934 768.292 508.385 768.593C508.837 768.894 509.426 769.132 510.154 769.308C510.881 769.483 511.684 769.634 512.562 769.759C513.465 769.859 514.355 770.022 515.233 770.248C516.111 770.474 516.914 770.788 517.641 771.189C518.394 771.565 518.996 772.104 519.447 772.807C519.899 773.509 520.125 774.425 520.125 775.554C520.125 776.808 519.748 777.899 518.996 778.827C518.268 779.755 517.227 780.483 515.873 781.01C514.518 781.511 512.9 781.762 511.019 781.762ZM531.738 781.762C529.531 781.762 527.825 781.198 526.621 780.069C525.417 778.915 524.815 777.222 524.815 774.989V756.966H529.518V774.876C529.518 775.83 529.757 776.57 530.233 777.096C530.735 777.623 531.425 777.887 532.303 777.887C533.356 777.887 534.234 777.611 534.937 777.059L536.254 780.408C535.702 780.859 535.024 781.198 534.222 781.424C533.419 781.649 532.591 781.762 531.738 781.762ZM521.504 765.319V761.556H534.899V765.319H521.504ZM548.627 781.762C546.921 781.762 545.416 781.449 544.111 780.821C542.807 780.169 541.791 779.191 541.063 777.887C540.336 776.557 539.972 774.889 539.972 772.882V761.406H544.676V772.242C544.676 774.049 545.077 775.403 545.88 776.306C546.708 777.184 547.874 777.623 549.379 777.623C550.483 777.623 551.436 777.397 552.239 776.946C553.067 776.494 553.706 775.817 554.158 774.914C554.634 774.011 554.873 772.895 554.873 771.565V761.406H559.576V781.499H555.098V776.08L555.889 777.736C555.211 779.04 554.22 780.044 552.916 780.746C551.612 781.424 550.182 781.762 548.627 781.762ZM574.238 781.762C572.307 781.762 570.563 781.336 569.008 780.483C567.478 779.605 566.274 778.401 565.396 776.871C564.518 775.34 564.079 773.534 564.079 771.452C564.079 769.37 564.518 767.564 565.396 766.034C566.274 764.504 567.478 763.312 569.008 762.459C570.563 761.606 572.307 761.18 574.238 761.18C575.919 761.18 577.424 761.556 578.753 762.309C580.083 763.036 581.136 764.153 581.914 765.658C582.692 767.163 583.081 769.094 583.081 771.452C583.081 773.785 582.704 775.717 581.952 777.247C581.199 778.752 580.158 779.881 578.829 780.633C577.499 781.386 575.969 781.762 574.238 781.762ZM574.803 777.736C575.931 777.736 576.935 777.485 577.813 776.984C578.716 776.482 579.431 775.754 579.957 774.801C580.509 773.848 580.785 772.732 580.785 771.452C580.785 770.148 580.509 769.032 579.957 768.103C579.431 767.15 578.716 766.423 577.813 765.921C576.935 765.419 575.931 765.169 574.803 765.169C573.674 765.169 572.658 765.419 571.755 765.921C570.877 766.423 570.162 767.15 569.61 768.103C569.083 769.032 568.82 770.148 568.82 771.452C568.82 772.732 569.083 773.848 569.61 774.801C570.162 775.754 570.877 776.482 571.755 776.984C572.658 777.485 573.674 777.736 574.803 777.736ZM580.898 781.499V776.758L581.086 771.415L580.71 766.072V753.579H585.376V781.499H580.898ZM591.566 781.499V761.406H596.27V781.499H591.566ZM593.937 758.095C593.059 758.095 592.331 757.819 591.754 757.267C591.203 756.715 590.927 756.05 590.927 755.273C590.927 754.47 591.203 753.805 591.754 753.278C592.331 752.726 593.059 752.45 593.937 752.45C594.815 752.45 595.53 752.714 596.082 753.241C596.659 753.742 596.947 754.382 596.947 755.16C596.947 755.987 596.671 756.69 596.119 757.267C595.567 757.819 594.84 758.095 593.937 758.095ZM611.887 781.762C609.655 781.762 607.698 781.323 606.018 780.445C604.362 779.542 603.07 778.313 602.142 776.758C601.239 775.202 600.787 773.434 600.787 771.452C600.787 769.445 601.226 767.677 602.104 766.147C603.007 764.592 604.237 763.375 605.792 762.497C607.372 761.619 609.166 761.18 611.173 761.18C613.129 761.18 614.873 761.606 616.403 762.459C617.933 763.312 619.137 764.516 620.015 766.072C620.893 767.627 621.332 769.458 621.332 771.565C621.332 771.766 621.319 771.992 621.294 772.242C621.294 772.493 621.282 772.732 621.257 772.957H604.513V769.834H618.773L616.93 770.813C616.955 769.659 616.716 768.643 616.215 767.765C615.713 766.887 615.023 766.197 614.145 765.695C613.292 765.194 612.301 764.943 611.173 764.943C610.019 764.943 609.003 765.194 608.125 765.695C607.272 766.197 606.595 766.899 606.093 767.802C605.616 768.68 605.378 769.721 605.378 770.926V771.678C605.378 772.882 605.654 773.948 606.206 774.876C606.758 775.805 607.535 776.519 608.539 777.021C609.542 777.523 610.696 777.774 612 777.774C613.129 777.774 614.145 777.598 615.048 777.247C615.951 776.896 616.754 776.344 617.456 775.591L619.977 778.489C619.074 779.542 617.933 780.357 616.553 780.934C615.199 781.486 613.643 781.762 611.887 781.762ZM634.354 781.762C632.422 781.762 630.679 781.336 629.123 780.483C627.593 779.605 626.389 778.401 625.511 776.871C624.633 775.34 624.194 773.534 624.194 771.452C624.194 769.37 624.633 767.564 625.511 766.034C626.389 764.504 627.593 763.312 629.123 762.459C630.679 761.606 632.422 761.18 634.354 761.18C636.034 761.18 637.539 761.556 638.869 762.309C640.198 763.036 641.252 764.153 642.03 765.658C642.807 767.163 643.196 769.094 643.196 771.452C643.196 773.785 642.82 775.717 642.067 777.247C641.315 778.752 640.274 779.881 638.944 780.633C637.615 781.386 636.084 781.762 634.354 781.762ZM634.918 777.736C636.047 777.736 637.05 777.485 637.928 776.984C638.831 776.482 639.546 775.754 640.073 774.801C640.625 773.848 640.901 772.732 640.901 771.452C640.901 770.148 640.625 769.032 640.073 768.103C639.546 767.15 638.831 766.423 637.928 765.921C637.05 765.419 636.047 765.169 634.918 765.169C633.789 765.169 632.773 765.419 631.87 765.921C630.992 766.423 630.277 767.15 629.725 768.103C629.199 769.032 628.935 770.148 628.935 771.452C628.935 772.732 629.199 773.848 629.725 774.801C630.277 775.754 630.992 776.482 631.87 776.984C632.773 777.485 633.789 777.736 634.918 777.736ZM641.014 781.499V776.758L641.202 771.415L640.825 766.072V753.579H645.491V781.499H641.014Z" fill="#124012"/>
<path d="M20.6104 445.917V432.823H24.6366V445.917H20.6104ZM31.8986 445.541V430.678H36V450.432H9.66089L9.66089 431.205H13.7623L13.7623 445.541H31.8986ZM36 428.754L24.486 419.912L27.0071 419.987L15.907 428.415V423.185L23.8088 417.278V419.272L15.907 413.327L15.907 408.247L27.0071 416.751L24.486 416.713L36 407.908V413.214L27.6091 419.422L27.8725 417.466L36 423.561V428.754ZM36 392.426H31.9363L31.0708 392.689H23.9593C22.5796 392.689 21.5135 393.103 20.7609 393.931C19.9833 394.759 19.5945 396.013 19.5945 397.693C19.5945 398.822 19.7701 399.939 20.1213 401.042C20.4725 402.121 20.9616 403.037 21.5887 403.789L18.1647 405.633C17.3369 404.554 16.7223 403.275 16.3209 401.795C15.8945 400.29 15.6813 398.735 15.6813 397.129C15.6813 394.219 16.3836 391.974 17.7884 390.394C19.1681 388.788 21.3128 387.986 24.2227 387.986H36V392.426ZM36.2634 398.747C36.2634 400.252 36.0125 401.569 35.5108 402.698C34.9841 403.827 34.2691 404.705 33.3661 405.332C32.4379 405.934 31.3969 406.235 30.243 406.235C29.1142 406.235 28.0983 405.971 27.1952 405.445C26.2922 404.893 25.5772 404.002 25.0505 402.773C24.5237 401.544 24.2603 399.913 24.2603 397.882V392.049H27.3833V397.543C27.3833 399.148 27.6467 400.227 28.1735 400.779C28.6752 401.331 29.3023 401.607 30.0549 401.607C30.9078 401.607 31.5851 401.268 32.0868 400.591C32.5885 399.913 32.8393 398.973 32.8393 397.769C32.8393 396.615 32.5759 395.586 32.0491 394.683C31.5224 393.755 30.7447 393.09 29.7162 392.689L32.5383 391.899C33.7173 392.35 34.6329 393.166 35.2851 394.345C35.9373 395.499 36.2634 396.966 36.2634 398.747ZM15.6813 356.589C15.6813 354.983 15.9948 353.566 16.6219 352.337C17.2491 351.082 18.2148 350.104 19.5192 349.402C20.7986 348.699 22.4542 348.348 24.486 348.348H36V353.052H25.0881C23.3071 353.052 21.9776 353.44 21.0996 354.218C20.2216 354.996 19.7826 356.112 19.7826 357.567C19.7826 358.595 20.0084 359.511 20.4599 360.314C20.9115 361.091 21.5762 361.706 22.4542 362.157C23.3321 362.584 24.4484 362.797 25.803 362.797H36V367.501H25.0881C23.3071 367.501 21.9776 367.889 21.0996 368.667C20.2216 369.445 19.7826 370.561 19.7826 372.016C19.7826 373.044 20.0084 373.96 20.4599 374.763C20.9115 375.54 21.5762 376.155 22.4542 376.606C23.3321 377.033 24.4484 377.246 25.803 377.246H36V381.949H15.907L15.907 377.472H21.2501L19.6697 378.262C18.3653 377.585 17.3745 376.606 16.6972 375.327C16.0199 374.023 15.6813 372.543 15.6813 370.887C15.6813 369.006 16.1453 367.375 17.0735 365.995C18.0016 364.591 19.4064 363.663 21.2877 363.211L20.6481 365.055C19.143 364.403 17.9389 363.324 17.0358 361.819C16.1328 360.314 15.6813 358.57 15.6813 356.589ZM36.3763 323.322C36.3763 325.379 36.0878 327.348 35.5108 329.23C34.9088 331.111 34.1437 332.604 33.2156 333.707L29.4152 332.014C30.243 330.961 30.9329 329.656 31.4847 328.101C32.0366 326.546 32.3125 324.953 32.3125 323.322C32.3125 321.943 32.162 320.826 31.861 319.973C31.56 319.121 31.1586 318.493 30.6569 318.092C30.1301 317.691 29.5406 317.49 28.8884 317.49C28.0857 317.49 27.4461 317.778 26.9694 318.355C26.4677 318.932 26.0789 319.685 25.803 320.613C25.502 321.516 25.226 322.532 24.9752 323.661C24.7244 324.765 24.4359 325.881 24.1098 327.01C23.7586 328.113 23.3196 329.129 22.7928 330.058C22.2409 330.961 21.5135 331.701 20.6104 332.278C19.7074 332.854 18.5535 333.143 17.1487 333.143C15.7189 333.143 14.4145 332.767 13.2355 332.014C12.0314 331.237 11.0782 330.07 10.3758 328.515C9.64834 326.934 9.28461 324.94 9.28461 322.532C9.28461 320.952 9.48529 319.384 9.88665 317.829C10.288 316.273 10.865 314.919 11.6175 313.765L15.4179 315.308C14.7155 316.487 14.2012 317.703 13.8751 318.957C13.524 320.212 13.3484 321.416 13.3484 322.57C13.3484 323.924 13.5114 325.028 13.8375 325.881C14.1636 326.709 14.5901 327.323 15.1168 327.725C15.6436 328.101 16.2457 328.289 16.923 328.289C17.7257 328.289 18.3779 328.013 18.8796 327.461C19.3562 326.884 19.7325 326.144 20.0084 325.241C20.2843 324.313 20.5603 323.285 20.8362 322.156C21.087 321.027 21.3755 319.911 21.7016 318.807C22.0277 317.678 22.4542 316.662 22.981 315.759C23.5077 314.831 24.2227 314.091 25.1257 313.539C26.0288 312.962 27.1701 312.674 28.5498 312.674C29.9545 312.674 31.259 313.063 32.463 313.84C33.642 314.593 34.5952 315.759 35.3227 317.339C36.0251 318.92 36.3763 320.914 36.3763 323.322ZM36.2634 299.056C36.2634 301.163 35.8244 303.045 34.9464 304.7C34.0434 306.331 32.8142 307.61 31.259 308.538C29.7037 309.466 27.9352 309.93 25.9535 309.93C23.9467 309.93 22.1782 309.466 20.6481 308.538C19.0928 307.61 17.8762 306.331 16.9982 304.7C16.1202 303.045 15.6813 301.163 15.6813 299.056C15.6813 297.1 16.0826 295.381 16.8853 293.901C17.663 292.396 18.8169 291.255 20.347 290.477L22.4542 294.089C21.5009 294.691 20.7986 295.431 20.347 296.309C19.8955 297.162 19.6697 298.09 19.6697 299.094C19.6697 300.248 19.9206 301.289 20.4223 302.217C20.924 303.145 21.6515 303.872 22.6047 304.399C23.5328 304.926 24.6491 305.189 25.9535 305.189C27.2579 305.189 28.3867 304.926 29.34 304.399C30.2681 303.872 30.983 303.145 31.4847 302.217C31.9864 301.289 32.2373 300.248 32.2373 299.094C32.2373 298.09 32.0115 297.162 31.56 296.309C31.1085 295.431 30.4061 294.691 29.4528 294.089L31.56 290.477C33.0651 291.255 34.2315 292.396 35.0593 293.901C35.862 295.381 36.2634 297.1 36.2634 299.056ZM36.2634 277.675C36.2634 279.732 35.8244 281.563 34.9464 283.168C34.0434 284.774 32.8142 286.041 31.259 286.969C29.7037 287.897 27.9352 288.361 25.9535 288.361C23.9467 288.361 22.1782 287.897 20.6481 286.969C19.0928 286.041 17.8762 284.774 16.9982 283.168C16.1202 281.563 15.6813 279.732 15.6813 277.675C15.6813 275.593 16.1202 273.749 16.9982 272.144C17.8762 270.513 19.0803 269.246 20.6104 268.343C22.1406 267.415 23.9216 266.951 25.9535 266.951C27.9352 266.951 29.7037 267.415 31.259 268.343C32.8142 269.246 34.0434 270.513 34.9464 272.144C35.8244 273.749 36.2634 275.593 36.2634 277.675ZM32.2373 277.675C32.2373 276.521 31.9864 275.492 31.4847 274.589C30.983 273.686 30.2556 272.984 29.3023 272.482C28.3491 271.955 27.2328 271.692 25.9535 271.692C24.6491 271.692 23.5328 271.955 22.6047 272.482C21.6515 272.984 20.924 273.686 20.4223 274.589C19.9206 275.492 19.6697 276.508 19.6697 277.637C19.6697 278.791 19.9206 279.819 20.4223 280.723C20.924 281.601 21.6515 282.303 22.6047 282.83C23.5328 283.356 24.6491 283.62 25.9535 283.62C27.2328 283.62 28.3491 283.356 29.3023 282.83C30.2556 282.303 30.983 281.601 31.4847 280.723C31.9864 279.819 32.2373 278.804 32.2373 277.675ZM36 262.453H15.907V257.976H21.4382L19.8203 258.502C18.4657 257.9 17.4372 256.96 16.7348 255.68C16.0324 254.376 15.6813 252.758 15.6813 250.826H20.1589C20.1087 251.027 20.0837 251.215 20.0837 251.391C20.0586 251.566 20.046 251.742 20.046 251.918C20.046 253.699 20.5728 255.116 21.6264 256.17C22.6548 257.223 24.1976 257.75 26.2545 257.75H36V262.453ZM36.2634 237.576C36.2634 239.808 35.8244 241.765 34.9464 243.446C34.0434 245.101 32.8142 246.393 31.259 247.321C29.7037 248.224 27.9352 248.676 25.9535 248.676C23.9467 248.676 22.1782 248.237 20.6481 247.359C19.0928 246.456 17.8762 245.227 16.9982 243.671C16.1202 242.091 15.6813 240.297 15.6813 238.291C15.6813 236.334 16.1077 234.591 16.9606 233.061C17.8135 231.53 19.0175 230.326 20.5728 229.448C22.1281 228.57 23.9593 228.131 26.0664 228.131C26.2671 228.131 26.4928 228.144 26.7437 228.169C26.9945 228.169 27.2328 228.182 27.4586 228.207V244.951H24.3355V230.69L25.3138 232.534C24.1599 232.509 23.144 232.747 22.266 233.249C21.3881 233.75 20.6982 234.44 20.1965 235.318C19.6948 236.171 19.444 237.162 19.444 238.291C19.444 239.445 19.6948 240.461 20.1965 241.339C20.6982 242.191 21.4006 242.869 22.3037 243.37C23.1816 243.847 24.2227 244.085 25.4267 244.085H26.1793C27.3833 244.085 28.4495 243.809 29.3776 243.258C30.3057 242.706 31.0207 241.928 31.5224 240.925C32.024 239.921 32.2749 238.767 32.2749 237.463C32.2749 236.334 32.0993 235.318 31.7481 234.415C31.3969 233.512 30.8451 232.709 30.0925 232.007L32.9898 229.486C34.0434 230.389 34.8586 231.53 35.4356 232.91C35.9875 234.265 36.2634 235.82 36.2634 237.576Z" fill="#124012"/>
<path d="M863.644 340.429C864.434 340.073 864.785 339.145 864.429 338.356C864.073 337.566 863.145 337.215 862.355 337.571L863.644 340.429ZM160.644 657.439L863.644 340.429L862.355 337.571L159.356 654.581L160.644 657.439Z" fill="#7CBC7A"/>
<circle cx="581.644" cy="160.089" r="7.83902" fill="#D9D9D9" stroke="#124012" stroke-width="3.13561"/>
<circle cx="362.645" cy="425.089" r="7.83902" fill="#D9D9D9" stroke="#124012" stroke-width="3.13561"/>
<circle cx="793.644" cy="92.0892" r="7.83902" fill="#D9D9D9" stroke="#124012" stroke-width="3.13561"/>
<circle cx="754.644" cy="180.089" r="7.83902" fill="#D9D9D9" stroke="#124012" stroke-width="3.13561"/>
<circle cx="688.644" cy="92.0892" r="7.83902" fill="#D9D9D9" stroke="#124012" stroke-width="3.13561"/>
<circle cx="653.644" cy="133.089" r="7.83902" fill="#D9D9D9" stroke="#124012" stroke-width="3.13561"/>
<circle cx="525.128" cy="154.547" r="7.83902" fill="#D9D9D9" stroke="#124012" stroke-width="3.13561"/>
<circle cx="600.644" cy="195.089" r="7.83902" fill="#D9D9D9" stroke="#124012" stroke-width="3.13561"/>
<circle cx="647.644" cy="306.089" r="7.83902" fill="#D9D9D9" stroke="#124012" stroke-width="3.13561"/>
<circle cx="468.687" cy="217.26" r="7.83902" fill="#D9D9D9" stroke="#124012" stroke-width="3.13561"/>
<circle cx="399.644" cy="493.089" r="7.83902" fill="#D9D9D9" stroke="#124012" stroke-width="3.13561"/>
<circle cx="277.645" cy="512.089" r="7.83902" fill="#D9D9D9" stroke="#124012" stroke-width="3.13561"/>
<circle cx="277.414" cy="606.088" r="7.83902" fill="#D9D9D9" stroke="#124012" stroke-width="3.13561"/>
<circle cx="340.645" cy="552.089" r="7.83902" fill="#D9D9D9" stroke="#124012" stroke-width="3.13561"/>
<circle cx="424.645" cy="522.089" r="7.83902" fill="#D9D9D9" stroke="#124012" stroke-width="3.13561"/>
<circle cx="600.382" cy="493.206" r="7.83902" fill="#D9D9D9" stroke="#124012" stroke-width="3.13561"/>
<circle cx="631.738" cy="248.628" r="7.83902" fill="#D9D9D9" stroke="#124012" stroke-width="3.13561"/>
<circle cx="628.603" cy="101.254" r="7.83902" fill="#D9D9D9" stroke="#124012" stroke-width="3.13561"/>
<circle cx="550.212" cy="236.086" r="7.83902" fill="#D9D9D9" stroke="#124012" stroke-width="3.13561"/>
<circle cx="440.466" cy="305.069" r="7.83902" fill="#D9D9D9" stroke="#124012" stroke-width="3.13561"/>
<circle cx="380.889" cy="370.917" r="7.83902" fill="#D9D9D9" stroke="#124012" stroke-width="3.13561"/>
<circle cx="421.652" cy="430.493" r="7.83902" fill="#D9D9D9" stroke="#124012" stroke-width="3.13561"/>
<circle cx="659.959" cy="207.865" r="7.83902" fill="#D9D9D9" stroke="#124012" stroke-width="3.13561"/>
<circle cx="754.644" cy="133.089" r="7.83902" fill="#D9D9D9" stroke="#124012" stroke-width="3.13561"/>
<circle cx="236.645" cy="543.089" r="7.83902" fill="#D9D9D9" stroke="#124012" stroke-width="3.13561"/>
<circle cx="371.483" cy="286.243" r="7.83902" fill="#D9D9D9" stroke="#124012" stroke-width="3.13561"/>
<circle cx="299.645" cy="449.089" r="7.83902" fill="#D9D9D9" stroke="#124012" stroke-width="3.13561"/>
<circle cx="590.975" cy="399.125" r="7.83902" fill="#D9D9D9" stroke="#124012" stroke-width="3.13561"/>
<circle cx="641.145" cy="399.125" r="7.83902" fill="#D9D9D9" stroke="#124012" stroke-width="3.13561"/>
<circle cx="650.552" cy="370.904" r="7.83902" fill="#D9D9D9" stroke="#124012" stroke-width="3.13561"/>
<circle cx="609.789" cy="370.904" r="7.83902" fill="#D9D9D9" stroke="#124012" stroke-width="3.13561"/>
<circle cx="600.382" cy="305.056" r="7.83902" fill="#D9D9D9" stroke="#124012" stroke-width="3.13561"/>
<circle cx="688.179" cy="276.836" r="7.83902" fill="#D9D9D9" stroke="#124012" stroke-width="3.13561"/>
<circle cx="716.4" cy="226.666" r="7.83902" fill="#D9D9D9" stroke="#124012" stroke-width="3.13561"/>
<circle cx="716.4" cy="163.954" r="7.83902" fill="#D9D9D9" stroke="#124012" stroke-width="3.13561"/>
<circle cx="506.314" cy="361.497" r="7.83902" fill="#D9D9D9" stroke="#124012" stroke-width="3.13561"/>
<circle cx="487.5" cy="443.024" r="7.83902" fill="#D9D9D9" stroke="#124012" stroke-width="3.13561"/>
<circle cx="543.644" cy="458.089" r="7.83902" fill="#D9D9D9" stroke="#124012" stroke-width="3.13561"/>
<circle cx="559.644" cy="337.089" r="7.83902" fill="#D9D9D9" stroke="#124012" stroke-width="3.13561"/>
<circle cx="487.645" cy="263.089" r="7.83902" fill="#D9D9D9" stroke="#124012" stroke-width="3.13561"/>
<path d="M155.038 710.811C153.006 710.811 151.2 710.284 149.619 709.231C148.039 708.152 146.797 706.622 145.894 704.64C144.991 702.634 144.54 700.225 144.54 697.416C144.54 694.606 144.991 692.211 145.894 690.229C146.797 688.222 148.039 686.692 149.619 685.639C151.2 684.56 153.006 684.021 155.038 684.021C157.07 684.021 158.876 684.56 160.456 685.639C162.036 686.692 163.278 688.222 164.181 690.229C165.109 692.211 165.573 694.606 165.573 697.416C165.573 700.225 165.109 702.634 164.181 704.64C163.278 706.622 162.036 708.152 160.456 709.231C158.876 710.284 157.07 710.811 155.038 710.811ZM155.038 708.328C156.593 708.328 157.948 707.914 159.102 707.086C160.255 706.233 161.158 705.004 161.811 703.399C162.463 701.768 162.789 699.774 162.789 697.416C162.789 695.058 162.463 693.076 161.811 691.471C161.158 689.84 160.255 688.611 159.102 687.783C157.948 686.93 156.593 686.504 155.038 686.504C153.533 686.504 152.191 686.93 151.012 687.783C149.833 688.611 148.917 689.84 148.265 691.471C147.613 693.076 147.287 695.058 147.287 697.416C147.287 699.774 147.613 701.768 148.265 703.399C148.917 705.004 149.833 706.233 151.012 707.086C152.191 707.914 153.533 708.328 155.038 708.328Z" fill="black"/>
<path d="M258.068 710.585V708.666L269.018 697.943C270.021 696.964 270.774 696.111 271.275 695.384C271.777 694.631 272.116 693.929 272.291 693.277C272.467 692.625 272.555 692.01 272.555 691.433C272.555 689.903 272.028 688.699 270.974 687.821C269.946 686.943 268.416 686.504 266.384 686.504C264.829 686.504 263.449 686.742 262.245 687.219C261.066 687.696 260.05 688.436 259.197 689.439L257.278 687.783C258.306 686.579 259.623 685.651 261.229 684.999C262.834 684.347 264.628 684.021 266.61 684.021C268.391 684.021 269.933 684.309 271.238 684.886C272.542 685.438 273.546 686.253 274.248 687.332C274.975 688.41 275.339 689.677 275.339 691.132C275.339 691.985 275.214 692.825 274.963 693.653C274.737 694.481 274.311 695.359 273.684 696.287C273.081 697.19 272.191 698.219 271.012 699.373L260.965 709.231L260.213 708.177H276.543V710.585H258.068ZM290.368 710.811C288.336 710.811 286.53 710.284 284.949 709.231C283.369 708.152 282.127 706.622 281.224 704.64C280.321 702.634 279.87 700.225 279.87 697.416C279.87 694.606 280.321 692.211 281.224 690.229C282.127 688.222 283.369 686.692 284.949 685.639C286.53 684.56 288.336 684.021 290.368 684.021C292.4 684.021 294.206 684.56 295.786 685.639C297.366 686.692 298.608 688.222 299.511 690.229C300.439 692.211 300.903 694.606 300.903 697.416C300.903 700.225 300.439 702.634 299.511 704.64C298.608 706.622 297.366 708.152 295.786 709.231C294.206 710.284 292.4 710.811 290.368 710.811ZM290.368 708.328C291.923 708.328 293.278 707.914 294.431 707.086C295.585 706.233 296.488 705.004 297.141 703.399C297.793 701.768 298.119 699.774 298.119 697.416C298.119 695.058 297.793 693.076 297.141 691.471C296.488 689.84 295.585 688.611 294.431 687.783C293.278 686.93 291.923 686.504 290.368 686.504C288.863 686.504 287.521 686.93 286.342 687.783C285.163 688.611 284.247 689.84 283.595 691.471C282.943 693.076 282.616 695.058 282.616 697.416C282.616 699.774 282.943 701.768 283.595 703.399C284.247 705.004 285.163 706.233 286.342 707.086C287.521 707.914 288.863 708.328 290.368 708.328Z" fill="black"/>
<path d="M393.937 703.662V701.705L407.897 684.246H410.907L397.06 701.705L395.592 701.254H416.777V703.662H393.937ZM408.8 710.585V703.662L408.875 701.254V695.158H411.509V710.585H408.8ZM429.763 710.811C427.731 710.811 425.925 710.284 424.345 709.231C422.764 708.152 421.523 706.622 420.62 704.64C419.717 702.634 419.265 700.225 419.265 697.416C419.265 694.606 419.717 692.211 420.62 690.229C421.523 688.222 422.764 686.692 424.345 685.639C425.925 684.56 427.731 684.021 429.763 684.021C431.795 684.021 433.601 684.56 435.181 685.639C436.762 686.692 438.003 688.222 438.906 690.229C439.835 692.211 440.299 694.606 440.299 697.416C440.299 700.225 439.835 702.634 438.906 704.64C438.003 706.622 436.762 708.152 435.181 709.231C433.601 710.284 431.795 710.811 429.763 710.811ZM429.763 708.328C431.318 708.328 432.673 707.914 433.827 707.086C434.981 706.233 435.884 705.004 436.536 703.399C437.188 701.768 437.514 699.774 437.514 697.416C437.514 695.058 437.188 693.076 436.536 691.471C435.884 689.84 434.981 688.611 433.827 687.783C432.673 686.93 431.318 686.504 429.763 686.504C428.258 686.504 426.916 686.93 425.737 687.783C424.558 688.611 423.642 689.84 422.99 691.471C422.338 693.076 422.012 695.058 422.012 697.416C422.012 699.774 422.338 701.768 422.99 703.399C423.642 705.004 424.558 706.233 425.737 707.086C426.916 707.914 428.258 708.328 429.763 708.328Z" fill="black"/>
<path d="M541.018 710.811C538.686 710.811 536.716 710.297 535.111 709.268C533.506 708.215 532.289 706.71 531.461 704.753C530.633 702.772 530.219 700.401 530.219 697.642C530.219 694.657 530.721 692.161 531.725 690.154C532.753 688.122 534.17 686.592 535.976 685.563C537.783 684.535 539.877 684.021 542.26 684.021C543.439 684.021 544.568 684.133 545.647 684.359C546.725 684.585 547.679 684.949 548.506 685.45L547.415 687.633C546.738 687.181 545.96 686.868 545.082 686.692C544.204 686.491 543.276 686.391 542.298 686.391C539.463 686.391 537.193 687.294 535.487 689.1C533.807 690.906 532.966 693.603 532.966 697.19C532.966 697.742 532.991 698.432 533.041 699.26C533.117 700.062 533.267 700.865 533.493 701.668L532.552 700.953C532.828 699.648 533.368 698.545 534.17 697.642C534.973 696.714 535.976 696.011 537.18 695.535C538.385 695.058 539.702 694.82 541.131 694.82C542.887 694.82 544.43 695.146 545.76 695.798C547.089 696.45 548.13 697.366 548.883 698.545C549.635 699.724 550.011 701.116 550.011 702.721C550.011 704.352 549.623 705.782 548.845 707.011C548.067 708.215 546.989 709.156 545.609 709.833C544.254 710.485 542.724 710.811 541.018 710.811ZM540.906 708.516C542.16 708.516 543.264 708.29 544.217 707.839C545.195 707.362 545.96 706.697 546.512 705.844C547.064 704.966 547.34 703.951 547.34 702.797C547.34 701.066 546.738 699.686 545.534 698.658C544.355 697.629 542.749 697.115 540.717 697.115C539.363 697.115 538.184 697.366 537.18 697.867C536.177 698.369 535.387 699.059 534.81 699.937C534.233 700.79 533.945 701.768 533.945 702.872C533.945 703.825 534.208 704.741 534.735 705.619C535.261 706.472 536.039 707.174 537.068 707.726C538.121 708.253 539.401 708.516 540.906 708.516ZM563.647 710.811C561.615 710.811 559.809 710.284 558.228 709.231C556.648 708.152 555.406 706.622 554.503 704.64C553.6 702.634 553.149 700.225 553.149 697.416C553.149 694.606 553.6 692.211 554.503 690.229C555.406 688.222 556.648 686.692 558.228 685.639C559.809 684.56 561.615 684.021 563.647 684.021C565.678 684.021 567.485 684.56 569.065 685.639C570.645 686.692 571.887 688.222 572.79 690.229C573.718 692.211 574.182 694.606 574.182 697.416C574.182 700.225 573.718 702.634 572.79 704.64C571.887 706.622 570.645 708.152 569.065 709.231C567.485 710.284 565.678 710.811 563.647 710.811ZM563.647 708.328C565.202 708.328 566.556 707.914 567.71 707.086C568.864 706.233 569.767 705.004 570.42 703.399C571.072 701.768 571.398 699.774 571.398 697.416C571.398 695.058 571.072 693.076 570.42 691.471C569.767 689.84 568.864 688.611 567.71 687.783C566.556 686.93 565.202 686.504 563.647 686.504C562.142 686.504 560.799 686.93 559.62 687.783C558.441 688.611 557.526 689.84 556.874 691.471C556.221 693.076 555.895 695.058 555.895 697.416C555.895 699.774 556.221 701.768 556.874 703.399C557.526 705.004 558.441 706.233 559.62 707.086C560.799 707.914 562.142 708.328 563.647 708.328Z" fill="black"/>
<path d="M676.06 710.811C673.952 710.811 672.134 710.51 670.604 709.908C669.099 709.306 667.932 708.441 667.104 707.312C666.302 706.158 665.9 704.803 665.9 703.248C665.9 701.743 666.289 700.464 667.067 699.41C667.869 698.331 669.023 697.504 670.528 696.927C672.059 696.35 673.902 696.061 676.06 696.061C678.192 696.061 680.023 696.35 681.553 696.927C683.083 697.504 684.25 698.331 685.053 699.41C685.88 700.464 686.294 701.743 686.294 703.248C686.294 704.803 685.88 706.158 685.053 707.312C684.225 708.441 683.046 709.306 681.516 709.908C679.985 710.51 678.167 710.811 676.06 710.811ZM676.06 708.516C678.392 708.516 680.211 708.039 681.516 707.086C682.845 706.133 683.51 704.841 683.51 703.21C683.51 701.58 682.845 700.301 681.516 699.373C680.211 698.419 678.392 697.943 676.06 697.943C673.727 697.943 671.908 698.419 670.604 699.373C669.299 700.301 668.647 701.58 668.647 703.21C668.647 704.841 669.299 706.133 670.604 707.086C671.908 708.039 673.727 708.516 676.06 708.516ZM676.06 697.604C674.103 697.604 672.435 697.341 671.055 696.814C669.701 696.287 668.66 695.535 667.932 694.556C667.205 693.553 666.841 692.361 666.841 690.982C666.841 689.527 667.217 688.285 667.97 687.257C668.747 686.203 669.826 685.4 671.206 684.848C672.585 684.297 674.203 684.021 676.06 684.021C677.916 684.021 679.534 684.297 680.914 684.848C682.318 685.4 683.409 686.203 684.187 687.257C684.965 688.285 685.354 689.527 685.354 690.982C685.354 692.361 684.99 693.553 684.262 694.556C683.535 695.535 682.469 696.287 681.064 696.814C679.684 697.341 678.016 697.604 676.06 697.604ZM676.06 695.798C678.117 695.798 679.722 695.371 680.876 694.519C682.03 693.666 682.607 692.524 682.607 691.095C682.607 689.589 682.005 688.423 680.801 687.595C679.622 686.742 678.041 686.316 676.06 686.316C674.078 686.316 672.498 686.742 671.319 687.595C670.14 688.423 669.55 689.577 669.55 691.057C669.55 692.512 670.114 693.666 671.243 694.519C672.397 695.371 674.003 695.798 676.06 695.798ZM700.544 710.811C698.512 710.811 696.706 710.284 695.125 709.231C693.545 708.152 692.303 706.622 691.4 704.64C690.497 702.634 690.045 700.225 690.045 697.416C690.045 694.606 690.497 692.211 691.4 690.229C692.303 688.222 693.545 686.692 695.125 685.639C696.706 684.56 698.512 684.021 700.544 684.021C702.575 684.021 704.381 684.56 705.962 685.639C707.542 686.692 708.784 688.222 709.687 690.229C710.615 692.211 711.079 694.606 711.079 697.416C711.079 700.225 710.615 702.634 709.687 704.64C708.784 706.622 707.542 708.152 705.962 709.231C704.381 710.284 702.575 710.811 700.544 710.811ZM700.544 708.328C702.099 708.328 703.453 707.914 704.607 707.086C705.761 706.233 706.664 705.004 707.316 703.399C707.969 701.768 708.295 699.774 708.295 697.416C708.295 695.058 707.969 693.076 707.316 691.471C706.664 689.84 705.761 688.611 704.607 687.783C703.453 686.93 702.099 686.504 700.544 686.504C699.038 686.504 697.696 686.93 696.517 687.783C695.338 688.611 694.423 689.84 693.771 691.471C693.118 693.076 692.792 695.058 692.792 697.416C692.792 699.774 693.118 701.768 693.771 703.399C694.423 705.004 695.338 706.233 696.517 707.086C697.696 707.914 699.038 708.328 700.544 708.328Z" fill="black"/>
<path d="M806.228 710.585V685.375L807.432 686.654H800.02V684.246H808.938V710.585H806.228ZM825.732 710.811C823.7 710.811 821.894 710.284 820.313 709.231C818.733 708.152 817.491 706.622 816.588 704.64C815.685 702.634 815.234 700.225 815.234 697.416C815.234 694.606 815.685 692.211 816.588 690.229C817.491 688.222 818.733 686.692 820.313 685.639C821.894 684.56 823.7 684.021 825.732 684.021C827.764 684.021 829.57 684.56 831.15 685.639C832.73 686.692 833.972 688.222 834.875 690.229C835.803 692.211 836.267 694.606 836.267 697.416C836.267 700.225 835.803 702.634 834.875 704.64C833.972 706.622 832.73 708.152 831.15 709.231C829.57 710.284 827.764 710.811 825.732 710.811ZM825.732 708.328C827.287 708.328 828.642 707.914 829.795 707.086C830.949 706.233 831.852 705.004 832.505 703.399C833.157 701.768 833.483 699.774 833.483 697.416C833.483 695.058 833.157 693.076 832.505 691.471C831.852 689.84 830.949 688.611 829.795 687.783C828.642 686.93 827.287 686.504 825.732 686.504C824.227 686.504 822.885 686.93 821.706 687.783C820.527 688.611 819.611 689.84 818.959 691.471C818.307 693.076 817.98 695.058 817.98 697.416C817.98 699.774 818.307 701.768 818.959 703.399C819.611 705.004 820.527 706.233 821.706 707.086C822.885 707.914 824.227 708.328 825.732 708.328ZM850.645 710.811C848.613 710.811 846.807 710.284 845.227 709.231C843.646 708.152 842.405 706.622 841.502 704.64C840.599 702.634 840.147 700.225 840.147 697.416C840.147 694.606 840.599 692.211 841.502 690.229C842.405 688.222 843.646 686.692 845.227 685.639C846.807 684.56 848.613 684.021 850.645 684.021C852.677 684.021 854.483 684.56 856.063 685.639C857.644 686.692 858.885 688.222 859.789 690.229C860.717 692.211 861.181 694.606 861.181 697.416C861.181 700.225 860.717 702.634 859.789 704.64C858.885 706.622 857.644 708.152 856.063 709.231C854.483 710.284 852.677 710.811 850.645 710.811ZM850.645 708.328C852.2 708.328 853.555 707.914 854.709 707.086C855.863 706.233 856.766 705.004 857.418 703.399C858.07 701.768 858.396 699.774 858.396 697.416C858.396 695.058 858.07 693.076 857.418 691.471C856.766 689.84 855.863 688.611 854.709 687.783C853.555 686.93 852.2 686.504 850.645 686.504C849.14 686.504 847.798 686.93 846.619 687.783C845.44 688.611 844.524 689.84 843.872 691.471C843.22 693.076 842.894 695.058 842.894 697.416C842.894 699.774 843.22 701.768 843.872 703.399C844.524 705.004 845.44 706.233 846.619 707.086C847.798 707.914 849.14 708.328 850.645 708.328Z" fill="black"/>
<path d="M71.7868 560.981V559.062L82.7363 548.338C83.7397 547.36 84.4923 546.507 84.994 545.779C85.4957 545.027 85.8343 544.324 86.0099 543.672C86.1855 543.02 86.2733 542.405 86.2733 541.828C86.2733 540.298 85.7465 539.094 84.693 538.216C83.6645 537.338 82.1343 536.899 80.1024 536.899C78.5472 536.899 77.1675 537.138 75.9634 537.614C74.7844 538.091 73.7685 538.831 72.9156 539.834L70.9966 538.179C72.0251 536.974 73.3421 536.046 74.9475 535.394C76.5529 534.742 78.3465 534.416 80.3282 534.416C82.1092 534.416 83.6519 534.704 84.9564 535.281C86.2608 535.833 87.2642 536.648 87.9665 537.727C88.694 538.806 89.0577 540.072 89.0577 541.527C89.0577 542.38 88.9323 543.221 88.6815 544.048C88.4557 544.876 88.0293 545.754 87.4021 546.682C86.8001 547.585 85.9096 548.614 84.7306 549.768L74.6841 559.626L73.9316 558.573H90.2618V560.981H71.7868ZM104.086 561.206C102.054 561.206 100.248 560.68 98.668 559.626C97.0876 558.547 95.8459 557.017 94.9429 555.036C94.0398 553.029 93.5883 550.621 93.5883 547.811C93.5883 545.002 94.0398 542.606 94.9429 540.624C95.8459 538.618 97.0876 537.087 98.668 536.034C100.248 534.955 102.054 534.416 104.086 534.416C106.118 534.416 107.924 534.955 109.505 536.034C111.085 537.087 112.327 538.618 113.23 540.624C114.158 542.606 114.622 545.002 114.622 547.811C114.622 550.621 114.158 553.029 113.23 555.036C112.327 557.017 111.085 558.547 109.505 559.626C107.924 560.68 106.118 561.206 104.086 561.206ZM104.086 558.723C105.642 558.723 106.996 558.309 108.15 557.481C109.304 556.628 110.207 555.399 110.859 553.794C111.511 552.163 111.838 550.169 111.838 547.811C111.838 545.453 111.511 543.471 110.859 541.866C110.207 540.236 109.304 539.006 108.15 538.179C106.996 537.326 105.642 536.899 104.086 536.899C102.581 536.899 101.239 537.326 100.06 538.179C98.8812 539.006 97.9656 540.236 97.3134 541.866C96.6612 543.471 96.3351 545.453 96.3351 547.811C96.3351 550.169 96.6612 552.163 97.3134 553.794C97.9656 555.399 98.8812 556.628 100.06 557.481C101.239 558.309 102.581 558.723 104.086 558.723Z" fill="black"/>
<path d="M71.8242 422.649V420.692L85.7839 403.233H88.7941L74.9473 420.692L73.4798 420.241H94.664V422.649H71.8242ZM86.687 429.572V422.649L86.7622 420.241V414.145H89.3961V429.572H86.687ZM107.65 429.798C105.619 429.798 103.812 429.271 102.232 428.218C100.652 427.139 99.41 425.609 98.5069 423.627C97.6039 421.62 97.1524 419.212 97.1524 416.403C97.1524 413.593 97.6039 411.198 98.5069 409.216C99.41 407.209 100.652 405.679 102.232 404.625C103.812 403.547 105.619 403.007 107.65 403.007C109.682 403.007 111.488 403.547 113.069 404.625C114.649 405.679 115.891 407.209 116.794 409.216C117.722 411.198 118.186 413.593 118.186 416.403C118.186 419.212 117.722 421.62 116.794 423.627C115.891 425.609 114.649 427.139 113.069 428.218C111.488 429.271 109.682 429.798 107.65 429.798ZM107.65 427.315C109.206 427.315 110.56 426.901 111.714 426.073C112.868 425.22 113.771 423.991 114.423 422.385C115.075 420.755 115.402 418.761 115.402 416.403C115.402 414.045 115.075 412.063 114.423 410.458C113.771 408.827 112.868 407.598 111.714 406.77C110.56 405.917 109.206 405.491 107.65 405.491C106.145 405.491 104.803 405.917 103.624 406.77C102.445 407.598 101.53 408.827 100.877 410.458C100.225 412.063 99.8992 414.045 99.8992 416.403C99.8992 418.761 100.225 420.755 100.877 422.385C101.53 423.991 102.445 425.22 103.624 426.073C104.803 426.901 106.145 427.315 107.65 427.315Z" fill="black"/>
<path d="M81.6846 299.942C79.3517 299.942 77.3826 299.427 75.7771 298.399C74.1717 297.345 72.9551 295.84 72.1273 293.884C71.2995 291.902 70.8856 289.531 70.8856 286.772C70.8856 283.787 71.3873 281.291 72.3907 279.284C73.4191 277.252 74.8364 275.722 76.6426 274.694C78.4487 273.665 80.5432 273.151 82.9263 273.151C84.1053 273.151 85.2341 273.264 86.3128 273.49C87.3914 273.715 88.3446 274.079 89.1724 274.581L88.0813 276.763C87.404 276.312 86.6263 275.998 85.7484 275.822C84.8704 275.622 83.9423 275.521 82.9639 275.521C80.1294 275.521 77.8592 276.425 76.1534 278.231C74.4727 280.037 73.6324 282.733 73.6324 286.32C73.6324 286.872 73.6575 287.562 73.7076 288.39C73.7829 289.193 73.9334 289.995 74.1592 290.798L73.2185 290.083C73.4944 288.779 74.0337 287.675 74.8364 286.772C75.6392 285.844 76.6426 285.142 77.8466 284.665C79.0507 284.188 80.3677 283.95 81.7975 283.95C83.5534 283.95 85.0962 284.276 86.4257 284.928C87.7552 285.58 88.7962 286.496 89.5487 287.675C90.3013 288.854 90.6775 290.246 90.6775 291.852C90.6775 293.482 90.2887 294.912 89.5111 296.141C88.7335 297.345 87.6548 298.286 86.2751 298.963C84.9206 299.615 83.3904 299.942 81.6846 299.942ZM81.5717 297.646C82.826 297.646 83.9297 297.421 84.8829 296.969C85.8612 296.492 86.6263 295.828 87.1782 294.975C87.7301 294.097 88.006 293.081 88.006 291.927C88.006 290.196 87.404 288.816 86.1999 287.788C85.0209 286.759 83.4155 286.245 81.3836 286.245C80.029 286.245 78.85 286.496 77.8466 286.998C76.8432 287.499 76.0531 288.189 75.4761 289.067C74.8992 289.92 74.6107 290.898 74.6107 292.002C74.6107 292.955 74.8741 293.871 75.4009 294.749C75.9276 295.602 76.7053 296.304 77.7337 296.856C78.7873 297.383 80.0666 297.646 81.5717 297.646ZM104.313 299.942C102.281 299.942 100.475 299.415 98.8944 298.361C97.3141 297.283 96.0724 295.752 95.1693 293.771C94.2662 291.764 93.8147 289.356 93.8147 286.546C93.8147 283.737 94.2662 281.341 95.1693 279.359C96.0724 277.353 97.3141 275.822 98.8944 274.769C100.475 273.69 102.281 273.151 104.313 273.151C106.345 273.151 108.151 273.69 109.731 274.769C111.311 275.822 112.553 277.353 113.456 279.359C114.384 281.341 114.848 283.737 114.848 286.546C114.848 289.356 114.384 291.764 113.456 293.771C112.553 295.752 111.311 297.283 109.731 298.361C108.151 299.415 106.345 299.942 104.313 299.942ZM104.313 297.458C105.868 297.458 107.223 297.044 108.376 296.216C109.53 295.364 110.433 294.134 111.086 292.529C111.738 290.898 112.064 288.904 112.064 286.546C112.064 284.188 111.738 282.207 111.086 280.601C110.433 278.971 109.53 277.741 108.376 276.914C107.223 276.061 105.868 275.634 104.313 275.634C102.808 275.634 101.466 276.061 100.287 276.914C99.1076 277.741 98.192 278.971 97.5398 280.601C96.8876 282.207 96.5615 284.188 96.5615 286.546C96.5615 288.904 96.8876 290.898 97.5398 292.529C98.192 294.134 99.1076 295.364 100.287 296.216C101.466 297.044 102.808 297.458 104.313 297.458Z" fill="black"/>
<path d="M82.2846 168.53C80.1774 168.53 78.3588 168.229 76.8286 167.627C75.3235 167.025 74.1571 166.159 73.3293 165.031C72.5266 163.877 72.1252 162.522 72.1252 160.967C72.1252 159.462 72.514 158.182 73.2916 157.129C74.0944 156.05 75.2483 155.222 76.7534 154.645C78.2835 154.069 80.1273 153.78 82.2846 153.78C84.4168 153.78 86.248 154.069 87.7782 154.645C89.3083 155.222 90.4748 156.05 91.2775 157.129C92.1053 158.182 92.5192 159.462 92.5192 160.967C92.5192 162.522 92.1053 163.877 91.2775 165.031C90.4497 166.159 89.2707 167.025 87.7405 167.627C86.2104 168.229 84.3917 168.53 82.2846 168.53ZM82.2846 166.235C84.6175 166.235 86.4361 165.758 87.7405 164.805C89.07 163.852 89.7348 162.56 89.7348 160.929C89.7348 159.299 89.07 158.019 87.7405 157.091C86.4361 156.138 84.6175 155.661 82.2846 155.661C79.9517 155.661 78.133 156.138 76.8286 157.091C75.5242 158.019 74.872 159.299 74.872 160.929C74.872 162.56 75.5242 163.852 76.8286 164.805C78.133 165.758 79.9517 166.235 82.2846 166.235ZM82.2846 155.323C80.328 155.323 78.6598 155.059 77.2801 154.533C75.9256 154.006 74.8845 153.253 74.1571 152.275C73.4296 151.272 73.0659 150.08 73.0659 148.7C73.0659 147.245 73.4422 146.004 74.1947 144.975C74.9723 143.922 76.051 143.119 77.4307 142.567C78.8103 142.015 80.4283 141.739 82.2846 141.739C84.1409 141.739 85.7588 142.015 87.1385 142.567C88.5433 143.119 89.6344 143.922 90.4121 144.975C91.1897 146.004 91.5785 147.245 91.5785 148.7C91.5785 150.08 91.2148 151.272 90.4873 152.275C89.7599 153.253 88.6938 154.006 87.289 154.533C85.9093 155.059 84.2412 155.323 82.2846 155.323ZM82.2846 153.517C84.3415 153.517 85.947 153.09 87.1009 152.237C88.2548 151.384 88.8317 150.243 88.8317 148.813C88.8317 147.308 88.2297 146.142 87.0256 145.314C85.8466 144.461 84.2663 144.035 82.2846 144.035C80.3029 144.035 78.7225 144.461 77.5435 145.314C76.3645 146.142 75.7751 147.296 75.7751 148.776C75.7751 150.231 76.3395 151.384 77.4683 152.237C78.6222 153.09 80.2276 153.517 82.2846 153.517ZM106.768 168.53C104.737 168.53 102.93 168.003 101.35 166.95C99.7698 165.871 98.5281 164.341 97.625 162.359C96.722 160.352 96.2705 157.944 96.2705 155.135C96.2705 152.325 96.722 149.93 97.625 147.948C98.5281 145.941 99.7698 144.411 101.35 143.357C102.93 142.279 104.737 141.739 106.768 141.739C108.8 141.739 110.606 142.279 112.187 143.357C113.767 144.411 115.009 145.941 115.912 147.948C116.84 149.93 117.304 152.325 117.304 155.135C117.304 157.944 116.84 160.352 115.912 162.359C115.009 164.341 113.767 165.871 112.187 166.95C110.606 168.003 108.8 168.53 106.768 168.53ZM106.768 166.047C108.324 166.047 109.678 165.633 110.832 164.805C111.986 163.952 112.889 162.723 113.541 161.117C114.194 159.487 114.52 157.493 114.52 155.135C114.52 152.777 114.194 150.795 113.541 149.19C112.889 147.559 111.986 146.33 110.832 145.502C109.678 144.649 108.324 144.223 106.768 144.223C105.263 144.223 103.921 144.649 102.742 145.502C101.563 146.33 100.648 147.559 99.9956 149.19C99.3434 150.795 99.0173 152.777 99.0173 155.135C99.0173 157.493 99.3434 159.487 99.9956 161.117C100.648 162.723 101.563 163.952 102.742 164.805C103.921 165.633 105.263 166.047 106.768 166.047Z" fill="black"/>
<path d="M76.8662 36L76.8662 10.7897L78.0703 12.069L70.6577 12.069V9.66089L79.5754 9.66089L79.5754 36H76.8662ZM96.3695 36.2258C94.3377 36.2258 92.5315 35.699 90.9512 34.6454C89.3709 33.5668 88.1292 32.0366 87.2261 30.0549C86.323 28.0481 85.8715 25.6399 85.8715 22.8304C85.8715 20.0209 86.323 17.6253 87.2261 15.6436C88.1292 13.6368 89.3709 12.1067 90.9512 11.0531C92.5315 9.97445 94.3377 9.43512 96.3695 9.43512C98.4014 9.43512 100.208 9.97445 101.788 11.0531C103.368 12.1067 104.61 13.6368 105.513 15.6436C106.441 17.6253 106.905 20.0209 106.905 22.8304C106.905 25.6399 106.441 28.0481 105.513 30.0549C104.61 32.0366 103.368 33.5668 101.788 34.6454C100.208 35.699 98.4014 36.2258 96.3695 36.2258ZM96.3695 33.7424C97.9248 33.7424 99.2794 33.3285 100.433 32.5007C101.587 31.6478 102.49 30.4186 103.142 28.8132C103.795 27.1827 104.121 25.1884 104.121 22.8304C104.121 20.4725 103.795 18.4908 103.142 16.8853C102.49 15.2548 101.587 14.0257 100.433 13.1979C99.2794 12.345 97.9248 11.9185 96.3695 11.9185C94.8644 11.9185 93.5224 12.345 92.3434 13.1979C91.1644 14.0257 90.2488 15.2548 89.5966 16.8853C88.9444 18.4908 88.6183 20.4725 88.6183 22.8304C88.6183 25.1884 88.9444 27.1827 89.5966 28.8132C90.2488 30.4186 91.1644 31.6478 92.3434 32.5007C93.5224 33.3285 94.8644 33.7424 96.3695 33.7424ZM121.283 36.2258C119.251 36.2258 117.445 35.699 115.865 34.6454C114.284 33.5668 113.043 32.0366 112.139 30.0549C111.236 28.0481 110.785 25.6399 110.785 22.8304C110.785 20.0209 111.236 17.6253 112.139 15.6436C113.043 13.6368 114.284 12.1067 115.865 11.0531C117.445 9.97445 119.251 9.43512 121.283 9.43512C123.315 9.43512 125.121 9.97445 126.701 11.0531C128.282 12.1067 129.523 13.6368 130.426 15.6436C131.354 17.6253 131.819 20.0209 131.819 22.8304C131.819 25.6399 131.354 28.0481 130.426 30.0549C129.523 32.0366 128.282 33.5668 126.701 34.6454C125.121 35.699 123.315 36.2258 121.283 36.2258ZM121.283 33.7424C122.838 33.7424 124.193 33.3285 125.347 32.5007C126.501 31.6478 127.404 30.4186 128.056 28.8132C128.708 27.1827 129.034 25.1884 129.034 22.8304C129.034 20.4725 128.708 18.4908 128.056 16.8853C127.404 15.2548 126.501 14.0257 125.347 13.1979C124.193 12.345 122.838 11.9185 121.283 11.9185C119.778 11.9185 118.436 12.345 117.257 13.1979C116.078 14.0257 115.162 15.2548 114.51 16.8853C113.858 18.4908 113.532 20.4725 113.532 22.8304C113.532 25.1884 113.858 27.1827 114.51 28.8132C115.162 30.4186 116.078 31.6478 117.257 32.5007C118.436 33.3285 119.778 33.7424 121.283 33.7424Z" fill="black"/>
<path d="M695.547 477V451.79L696.751 453.069H689.339V450.661H698.256V477H695.547ZM711.626 477.188C709.996 477.188 708.453 476.962 706.998 476.511C705.543 476.034 704.402 475.445 703.574 474.742L704.778 472.635C705.581 473.237 706.609 473.764 707.864 474.216C709.118 474.642 710.435 474.855 711.814 474.855C713.696 474.855 715.05 474.567 715.878 473.99C716.706 473.388 717.12 472.598 717.12 471.619C717.12 470.892 716.882 470.327 716.405 469.926C715.953 469.5 715.351 469.186 714.599 468.985C713.846 468.76 713.006 468.571 712.078 468.421C711.15 468.27 710.222 468.095 709.293 467.894C708.39 467.694 707.563 467.405 706.81 467.029C706.058 466.627 705.443 466.088 704.966 465.411C704.515 464.733 704.289 463.83 704.289 462.702C704.289 461.623 704.59 460.657 705.192 459.804C705.794 458.951 706.672 458.287 707.826 457.81C709.005 457.308 710.435 457.058 712.116 457.058C713.395 457.058 714.674 457.233 715.953 457.584C717.233 457.91 718.286 458.349 719.114 458.901L717.948 461.046C717.07 460.444 716.129 460.018 715.126 459.767C714.122 459.491 713.119 459.353 712.116 459.353C710.334 459.353 709.018 459.666 708.165 460.293C707.337 460.896 706.923 461.673 706.923 462.626C706.923 463.379 707.149 463.968 707.6 464.395C708.077 464.821 708.691 465.16 709.444 465.411C710.222 465.637 711.062 465.825 711.965 465.975C712.893 466.126 713.809 466.314 714.712 466.54C715.64 466.74 716.48 467.029 717.233 467.405C718.01 467.756 718.625 468.27 719.077 468.948C719.553 469.6 719.791 470.465 719.791 471.544C719.791 472.698 719.465 473.701 718.813 474.554C718.186 475.382 717.258 476.034 716.029 476.511C714.825 476.962 713.357 477.188 711.626 477.188ZM730.94 477.188C729.083 477.188 727.654 476.686 726.65 475.683C725.647 474.68 725.145 473.262 725.145 471.431V452.881H727.817V471.281C727.817 472.435 728.105 473.325 728.682 473.952C729.284 474.579 730.137 474.893 731.241 474.893C732.42 474.893 733.398 474.554 734.176 473.877L735.116 475.796C734.59 476.273 733.95 476.624 733.197 476.849C732.47 477.075 731.717 477.188 730.94 477.188ZM721.608 459.466V457.246H733.837V459.466H721.608ZM761.943 477.226C759.937 477.226 758.08 476.9 756.375 476.247C754.694 475.57 753.226 474.629 751.972 473.425C750.743 472.221 749.777 470.804 749.075 469.174C748.398 467.543 748.059 465.762 748.059 463.83C748.059 461.899 748.398 460.118 749.075 458.487C749.777 456.857 750.756 455.44 752.01 454.235C753.264 453.031 754.732 452.103 756.412 451.451C758.118 450.774 759.974 450.435 761.981 450.435C763.988 450.435 765.819 450.749 767.475 451.376C769.155 452.003 770.585 452.956 771.764 454.235L770.033 456.004C768.93 454.9 767.713 454.11 766.383 453.633C765.054 453.157 763.624 452.919 762.094 452.919C760.463 452.919 758.958 453.194 757.579 453.746C756.224 454.273 755.033 455.038 754.004 456.042C753.001 457.02 752.211 458.174 751.634 459.503C751.082 460.808 750.806 462.25 750.806 463.83C750.806 465.386 751.082 466.828 751.634 468.158C752.211 469.487 753.001 470.654 754.004 471.657C755.033 472.635 756.224 473.4 757.579 473.952C758.958 474.479 760.451 474.742 762.056 474.742C763.561 474.742 764.979 474.517 766.308 474.065C767.663 473.614 768.905 472.848 770.033 471.77L771.614 473.877C770.359 474.981 768.892 475.821 767.211 476.398C765.531 476.95 763.775 477.226 761.943 477.226ZM768.942 473.538V463.83H771.614V473.877L768.942 473.538ZM787.095 477.188C785.414 477.188 783.947 476.875 782.693 476.247C781.438 475.62 780.46 474.68 779.758 473.425C779.08 472.171 778.742 470.603 778.742 468.722V457.246H781.413V468.421C781.413 470.528 781.927 472.121 782.956 473.2C784.01 474.253 785.477 474.78 787.358 474.78C788.738 474.78 789.93 474.504 790.933 473.952C791.961 473.375 792.739 472.547 793.266 471.469C793.818 470.39 794.094 469.098 794.094 467.593V457.246H796.765V477H794.207V471.582L794.62 472.56C793.993 474.015 793.015 475.156 791.686 475.984C790.381 476.787 788.851 477.188 787.095 477.188ZM812.602 477.188C810.545 477.188 808.739 476.762 807.183 475.909C805.628 475.031 804.411 473.839 803.533 472.334C802.655 470.804 802.216 469.061 802.216 467.104C802.216 465.147 802.63 463.417 803.458 461.911C804.311 460.406 805.465 459.227 806.92 458.374C808.4 457.497 810.055 457.058 811.887 457.058C813.743 457.058 815.386 457.484 816.816 458.337C818.271 459.165 819.412 460.344 820.24 461.874C821.068 463.379 821.482 465.122 821.482 467.104C821.482 467.229 821.469 467.367 821.444 467.518C821.444 467.643 821.444 467.781 821.444 467.932H804.248V465.938H820.014L818.961 466.728C818.961 465.298 818.647 464.031 818.02 462.927C817.418 461.799 816.59 460.921 815.537 460.293C814.483 459.666 813.266 459.353 811.887 459.353C810.532 459.353 809.315 459.666 808.237 460.293C807.158 460.921 806.318 461.799 805.716 462.927C805.114 464.056 804.813 465.348 804.813 466.803V467.217C804.813 468.722 805.139 470.051 805.791 471.205C806.468 472.334 807.396 473.225 808.575 473.877C809.78 474.504 811.147 474.818 812.677 474.818C813.881 474.818 814.997 474.604 816.026 474.178C817.079 473.752 817.982 473.099 818.735 472.221L820.24 473.952C819.362 475.006 818.258 475.808 816.929 476.36C815.624 476.912 814.182 477.188 812.602 477.188ZM832.225 477.188C830.594 477.188 829.052 476.962 827.597 476.511C826.142 476.034 825 475.445 824.173 474.742L825.377 472.635C826.179 473.237 827.208 473.764 828.462 474.216C829.716 474.642 831.033 474.855 832.413 474.855C834.294 474.855 835.649 474.567 836.477 473.99C837.304 473.388 837.718 472.598 837.718 471.619C837.718 470.892 837.48 470.327 837.003 469.926C836.552 469.5 835.95 469.186 835.197 468.985C834.445 468.76 833.604 468.571 832.676 468.421C831.748 468.27 830.82 468.095 829.892 467.894C828.989 467.694 828.161 467.405 827.409 467.029C826.656 466.627 826.041 466.088 825.565 465.411C825.113 464.733 824.887 463.83 824.887 462.702C824.887 461.623 825.189 460.657 825.791 459.804C826.393 458.951 827.271 458.287 828.424 457.81C829.603 457.308 831.033 457.058 832.714 457.058C833.993 457.058 835.273 457.233 836.552 457.584C837.831 457.91 838.885 458.349 839.713 458.901L838.546 461.046C837.668 460.444 836.728 460.018 835.724 459.767C834.721 459.491 833.717 459.353 832.714 459.353C830.933 459.353 829.616 459.666 828.763 460.293C827.935 460.896 827.521 461.673 827.521 462.626C827.521 463.379 827.747 463.968 828.199 464.395C828.675 464.821 829.29 465.16 830.042 465.411C830.82 465.637 831.66 465.825 832.563 465.975C833.492 466.126 834.407 466.314 835.31 466.54C836.238 466.74 837.079 467.029 837.831 467.405C838.609 467.756 839.223 468.27 839.675 468.948C840.152 469.6 840.39 470.465 840.39 471.544C840.39 472.698 840.064 473.701 839.412 474.554C838.785 475.382 837.856 476.034 836.627 476.511C835.423 476.962 833.956 477.188 832.225 477.188ZM850.598 477.188C848.967 477.188 847.424 476.962 845.969 476.511C844.514 476.034 843.373 475.445 842.545 474.742L843.749 472.635C844.552 473.237 845.581 473.764 846.835 474.216C848.089 474.642 849.406 474.855 850.786 474.855C852.667 474.855 854.022 474.567 854.849 473.99C855.677 473.388 856.091 472.598 856.091 471.619C856.091 470.892 855.853 470.327 855.376 469.926C854.925 469.5 854.323 469.186 853.57 468.985C852.818 468.76 851.977 468.571 851.049 468.421C850.121 468.27 849.193 468.095 848.265 467.894C847.362 467.694 846.534 467.405 845.781 467.029C845.029 466.627 844.414 466.088 843.937 465.411C843.486 464.733 843.26 463.83 843.26 462.702C843.26 461.623 843.561 460.657 844.163 459.804C844.765 458.951 845.643 458.287 846.797 457.81C847.976 457.308 849.406 457.058 851.087 457.058C852.366 457.058 853.645 457.233 854.925 457.584C856.204 457.91 857.258 458.349 858.085 458.901L856.919 461.046C856.041 460.444 855.1 460.018 854.097 459.767C853.093 459.491 852.09 459.353 851.087 459.353C849.306 459.353 847.989 459.666 847.136 460.293C846.308 460.896 845.894 461.673 845.894 462.626C845.894 463.379 846.12 463.968 846.571 464.395C847.048 464.821 847.663 465.16 848.415 465.411C849.193 465.637 850.033 465.825 850.936 465.975C851.864 466.126 852.78 466.314 853.683 466.54C854.611 466.74 855.451 467.029 856.204 467.405C856.982 467.756 857.596 468.27 858.048 468.948C858.524 469.6 858.763 470.465 858.763 471.544C858.763 472.698 858.437 473.701 857.784 474.554C857.157 475.382 856.229 476.034 855 476.511C853.796 476.962 852.328 477.188 850.598 477.188Z" fill="#153314"/>
</svg>
