<svg width="1194" height="815" viewBox="0 0 1194 815" fill="none" xmlns="http://www.w3.org/2000/svg">
<rect x="0.546631" y="0.446655" width="1193.45" height="808.067" fill="white"/>
<path d="M171.269 44.3176V41.182H164.998V44.3176H171.269ZM171.269 687.117L171.269 44.3176H164.998L164.998 687.117H171.269Z" fill="#153314"/>
<path d="M864.313 691.808H867.448V685.537H864.313V691.808ZM165.024 691.808H864.313V685.537H165.024V691.808Z" fill="#153314"/>
<path d="M406.152 787.477H408.899V813.816H406.152V787.477ZM389.672 813.816H386.887V787.477H389.672V813.816ZM406.416 801.663H389.371V799.217H406.416V801.663ZM424.984 814.005C423.077 814.005 421.359 813.578 419.829 812.725C418.324 811.847 417.132 810.656 416.254 809.151C415.376 807.62 414.937 805.877 414.937 803.92C414.937 801.939 415.376 800.195 416.254 798.69C417.132 797.185 418.324 796.006 419.829 795.153C421.334 794.3 423.052 793.874 424.984 793.874C426.941 793.874 428.671 794.3 430.177 795.153C431.707 796.006 432.898 797.185 433.751 798.69C434.629 800.195 435.068 801.939 435.068 803.92C435.068 805.877 434.629 807.62 433.751 809.151C432.898 810.656 431.707 811.847 430.177 812.725C428.646 813.578 426.915 814.005 424.984 814.005ZM424.984 811.634C426.414 811.634 427.681 811.32 428.784 810.693C429.888 810.041 430.753 809.138 431.381 807.984C432.033 806.805 432.359 805.451 432.359 803.92C432.359 802.365 432.033 801.011 431.381 799.857C430.753 798.703 429.888 797.812 428.784 797.185C427.681 796.533 426.426 796.207 425.022 796.207C423.617 796.207 422.363 796.533 421.259 797.185C420.155 797.812 419.277 798.703 418.625 799.857C417.973 801.011 417.647 802.365 417.647 803.92C417.647 805.451 417.973 806.805 418.625 807.984C419.277 809.138 420.155 810.041 421.259 810.693C422.363 811.32 423.604 811.634 424.984 811.634ZM448.687 814.005C447.007 814.005 445.539 813.691 444.285 813.064C443.031 812.437 442.052 811.496 441.35 810.242C440.673 808.988 440.334 807.42 440.334 805.538V794.062H443.006V805.237C443.006 807.345 443.52 808.937 444.548 810.016C445.602 811.07 447.069 811.596 448.951 811.596C450.33 811.596 451.522 811.32 452.525 810.769C453.554 810.192 454.331 809.364 454.858 808.285C455.41 807.207 455.686 805.915 455.686 804.41V794.062H458.358V813.816H455.799V808.398L456.213 809.376C455.586 810.831 454.607 811.973 453.278 812.8C451.973 813.603 450.443 814.005 448.687 814.005ZM465.803 813.816V794.062H468.362V799.443L468.098 798.502C468.65 796.997 469.578 795.856 470.883 795.078C472.187 794.275 473.805 793.874 475.737 793.874V796.47C475.636 796.47 475.536 796.47 475.436 796.47C475.335 796.445 475.235 796.433 475.135 796.433C473.053 796.433 471.422 797.072 470.243 798.352C469.064 799.606 468.475 801.399 468.475 803.732V813.816H465.803ZM486.137 814.005C484.507 814.005 482.964 813.779 481.509 813.327C480.054 812.851 478.913 812.261 478.085 811.559L479.289 809.452C480.092 810.054 481.12 810.58 482.375 811.032C483.629 811.458 484.946 811.672 486.326 811.672C488.207 811.672 489.562 811.383 490.389 810.806C491.217 810.204 491.631 809.414 491.631 808.436C491.631 807.708 491.393 807.144 490.916 806.742C490.465 806.316 489.863 806.002 489.11 805.802C488.357 805.576 487.517 805.388 486.589 805.237C485.661 805.087 484.733 804.911 483.805 804.711C482.901 804.51 482.074 804.221 481.321 803.845C480.569 803.444 479.954 802.904 479.477 802.227C479.026 801.55 478.8 800.647 478.8 799.518C478.8 798.439 479.101 797.474 479.703 796.621C480.305 795.768 481.183 795.103 482.337 794.626C483.516 794.125 484.946 793.874 486.627 793.874C487.906 793.874 489.185 794.05 490.465 794.401C491.744 794.727 492.797 795.166 493.625 795.718L492.459 797.862C491.581 797.26 490.64 796.834 489.637 796.583C488.633 796.307 487.63 796.169 486.627 796.169C484.846 796.169 483.529 796.483 482.676 797.11C481.848 797.712 481.434 798.49 481.434 799.443C481.434 800.195 481.66 800.785 482.111 801.211C482.588 801.638 483.202 801.976 483.955 802.227C484.733 802.453 485.573 802.641 486.476 802.792C487.404 802.942 488.32 803.13 489.223 803.356C490.151 803.557 490.991 803.845 491.744 804.221C492.522 804.573 493.136 805.087 493.588 805.764C494.064 806.416 494.303 807.282 494.303 808.36C494.303 809.514 493.976 810.518 493.324 811.371C492.697 812.198 491.769 812.851 490.54 813.327C489.336 813.779 487.868 814.005 486.137 814.005ZM514.358 814.005C512.727 814.005 511.185 813.779 509.73 813.327C508.275 812.851 507.133 812.261 506.306 811.559L507.51 809.452C508.312 810.054 509.341 810.58 510.595 811.032C511.849 811.458 513.166 811.672 514.546 811.672C516.427 811.672 517.782 811.383 518.61 810.806C519.438 810.204 519.851 809.414 519.851 808.436C519.851 807.708 519.613 807.144 519.137 806.742C518.685 806.316 518.083 806.002 517.33 805.802C516.578 805.576 515.738 805.388 514.809 805.237C513.881 805.087 512.953 804.911 512.025 804.711C511.122 804.51 510.294 804.221 509.542 803.845C508.789 803.444 508.174 802.904 507.698 802.227C507.246 801.55 507.021 800.647 507.021 799.518C507.021 798.439 507.322 797.474 507.924 796.621C508.526 795.768 509.404 795.103 510.558 794.626C511.737 794.125 513.166 793.874 514.847 793.874C516.126 793.874 517.406 794.05 518.685 794.401C519.964 794.727 521.018 795.166 521.846 795.718L520.679 797.862C519.801 797.26 518.861 796.834 517.857 796.583C516.854 796.307 515.85 796.169 514.847 796.169C513.066 796.169 511.749 796.483 510.896 797.11C510.068 797.712 509.654 798.49 509.654 799.443C509.654 800.195 509.88 800.785 510.332 801.211C510.808 801.638 511.423 801.976 512.176 802.227C512.953 802.453 513.793 802.641 514.697 802.792C515.625 802.942 516.54 803.13 517.443 803.356C518.371 803.557 519.212 803.845 519.964 804.221C520.742 804.573 521.357 805.087 521.808 805.764C522.285 806.416 522.523 807.282 522.523 808.36C522.523 809.514 522.197 810.518 521.545 811.371C520.918 812.198 519.989 812.851 518.76 813.327C517.556 813.779 516.089 814.005 514.358 814.005ZM533.671 814.005C531.815 814.005 530.385 813.503 529.382 812.499C528.378 811.496 527.877 810.079 527.877 808.248V789.697H530.548V808.097C530.548 809.251 530.837 810.141 531.414 810.769C532.016 811.396 532.869 811.709 533.972 811.709C535.151 811.709 536.13 811.371 536.907 810.693L537.848 812.612C537.321 813.089 536.681 813.44 535.929 813.666C535.201 813.892 534.449 814.005 533.671 814.005ZM524.34 796.282V794.062H536.569V796.282H524.34ZM550.876 814.005C549.196 814.005 547.728 813.691 546.474 813.064C545.22 812.437 544.241 811.496 543.539 810.242C542.862 808.988 542.523 807.42 542.523 805.538V794.062H545.195V805.237C545.195 807.345 545.709 808.937 546.737 810.016C547.791 811.07 549.258 811.596 551.14 811.596C552.519 811.596 553.711 811.32 554.714 810.769C555.743 810.192 556.52 809.364 557.047 808.285C557.599 807.207 557.875 805.915 557.875 804.41V794.062H560.547V813.816H557.988V808.398L558.402 809.376C557.775 810.831 556.796 811.973 555.467 812.8C554.162 813.603 552.632 814.005 550.876 814.005ZM575.856 814.005C573.975 814.005 572.282 813.578 570.777 812.725C569.296 811.872 568.13 810.693 567.277 809.188C566.424 807.658 565.998 805.902 565.998 803.92C565.998 801.914 566.424 800.158 567.277 798.653C568.13 797.148 569.296 795.981 570.777 795.153C572.282 794.3 573.975 793.874 575.856 793.874C577.587 793.874 579.13 794.263 580.484 795.04C581.864 795.818 582.955 796.959 583.758 798.464C584.586 799.944 585 801.763 585 803.92C585 806.053 584.598 807.871 583.796 809.376C582.993 810.881 581.902 812.035 580.522 812.838C579.167 813.616 577.612 814.005 575.856 814.005ZM576.044 811.634C577.449 811.634 578.703 811.32 579.807 810.693C580.936 810.041 581.814 809.138 582.441 807.984C583.093 806.805 583.419 805.451 583.419 803.92C583.419 802.365 583.093 801.011 582.441 799.857C581.814 798.703 580.936 797.812 579.807 797.185C578.703 796.533 577.449 796.207 576.044 796.207C574.665 796.207 573.423 796.533 572.319 797.185C571.215 797.812 570.338 798.703 569.685 799.857C569.033 801.011 568.707 802.365 568.707 803.92C568.707 805.451 569.033 806.805 569.685 807.984C570.338 809.138 571.215 810.041 572.319 810.693C573.423 811.32 574.665 811.634 576.044 811.634ZM583.495 813.816V807.871L583.758 803.883L583.382 799.894V785.897H586.053V813.816H583.495ZM593.493 813.816V794.062H596.165V813.816H593.493ZM594.848 789.697C594.296 789.697 593.832 789.509 593.456 789.133C593.08 788.757 592.891 788.305 592.891 787.778C592.891 787.252 593.08 786.813 593.456 786.461C593.832 786.085 594.296 785.897 594.848 785.897C595.4 785.897 595.864 786.073 596.24 786.424C596.616 786.775 596.805 787.214 596.805 787.741C596.805 788.293 596.616 788.757 596.24 789.133C595.889 789.509 595.425 789.697 594.848 789.697ZM611.989 814.005C609.932 814.005 608.126 813.578 606.571 812.725C605.016 811.847 603.799 810.656 602.921 809.151C602.043 807.62 601.604 805.877 601.604 803.92C601.604 801.964 602.018 800.233 602.846 798.728C603.699 797.223 604.853 796.044 606.308 795.191C607.788 794.313 609.443 793.874 611.274 793.874C613.131 793.874 614.774 794.3 616.204 795.153C617.658 795.981 618.8 797.16 619.628 798.69C620.455 800.195 620.869 801.939 620.869 803.92C620.869 804.046 620.857 804.184 620.832 804.334C620.832 804.46 620.832 804.598 620.832 804.748H603.636V802.754H619.402L618.348 803.544C618.348 802.114 618.035 800.848 617.408 799.744C616.806 798.615 615.978 797.737 614.924 797.11C613.871 796.483 612.654 796.169 611.274 796.169C609.92 796.169 608.703 796.483 607.625 797.11C606.546 797.737 605.706 798.615 605.103 799.744C604.501 800.873 604.2 802.164 604.2 803.619V804.033C604.2 805.538 604.527 806.868 605.179 808.022C605.856 809.151 606.784 810.041 607.963 810.693C609.167 811.32 610.534 811.634 612.065 811.634C613.269 811.634 614.385 811.421 615.413 810.994C616.467 810.568 617.37 809.916 618.123 809.038L619.628 810.769C618.75 811.822 617.646 812.625 616.316 813.177C615.012 813.729 613.57 814.005 611.989 814.005ZM634.171 814.005C632.29 814.005 630.597 813.578 629.091 812.725C627.611 811.872 626.445 810.693 625.592 809.188C624.739 807.658 624.313 805.902 624.313 803.92C624.313 801.914 624.739 800.158 625.592 798.653C626.445 797.148 627.611 795.981 629.091 795.153C630.597 794.3 632.29 793.874 634.171 793.874C635.902 793.874 637.445 794.263 638.799 795.04C640.179 795.818 641.27 796.959 642.073 798.464C642.901 799.944 643.315 801.763 643.315 803.92C643.315 806.053 642.913 807.871 642.111 809.376C641.308 810.881 640.217 812.035 638.837 812.838C637.482 813.616 635.927 814.005 634.171 814.005ZM634.359 811.634C635.764 811.634 637.018 811.32 638.122 810.693C639.251 810.041 640.129 809.138 640.756 807.984C641.408 806.805 641.734 805.451 641.734 803.92C641.734 802.365 641.408 801.011 640.756 799.857C640.129 798.703 639.251 797.812 638.122 797.185C637.018 796.533 635.764 796.207 634.359 796.207C632.98 796.207 631.738 796.533 630.634 797.185C629.53 797.812 628.652 798.703 628 799.857C627.348 801.011 627.022 802.365 627.022 803.92C627.022 805.451 627.348 806.805 628 807.984C628.652 809.138 629.53 810.041 630.634 810.693C631.738 811.32 632.98 811.634 634.359 811.634ZM641.81 813.816V807.871L642.073 803.883L641.697 799.894V785.897H644.368V813.816H641.81Z" fill="#124012"/>
<path d="M28.2004 478.514V464.592H30.571V478.514H28.2004ZM40.3541 478.213V462.372H42.7622V480.997H16.4231V462.936H18.8312V478.213H40.3541ZM42.7622 459.953L31.9255 451.599L33.2425 451.637L23.0079 459.576V456.566L31.474 450.057L31.4364 451.185L23.0079 444.676V441.741L33.3554 449.756L31.9255 449.718L42.7622 441.289V444.337L33.7317 451.223L33.8822 450.17L42.7622 456.942V459.953ZM42.7622 424.831H38.3974L37.6825 424.944H30.3828C28.7021 424.944 27.4103 425.42 26.5072 426.374C25.6042 427.302 25.1526 428.694 25.1526 430.55C25.1526 431.829 25.3658 433.046 25.7923 434.2C26.2187 435.354 26.7831 436.332 27.4855 437.135L25.4913 438.339C24.6384 437.336 23.9862 436.132 23.5347 434.727C23.058 433.322 22.8197 431.842 22.8197 430.287C22.8197 427.728 23.4594 425.759 24.7387 424.379C25.993 422.975 27.912 422.272 30.4957 422.272H42.7622V424.831ZM42.9503 431.641C42.9503 433.121 42.712 434.413 42.2354 435.517C41.7337 436.596 41.0564 437.423 40.2036 438C39.3256 438.577 38.3222 438.866 37.1934 438.866C36.1649 438.866 35.2367 438.627 34.4089 438.151C33.5561 437.649 32.8788 436.846 32.3771 435.743C31.8503 434.614 31.5869 433.109 31.5869 431.227V424.417H33.5811V431.152C33.5811 433.059 33.9198 434.388 34.5971 435.141C35.2744 435.868 36.1147 436.232 37.1181 436.232C38.2469 436.232 39.15 435.793 39.8273 434.915C40.5046 434.037 40.8432 432.808 40.8432 431.227C40.8432 429.722 40.5046 428.43 39.8273 427.352C39.1249 426.248 38.1215 425.445 36.8171 424.944L38.6608 424.342C39.9652 424.843 41.0063 425.721 41.7839 426.976C42.5615 428.205 42.9503 429.76 42.9503 431.641ZM22.8197 390.332C22.8197 388.727 23.1333 387.335 23.7604 386.156C24.3625 384.952 25.2906 384.024 26.5448 383.371C27.7991 382.694 29.3794 382.355 31.2859 382.355H42.7622V385.027H31.5493C29.4672 385.027 27.8994 385.529 26.8459 386.532C25.7672 387.51 25.2279 388.903 25.2279 390.709C25.2279 392.063 25.5164 393.242 26.0933 394.246C26.6452 395.224 27.4604 395.989 28.5391 396.541C29.5926 397.068 30.872 397.331 32.3771 397.331H42.7622V400.003H31.5493C29.4672 400.003 27.8994 400.504 26.8459 401.508C25.7672 402.511 25.2279 403.916 25.2279 405.722C25.2279 407.051 25.5164 408.218 26.0933 409.221C26.6452 410.225 27.4604 411.002 28.5391 411.554C29.5926 412.081 30.872 412.344 32.3771 412.344H42.7622V415.016H23.0079V412.457H28.3509L27.4103 412.871C25.9804 412.269 24.8642 411.303 24.0614 409.974C23.2336 408.619 22.8197 407.026 22.8197 405.195C22.8197 403.264 23.3089 401.621 24.2872 400.266C25.2404 398.911 26.6828 398.033 28.6143 397.632L28.2004 398.686C26.595 398.109 25.3031 397.093 24.3248 395.638C23.3214 394.158 22.8197 392.389 22.8197 390.332ZM42.988 357.436C42.988 359.393 42.6744 361.274 42.0473 363.08C41.3951 364.861 40.5673 366.241 39.5639 367.219L37.4191 366.128C38.3222 365.2 39.0873 363.958 39.7144 362.403C40.3164 360.823 40.6175 359.167 40.6175 357.436C40.6175 355.781 40.4168 354.439 40.0154 353.41C39.589 352.356 39.0246 351.591 38.3222 351.115C37.6198 350.613 36.8422 350.362 35.9893 350.362C34.9608 350.362 34.133 350.663 33.5059 351.265C32.8788 351.842 32.3896 352.607 32.0384 353.561C31.6622 354.514 31.336 355.567 31.0601 356.721C30.7842 357.875 30.4957 359.029 30.1947 360.183C29.8686 361.337 29.4421 362.403 28.9154 363.381C28.3886 364.335 27.6987 365.112 26.8459 365.714C25.9679 366.291 24.8265 366.58 23.4218 366.58C22.1174 366.58 20.9258 366.241 19.8472 365.564C18.7434 364.861 17.8655 363.795 17.2133 362.365C16.536 360.936 16.1973 359.104 16.1973 356.872C16.1973 355.392 16.4106 353.924 16.837 352.469C17.2384 351.014 17.8028 349.76 18.5302 348.707L20.7502 349.647C19.9977 350.776 19.4458 351.98 19.0946 353.26C18.7434 354.514 18.5679 355.73 18.5679 356.909C18.5679 358.49 18.7811 359.794 19.2075 360.823C19.634 361.851 20.2109 362.616 20.9384 363.118C21.6407 363.594 22.4435 363.833 23.3465 363.833C24.375 363.833 25.2028 363.544 25.8299 362.967C26.457 362.365 26.9462 361.588 27.2974 360.634C27.6486 359.656 27.9621 358.59 28.2381 357.436C28.514 356.282 28.815 355.141 29.1411 354.012C29.4672 352.858 29.8937 351.805 30.4205 350.851C30.9221 349.873 31.5994 349.095 32.4523 348.518C33.3052 347.916 34.4215 347.615 35.8012 347.615C37.0805 347.615 38.272 347.967 39.3757 348.669C40.4544 349.371 41.3324 350.45 42.0097 351.905C42.6619 353.335 42.988 355.179 42.988 357.436ZM42.9503 333.91C42.9503 335.867 42.5239 337.623 41.671 339.178C40.793 340.708 39.6015 341.912 38.0964 342.79C36.5662 343.668 34.8228 344.107 32.8662 344.107C30.8845 344.107 29.1411 343.668 27.636 342.79C26.1309 341.912 24.9519 340.708 24.0991 339.178C23.2462 337.623 22.8197 335.867 22.8197 333.91C22.8197 332.23 23.1458 330.712 23.798 329.357C24.4503 328.003 25.4286 326.937 26.733 326.159L28.0876 328.153C27.0842 328.831 26.3442 329.671 25.8675 330.674C25.3909 331.678 25.1526 332.769 25.1526 333.948C25.1526 335.353 25.4787 336.619 26.1309 337.748C26.7581 338.877 27.6486 339.768 28.8025 340.42C29.9564 341.072 31.311 341.398 32.8662 341.398C34.4215 341.398 35.7761 341.072 36.93 340.42C38.0839 339.768 38.9869 338.877 39.6391 337.748C40.2663 336.619 40.5798 335.353 40.5798 333.948C40.5798 332.769 40.3415 331.678 39.8649 330.674C39.3883 329.671 38.6608 328.831 37.6825 328.153L39.0371 326.159C40.3164 326.937 41.2947 328.003 41.972 329.357C42.6242 330.712 42.9503 332.23 42.9503 333.91ZM42.9503 313.189C42.9503 315.096 42.5239 316.814 41.671 318.344C40.793 319.849 39.6015 321.041 38.0964 321.919C36.5662 322.797 34.8228 323.236 32.8662 323.236C30.8845 323.236 29.1411 322.797 27.636 321.919C26.1309 321.041 24.9519 319.849 24.0991 318.344C23.2462 316.839 22.8197 315.121 22.8197 313.189C22.8197 311.233 23.2462 309.502 24.0991 307.997C24.9519 306.467 26.1309 305.275 27.636 304.422C29.1411 303.544 30.8845 303.105 32.8662 303.105C34.8228 303.105 36.5662 303.544 38.0964 304.422C39.6015 305.275 40.793 306.467 41.671 307.997C42.5239 309.527 42.9503 311.258 42.9503 313.189ZM40.5798 313.189C40.5798 311.76 40.2663 310.493 39.6391 309.389C38.9869 308.285 38.0839 307.42 36.93 306.793C35.751 306.141 34.3964 305.814 32.8662 305.814C31.311 305.814 29.9564 306.141 28.8025 306.793C27.6486 307.42 26.7581 308.285 26.1309 309.389C25.4787 310.493 25.1526 311.747 25.1526 313.152C25.1526 314.557 25.4787 315.811 26.1309 316.915C26.7581 318.018 27.6486 318.896 28.8025 319.548C29.9564 320.201 31.311 320.527 32.8662 320.527C34.3964 320.527 35.751 320.201 36.93 319.548C38.0839 318.896 38.9869 318.018 39.6391 316.915C40.2663 315.811 40.5798 314.569 40.5798 313.189ZM42.7622 297.651H23.0079V295.092H28.3886L27.4479 295.356C25.9428 294.804 24.8014 293.876 24.0238 292.571C23.2211 291.267 22.8197 289.649 22.8197 287.717H25.416C25.416 287.818 25.416 287.918 25.416 288.018C25.3909 288.119 25.3784 288.219 25.3784 288.32C25.3784 290.402 26.0181 292.032 27.2974 293.211C28.5516 294.39 30.3452 294.98 32.6781 294.98H42.7622V297.651ZM42.9503 274.636C42.9503 276.692 42.5239 278.499 41.671 280.054C40.793 281.609 39.6015 282.826 38.0964 283.704C36.5662 284.582 34.8228 285.021 32.8662 285.021C30.9096 285.021 29.1787 284.607 27.6737 283.779C26.1686 282.926 24.9896 281.772 24.1367 280.317C23.2587 278.837 22.8197 277.182 22.8197 275.35C22.8197 273.494 23.2462 271.851 24.0991 270.421C24.9269 268.966 26.1059 267.825 27.636 266.997C29.1411 266.169 30.8845 265.755 32.8662 265.755C32.9916 265.755 33.1296 265.768 33.2801 265.793C33.4056 265.793 33.5435 265.793 33.694 265.793V282.989H31.6998L31.6998 267.223L32.49 268.277C31.0601 268.277 29.7933 268.59 28.6896 269.217C27.5608 269.819 26.6828 270.647 26.0557 271.701C25.4286 272.754 25.115 273.971 25.115 275.35C25.115 276.705 25.4286 277.922 26.0557 279C26.6828 280.079 27.5608 280.919 28.6896 281.521C29.8184 282.123 31.1103 282.424 32.5652 282.424H32.9791C34.4842 282.424 35.8137 282.098 36.9676 281.446C38.0964 280.769 38.9869 279.841 39.6391 278.662C40.2663 277.458 40.5798 276.09 40.5798 274.56C40.5798 273.356 40.3666 272.24 39.9402 271.211C39.5137 270.158 38.8615 269.255 37.9835 268.502L39.7144 266.997C40.768 267.875 41.5707 268.979 42.1225 270.308C42.6744 271.613 42.9503 273.055 42.9503 274.636Z" fill="#124012"/>
<path d="M908.524 460.369C909.353 460.118 909.82 459.242 909.569 458.414C909.317 457.585 908.441 457.118 907.613 457.369L908.524 460.369ZM166.521 685.828L908.524 460.369L907.613 457.369L165.61 682.828L166.521 685.828Z" fill="#7CBC7A"/>
<circle cx="337.482" cy="91.3392" r="7.83902" fill="#D9D9D9" stroke="#124012" stroke-width="3.13561"/>
<circle cx="375.109" cy="132.102" r="7.83902" fill="#D9D9D9" stroke="#124012" stroke-width="3.13561"/>
<circle cx="475.449" cy="132.102" r="7.83902" fill="#D9D9D9" stroke="#124012" stroke-width="3.13561"/>
<circle cx="475.449" cy="100.746" r="7.83902" fill="#D9D9D9" stroke="#124012" stroke-width="3.13561"/>
<circle cx="503.67" cy="103.882" r="7.83902" fill="#D9D9D9" stroke="#124012" stroke-width="3.13561"/>
<circle cx="513.076" cy="141.509" r="7.83902" fill="#D9D9D9" stroke="#124012" stroke-width="3.13561"/>
<circle cx="531.89" cy="172.865" r="7.83902" fill="#D9D9D9" stroke="#124012" stroke-width="3.13561"/>
<circle cx="466.042" cy="191.679" r="7.83902" fill="#D9D9D9" stroke="#124012" stroke-width="3.13561"/>
<circle cx="409.601" cy="213.628" r="7.83902" fill="#D9D9D9" stroke="#124012" stroke-width="3.13561"/>
<circle cx="475.449" cy="235.577" r="7.83902" fill="#D9D9D9" stroke="#124012" stroke-width="3.13561"/>
<circle cx="412.737" cy="257.527" r="7.83902" fill="#D9D9D9" stroke="#124012" stroke-width="3.13561"/>
<circle cx="284.177" cy="429.998" r="7.83902" fill="#D9D9D9" stroke="#124012" stroke-width="3.13561"/>
<circle cx="284.177" cy="624.405" r="7.83902" fill="#D9D9D9" stroke="#124012" stroke-width="3.13561"/>
<circle cx="409.601" cy="574.235" r="7.83902" fill="#D9D9D9" stroke="#124012" stroke-width="3.13561"/>
<circle cx="535.025" cy="571.1" r="7.83902" fill="#D9D9D9" stroke="#124012" stroke-width="3.13561"/>
<circle cx="607.144" cy="511.524" r="7.83902" fill="#D9D9D9" stroke="#124012" stroke-width="3.13561"/>
<circle cx="638.501" cy="266.946" r="7.83902" fill="#D9D9D9" stroke="#124012" stroke-width="3.13561"/>
<circle cx="635.365" cy="119.572" r="7.83902" fill="#D9D9D9" stroke="#124012" stroke-width="3.13561"/>
<circle cx="556.975" cy="254.403" r="7.83902" fill="#D9D9D9" stroke="#124012" stroke-width="3.13561"/>
<circle cx="447.228" cy="323.387" r="7.83902" fill="#D9D9D9" stroke="#124012" stroke-width="3.13561"/>
<circle cx="387.652" cy="389.235" r="7.83902" fill="#D9D9D9" stroke="#124012" stroke-width="3.13561"/>
<circle cx="428.415" cy="448.811" r="7.83902" fill="#D9D9D9" stroke="#124012" stroke-width="3.13561"/>
<circle cx="666.721" cy="226.183" r="7.83902" fill="#D9D9D9" stroke="#124012" stroke-width="3.13561"/>
<circle cx="572.653" cy="85.0805" r="7.83902" fill="#D9D9D9" stroke="#124012" stroke-width="3.13561"/>
<circle cx="224.6" cy="517.794" r="7.83902" fill="#D9D9D9" stroke="#124012" stroke-width="3.13561"/>
<circle cx="378.245" cy="304.561" r="7.83902" fill="#D9D9D9" stroke="#124012" stroke-width="3.13561"/>
<circle cx="224.6" cy="392.37" r="7.83902" fill="#D9D9D9" stroke="#124012" stroke-width="3.13561"/>
<circle cx="597.738" cy="417.442" r="7.83902" fill="#D9D9D9" stroke="#124012" stroke-width="3.13561"/>
<circle cx="647.908" cy="417.442" r="7.83902" fill="#D9D9D9" stroke="#124012" stroke-width="3.13561"/>
<circle cx="657.314" cy="389.222" r="7.83902" fill="#D9D9D9" stroke="#124012" stroke-width="3.13561"/>
<circle cx="616.551" cy="389.222" r="7.83902" fill="#D9D9D9" stroke="#124012" stroke-width="3.13561"/>
<circle cx="607.144" cy="323.374" r="7.83902" fill="#D9D9D9" stroke="#124012" stroke-width="3.13561"/>
<circle cx="694.942" cy="295.154" r="7.83902" fill="#D9D9D9" stroke="#124012" stroke-width="3.13561"/>
<circle cx="723.162" cy="244.984" r="7.83902" fill="#D9D9D9" stroke="#124012" stroke-width="3.13561"/>
<circle cx="723.162" cy="182.272" r="7.83902" fill="#D9D9D9" stroke="#124012" stroke-width="3.13561"/>
<circle cx="513.076" cy="379.815" r="7.83902" fill="#D9D9D9" stroke="#124012" stroke-width="3.13561"/>
<circle cx="494.263" cy="461.341" r="7.83902" fill="#D9D9D9" stroke="#124012" stroke-width="3.13561"/>
<circle cx="324.94" cy="216.764" r="7.83902" fill="#D9D9D9" stroke="#124012" stroke-width="3.13561"/>
<circle cx="346.889" cy="172.865" r="7.83902" fill="#D9D9D9" stroke="#124012" stroke-width="3.13561"/>
<circle cx="284.177" cy="157.187" r="7.83902" fill="#D9D9D9" stroke="#124012" stroke-width="3.13561"/>
<path d="M161.8 742.129C159.768 742.129 157.962 741.602 156.382 740.549C154.801 739.47 153.56 737.94 152.657 735.958C151.754 733.951 151.302 731.543 151.302 728.734C151.302 725.924 151.754 723.529 152.657 721.547C153.56 719.54 154.801 718.01 156.382 716.956C157.962 715.878 159.768 715.338 161.8 715.338C163.832 715.338 165.638 715.878 167.218 716.956C168.799 718.01 170.04 719.54 170.944 721.547C171.872 723.529 172.336 725.924 172.336 728.734C172.336 731.543 171.872 733.951 170.944 735.958C170.04 737.94 168.799 739.47 167.218 740.549C165.638 741.602 163.832 742.129 161.8 742.129ZM161.8 739.646C163.355 739.646 164.71 739.232 165.864 738.404C167.018 737.551 167.921 736.322 168.573 734.717C169.225 733.086 169.551 731.092 169.551 728.734C169.551 726.376 169.225 724.394 168.573 722.789C167.921 721.158 167.018 719.929 165.864 719.101C164.71 718.248 163.355 717.822 161.8 717.822C160.295 717.822 158.953 718.248 157.774 719.101C156.595 719.929 155.679 721.158 155.027 722.789C154.375 724.394 154.049 726.376 154.049 728.734C154.049 731.092 154.375 733.086 155.027 734.717C155.679 736.322 156.595 737.551 157.774 738.404C158.953 739.232 160.295 739.646 161.8 739.646Z" fill="black"/>
<path d="M266.831 741.903V739.984L277.78 729.26C278.783 728.282 279.536 727.429 280.038 726.702C280.539 725.949 280.878 725.247 281.054 724.595C281.229 723.942 281.317 723.328 281.317 722.751C281.317 721.221 280.79 720.017 279.737 719.139C278.708 718.261 277.178 717.822 275.146 717.822C273.591 717.822 272.211 718.06 271.007 718.537C269.828 719.013 268.812 719.753 267.959 720.757L266.04 719.101C267.069 717.897 268.386 716.969 269.991 716.317C271.597 715.664 273.39 715.338 275.372 715.338C277.153 715.338 278.696 715.627 280 716.204C281.304 716.756 282.308 717.571 283.01 718.65C283.738 719.728 284.101 720.995 284.101 722.45C284.101 723.303 283.976 724.143 283.725 724.971C283.499 725.799 283.073 726.677 282.446 727.605C281.844 728.508 280.953 729.536 279.774 730.69L269.728 740.549L268.975 739.495H285.306V741.903H266.831ZM299.13 742.129C297.098 742.129 295.292 741.602 293.712 740.549C292.131 739.47 290.89 737.94 289.987 735.958C289.084 733.951 288.632 731.543 288.632 728.734C288.632 725.924 289.084 723.529 289.987 721.547C290.89 719.54 292.131 718.01 293.712 716.956C295.292 715.878 297.098 715.338 299.13 715.338C301.162 715.338 302.968 715.878 304.548 716.956C306.129 718.01 307.37 719.54 308.273 721.547C309.202 723.529 309.666 725.924 309.666 728.734C309.666 731.543 309.202 733.951 308.273 735.958C307.37 737.94 306.129 739.47 304.548 740.549C302.968 741.602 301.162 742.129 299.13 742.129ZM299.13 739.646C300.685 739.646 302.04 739.232 303.194 738.404C304.348 737.551 305.251 736.322 305.903 734.716C306.555 733.086 306.881 731.092 306.881 728.734C306.881 726.376 306.555 724.394 305.903 722.789C305.251 721.158 304.348 719.929 303.194 719.101C302.04 718.248 300.685 717.822 299.13 717.822C297.625 717.822 296.283 718.248 295.104 719.101C293.925 719.929 293.009 721.158 292.357 722.789C291.705 724.394 291.379 726.376 291.379 728.734C291.379 731.092 291.705 733.086 292.357 734.716C293.009 736.322 293.925 737.551 295.104 738.404C296.283 739.232 297.625 739.646 299.13 739.646Z" fill="black"/>
<path d="M401.699 734.98V733.023L415.659 715.564H418.669L404.822 733.023L403.355 732.572H424.539V734.98H401.699ZM416.562 741.903V734.98L416.637 732.572V726.476H419.271V741.903H416.562ZM437.525 742.129C435.494 742.129 433.687 741.602 432.107 740.549C430.527 739.47 429.285 737.94 428.382 735.958C427.479 733.951 427.027 731.543 427.027 728.734C427.027 725.924 427.479 723.529 428.382 721.547C429.285 719.54 430.527 718.01 432.107 716.956C433.687 715.878 435.494 715.338 437.525 715.338C439.557 715.338 441.363 715.878 442.944 716.956C444.524 718.01 445.766 719.54 446.669 721.547C447.597 723.529 448.061 725.924 448.061 728.734C448.061 731.543 447.597 733.951 446.669 735.958C445.766 737.94 444.524 739.47 442.944 740.549C441.363 741.602 439.557 742.129 437.525 742.129ZM437.525 739.646C439.081 739.646 440.435 739.232 441.589 738.404C442.743 737.551 443.646 736.322 444.298 734.716C444.95 733.086 445.277 731.092 445.277 728.734C445.277 726.376 444.95 724.394 444.298 722.789C443.646 721.158 442.743 719.929 441.589 719.101C440.435 718.248 439.081 717.822 437.525 717.822C436.02 717.822 434.678 718.248 433.499 719.101C432.32 719.929 431.405 721.158 430.752 722.789C430.1 724.394 429.774 726.376 429.774 728.734C429.774 731.092 430.1 733.086 430.752 734.716C431.405 736.322 432.32 737.551 433.499 738.404C434.678 739.232 436.02 739.646 437.525 739.646Z" fill="black"/>
<path d="M547.781 742.129C545.448 742.129 543.479 741.615 541.873 740.586C540.268 739.533 539.051 738.028 538.223 736.071C537.396 734.089 536.982 731.719 536.982 728.959C536.982 725.974 537.483 723.478 538.487 721.472C539.515 719.44 540.933 717.91 542.739 716.881C544.545 715.853 546.639 715.338 549.023 715.338C550.201 715.338 551.33 715.451 552.409 715.677C553.488 715.903 554.441 716.266 555.269 716.768L554.177 718.951C553.5 718.499 552.723 718.185 551.845 718.01C550.967 717.809 550.038 717.709 549.06 717.709C546.226 717.709 543.955 718.612 542.25 720.418C540.569 722.224 539.729 724.921 539.729 728.508C539.729 729.06 539.754 729.75 539.804 730.577C539.879 731.38 540.03 732.183 540.255 732.986L539.315 732.271C539.591 730.966 540.13 729.862 540.933 728.959C541.735 728.031 542.739 727.329 543.943 726.852C545.147 726.376 546.464 726.137 547.894 726.137C549.65 726.137 551.192 726.463 552.522 727.116C553.851 727.768 554.892 728.683 555.645 729.862C556.397 731.041 556.774 732.434 556.774 734.039C556.774 735.67 556.385 737.099 555.607 738.329C554.83 739.533 553.751 740.473 552.371 741.151C551.017 741.803 549.487 742.129 547.781 742.129ZM547.668 739.834C548.922 739.834 550.026 739.608 550.979 739.156C551.957 738.68 552.723 738.015 553.274 737.162C553.826 736.284 554.102 735.268 554.102 734.114C554.102 732.383 553.5 731.004 552.296 729.975C551.117 728.947 549.512 728.433 547.48 728.433C546.125 728.433 544.946 728.683 543.943 729.185C542.939 729.687 542.149 730.377 541.572 731.255C540.995 732.108 540.707 733.086 540.707 734.19C540.707 735.143 540.97 736.058 541.497 736.936C542.024 737.789 542.801 738.492 543.83 739.044C544.884 739.57 546.163 739.834 547.668 739.834ZM570.409 742.129C568.377 742.129 566.571 741.602 564.991 740.549C563.41 739.47 562.169 737.94 561.265 735.958C560.362 733.951 559.911 731.543 559.911 728.734C559.911 725.924 560.362 723.529 561.265 721.547C562.169 719.54 563.41 718.01 564.991 716.956C566.571 715.878 568.377 715.338 570.409 715.338C572.441 715.338 574.247 715.878 575.827 716.956C577.408 718.01 578.649 719.54 579.552 721.547C580.48 723.529 580.945 725.924 580.945 728.734C580.945 731.543 580.48 733.951 579.552 735.958C578.649 737.94 577.408 739.47 575.827 740.549C574.247 741.602 572.441 742.129 570.409 742.129ZM570.409 739.646C571.964 739.646 573.319 739.232 574.473 738.404C575.627 737.551 576.53 736.322 577.182 734.716C577.834 733.086 578.16 731.092 578.16 728.734C578.16 726.376 577.834 724.394 577.182 722.789C576.53 721.158 575.627 719.929 574.473 719.101C573.319 718.248 571.964 717.822 570.409 717.822C568.904 717.822 567.562 718.248 566.383 719.101C565.204 719.929 564.288 721.158 563.636 722.789C562.984 724.394 562.658 726.376 562.658 728.734C562.658 731.092 562.984 733.086 563.636 734.716C564.288 736.322 565.204 737.551 566.383 738.404C567.562 739.232 568.904 739.646 570.409 739.646Z" fill="black"/>
<path d="M681.822 742.129C679.715 742.129 677.896 741.828 676.366 741.226C674.861 740.624 673.694 739.758 672.867 738.63C672.064 737.476 671.663 736.121 671.663 734.566C671.663 733.061 672.051 731.781 672.829 730.728C673.632 729.649 674.786 728.821 676.291 728.244C677.821 727.668 679.665 727.379 681.822 727.379C683.954 727.379 685.785 727.668 687.316 728.244C688.846 728.821 690.012 729.649 690.815 730.728C691.643 731.781 692.057 733.061 692.057 734.566C692.057 736.121 691.643 737.476 690.815 738.63C689.987 739.758 688.808 740.624 687.278 741.226C685.748 741.828 683.929 742.129 681.822 742.129ZM681.822 739.834C684.155 739.834 685.973 739.357 687.278 738.404C688.607 737.451 689.272 736.159 689.272 734.528C689.272 732.898 688.607 731.618 687.278 730.69C685.973 729.737 684.155 729.26 681.822 729.26C679.489 729.26 677.67 729.737 676.366 730.69C675.062 731.618 674.409 732.898 674.409 734.528C674.409 736.159 675.062 737.451 676.366 738.404C677.67 739.357 679.489 739.834 681.822 739.834ZM681.822 728.922C679.865 728.922 678.197 728.658 676.817 728.132C675.463 727.605 674.422 726.852 673.694 725.874C672.967 724.871 672.603 723.679 672.603 722.299C672.603 720.844 672.98 719.603 673.732 718.574C674.51 717.521 675.588 716.718 676.968 716.166C678.348 715.614 679.966 715.338 681.822 715.338C683.678 715.338 685.296 715.614 686.676 716.166C688.081 716.718 689.172 717.521 689.949 718.574C690.727 719.603 691.116 720.844 691.116 722.299C691.116 723.679 690.752 724.871 690.025 725.874C689.297 726.852 688.231 727.605 686.826 728.132C685.447 728.658 683.779 728.922 681.822 728.922ZM681.822 727.116C683.879 727.116 685.484 726.689 686.638 725.836C687.792 724.983 688.369 723.842 688.369 722.412C688.369 720.907 687.767 719.741 686.563 718.913C685.384 718.06 683.804 717.634 681.822 717.634C679.84 717.634 678.26 718.06 677.081 718.913C675.902 719.741 675.312 720.895 675.312 722.375C675.312 723.83 675.877 724.983 677.006 725.836C678.16 726.689 679.765 727.116 681.822 727.116ZM706.306 742.129C704.274 742.129 702.468 741.602 700.888 740.549C699.307 739.47 698.065 737.94 697.162 735.958C696.259 733.951 695.808 731.543 695.808 728.734C695.808 725.924 696.259 723.529 697.162 721.547C698.065 719.54 699.307 718.01 700.888 716.956C702.468 715.878 704.274 715.338 706.306 715.338C708.338 715.338 710.144 715.878 711.724 716.956C713.305 718.01 714.546 719.54 715.449 721.547C716.377 723.529 716.841 725.924 716.841 728.734C716.841 731.543 716.377 733.951 715.449 735.958C714.546 737.94 713.305 739.47 711.724 740.549C710.144 741.602 708.338 742.129 706.306 742.129ZM706.306 739.646C707.861 739.646 709.216 739.232 710.37 738.404C711.523 737.551 712.427 736.322 713.079 734.716C713.731 733.086 714.057 731.092 714.057 728.734C714.057 726.376 713.731 724.394 713.079 722.789C712.427 721.158 711.523 719.929 710.37 719.101C709.216 718.248 707.861 717.822 706.306 717.822C704.801 717.822 703.459 718.248 702.28 719.101C701.101 719.929 700.185 721.158 699.533 722.789C698.881 724.394 698.555 726.376 698.555 728.734C698.555 731.092 698.881 733.086 699.533 734.716C700.185 736.322 701.101 737.551 702.28 738.404C703.459 739.232 704.801 739.646 706.306 739.646Z" fill="black"/>
<path d="M832.991 741.903V716.693L834.195 717.972H826.782V715.564H835.7V741.903H832.991ZM852.494 742.129C850.462 742.129 848.656 741.602 847.076 740.549C845.495 739.47 844.254 737.94 843.351 735.958C842.448 733.951 841.996 731.543 841.996 728.734C841.996 725.924 842.448 723.529 843.351 721.547C844.254 719.54 845.495 718.01 847.076 716.956C848.656 715.878 850.462 715.338 852.494 715.338C854.526 715.338 856.332 715.878 857.912 716.956C859.493 718.01 860.734 719.54 861.637 721.547C862.566 723.529 863.03 725.924 863.03 728.734C863.03 731.543 862.566 733.951 861.637 735.958C860.734 737.94 859.493 739.47 857.912 740.549C856.332 741.602 854.526 742.129 852.494 742.129ZM852.494 739.646C854.049 739.646 855.404 739.232 856.558 738.404C857.712 737.551 858.615 736.322 859.267 734.716C859.919 733.086 860.245 731.092 860.245 728.734C860.245 726.376 859.919 724.394 859.267 722.789C858.615 721.158 857.712 719.929 856.558 719.101C855.404 718.248 854.049 717.822 852.494 717.822C850.989 717.822 849.647 718.248 848.468 719.101C847.289 719.929 846.373 721.158 845.721 722.789C845.069 724.394 844.743 726.376 844.743 728.734C844.743 731.092 845.069 733.086 845.721 734.716C846.373 736.322 847.289 737.551 848.468 738.404C849.647 739.232 850.989 739.646 852.494 739.646ZM877.407 742.129C875.376 742.129 873.569 741.602 871.989 740.549C870.409 739.47 869.167 737.94 868.264 735.958C867.361 733.951 866.909 731.543 866.909 728.734C866.909 725.924 867.361 723.529 868.264 721.547C869.167 719.54 870.409 718.01 871.989 716.956C873.569 715.878 875.376 715.338 877.407 715.338C879.439 715.338 881.245 715.878 882.826 716.956C884.406 718.01 885.648 719.54 886.551 721.547C887.479 723.529 887.943 725.924 887.943 728.734C887.943 731.543 887.479 733.951 886.551 735.958C885.648 737.94 884.406 739.47 882.826 740.549C881.245 741.602 879.439 742.129 877.407 742.129ZM877.407 739.646C878.963 739.646 880.317 739.232 881.471 738.404C882.625 737.551 883.528 736.322 884.18 734.716C884.833 733.086 885.159 731.092 885.159 728.734C885.159 726.376 884.833 724.394 884.18 722.789C883.528 721.158 882.625 719.929 881.471 719.101C880.317 718.248 878.963 717.822 877.407 717.822C875.902 717.822 874.56 718.248 873.381 719.101C872.202 719.929 871.287 721.158 870.635 722.789C869.982 724.394 869.656 726.376 869.656 728.734C869.656 731.092 869.982 733.086 870.635 734.716C871.287 736.322 872.202 737.551 873.381 738.404C874.56 739.232 875.902 739.646 877.407 739.646Z" fill="black"/>
<path d="M79.6264 620.742V618.823L90.5759 608.099C91.5793 607.12 92.3319 606.268 92.8336 605.54C93.3353 604.788 93.6739 604.085 93.8495 603.433C94.0251 602.781 94.1129 602.166 94.1129 601.589C94.1129 600.059 93.5861 598.855 92.5326 597.977C91.5041 597.099 89.9739 596.66 87.942 596.66C86.3868 596.66 85.0071 596.898 83.803 597.375C82.624 597.852 81.6081 598.592 80.7552 599.595L78.8362 597.939C79.8647 596.735 81.1817 595.807 82.7871 595.155C84.3925 594.503 86.1861 594.177 88.1678 594.177C89.9488 594.177 91.4915 594.465 92.796 595.042C94.1004 595.594 95.1038 596.409 95.8061 597.488C96.5336 598.567 96.8973 599.833 96.8973 601.288C96.8973 602.141 96.7719 602.981 96.5211 603.809C96.2953 604.637 95.8689 605.515 95.2417 606.443C94.6397 607.346 93.7492 608.375 92.5702 609.529L82.5237 619.387L81.7712 618.333H98.1014V620.742H79.6264ZM111.926 620.967C109.894 620.967 108.088 620.441 106.508 619.387C104.927 618.308 103.686 616.778 102.782 614.796C101.879 612.79 101.428 610.382 101.428 607.572C101.428 604.763 101.879 602.367 102.782 600.385C103.686 598.378 104.927 596.848 106.508 595.795C108.088 594.716 109.894 594.177 111.926 594.177C113.958 594.177 115.764 594.716 117.344 595.795C118.925 596.848 120.166 598.378 121.069 600.385C121.997 602.367 122.462 604.763 122.462 607.572C122.462 610.382 121.997 612.79 121.069 614.796C120.166 616.778 118.925 618.308 117.344 619.387C115.764 620.441 113.958 620.967 111.926 620.967ZM111.926 618.484C113.481 618.484 114.836 618.07 115.99 617.242C117.144 616.389 118.047 615.16 118.699 613.555C119.351 611.924 119.677 609.93 119.677 607.572C119.677 605.214 119.351 603.232 118.699 601.627C118.047 599.996 117.144 598.767 115.99 597.939C114.836 597.087 113.481 596.66 111.926 596.66C110.421 596.66 109.079 597.087 107.9 597.939C106.721 598.767 105.805 599.996 105.153 601.627C104.501 603.232 104.175 605.214 104.175 607.572C104.175 609.93 104.501 611.924 105.153 613.555C105.805 615.16 106.721 616.389 107.9 617.242C109.079 618.07 110.421 618.484 111.926 618.484Z" fill="black"/>
<path d="M79.664 472.406V470.45L93.6238 452.991H96.6339L82.7871 470.45L81.3196 469.998H102.504V472.406H79.664ZM94.5268 479.33V472.406L94.6021 469.998V463.903H97.236V479.33H94.5268ZM115.49 479.555C113.458 479.555 111.652 479.029 110.072 477.975C108.492 476.896 107.25 475.366 106.347 473.385C105.444 471.378 104.992 468.97 104.992 466.16C104.992 463.351 105.444 460.955 106.347 458.973C107.25 456.967 108.492 455.436 110.072 454.383C111.652 453.304 113.458 452.765 115.49 452.765C117.522 452.765 119.328 453.304 120.909 454.383C122.489 455.436 123.731 456.967 124.634 458.973C125.562 460.955 126.026 463.351 126.026 466.16C126.026 468.97 125.562 471.378 124.634 473.385C123.731 475.366 122.489 476.896 120.909 477.975C119.328 479.029 117.522 479.555 115.49 479.555ZM115.49 477.072C117.045 477.072 118.4 476.658 119.554 475.83C120.708 474.977 121.611 473.748 122.263 472.143C122.915 470.512 123.241 468.518 123.241 466.16C123.241 463.802 122.915 461.82 122.263 460.215C121.611 458.585 120.708 457.355 119.554 456.528C118.4 455.675 117.045 455.248 115.49 455.248C113.985 455.248 112.643 455.675 111.464 456.528C110.285 457.355 109.37 458.585 108.717 460.215C108.065 461.82 107.739 463.802 107.739 466.16C107.739 468.518 108.065 470.512 108.717 472.143C109.37 473.748 110.285 474.977 111.464 475.83C112.643 476.658 113.985 477.072 115.49 477.072Z" fill="black"/>
<path d="M89.4468 339.698C87.1139 339.698 85.1448 339.183 83.5393 338.155C81.9339 337.101 80.7173 335.596 79.8895 333.64C79.0617 331.658 78.6478 329.287 78.6478 326.528C78.6478 323.543 79.1495 321.047 80.1529 319.04C81.1814 317.008 82.5986 315.478 84.4048 314.45C86.2109 313.421 88.3055 312.907 90.6885 312.907C91.8675 312.907 92.9963 313.02 94.075 313.246C95.1536 313.471 96.1069 313.835 96.9347 314.337L95.8435 316.519C95.1662 316.068 94.3885 315.754 93.5106 315.578C92.6326 315.378 91.7045 315.277 90.7261 315.277C87.8916 315.277 85.6214 316.18 83.9156 317.987C82.2349 319.793 81.3946 322.489 81.3946 326.076C81.3946 326.628 81.4197 327.318 81.4698 328.146C81.5451 328.949 81.6956 329.751 81.9214 330.554L80.9807 329.839C81.2566 328.535 81.7959 327.431 82.5986 326.528C83.4014 325.6 84.4048 324.897 85.6088 324.421C86.8129 323.944 88.1299 323.706 89.5597 323.706C91.3156 323.706 92.8584 324.032 94.1879 324.684C95.5174 325.336 96.5584 326.252 97.3109 327.431C98.0635 328.61 98.4397 330.002 98.4397 331.608C98.4397 333.238 98.0509 334.668 97.2733 335.897C96.4957 337.101 95.417 338.042 94.0374 338.719C92.6828 339.371 91.1526 339.698 89.4468 339.698ZM89.3339 337.402C90.5882 337.402 91.6919 337.177 92.6451 336.725C93.6234 336.248 94.3885 335.584 94.9404 334.731C95.4923 333.853 95.7682 332.837 95.7682 331.683C95.7682 329.952 95.1662 328.572 93.9621 327.544C92.7831 326.515 91.1777 326.001 89.1458 326.001C87.7912 326.001 86.6122 326.252 85.6088 326.754C84.6054 327.255 83.8153 327.945 83.2383 328.823C82.6614 329.676 82.3729 330.654 82.3729 331.758C82.3729 332.711 82.6363 333.627 83.1631 334.505C83.6898 335.358 84.4675 336.06 85.496 336.612C86.5495 337.139 87.8288 337.402 89.3339 337.402ZM112.075 339.698C110.043 339.698 108.237 339.171 106.657 338.117C105.076 337.039 103.835 335.508 102.932 333.527C102.028 331.52 101.577 329.112 101.577 326.302C101.577 323.493 102.028 321.097 102.932 319.115C103.835 317.109 105.076 315.578 106.657 314.525C108.237 313.446 110.043 312.907 112.075 312.907C114.107 312.907 115.913 313.446 117.493 314.525C119.074 315.578 120.315 317.109 121.218 319.115C122.147 321.097 122.611 323.493 122.611 326.302C122.611 329.112 122.147 331.52 121.218 333.527C120.315 335.508 119.074 337.039 117.493 338.117C115.913 339.171 114.107 339.698 112.075 339.698ZM112.075 337.214C113.63 337.214 114.985 336.8 116.139 335.972C117.293 335.12 118.196 333.89 118.848 332.285C119.5 330.654 119.826 328.66 119.826 326.302C119.826 323.944 119.5 321.963 118.848 320.357C118.196 318.727 117.293 317.497 116.139 316.67C114.985 315.817 113.63 315.39 112.075 315.39C110.57 315.39 109.228 315.817 108.049 316.67C106.87 317.497 105.954 318.727 105.302 320.357C104.65 321.963 104.324 323.944 104.324 326.302C104.324 328.66 104.65 330.654 105.302 332.285C105.954 333.89 106.87 335.12 108.049 335.972C109.228 336.8 110.57 337.214 112.075 337.214Z" fill="black"/>
<path d="M90.1244 198.286C88.0173 198.286 86.1986 197.985 84.6685 197.383C83.1634 196.781 81.9969 195.915 81.1691 194.787C80.3664 193.633 79.965 192.278 79.965 190.723C79.965 189.218 80.3539 187.938 81.1315 186.885C81.9342 185.806 83.0881 184.978 84.5932 184.401C86.1234 183.825 87.9671 183.536 90.1244 183.536C92.2566 183.536 94.0878 183.825 95.618 184.401C97.1482 184.978 98.3146 185.806 99.1173 186.885C99.9451 187.938 100.359 189.218 100.359 190.723C100.359 192.278 99.9451 193.633 99.1173 194.787C98.2895 195.915 97.1106 196.781 95.5804 197.383C94.0502 197.985 92.2315 198.286 90.1244 198.286ZM90.1244 195.991C92.4573 195.991 94.276 195.514 95.5804 194.561C96.9099 193.608 97.5746 192.316 97.5746 190.685C97.5746 189.055 96.9099 187.775 95.5804 186.847C94.276 185.894 92.4573 185.417 90.1244 185.417C87.7915 185.417 85.9729 185.894 84.6685 186.847C83.364 187.775 82.7118 189.055 82.7118 190.685C82.7118 192.316 83.364 193.608 84.6685 194.561C85.9729 195.514 87.7915 195.991 90.1244 195.991ZM90.1244 185.079C88.1678 185.079 86.4997 184.815 85.12 184.289C83.7654 183.762 82.7244 183.009 81.9969 182.031C81.2695 181.028 80.9057 179.836 80.9057 178.456C80.9057 177.001 81.282 175.76 82.0345 174.731C82.8122 173.678 83.8908 172.875 85.2705 172.323C86.6502 171.771 88.2681 171.495 90.1244 171.495C91.9807 171.495 93.5987 171.771 94.9783 172.323C96.3831 172.875 97.4743 173.678 98.2519 174.731C99.0295 175.76 99.4184 177.001 99.4184 178.456C99.4184 179.836 99.0546 181.028 98.3272 182.031C97.5997 183.009 96.5336 183.762 95.1289 184.289C93.7492 184.815 92.081 185.079 90.1244 185.079ZM90.1244 183.273C92.1814 183.273 93.7868 182.846 94.9407 181.993C96.0946 181.14 96.6716 179.999 96.6716 178.569C96.6716 177.064 96.0695 175.898 94.8655 175.07C93.6865 174.217 92.1061 173.791 90.1244 173.791C88.1427 173.791 86.5624 174.217 85.3834 175.07C84.2044 175.898 83.6149 177.052 83.6149 178.532C83.6149 179.987 84.1793 181.14 85.3081 181.993C86.462 182.846 88.0675 183.273 90.1244 183.273ZM114.608 198.286C112.576 198.286 110.77 197.759 109.19 196.706C107.61 195.627 106.368 194.097 105.465 192.115C104.562 190.108 104.11 187.7 104.11 184.891C104.11 182.081 104.562 179.686 105.465 177.704C106.368 175.697 107.61 174.167 109.19 173.113C110.77 172.035 112.576 171.495 114.608 171.495C116.64 171.495 118.446 172.035 120.027 173.113C121.607 174.167 122.849 175.697 123.752 177.704C124.68 179.686 125.144 182.081 125.144 184.891C125.144 187.7 124.68 190.108 123.752 192.115C122.849 194.097 121.607 195.627 120.027 196.706C118.446 197.759 116.64 198.286 114.608 198.286ZM114.608 195.803C116.164 195.803 117.518 195.389 118.672 194.561C119.826 193.708 120.729 192.479 121.381 190.873C122.033 189.243 122.36 187.249 122.36 184.891C122.36 182.533 122.033 180.551 121.381 178.946C120.729 177.315 119.826 176.086 118.672 175.258C117.518 174.405 116.164 173.979 114.608 173.979C113.103 173.979 111.761 174.405 110.582 175.258C109.403 176.086 108.488 177.315 107.835 178.946C107.183 180.551 106.857 182.533 106.857 184.891C106.857 187.249 107.183 189.243 107.835 190.873C108.488 192.479 109.403 193.708 110.582 194.561C111.761 195.389 113.103 195.803 114.608 195.803Z" fill="black"/>
<path d="M84.7061 59.7562L84.7061 34.5459L85.9102 35.8253H78.4976V33.4171H87.4153L87.4153 59.7562H84.7061ZM104.209 59.982C102.178 59.982 100.371 59.4552 98.791 58.4016C97.2107 57.323 95.969 55.7928 95.0659 53.8111C94.1629 51.8043 93.7114 49.3962 93.7114 46.5867C93.7114 43.7772 94.1629 41.3816 95.0659 39.3999C95.969 37.3931 97.2107 35.8629 98.791 34.8093C100.371 33.7307 102.178 33.1913 104.209 33.1913C106.241 33.1913 108.047 33.7307 109.628 34.8093C111.208 35.8629 112.45 37.3931 113.353 39.3999C114.281 41.3816 114.745 43.7772 114.745 46.5867C114.745 49.3962 114.281 51.8043 113.353 53.8111C112.45 55.7928 111.208 57.323 109.628 58.4016C108.047 59.4552 106.241 59.982 104.209 59.982ZM104.209 57.4986C105.765 57.4986 107.119 57.0847 108.273 56.2569C109.427 55.404 110.33 54.1748 110.982 52.5694C111.634 50.9389 111.961 48.9446 111.961 46.5867C111.961 44.2287 111.634 42.247 110.982 40.6416C110.33 39.011 109.427 37.7819 108.273 36.9541C107.119 36.1012 105.765 35.6747 104.209 35.6747C102.704 35.6747 101.362 36.1012 100.183 36.9541C99.0043 37.7819 98.0887 39.011 97.4365 40.6416C96.7843 42.247 96.4582 44.2287 96.4582 46.5867C96.4582 48.9446 96.7843 50.9389 97.4365 52.5694C98.0887 54.1748 99.0043 55.404 100.183 56.2569C101.362 57.0847 102.704 57.4986 104.209 57.4986ZM129.123 59.982C127.091 59.982 125.285 59.4552 123.704 58.4016C122.124 57.323 120.882 55.7928 119.979 53.8111C119.076 51.8043 118.625 49.3962 118.625 46.5867C118.625 43.7772 119.076 41.3816 119.979 39.3999C120.882 37.3931 122.124 35.8629 123.704 34.8093C125.285 33.7307 127.091 33.1913 129.123 33.1913C131.155 33.1913 132.961 33.7307 134.541 34.8093C136.121 35.8629 137.363 37.3931 138.266 39.3999C139.194 41.3816 139.658 43.7772 139.658 46.5867C139.658 49.3962 139.194 51.8043 138.266 53.8111C137.363 55.7928 136.121 57.323 134.541 58.4016C132.961 59.4552 131.155 59.982 129.123 59.982ZM129.123 57.4986C130.678 57.4986 132.033 57.0847 133.187 56.2569C134.34 55.404 135.243 54.1748 135.896 52.5694C136.548 50.9389 136.874 48.9446 136.874 46.5867C136.874 44.2287 136.548 42.247 135.896 40.6416C135.243 39.011 134.34 37.7819 133.187 36.9541C132.033 36.1012 130.678 35.6747 129.123 35.6747C127.618 35.6747 126.276 36.1012 125.097 36.9541C123.918 37.7819 123.002 39.011 122.35 40.6416C121.698 42.247 121.372 44.2287 121.372 46.5867C121.372 48.9446 121.698 50.9389 122.35 52.5694C123.002 54.1748 123.918 55.404 125.097 56.2569C126.276 57.0847 127.618 57.4986 129.123 57.4986Z" fill="black"/>
<path d="M956.799 459.53H970.721V461.938H956.799V459.53ZM957.1 473.114H954.315V446.775H972.376V449.183H957.1V473.114ZM977.562 473.114V453.359H980.234V473.114H977.562ZM978.917 448.995C978.365 448.995 977.901 448.807 977.524 448.43C977.148 448.054 976.96 447.602 976.96 447.076C976.96 446.549 977.148 446.11 977.524 445.759C977.901 445.382 978.365 445.194 978.917 445.194C979.468 445.194 979.933 445.37 980.309 445.721C980.685 446.072 980.873 446.511 980.873 447.038C980.873 447.59 980.685 448.054 980.309 448.43C979.958 448.807 979.494 448.995 978.917 448.995ZM987.667 473.114V453.359H990.226V458.74L989.962 457.799C990.514 456.294 991.442 455.153 992.747 454.375C994.051 453.573 995.669 453.171 997.601 453.171V455.768C997.5 455.768 997.4 455.768 997.3 455.768C997.199 455.742 997.099 455.73 996.999 455.73C994.917 455.73 993.286 456.37 992.107 457.649C990.928 458.903 990.339 460.697 990.339 463.03V473.114H987.667ZM1008 473.302C1006.37 473.302 1004.83 473.076 1003.37 472.625C1001.92 472.148 1000.78 471.559 999.949 470.856L1001.15 468.749C1001.96 469.351 1002.98 469.878 1004.24 470.329C1005.49 470.756 1006.81 470.969 1008.19 470.969C1010.07 470.969 1011.43 470.681 1012.25 470.104C1013.08 469.502 1013.49 468.711 1013.49 467.733C1013.49 467.006 1013.26 466.441 1012.78 466.04C1012.33 465.613 1011.73 465.3 1010.97 465.099C1010.22 464.873 1009.38 464.685 1008.45 464.535C1007.52 464.384 1006.6 464.209 1005.67 464.008C1004.77 463.807 1003.94 463.519 1003.19 463.143C1002.43 462.741 1001.82 462.202 1001.34 461.525C1000.89 460.847 1000.66 459.944 1000.66 458.815C1000.66 457.737 1000.97 456.771 1001.57 455.918C1002.17 455.065 1003.05 454.4 1004.2 453.924C1005.38 453.422 1006.81 453.171 1008.49 453.171C1009.77 453.171 1011.05 453.347 1012.33 453.698C1013.61 454.024 1014.66 454.463 1015.49 455.015L1014.32 457.16C1013.44 456.558 1012.5 456.131 1011.5 455.88C1010.5 455.605 1009.49 455.467 1008.49 455.467C1006.71 455.467 1005.39 455.78 1004.54 456.407C1003.71 457.009 1003.3 457.787 1003.3 458.74C1003.3 459.493 1003.52 460.082 1003.98 460.509C1004.45 460.935 1005.07 461.274 1005.82 461.525C1006.6 461.75 1007.44 461.938 1008.34 462.089C1009.27 462.239 1010.18 462.428 1011.09 462.653C1012.01 462.854 1012.86 463.143 1013.61 463.519C1014.39 463.87 1015 464.384 1015.45 465.062C1015.93 465.714 1016.17 466.579 1016.17 467.658C1016.17 468.812 1015.84 469.815 1015.19 470.668C1014.56 471.496 1013.63 472.148 1012.4 472.625C1011.2 473.076 1009.73 473.302 1008 473.302ZM1027.31 473.302C1025.46 473.302 1024.03 472.8 1023.03 471.797C1022.02 470.793 1021.52 469.376 1021.52 467.545V448.995H1024.19V467.394C1024.19 468.548 1024.48 469.439 1025.06 470.066C1025.66 470.693 1026.51 471.007 1027.62 471.007C1028.79 471.007 1029.77 470.668 1030.55 469.991L1031.49 471.91C1030.96 472.386 1030.32 472.737 1029.57 472.963C1028.84 473.189 1028.09 473.302 1027.31 473.302ZM1017.98 455.579V453.359H1030.21V455.579H1017.98ZM1054.63 480.602C1052.82 480.602 1051.09 480.338 1049.44 479.811C1047.78 479.285 1046.44 478.532 1045.41 477.554L1046.77 475.522C1047.69 476.35 1048.84 477.002 1050.19 477.479C1051.57 477.98 1053.03 478.231 1054.56 478.231C1057.06 478.231 1058.91 477.642 1060.09 476.463C1061.27 475.309 1061.86 473.503 1061.86 471.044V466.115L1062.23 462.729L1061.97 459.342V453.359H1064.53V470.706C1064.53 474.117 1063.69 476.613 1062.01 478.193C1060.35 479.799 1057.89 480.602 1054.63 480.602ZM1054.14 472.361C1052.26 472.361 1050.57 471.96 1049.06 471.157C1047.56 470.329 1046.37 469.188 1045.49 467.733C1044.63 466.278 1044.21 464.61 1044.21 462.729C1044.21 460.847 1044.63 459.192 1045.49 457.762C1046.37 456.307 1047.56 455.178 1049.06 454.375C1050.57 453.573 1052.26 453.171 1054.14 453.171C1055.9 453.171 1057.48 453.535 1058.88 454.262C1060.29 454.99 1061.4 456.069 1062.23 457.498C1063.06 458.928 1063.47 460.672 1063.47 462.729C1063.47 464.786 1063.06 466.529 1062.23 467.959C1061.4 469.389 1060.29 470.48 1058.88 471.232C1057.48 471.985 1055.9 472.361 1054.14 472.361ZM1054.41 469.991C1055.86 469.991 1057.15 469.69 1058.28 469.088C1059.41 468.461 1060.3 467.608 1060.95 466.529C1061.6 465.425 1061.93 464.158 1061.93 462.729C1061.93 461.299 1061.6 460.045 1060.95 458.966C1060.3 457.887 1059.41 457.047 1058.28 456.445C1057.15 455.818 1055.86 455.504 1054.41 455.504C1052.98 455.504 1051.68 455.818 1050.53 456.445C1049.4 457.047 1048.51 457.887 1047.86 458.966C1047.23 460.045 1046.92 461.299 1046.92 462.729C1046.92 464.158 1047.23 465.425 1047.86 466.529C1048.51 467.608 1049.4 468.461 1050.53 469.088C1051.68 469.69 1052.98 469.991 1054.41 469.991ZM1080.13 473.302C1078.45 473.302 1076.98 472.988 1075.72 472.361C1074.47 471.734 1073.49 470.793 1072.79 469.539C1072.11 468.285 1071.77 466.717 1071.77 464.836V453.359H1074.44V464.535C1074.44 466.642 1074.96 468.235 1075.99 469.313C1077.04 470.367 1078.51 470.894 1080.39 470.894C1081.77 470.894 1082.96 470.618 1083.96 470.066C1084.99 469.489 1085.77 468.661 1086.3 467.583C1086.85 466.504 1087.12 465.212 1087.12 463.707V453.359H1089.8V473.114H1087.24V467.695L1087.65 468.674C1087.02 470.129 1086.05 471.27 1084.72 472.098C1083.41 472.901 1081.88 473.302 1080.13 473.302ZM1105.63 473.302C1103.58 473.302 1101.77 472.875 1100.21 472.023C1098.66 471.145 1097.44 469.953 1096.56 468.448C1095.69 466.918 1095.25 465.174 1095.25 463.218C1095.25 461.261 1095.66 459.53 1096.49 458.025C1097.34 456.52 1098.5 455.341 1099.95 454.488C1101.43 453.61 1103.09 453.171 1104.92 453.171C1106.77 453.171 1108.42 453.598 1109.85 454.451C1111.3 455.278 1112.44 456.457 1113.27 457.988C1114.1 459.493 1114.51 461.236 1114.51 463.218C1114.51 463.343 1114.5 463.481 1114.48 463.632C1114.48 463.757 1114.48 463.895 1114.48 464.046H1097.28V462.051H1113.05L1111.99 462.842C1111.99 461.412 1111.68 460.145 1111.05 459.041C1110.45 457.912 1109.62 457.034 1108.57 456.407C1107.51 455.78 1106.3 455.467 1104.92 455.467C1103.56 455.467 1102.35 455.78 1101.27 456.407C1100.19 457.034 1099.35 457.912 1098.75 459.041C1098.14 460.17 1097.84 461.462 1097.84 462.917V463.331C1097.84 464.836 1098.17 466.165 1098.82 467.319C1099.5 468.448 1100.43 469.338 1101.61 469.991C1102.81 470.618 1104.18 470.931 1105.71 470.931C1106.91 470.931 1108.03 470.718 1109.06 470.292C1110.11 469.865 1111.01 469.213 1111.77 468.335L1113.27 470.066C1112.39 471.12 1111.29 471.922 1109.96 472.474C1108.66 473.026 1107.21 473.302 1105.63 473.302ZM1125.26 473.302C1123.63 473.302 1122.08 473.076 1120.63 472.625C1119.17 472.148 1118.03 471.559 1117.2 470.856L1118.41 468.749C1119.21 469.351 1120.24 469.878 1121.49 470.329C1122.75 470.756 1124.06 470.969 1125.44 470.969C1127.33 470.969 1128.68 470.681 1129.51 470.104C1130.34 469.502 1130.75 468.711 1130.75 467.733C1130.75 467.006 1130.51 466.441 1130.03 466.04C1129.58 465.613 1128.98 465.3 1128.23 465.099C1127.48 464.873 1126.64 464.685 1125.71 464.535C1124.78 464.384 1123.85 464.209 1122.92 464.008C1122.02 463.807 1121.19 463.519 1120.44 463.143C1119.69 462.741 1119.07 462.202 1118.6 461.525C1118.14 460.847 1117.92 459.944 1117.92 458.815C1117.92 457.737 1118.22 456.771 1118.82 455.918C1119.42 455.065 1120.3 454.4 1121.46 453.924C1122.63 453.422 1124.06 453.171 1125.75 453.171C1127.02 453.171 1128.3 453.347 1129.58 453.698C1130.86 454.024 1131.92 454.463 1132.74 455.015L1131.58 457.16C1130.7 456.558 1129.76 456.131 1128.76 455.88C1127.75 455.605 1126.75 455.467 1125.75 455.467C1123.96 455.467 1122.65 455.78 1121.79 456.407C1120.97 457.009 1120.55 457.787 1120.55 458.74C1120.55 459.493 1120.78 460.082 1121.23 460.509C1121.71 460.935 1122.32 461.274 1123.07 461.525C1123.85 461.75 1124.69 461.938 1125.59 462.089C1126.52 462.239 1127.44 462.428 1128.34 462.653C1129.27 462.854 1130.11 463.143 1130.86 463.519C1131.64 463.87 1132.25 464.384 1132.71 465.062C1133.18 465.714 1133.42 466.579 1133.42 467.658C1133.42 468.812 1133.09 469.815 1132.44 470.668C1131.82 471.496 1130.89 472.148 1129.66 472.625C1128.45 473.076 1126.99 473.302 1125.26 473.302ZM1143.63 473.302C1142 473.302 1140.46 473.076 1139 472.625C1137.55 472.148 1136.4 471.559 1135.58 470.856L1136.78 468.749C1137.58 469.351 1138.61 469.878 1139.87 470.329C1141.12 470.756 1142.44 470.969 1143.82 470.969C1145.7 470.969 1147.05 470.681 1147.88 470.104C1148.71 469.502 1149.12 468.711 1149.12 467.733C1149.12 467.006 1148.88 466.441 1148.41 466.04C1147.96 465.613 1147.35 465.3 1146.6 465.099C1145.85 464.873 1145.01 464.685 1144.08 464.535C1143.15 464.384 1142.22 464.209 1141.3 464.008C1140.39 463.807 1139.56 463.519 1138.81 463.143C1138.06 462.741 1137.45 462.202 1136.97 461.525C1136.52 460.847 1136.29 459.944 1136.29 458.815C1136.29 457.737 1136.59 456.771 1137.19 455.918C1137.8 455.065 1138.67 454.4 1139.83 453.924C1141.01 453.422 1142.44 453.171 1144.12 453.171C1145.4 453.171 1146.68 453.347 1147.96 453.698C1149.24 454.024 1150.29 454.463 1151.12 455.015L1149.95 457.16C1149.07 456.558 1148.13 456.131 1147.13 455.88C1146.12 455.605 1145.12 455.467 1144.12 455.467C1142.34 455.467 1141.02 455.78 1140.17 456.407C1139.34 457.009 1138.93 457.787 1138.93 458.74C1138.93 459.493 1139.15 460.082 1139.6 460.509C1140.08 460.935 1140.69 461.274 1141.45 461.525C1142.22 461.75 1143.06 461.938 1143.97 462.089C1144.9 462.239 1145.81 462.428 1146.71 462.653C1147.64 462.854 1148.48 463.143 1149.24 463.519C1150.01 463.87 1150.63 464.384 1151.08 465.062C1151.56 465.714 1151.79 466.579 1151.79 467.658C1151.79 468.812 1151.47 469.815 1150.82 470.668C1150.19 471.496 1149.26 472.148 1148.03 472.625C1146.83 473.076 1145.36 473.302 1143.63 473.302Z" fill="black"/>
</svg>
