<svg width="928" height="616" viewBox="0 0 928 616" fill="none" xmlns="http://www.w3.org/2000/svg">
<rect y="0.936768" width="901.016" height="610.063" fill="white"/>
<path d="M128.89 34.0579V31.6906H124.156V34.0579H128.89ZM128.89 519.35L128.89 34.0579H124.156L124.156 519.35H128.89Z" fill="#153314"/>
<path d="M652.114 522.891H654.481V518.157H652.114V522.891ZM124.175 522.891H652.114V518.157H124.175V522.891Z" fill="#153314"/>
<path d="M306.219 595.939H308.292V615.824H306.219V595.939ZM293.776 615.824H291.674V595.939H293.776V615.824ZM306.417 606.649H293.549V604.802H306.417V606.649ZM320.436 615.966C318.996 615.966 317.699 615.644 316.544 615.001C315.408 614.338 314.508 613.438 313.845 612.302C313.182 611.147 312.851 609.83 312.851 608.353C312.851 606.857 313.182 605.541 313.845 604.405C314.508 603.268 315.408 602.378 316.544 601.734C317.68 601.09 318.977 600.768 320.436 600.768C321.913 600.768 323.22 601.09 324.356 601.734C325.511 602.378 326.411 603.268 327.055 604.405C327.717 605.541 328.049 606.857 328.049 608.353C328.049 609.83 327.717 611.147 327.055 612.302C326.411 613.438 325.511 614.338 324.356 615.001C323.201 615.644 321.894 615.966 320.436 615.966ZM320.436 614.177C321.515 614.177 322.472 613.94 323.305 613.467C324.138 612.974 324.792 612.292 325.265 611.421C325.757 610.531 326.004 609.508 326.004 608.353C326.004 607.179 325.757 606.156 325.265 605.285C324.792 604.414 324.138 603.742 323.305 603.268C322.472 602.776 321.525 602.53 320.464 602.53C319.404 602.53 318.457 602.776 317.623 603.268C316.79 603.742 316.127 604.414 315.635 605.285C315.143 606.156 314.896 607.179 314.896 608.353C314.896 609.508 315.143 610.531 315.635 611.421C316.127 612.292 316.79 612.974 317.623 613.467C318.457 613.94 319.394 614.177 320.436 614.177ZM338.331 615.966C337.062 615.966 335.954 615.73 335.007 615.256C334.06 614.783 333.322 614.073 332.792 613.126C332.28 612.179 332.025 610.995 332.025 609.575V600.91H334.042V609.347C334.042 610.938 334.43 612.141 335.206 612.955C336.002 613.751 337.11 614.148 338.53 614.148C339.571 614.148 340.471 613.94 341.229 613.523C342.005 613.088 342.592 612.463 342.99 611.648C343.406 610.834 343.615 609.859 343.615 608.723V600.91H345.632V615.824H343.7V611.734L344.012 612.472C343.539 613.571 342.8 614.432 341.797 615.057C340.812 615.663 339.657 615.966 338.331 615.966ZM351.253 615.824V600.91H353.185V604.973L352.986 604.263C353.402 603.126 354.103 602.265 355.088 601.677C356.073 601.071 357.294 600.768 358.752 600.768V602.729C358.677 602.729 358.601 602.729 358.525 602.729C358.449 602.71 358.374 602.7 358.298 602.7C356.726 602.7 355.495 603.183 354.605 604.149C353.715 605.096 353.27 606.45 353.27 608.211V615.824H351.253ZM366.605 615.966C365.374 615.966 364.209 615.796 363.11 615.455C362.012 615.095 361.15 614.65 360.525 614.12L361.434 612.529C362.04 612.984 362.817 613.381 363.764 613.722C364.711 614.044 365.705 614.205 366.747 614.205C368.167 614.205 369.19 613.987 369.815 613.552C370.44 613.097 370.752 612.501 370.752 611.762C370.752 611.213 370.572 610.787 370.212 610.484C369.871 610.162 369.417 609.925 368.849 609.774C368.281 609.603 367.646 609.461 366.945 609.347C366.245 609.234 365.544 609.101 364.843 608.95C364.161 608.798 363.537 608.58 362.968 608.296C362.4 607.993 361.936 607.586 361.576 607.075C361.236 606.564 361.065 605.882 361.065 605.03C361.065 604.215 361.292 603.486 361.747 602.842C362.201 602.198 362.864 601.696 363.735 601.337C364.625 600.958 365.705 600.768 366.974 600.768C367.94 600.768 368.906 600.901 369.871 601.166C370.837 601.412 371.633 601.744 372.258 602.16L371.377 603.78C370.714 603.325 370.004 603.003 369.246 602.814C368.489 602.605 367.731 602.501 366.974 602.501C365.629 602.501 364.635 602.738 363.991 603.211C363.366 603.666 363.054 604.253 363.054 604.973C363.054 605.541 363.224 605.986 363.565 606.308C363.925 606.63 364.389 606.886 364.957 607.075C365.544 607.245 366.178 607.387 366.86 607.501C367.561 607.615 368.252 607.757 368.934 607.927C369.635 608.079 370.269 608.296 370.837 608.58C371.424 608.846 371.888 609.234 372.229 609.745C372.589 610.238 372.769 610.891 372.769 611.705C372.769 612.576 372.523 613.334 372.03 613.978C371.557 614.603 370.856 615.095 369.928 615.455C369.019 615.796 367.911 615.966 366.605 615.966ZM387.91 615.966C386.679 615.966 385.514 615.796 384.416 615.455C383.318 615.095 382.456 614.65 381.831 614.12L382.74 612.529C383.346 612.984 384.122 613.381 385.069 613.722C386.016 614.044 387.01 614.205 388.052 614.205C389.472 614.205 390.495 613.987 391.12 613.552C391.745 613.097 392.057 612.501 392.057 611.762C392.057 611.213 391.878 610.787 391.518 610.484C391.177 610.162 390.722 609.925 390.154 609.774C389.586 609.603 388.952 609.461 388.251 609.347C387.55 609.234 386.849 609.101 386.149 608.95C385.467 608.798 384.842 608.58 384.274 608.296C383.706 607.993 383.242 607.586 382.882 607.075C382.541 606.564 382.371 605.882 382.371 605.03C382.371 604.215 382.598 603.486 383.052 602.842C383.507 602.198 384.17 601.696 385.041 601.337C385.931 600.958 387.01 600.768 388.279 600.768C389.245 600.768 390.211 600.901 391.177 601.166C392.143 601.412 392.938 601.744 393.563 602.16L392.682 603.78C392.02 603.325 391.309 603.003 390.552 602.814C389.794 602.605 389.037 602.501 388.279 602.501C386.935 602.501 385.94 602.738 385.297 603.211C384.672 603.666 384.359 604.253 384.359 604.973C384.359 605.541 384.53 605.986 384.87 606.308C385.23 606.63 385.694 606.886 386.262 607.075C386.849 607.245 387.484 607.387 388.166 607.501C388.866 607.615 389.558 607.757 390.239 607.927C390.94 608.079 391.575 608.296 392.143 608.58C392.73 608.846 393.194 609.234 393.535 609.745C393.894 610.238 394.074 610.891 394.074 611.705C394.074 612.576 393.828 613.334 393.336 613.978C392.862 614.603 392.162 615.095 391.234 615.455C390.325 615.796 389.217 615.966 387.91 615.966ZM402.491 615.966C401.09 615.966 400.01 615.588 399.253 614.83C398.495 614.073 398.116 613.003 398.116 611.62V597.615H400.133V611.506C400.133 612.378 400.351 613.05 400.787 613.523C401.241 613.997 401.885 614.234 402.718 614.234C403.608 614.234 404.347 613.978 404.934 613.467L405.644 614.915C405.246 615.275 404.764 615.54 404.195 615.711C403.646 615.881 403.078 615.966 402.491 615.966ZM395.446 602.587V600.91H404.678V602.587H395.446ZM415.48 615.966C414.211 615.966 413.103 615.73 412.157 615.256C411.21 614.783 410.471 614.073 409.941 613.126C409.429 612.179 409.174 610.995 409.174 609.575V600.91H411.191V609.347C411.191 610.938 411.579 612.141 412.355 612.955C413.151 613.751 414.259 614.148 415.679 614.148C416.721 614.148 417.62 613.94 418.378 613.523C419.154 613.088 419.741 612.463 420.139 611.648C420.556 610.834 420.764 609.859 420.764 608.723V600.91H422.781V615.824H420.849V611.734L421.162 612.472C420.688 613.571 419.95 614.432 418.946 615.057C417.961 615.663 416.806 615.966 415.48 615.966ZM434.339 615.966C432.919 615.966 431.64 615.644 430.504 615.001C429.387 614.357 428.506 613.467 427.862 612.33C427.218 611.175 426.896 609.849 426.896 608.353C426.896 606.838 427.218 605.512 427.862 604.376C428.506 603.24 429.387 602.359 430.504 601.734C431.64 601.09 432.919 600.768 434.339 600.768C435.646 600.768 436.811 601.062 437.833 601.649C438.875 602.236 439.699 603.098 440.305 604.234C440.93 605.352 441.242 606.725 441.242 608.353C441.242 609.963 440.939 611.336 440.333 612.472C439.727 613.609 438.903 614.48 437.862 615.086C436.839 615.673 435.665 615.966 434.339 615.966ZM434.481 614.177C435.542 614.177 436.489 613.94 437.322 613.467C438.174 612.974 438.837 612.292 439.31 611.421C439.803 610.531 440.049 609.508 440.049 608.353C440.049 607.179 439.803 606.156 439.31 605.285C438.837 604.414 438.174 603.742 437.322 603.268C436.489 602.776 435.542 602.53 434.481 602.53C433.44 602.53 432.502 602.776 431.669 603.268C430.836 603.742 430.173 604.414 429.68 605.285C429.188 606.156 428.942 607.179 428.942 608.353C428.942 609.508 429.188 610.531 429.68 611.421C430.173 612.292 430.836 612.974 431.669 613.467C432.502 613.94 433.44 614.177 434.481 614.177ZM440.106 615.824V611.336L440.305 608.325L440.021 605.314V594.746H442.038V615.824H440.106ZM447.655 615.824V600.91H449.672V615.824H447.655ZM448.677 597.615C448.261 597.615 447.91 597.473 447.626 597.189C447.342 596.905 447.2 596.564 447.2 596.166C447.2 595.769 447.342 595.437 447.626 595.172C447.91 594.888 448.261 594.746 448.677 594.746C449.094 594.746 449.444 594.879 449.728 595.144C450.012 595.409 450.154 595.74 450.154 596.138C450.154 596.555 450.012 596.905 449.728 597.189C449.463 597.473 449.113 597.615 448.677 597.615ZM461.618 615.966C460.065 615.966 458.702 615.644 457.528 615.001C456.354 614.338 455.435 613.438 454.772 612.302C454.109 611.147 453.778 609.83 453.778 608.353C453.778 606.876 454.09 605.569 454.715 604.433C455.359 603.297 456.23 602.407 457.329 601.763C458.446 601.1 459.696 600.768 461.079 600.768C462.48 600.768 463.721 601.09 464.8 601.734C465.898 602.359 466.76 603.249 467.385 604.405C468.01 605.541 468.323 606.857 468.323 608.353C468.323 608.448 468.313 608.552 468.294 608.666C468.294 608.76 468.294 608.865 468.294 608.978H455.312V607.473H467.215L466.419 608.069C466.419 606.99 466.182 606.033 465.709 605.2C465.255 604.348 464.63 603.685 463.834 603.211C463.039 602.738 462.12 602.501 461.079 602.501C460.056 602.501 459.137 602.738 458.323 603.211C457.509 603.685 456.874 604.348 456.42 605.2C455.965 606.052 455.738 607.028 455.738 608.126V608.438C455.738 609.575 455.984 610.578 456.477 611.45C456.988 612.302 457.689 612.974 458.579 613.467C459.488 613.94 460.52 614.177 461.675 614.177C462.584 614.177 463.427 614.016 464.203 613.694C464.999 613.372 465.681 612.879 466.249 612.217L467.385 613.523C466.722 614.319 465.889 614.925 464.885 615.341C463.9 615.758 462.811 615.966 461.618 615.966ZM478.365 615.966C476.945 615.966 475.666 615.644 474.53 615.001C473.413 614.357 472.532 613.467 471.888 612.33C471.244 611.175 470.922 609.849 470.922 608.353C470.922 606.838 471.244 605.512 471.888 604.376C472.532 603.24 473.413 602.359 474.53 601.734C475.666 601.09 476.945 600.768 478.365 600.768C479.672 600.768 480.836 601.062 481.859 601.649C482.901 602.236 483.724 603.098 484.33 604.234C484.955 605.352 485.268 606.725 485.268 608.353C485.268 609.963 484.965 611.336 484.359 612.472C483.753 613.609 482.929 614.48 481.887 615.086C480.865 615.673 479.691 615.966 478.365 615.966ZM478.507 614.177C479.568 614.177 480.514 613.94 481.348 613.467C482.2 612.974 482.863 612.292 483.336 611.421C483.829 610.531 484.075 609.508 484.075 608.353C484.075 607.179 483.829 606.156 483.336 605.285C482.863 604.414 482.2 603.742 481.348 603.268C480.514 602.776 479.568 602.53 478.507 602.53C477.465 602.53 476.528 602.776 475.695 603.268C474.861 603.742 474.199 604.414 473.706 605.285C473.214 606.156 472.968 607.179 472.968 608.353C472.968 609.508 473.214 610.531 473.706 611.421C474.199 612.292 474.861 612.974 475.695 613.467C476.528 613.94 477.465 614.177 478.507 614.177ZM484.132 615.824V611.336L484.33 608.325L484.046 605.314V594.746H486.063V615.824H484.132Z" fill="#124012"/>
<path d="M21.6991 361.861V351.351H23.4888V361.861H21.6991ZM30.8747 361.634V349.675H32.6927V363.736H12.8076L12.8076 350.101H14.6257L14.6257 361.634H30.8747ZM32.6927 347.848L24.5114 341.542L25.5057 341.57L17.7789 347.564V345.292L24.1706 340.377L24.1421 341.229L17.7789 336.315V334.099L25.5909 340.15L24.5114 340.121L32.6927 333.758V336.059L25.875 341.258L25.9886 340.462L32.6927 345.576V347.848ZM32.6927 321.332H29.3975L28.8578 321.418H23.3467C22.0779 321.418 21.1026 321.777 20.4208 322.497C19.739 323.198 19.3981 324.249 19.3981 325.65C19.3981 326.616 19.5591 327.535 19.881 328.406C20.203 329.277 20.6291 330.016 21.1594 330.622L19.6538 331.531C19.0099 330.773 18.5175 329.864 18.1766 328.803C17.8168 327.743 17.6369 326.626 17.6369 325.451C17.6369 323.52 18.1198 322.033 19.0856 320.991C20.0325 319.931 21.4813 319.401 23.432 319.401H32.6927V321.332ZM32.8348 326.474C32.8348 327.591 32.6549 328.567 32.295 329.4C31.9163 330.214 31.405 330.839 30.7611 331.275C30.0982 331.711 29.3407 331.928 28.4885 331.928C27.712 331.928 27.0113 331.748 26.3863 331.389C25.7424 331.01 25.2311 330.404 24.8523 329.57C24.4546 328.718 24.2558 327.582 24.2558 326.162V321.02H25.7614V326.105C25.7614 327.544 26.017 328.548 26.5284 329.116C27.0397 329.665 27.6741 329.94 28.4316 329.94C29.2839 329.94 29.9656 329.608 30.477 328.946C30.9883 328.283 31.244 327.355 31.244 326.162C31.244 325.025 30.9883 324.05 30.477 323.236C29.9467 322.402 29.1892 321.796 28.2044 321.418L29.5964 320.963C30.5811 321.342 31.3671 322.005 31.9542 322.952C32.5412 323.88 32.8348 325.054 32.8348 326.474ZM17.6369 295.287C17.6369 294.075 17.8736 293.024 18.347 292.134C18.8016 291.225 19.5023 290.524 20.4492 290.032C21.3961 289.521 22.5892 289.265 24.0285 289.265H32.6927V291.282H24.2274C22.6555 291.282 21.4719 291.661 20.6764 292.418C19.8621 293.157 19.4549 294.208 19.4549 295.571C19.4549 296.594 19.6727 297.484 20.1083 298.242C20.5249 298.98 21.1404 299.558 21.9548 299.974C22.7502 300.372 23.716 300.571 24.8523 300.571H32.6927V302.588H24.2274C22.6555 302.588 21.4719 302.967 20.6764 303.724C19.8621 304.482 19.4549 305.542 19.4549 306.906C19.4549 307.91 19.6727 308.79 20.1083 309.548C20.5249 310.305 21.1404 310.892 21.9548 311.309C22.7502 311.707 23.716 311.906 24.8523 311.906H32.6927V313.922H17.7789V311.991H21.8127L21.1026 312.303C20.0231 311.849 19.1803 311.12 18.5743 310.116C17.9493 309.093 17.6369 307.891 17.6369 306.508C17.6369 305.05 18.0062 303.809 18.7448 302.787C19.4644 301.764 20.5534 301.101 22.0116 300.798L21.6991 301.594C20.4871 301.158 19.5117 300.391 18.7732 299.293C18.0156 298.175 17.6369 296.84 17.6369 295.287ZM32.8632 270.452C32.8632 271.929 32.6265 273.349 32.153 274.713C31.6606 276.057 31.0357 277.099 30.2781 277.838L28.6589 277.014C29.3407 276.313 29.9183 275.376 30.3918 274.202C30.8463 273.008 31.0735 271.758 31.0735 270.452C31.0735 269.202 30.922 268.189 30.619 267.412C30.2971 266.617 29.871 266.039 29.3407 265.679C28.8104 265.301 28.2233 265.111 27.5794 265.111C26.803 265.111 26.178 265.338 25.7045 265.793C25.2311 266.229 24.8618 266.806 24.5967 267.526C24.3126 268.245 24.0664 269.041 23.8581 269.912C23.6497 270.783 23.432 271.654 23.2047 272.525C22.9585 273.397 22.6366 274.202 22.2389 274.94C21.8411 275.66 21.3203 276.247 20.6764 276.701C20.0136 277.137 19.1519 277.355 18.0914 277.355C17.1066 277.355 16.207 277.099 15.3927 276.588C14.5594 276.057 13.8966 275.253 13.4042 274.173C12.8928 273.094 12.6372 271.711 12.6372 270.026C12.6372 268.908 12.7981 267.8 13.1201 266.702C13.4231 265.604 13.8492 264.657 14.3984 263.861L16.0745 264.571C15.5063 265.424 15.0897 266.333 14.8245 267.299C14.5594 268.245 14.4268 269.164 14.4268 270.054C14.4268 271.247 14.5878 272.232 14.9098 273.008C15.2317 273.785 15.6673 274.362 16.2165 274.741C16.7468 275.101 17.3528 275.281 18.0346 275.281C18.811 275.281 19.436 275.063 19.9095 274.628C20.3829 274.173 20.7522 273.586 21.0173 272.866C21.2825 272.128 21.5192 271.323 21.7275 270.452C21.9358 269.581 22.1631 268.719 22.4093 267.867C22.6555 266.996 22.9774 266.2 23.3751 265.48C23.7539 264.742 24.2652 264.155 24.9091 263.719C25.553 263.265 26.3958 263.037 27.4374 263.037C28.4032 263.037 29.3028 263.303 30.1361 263.833C30.9504 264.363 31.6133 265.177 32.1246 266.276C32.617 267.355 32.8632 268.747 32.8632 270.452ZM32.8348 252.69C32.8348 254.168 32.5128 255.493 31.8689 256.668C31.2061 257.823 30.3065 258.732 29.1702 259.395C28.015 260.057 26.6988 260.389 25.2216 260.389C23.7255 260.389 22.4093 260.057 21.273 259.395C20.1367 258.732 19.2466 257.823 18.6027 256.668C17.9588 255.493 17.6369 254.168 17.6369 252.69C17.6369 251.422 17.8831 250.276 18.3755 249.253C18.8678 248.231 19.6064 247.426 20.5912 246.839L21.6139 248.344C20.8564 248.856 20.2977 249.49 19.9379 250.247C19.578 251.005 19.3981 251.829 19.3981 252.719C19.3981 253.779 19.6443 254.736 20.1367 255.588C20.6102 256.44 21.2825 257.113 22.1536 257.605C23.0248 258.097 24.0475 258.344 25.2216 258.344C26.3958 258.344 27.4185 258.097 28.2896 257.605C29.1608 257.113 29.8425 256.44 30.3349 255.588C30.8084 254.736 31.0451 253.779 31.0451 252.719C31.0451 251.829 30.8652 251.005 30.5054 250.247C30.1456 249.49 29.5964 248.856 28.8578 248.344L29.8804 246.839C30.8463 247.426 31.5849 248.231 32.0962 249.253C32.5886 250.276 32.8348 251.422 32.8348 252.69ZM32.8348 237.047C32.8348 238.486 32.5128 239.784 31.8689 240.939C31.2061 242.075 30.3065 242.975 29.1702 243.637C28.015 244.3 26.6988 244.632 25.2216 244.632C23.7255 244.632 22.4093 244.3 21.273 243.637C20.1367 242.975 19.2466 242.075 18.6027 240.939C17.9588 239.802 17.6369 238.505 17.6369 237.047C17.6369 235.57 17.9588 234.263 18.6027 233.127C19.2466 231.971 20.1367 231.072 21.273 230.428C22.4093 229.765 23.7255 229.434 25.2216 229.434C26.6988 229.434 28.015 229.765 29.1702 230.428C30.3065 231.072 31.2061 231.971 31.8689 233.127C32.5128 234.282 32.8348 235.589 32.8348 237.047ZM31.0451 237.047C31.0451 235.967 30.8084 235.011 30.3349 234.178C29.8425 233.345 29.1608 232.691 28.2896 232.218C27.3995 231.725 26.3769 231.479 25.2216 231.479C24.0475 231.479 23.0248 231.725 22.1536 232.218C21.2825 232.691 20.6102 233.345 20.1367 234.178C19.6443 235.011 19.3981 235.958 19.3981 237.019C19.3981 238.079 19.6443 239.026 20.1367 239.859C20.6102 240.693 21.2825 241.355 22.1536 241.848C23.0248 242.34 24.0475 242.586 25.2216 242.586C26.3769 242.586 27.3995 242.34 28.2896 241.848C29.1608 241.355 29.8425 240.693 30.3349 239.859C30.8084 239.026 31.0451 238.089 31.0451 237.047ZM32.6927 225.316H17.7789V223.384H21.8411L21.131 223.583C19.9947 223.167 19.133 222.466 18.5459 221.481C17.9399 220.496 17.6369 219.275 17.6369 217.817H19.597C19.597 217.892 19.597 217.968 19.597 218.044C19.578 218.12 19.5686 218.195 19.5686 218.271C19.5686 219.843 20.0515 221.074 21.0173 221.964C21.9642 222.854 23.3183 223.299 25.0796 223.299H32.6927V225.316ZM32.8348 207.94C32.8348 209.493 32.5128 210.857 31.8689 212.031C31.2061 213.205 30.3065 214.123 29.1702 214.786C28.015 215.449 26.6988 215.78 25.2216 215.78C23.7444 215.78 22.4377 215.468 21.3014 214.843C20.1651 214.199 19.275 213.328 18.6311 212.23C17.9683 211.112 17.6369 209.862 17.6369 208.48C17.6369 207.078 17.9588 205.838 18.6027 204.758C19.2277 203.66 20.1178 202.798 21.273 202.173C22.4093 201.548 23.7255 201.236 25.2216 201.236C25.3163 201.236 25.4205 201.245 25.5341 201.264C25.6288 201.264 25.733 201.264 25.8466 201.264V214.247H24.341V202.344L24.9375 203.139C23.8581 203.139 22.9017 203.376 22.0684 203.849C21.2162 204.304 20.5534 204.929 20.0799 205.724C19.6064 206.52 19.3697 207.438 19.3697 208.48C19.3697 209.502 19.6064 210.421 20.0799 211.235C20.5534 212.05 21.2162 212.684 22.0684 213.139C22.9206 213.593 23.8959 213.82 24.9944 213.82H25.3068C26.4431 213.82 27.4469 213.574 28.318 213.082C29.1702 212.57 29.8425 211.87 30.3349 210.98C30.8084 210.071 31.0451 209.038 31.0451 207.883C31.0451 206.974 30.8841 206.131 30.5622 205.355C30.2402 204.56 29.7479 203.878 29.085 203.31L30.3918 202.173C31.1872 202.836 31.7932 203.67 32.2098 204.673C32.6265 205.658 32.8348 206.747 32.8348 207.94Z" fill="#124012"/>
<path d="M604.881 179.056C605.415 178.678 605.541 177.94 605.163 177.406C604.786 176.872 604.047 176.746 603.513 177.124L604.881 179.056ZM125.645 518.21L604.881 179.056L603.513 177.124L124.277 516.278L125.645 518.21Z" fill="#7CBC7A"/>
<circle cx="254.375" cy="69.5575" r="5.91819" fill="#D9D9D9" stroke="#124012" stroke-width="2.36728"/>
<circle cx="282.782" cy="100.332" r="5.91819" fill="#D9D9D9" stroke="#124012" stroke-width="2.36728"/>
<circle cx="358.535" cy="100.332" r="5.91819" fill="#D9D9D9" stroke="#124012" stroke-width="2.36728"/>
<circle cx="358.535" cy="76.6593" r="5.91819" fill="#D9D9D9" stroke="#124012" stroke-width="2.36728"/>
<circle cx="379.841" cy="79.0266" r="5.91819" fill="#D9D9D9" stroke="#124012" stroke-width="2.36728"/>
<circle cx="386.942" cy="107.434" r="5.91819" fill="#D9D9D9" stroke="#124012" stroke-width="2.36728"/>
<circle cx="401.146" cy="131.107" r="5.91819" fill="#D9D9D9" stroke="#124012" stroke-width="2.36728"/>
<circle cx="351.433" cy="145.31" r="5.91819" fill="#D9D9D9" stroke="#124012" stroke-width="2.36728"/>
<circle cx="308.822" cy="161.881" r="5.91819" fill="#D9D9D9" stroke="#124012" stroke-width="2.36728"/>
<circle cx="358.535" cy="178.452" r="5.91819" fill="#D9D9D9" stroke="#124012" stroke-width="2.36728"/>
<circle cx="311.189" cy="195.023" r="5.91819" fill="#D9D9D9" stroke="#124012" stroke-width="2.36728"/>
<circle cx="214.131" cy="325.233" r="5.91819" fill="#D9D9D9" stroke="#124012" stroke-width="2.36728"/>
<circle cx="214.131" cy="472.004" r="5.91819" fill="#D9D9D9" stroke="#124012" stroke-width="2.36728"/>
<circle cx="308.822" cy="434.128" r="5.91819" fill="#D9D9D9" stroke="#124012" stroke-width="2.36728"/>
<circle cx="403.513" cy="431.76" r="5.91819" fill="#D9D9D9" stroke="#124012" stroke-width="2.36728"/>
<circle cx="457.961" cy="386.782" r="5.91819" fill="#D9D9D9" stroke="#124012" stroke-width="2.36728"/>
<circle cx="481.634" cy="202.135" r="5.91819" fill="#D9D9D9" stroke="#124012" stroke-width="2.36728"/>
<circle cx="479.266" cy="90.8725" r="5.91819" fill="#D9D9D9" stroke="#124012" stroke-width="2.36728"/>
<circle cx="420.084" cy="192.665" r="5.91819" fill="#D9D9D9" stroke="#124012" stroke-width="2.36728"/>
<circle cx="337.23" cy="244.745" r="5.91819" fill="#D9D9D9" stroke="#124012" stroke-width="2.36728"/>
<circle cx="292.251" cy="294.458" r="5.91819" fill="#D9D9D9" stroke="#124012" stroke-width="2.36728"/>
<circle cx="323.026" cy="339.437" r="5.91819" fill="#D9D9D9" stroke="#124012" stroke-width="2.36728"/>
<circle cx="502.939" cy="171.36" r="5.91819" fill="#D9D9D9" stroke="#124012" stroke-width="2.36728"/>
<circle cx="431.921" cy="64.8323" r="5.91819" fill="#D9D9D9" stroke="#124012" stroke-width="2.36728"/>
<circle cx="169.153" cy="391.517" r="5.91819" fill="#D9D9D9" stroke="#124012" stroke-width="2.36728"/>
<circle cx="285.149" cy="230.533" r="5.91819" fill="#D9D9D9" stroke="#124012" stroke-width="2.36728"/>
<circle cx="169.153" cy="296.826" r="5.91819" fill="#D9D9D9" stroke="#124012" stroke-width="2.36728"/>
<circle cx="450.859" cy="315.754" r="5.91819" fill="#D9D9D9" stroke="#124012" stroke-width="2.36728"/>
<circle cx="488.735" cy="315.754" r="5.91819" fill="#D9D9D9" stroke="#124012" stroke-width="2.36728"/>
<circle cx="495.837" cy="294.449" r="5.91819" fill="#D9D9D9" stroke="#124012" stroke-width="2.36728"/>
<circle cx="465.063" cy="294.449" r="5.91819" fill="#D9D9D9" stroke="#124012" stroke-width="2.36728"/>
<circle cx="457.961" cy="244.736" r="5.91819" fill="#D9D9D9" stroke="#124012" stroke-width="2.36728"/>
<circle cx="524.244" cy="223.431" r="5.91819" fill="#D9D9D9" stroke="#124012" stroke-width="2.36728"/>
<circle cx="545.55" cy="185.554" r="5.91819" fill="#D9D9D9" stroke="#124012" stroke-width="2.36728"/>
<circle cx="545.55" cy="138.209" r="5.91819" fill="#D9D9D9" stroke="#124012" stroke-width="2.36728"/>
<circle cx="386.942" cy="287.347" r="5.91819" fill="#D9D9D9" stroke="#124012" stroke-width="2.36728"/>
<circle cx="372.739" cy="348.896" r="5.91819" fill="#D9D9D9" stroke="#124012" stroke-width="2.36728"/>
<circle cx="244.906" cy="164.249" r="5.91819" fill="#D9D9D9" stroke="#124012" stroke-width="2.36728"/>
<circle cx="261.477" cy="131.107" r="5.91819" fill="#D9D9D9" stroke="#124012" stroke-width="2.36728"/>
<circle cx="214.131" cy="119.27" r="5.91819" fill="#D9D9D9" stroke="#124012" stroke-width="2.36728"/>
<path d="M121.741 561.703C120.207 561.703 118.843 561.305 117.65 560.51C116.457 559.695 115.52 558.54 114.838 557.044C114.156 555.529 113.815 553.711 113.815 551.59C113.815 549.469 114.156 547.66 114.838 546.164C115.52 544.649 116.457 543.494 117.65 542.698C118.843 541.884 120.207 541.477 121.741 541.477C123.275 541.477 124.639 541.884 125.832 542.698C127.025 543.494 127.962 544.649 128.644 546.164C129.345 547.66 129.695 549.469 129.695 551.59C129.695 553.711 129.345 555.529 128.644 557.044C127.962 558.54 127.025 559.695 125.832 560.51C124.639 561.305 123.275 561.703 121.741 561.703ZM121.741 559.828C122.915 559.828 123.938 559.516 124.809 558.891C125.68 558.247 126.362 557.319 126.854 556.107C127.347 554.876 127.593 553.37 127.593 551.59C127.593 549.81 127.347 548.314 126.854 547.102C126.362 545.871 125.68 544.943 124.809 544.318C123.938 543.674 122.915 543.352 121.741 543.352C120.605 543.352 119.591 543.674 118.701 544.318C117.811 544.943 117.12 545.871 116.628 547.102C116.135 548.314 115.889 549.81 115.889 551.59C115.889 553.37 116.135 554.876 116.628 556.107C117.12 557.319 117.811 558.247 118.701 558.891C119.591 559.516 120.605 559.828 121.741 559.828Z" fill="black"/>
<path d="M201.035 561.532V560.084L209.302 551.987C210.059 551.249 210.628 550.605 211.006 550.056C211.385 549.488 211.641 548.957 211.773 548.465C211.906 547.973 211.972 547.509 211.972 547.073C211.972 545.918 211.574 545.009 210.779 544.346C210.003 543.683 208.847 543.352 207.313 543.352C206.139 543.352 205.098 543.532 204.189 543.891C203.298 544.251 202.531 544.81 201.888 545.567L200.439 544.318C201.215 543.408 202.21 542.708 203.422 542.215C204.634 541.723 205.988 541.477 207.484 541.477C208.828 541.477 209.993 541.695 210.978 542.13C211.963 542.547 212.72 543.162 213.251 543.977C213.8 544.791 214.074 545.747 214.074 546.846C214.074 547.49 213.98 548.124 213.79 548.749C213.62 549.374 213.298 550.037 212.824 550.738C212.37 551.419 211.698 552.196 210.807 553.067L203.223 560.51L202.655 559.714H214.983V561.532H201.035ZM225.42 561.703C223.886 561.703 222.523 561.305 221.33 560.51C220.137 559.695 219.199 558.54 218.517 557.044C217.836 555.529 217.495 553.711 217.495 551.59C217.495 549.469 217.836 547.66 218.517 546.164C219.199 544.649 220.137 543.494 221.33 542.698C222.523 541.884 223.886 541.477 225.42 541.477C226.954 541.477 228.318 541.884 229.511 542.698C230.704 543.494 231.642 544.649 232.323 546.164C233.024 547.66 233.374 549.469 233.374 551.59C233.374 553.711 233.024 555.529 232.323 557.044C231.642 558.54 230.704 559.695 229.511 560.51C228.318 561.305 226.954 561.703 225.42 561.703ZM225.42 559.828C226.595 559.828 227.617 559.515 228.488 558.89C229.36 558.247 230.041 557.319 230.534 556.107C231.026 554.876 231.272 553.37 231.272 551.59C231.272 549.81 231.026 548.313 230.534 547.101C230.041 545.87 229.36 544.942 228.488 544.318C227.617 543.674 226.595 543.352 225.42 543.352C224.284 543.352 223.271 543.674 222.381 544.318C221.491 544.942 220.799 545.87 220.307 547.101C219.815 548.313 219.568 549.81 219.568 551.59C219.568 553.37 219.815 554.876 220.307 556.107C220.799 557.319 221.491 558.247 222.381 558.89C223.271 559.515 224.284 559.828 225.42 559.828Z" fill="black"/>
<path d="M302.857 556.305V554.828L313.396 541.647H315.668L305.214 554.828L304.107 554.487H320.1V556.305H302.857ZM314.078 561.532V556.305L314.134 554.487V549.885H316.123V561.532H314.078ZM329.904 561.703C328.37 561.703 327.007 561.305 325.814 560.51C324.62 559.695 323.683 558.54 323.001 557.044C322.319 555.529 321.979 553.711 321.979 551.59C321.979 549.469 322.319 547.66 323.001 546.164C323.683 544.649 324.62 543.494 325.814 542.698C327.007 541.884 328.37 541.477 329.904 541.477C331.438 541.477 332.802 541.884 333.995 542.698C335.188 543.494 336.125 544.649 336.807 546.164C337.508 547.66 337.858 549.469 337.858 551.59C337.858 553.711 337.508 555.529 336.807 557.044C336.125 558.54 335.188 559.695 333.995 560.51C332.802 561.305 331.438 561.703 329.904 561.703ZM329.904 559.828C331.078 559.828 332.101 559.515 332.972 558.89C333.843 558.247 334.525 557.319 335.017 556.107C335.51 554.876 335.756 553.37 335.756 551.59C335.756 549.81 335.51 548.313 335.017 547.101C334.525 545.87 333.843 544.942 332.972 544.318C332.101 543.674 331.078 543.352 329.904 543.352C328.768 543.352 327.755 543.674 326.865 544.318C325.974 544.942 325.283 545.87 324.791 547.101C324.298 548.313 324.052 549.81 324.052 551.59C324.052 553.37 324.298 554.876 324.791 556.107C325.283 557.319 325.974 558.247 326.865 558.89C327.755 559.515 328.768 559.828 329.904 559.828Z" fill="black"/>
<path d="M413.143 561.703C411.382 561.703 409.895 561.315 408.683 560.538C407.471 559.743 406.553 558.606 405.928 557.129C405.303 555.633 404.99 553.843 404.99 551.76C404.99 549.507 405.369 547.622 406.127 546.107C406.903 544.573 407.973 543.418 409.337 542.641C410.7 541.865 412.282 541.477 414.081 541.477C414.971 541.477 415.823 541.562 416.637 541.732C417.452 541.903 418.171 542.177 418.796 542.556L417.973 544.204C417.461 543.863 416.874 543.626 416.211 543.494C415.548 543.342 414.848 543.266 414.109 543.266C411.969 543.266 410.255 543.948 408.967 545.312C407.699 546.675 407.064 548.711 407.064 551.419C407.064 551.836 407.083 552.357 407.121 552.982C407.178 553.588 407.291 554.194 407.462 554.8L406.752 554.26C406.96 553.275 407.367 552.442 407.973 551.76C408.579 551.06 409.337 550.529 410.246 550.169C411.155 549.81 412.149 549.63 413.228 549.63C414.554 549.63 415.719 549.876 416.723 550.368C417.726 550.861 418.512 551.552 419.08 552.442C419.649 553.332 419.933 554.383 419.933 555.595C419.933 556.826 419.639 557.906 419.052 558.834C418.465 559.743 417.651 560.453 416.609 560.964C415.586 561.457 414.431 561.703 413.143 561.703ZM413.058 559.97C414.005 559.97 414.838 559.8 415.558 559.459C416.296 559.099 416.874 558.597 417.291 557.953C417.707 557.29 417.916 556.523 417.916 555.652C417.916 554.345 417.461 553.304 416.552 552.527C415.662 551.751 414.45 551.363 412.916 551.363C411.893 551.363 411.003 551.552 410.246 551.931C409.488 552.309 408.892 552.83 408.456 553.493C408.02 554.137 407.803 554.876 407.803 555.709C407.803 556.428 408.002 557.12 408.399 557.783C408.797 558.426 409.384 558.957 410.16 559.373C410.956 559.771 411.922 559.97 413.058 559.97ZM430.227 561.703C428.693 561.703 427.329 561.305 426.136 560.51C424.943 559.695 424.006 558.54 423.324 557.044C422.642 555.529 422.301 553.711 422.301 551.59C422.301 549.469 422.642 547.66 423.324 546.164C424.006 544.649 424.943 543.494 426.136 542.698C427.329 541.884 428.693 541.477 430.227 541.477C431.761 541.477 433.124 541.884 434.317 542.698C435.51 543.494 436.448 544.649 437.13 546.164C437.83 547.66 438.181 549.469 438.181 551.59C438.181 553.711 437.83 555.529 437.13 557.044C436.448 558.54 435.51 559.695 434.317 560.51C433.124 561.305 431.761 561.703 430.227 561.703ZM430.227 559.828C431.401 559.828 432.424 559.515 433.295 558.89C434.166 558.247 434.848 557.319 435.34 556.107C435.832 554.876 436.079 553.37 436.079 551.59C436.079 549.81 435.832 548.313 435.34 547.101C434.848 545.87 434.166 544.942 433.295 544.318C432.424 543.674 431.401 543.352 430.227 543.352C429.09 543.352 428.077 543.674 427.187 544.318C426.297 544.942 425.606 545.87 425.113 547.101C424.621 548.313 424.375 549.81 424.375 551.59C424.375 553.37 424.621 554.876 425.113 556.107C425.606 557.319 426.297 558.247 427.187 558.89C428.077 559.515 429.09 559.828 430.227 559.828Z" fill="black"/>
<path d="M514.34 561.703C512.749 561.703 511.376 561.476 510.221 561.021C509.084 560.566 508.204 559.913 507.579 559.061C506.973 558.19 506.67 557.167 506.67 555.993C506.67 554.857 506.963 553.891 507.55 553.095C508.156 552.281 509.028 551.656 510.164 551.22C511.319 550.785 512.711 550.567 514.34 550.567C515.95 550.567 517.332 550.785 518.487 551.22C519.643 551.656 520.523 552.281 521.129 553.095C521.754 553.891 522.067 554.857 522.067 555.993C522.067 557.167 521.754 558.19 521.129 559.061C520.504 559.913 519.614 560.566 518.459 561.021C517.304 561.476 515.931 561.703 514.34 561.703ZM514.34 559.97C516.101 559.97 517.474 559.61 518.459 558.89C519.463 558.171 519.964 557.195 519.964 555.965C519.964 554.734 519.463 553.768 518.459 553.067C517.474 552.347 516.101 551.987 514.34 551.987C512.579 551.987 511.206 552.347 510.221 553.067C509.236 553.768 508.744 554.734 508.744 555.965C508.744 557.195 509.236 558.171 510.221 558.89C511.206 559.61 512.579 559.97 514.34 559.97ZM514.34 551.732C512.863 551.732 511.603 551.533 510.562 551.135C509.539 550.738 508.753 550.169 508.204 549.431C507.655 548.673 507.38 547.774 507.38 546.732C507.38 545.634 507.664 544.696 508.232 543.92C508.819 543.124 509.634 542.518 510.675 542.102C511.717 541.685 512.938 541.477 514.34 541.477C515.741 541.477 516.963 541.685 518.004 542.102C519.065 542.518 519.889 543.124 520.476 543.92C521.063 544.696 521.356 545.634 521.356 546.732C521.356 547.774 521.082 548.673 520.533 549.431C519.983 550.169 519.179 550.738 518.118 551.135C517.076 551.533 515.817 551.732 514.34 551.732ZM514.34 550.368C515.893 550.368 517.105 550.046 517.976 549.402C518.847 548.759 519.283 547.897 519.283 546.817C519.283 545.681 518.828 544.8 517.919 544.175C517.029 543.532 515.836 543.21 514.34 543.21C512.844 543.21 511.651 543.532 510.76 544.175C509.87 544.8 509.425 545.672 509.425 546.789C509.425 547.887 509.851 548.759 510.704 549.402C511.575 550.046 512.787 550.368 514.34 550.368ZM532.824 561.703C531.29 561.703 529.927 561.305 528.734 560.51C527.541 559.695 526.603 558.54 525.921 557.044C525.24 555.529 524.899 553.711 524.899 551.59C524.899 549.469 525.24 547.66 525.921 546.164C526.603 544.649 527.541 543.494 528.734 542.698C529.927 541.884 531.29 541.477 532.824 541.477C534.358 541.477 535.722 541.884 536.915 542.698C538.108 543.494 539.046 544.649 539.727 546.164C540.428 547.66 540.778 549.469 540.778 551.59C540.778 553.711 540.428 555.529 539.727 557.044C539.046 558.54 538.108 559.695 536.915 560.51C535.722 561.305 534.358 561.703 532.824 561.703ZM532.824 559.828C533.998 559.828 535.021 559.515 535.892 558.89C536.763 558.247 537.445 557.319 537.938 556.107C538.43 554.876 538.676 553.37 538.676 551.59C538.676 549.81 538.43 548.313 537.938 547.101C537.445 545.87 536.763 544.942 535.892 544.318C535.021 543.674 533.998 543.352 532.824 543.352C531.688 543.352 530.675 543.674 529.785 544.318C528.895 544.942 528.203 545.87 527.711 547.101C527.219 548.313 526.972 549.81 526.972 551.59C526.972 553.37 527.219 554.876 527.711 556.107C528.203 557.319 528.895 558.247 529.785 558.89C530.675 559.515 531.688 559.828 532.824 559.828Z" fill="black"/>
<path d="M628.467 561.532V542.499L629.376 543.465H623.78V541.647H630.512V561.532H628.467ZM643.191 561.703C641.657 561.703 640.294 561.305 639.101 560.51C637.907 559.695 636.97 558.54 636.288 557.044C635.606 555.529 635.266 553.711 635.266 551.59C635.266 549.469 635.606 547.66 636.288 546.164C636.97 544.649 637.907 543.494 639.101 542.698C640.294 541.884 641.657 541.477 643.191 541.477C644.725 541.477 646.089 541.884 647.282 542.698C648.475 543.494 649.412 544.649 650.094 546.164C650.795 547.66 651.145 549.469 651.145 551.59C651.145 553.711 650.795 555.529 650.094 557.044C649.412 558.54 648.475 559.695 647.282 560.51C646.089 561.305 644.725 561.703 643.191 561.703ZM643.191 559.828C644.365 559.828 645.388 559.515 646.259 558.89C647.13 558.247 647.812 557.319 648.305 556.107C648.797 554.876 649.043 553.37 649.043 551.59C649.043 549.81 648.797 548.313 648.305 547.101C647.812 545.87 647.13 544.942 646.259 544.318C645.388 543.674 644.365 543.352 643.191 543.352C642.055 543.352 641.042 543.674 640.152 544.318C639.262 544.942 638.57 545.87 638.078 547.101C637.586 548.313 637.339 549.81 637.339 551.59C637.339 553.37 637.586 554.876 638.078 556.107C638.57 557.319 639.262 558.247 640.152 558.89C641.042 559.515 642.055 559.828 643.191 559.828ZM662 561.703C660.466 561.703 659.102 561.305 657.909 560.51C656.716 559.695 655.779 558.54 655.097 557.044C654.415 555.529 654.074 553.711 654.074 551.59C654.074 549.469 654.415 547.66 655.097 546.164C655.779 544.649 656.716 543.494 657.909 542.698C659.102 541.884 660.466 541.477 662 541.477C663.534 541.477 664.898 541.884 666.091 542.698C667.284 543.494 668.221 544.649 668.903 546.164C669.604 547.66 669.954 549.469 669.954 551.59C669.954 553.711 669.604 555.529 668.903 557.044C668.221 558.54 667.284 559.695 666.091 560.51C664.898 561.305 663.534 561.703 662 561.703ZM662 559.828C663.174 559.828 664.197 559.515 665.068 558.89C665.939 558.247 666.621 557.319 667.113 556.107C667.606 554.876 667.852 553.37 667.852 551.59C667.852 549.81 667.606 548.313 667.113 547.101C666.621 545.87 665.939 544.942 665.068 544.318C664.197 543.674 663.174 543.352 662 543.352C660.864 543.352 659.851 543.674 658.96 544.318C658.07 544.942 657.379 545.87 656.887 547.101C656.394 548.313 656.148 549.81 656.148 551.59C656.148 553.37 656.394 554.876 656.887 556.107C657.379 557.319 658.07 558.247 658.96 558.89C659.851 559.515 660.864 559.828 662 559.828Z" fill="black"/>
<path d="M59.7026 470.059V468.611L67.9691 460.515C68.7267 459.776 69.2948 459.132 69.6736 458.583C70.0523 458.015 70.308 457.484 70.4406 456.992C70.5732 456.5 70.6394 456.036 70.6394 455.6C70.6394 454.445 70.2417 453.536 69.4463 452.873C68.6699 452.21 67.5146 451.879 65.9806 451.879C64.8065 451.879 63.7649 452.059 62.8558 452.418C61.9657 452.778 61.1987 453.337 60.5548 454.095L59.1061 452.845C59.8825 451.936 60.8768 451.235 62.0888 450.742C63.3009 450.25 64.655 450.004 66.1511 450.004C67.4957 450.004 68.6604 450.222 69.6452 450.657C70.63 451.074 71.3875 451.689 71.9178 452.504C72.467 453.318 72.7416 454.274 72.7416 455.373C72.7416 456.017 72.6469 456.651 72.4575 457.276C72.2871 457.901 71.9651 458.564 71.4917 459.265C71.0371 459.946 70.3648 460.723 69.4747 461.594L61.89 469.037L61.3218 468.241H73.6506V470.059H59.7026ZM84.0876 470.23C82.5536 470.23 81.1901 469.832 79.997 469.037C78.8039 468.222 77.8664 467.067 77.1847 465.571C76.5029 464.056 76.162 462.238 76.162 460.117C76.162 457.996 76.5029 456.187 77.1847 454.691C77.8664 453.176 78.8039 452.021 79.997 451.225C81.1901 450.411 82.5536 450.004 84.0876 450.004C85.6216 450.004 86.9852 450.411 88.1783 451.225C89.3714 452.021 90.3088 453.176 90.9906 454.691C91.6913 456.187 92.0417 457.996 92.0417 460.117C92.0417 462.238 91.6913 464.056 90.9906 465.571C90.3088 467.067 89.3714 468.222 88.1783 469.037C86.9852 469.832 85.6216 470.23 84.0876 470.23ZM84.0876 468.355C85.2618 468.355 86.2845 468.043 87.1556 467.418C88.0268 466.774 88.7086 465.846 89.201 464.634C89.6934 463.403 89.9395 461.897 89.9395 460.117C89.9395 458.337 89.6934 456.841 89.201 455.629C88.7086 454.398 88.0268 453.47 87.1556 452.845C86.2845 452.201 85.2618 451.879 84.0876 451.879C82.9513 451.879 81.9382 452.201 81.0481 452.845C80.158 453.47 79.4667 454.398 78.9743 455.629C78.4819 456.841 78.2357 458.337 78.2357 460.117C78.2357 461.897 78.4819 463.403 78.9743 464.634C79.4667 465.846 80.158 466.774 81.0481 467.418C81.9382 468.043 82.9513 468.355 84.0876 468.355Z" fill="black"/>
<path d="M59.731 358.071V356.594L70.2701 343.413H72.5427L62.0888 356.594L60.9809 356.253L76.9743 356.253V358.071H59.731ZM70.9519 363.298V358.071L71.0087 356.253V351.651H72.9972V363.298H70.9519ZM86.7786 363.469C85.2446 363.469 83.881 363.071 82.6879 362.276C81.4948 361.461 80.5574 360.306 79.8756 358.81C79.1938 357.295 78.8529 355.477 78.8529 353.356C78.8529 351.235 79.1938 349.426 79.8756 347.93C80.5574 346.415 81.4948 345.26 82.6879 344.464C83.881 343.65 85.2446 343.243 86.7786 343.243C88.3126 343.243 89.6761 343.65 90.8692 344.464C92.0623 345.26 92.9998 346.415 93.6815 347.93C94.3823 349.426 94.7326 351.235 94.7326 353.356C94.7326 355.477 94.3823 357.295 93.6815 358.81C92.9998 360.306 92.0623 361.461 90.8692 362.276C89.6761 363.071 88.3126 363.469 86.7786 363.469ZM86.7786 361.594C87.9527 361.594 88.9754 361.281 89.8466 360.656C90.7177 360.013 91.3995 359.085 91.8919 357.873C92.3843 356.642 92.6305 355.136 92.6305 353.356C92.6305 351.576 92.3843 350.079 91.8919 348.867C91.3995 347.636 90.7177 346.708 89.8466 346.083C88.9754 345.44 87.9527 345.118 86.7786 345.118C85.6423 345.118 84.6291 345.44 83.739 346.083C82.8489 346.708 82.1576 347.636 81.6653 348.867C81.1729 350.079 80.9267 351.576 80.9267 353.356C80.9267 355.136 81.1729 356.642 81.6653 357.873C82.1576 359.085 82.8489 360.013 83.739 360.656C84.6291 361.281 85.6423 361.594 86.7786 361.594Z" fill="black"/>
<path d="M67.1168 257.881C65.3555 257.881 63.8689 257.493 62.6568 256.716C61.4448 255.921 60.5263 254.784 59.9013 253.307C59.2764 251.811 58.9639 250.022 58.9639 247.938C58.9639 245.685 59.3426 243.8 60.1002 242.285C60.8766 240.751 61.9466 239.596 63.3102 238.82C64.6737 238.043 66.2551 237.655 68.0542 237.655C68.9443 237.655 69.7965 237.74 70.6109 237.911C71.4252 238.081 72.1449 238.356 72.7698 238.734L71.946 240.382C71.4347 240.041 70.8476 239.804 70.1848 239.672C69.5219 239.52 68.8212 239.445 68.0826 239.445C65.9426 239.445 64.2287 240.126 62.9409 241.49C61.672 242.853 61.0376 244.889 61.0376 247.597C61.0376 248.014 61.0565 248.535 61.0944 249.16C61.1512 249.766 61.2649 250.372 61.4353 250.978L60.7251 250.438C60.9335 249.453 61.3406 248.62 61.9466 247.938C62.5527 247.238 63.3102 246.707 64.2192 246.348C65.1283 245.988 66.1225 245.808 67.202 245.808C68.5277 245.808 69.6924 246.054 70.6961 246.546C71.6998 247.039 72.4858 247.73 73.0539 248.62C73.6221 249.51 73.9061 250.561 73.9061 251.773C73.9061 253.004 73.6126 254.084 73.0255 255.012C72.4384 255.921 71.6241 256.631 70.5825 257.142C69.5598 257.635 68.4046 257.881 67.1168 257.881ZM67.0316 256.148C67.9785 256.148 68.8117 255.978 69.5314 255.637C70.27 255.277 70.8476 254.775 71.2642 254.131C71.6809 253.468 71.8892 252.701 71.8892 251.83C71.8892 250.523 71.4347 249.482 70.5257 248.705C69.6356 247.929 68.4235 247.541 66.8895 247.541C65.8669 247.541 64.9768 247.73 64.2192 248.109C63.4617 248.488 62.8651 249.008 62.4296 249.671C61.994 250.315 61.7762 251.054 61.7762 251.887C61.7762 252.607 61.9751 253.298 62.3728 253.961C62.7705 254.605 63.3575 255.135 64.134 255.551C64.9294 255.949 65.8953 256.148 67.0316 256.148ZM84.2002 257.881C82.6662 257.881 81.3027 257.483 80.1096 256.688C78.9165 255.873 77.979 254.718 77.2973 253.222C76.6155 251.707 76.2746 249.889 76.2746 247.768C76.2746 245.647 76.6155 243.838 77.2973 242.342C77.979 240.827 78.9165 239.672 80.1096 238.876C81.3027 238.062 82.6662 237.655 84.2002 237.655C85.7342 237.655 87.0978 238.062 88.2909 238.876C89.484 239.672 90.4214 240.827 91.1032 242.342C91.8039 243.838 92.1543 245.647 92.1543 247.768C92.1543 249.889 91.8039 251.707 91.1032 253.222C90.4214 254.718 89.484 255.873 88.2909 256.688C87.0978 257.483 85.7342 257.881 84.2002 257.881ZM84.2002 256.006C85.3744 256.006 86.3971 255.694 87.2682 255.069C88.1394 254.425 88.8212 253.497 89.3136 252.285C89.8059 251.054 90.0521 249.548 90.0521 247.768C90.0521 245.988 89.8059 244.492 89.3136 243.28C88.8212 242.049 88.1394 241.121 87.2682 240.496C86.3971 239.852 85.3744 239.53 84.2002 239.53C83.0639 239.53 82.0507 239.852 81.1607 240.496C80.2706 241.121 79.5793 242.049 79.0869 243.28C78.5945 244.492 78.3483 245.988 78.3483 247.768C78.3483 249.548 78.5945 251.054 79.0869 252.285C79.5793 253.497 80.2706 254.425 81.1607 255.069C82.0507 255.694 83.0639 256.006 84.2002 256.006Z" fill="black"/>
<path d="M67.6283 151.12C66.0374 151.12 64.6644 150.893 63.5092 150.438C62.3729 149.984 61.4923 149.33 60.8673 148.478C60.2613 147.607 59.9583 146.584 59.9583 145.41C59.9583 144.274 60.2518 143.308 60.8389 142.512C61.4449 141.698 62.3161 141.073 63.4524 140.638C64.6076 140.202 65.9996 139.984 67.6283 139.984C69.238 139.984 70.6205 140.202 71.7757 140.638C72.931 141.073 73.8116 141.698 74.4176 142.512C75.0426 143.308 75.3551 144.274 75.3551 145.41C75.3551 146.584 75.0426 147.607 74.4176 148.478C73.7926 149.33 72.9026 149.984 71.7473 150.438C70.5921 150.893 69.2191 151.12 67.6283 151.12ZM67.6283 149.387C69.3895 149.387 70.7625 149.027 71.7473 148.308C72.751 147.588 73.2529 146.613 73.2529 145.382C73.2529 144.151 72.751 143.185 71.7473 142.484C70.7625 141.764 69.3895 141.405 67.6283 141.405C65.867 141.405 64.494 141.764 63.5092 142.484C62.5244 143.185 62.032 144.151 62.032 145.382C62.032 146.613 62.5244 147.588 63.5092 148.308C64.494 149.027 65.867 149.387 67.6283 149.387ZM67.6283 141.149C66.1511 141.149 64.8917 140.95 63.8501 140.552C62.8274 140.155 62.0415 139.587 61.4923 138.848C60.9431 138.09 60.6685 137.191 60.6685 136.149C60.6685 135.051 60.9525 134.113 61.5207 133.337C62.1078 132.542 62.9221 131.935 63.9637 131.519C65.0053 131.102 66.2268 130.894 67.6283 130.894C69.0297 130.894 70.2512 131.102 71.2928 131.519C72.3533 131.935 73.1772 132.542 73.7642 133.337C74.3513 134.113 74.6449 135.051 74.6449 136.149C74.6449 137.191 74.3703 138.09 73.8211 138.848C73.2718 139.587 72.467 140.155 71.4064 140.552C70.3648 140.95 69.1054 141.149 67.6283 141.149ZM67.6283 139.785C69.1812 139.785 70.3932 139.463 71.2644 138.82C72.1356 138.176 72.5711 137.314 72.5711 136.234C72.5711 135.098 72.1166 134.218 71.2076 133.593C70.3175 132.949 69.1244 132.627 67.6283 132.627C66.1321 132.627 64.939 132.949 64.0489 133.593C63.1588 134.218 62.7138 135.089 62.7138 136.206C62.7138 137.304 63.1399 138.176 63.9921 138.82C64.8633 139.463 66.0753 139.785 67.6283 139.785ZM86.1128 151.12C84.5788 151.12 83.2152 150.722 82.0221 149.927C80.829 149.112 79.8916 147.957 79.2098 146.461C78.528 144.946 78.1871 143.128 78.1871 141.007C78.1871 138.886 78.528 137.077 79.2098 135.581C79.8916 134.066 80.829 132.911 82.0221 132.115C83.2152 131.301 84.5788 130.894 86.1128 130.894C87.6468 130.894 89.0103 131.301 90.2034 132.115C91.3965 132.911 92.334 134.066 93.0158 135.581C93.7165 137.077 94.0668 138.886 94.0668 141.007C94.0668 143.128 93.7165 144.946 93.0158 146.461C92.334 147.957 91.3965 149.112 90.2034 149.927C89.0103 150.722 87.6468 151.12 86.1128 151.12ZM86.1128 149.245C87.2869 149.245 88.3096 148.933 89.1808 148.308C90.0519 147.664 90.7337 146.736 91.2261 145.524C91.7185 144.293 91.9647 142.787 91.9647 141.007C91.9647 139.227 91.7185 137.731 91.2261 136.519C90.7337 135.288 90.0519 134.36 89.1808 133.735C88.3096 133.091 87.2869 132.769 86.1128 132.769C84.9765 132.769 83.9633 133.091 83.0732 133.735C82.1831 134.36 81.4918 135.288 80.9995 136.519C80.5071 137.731 80.2609 139.227 80.2609 141.007C80.2609 142.787 80.5071 144.293 80.9995 145.524C81.4918 146.736 82.1831 147.664 83.0732 148.308C83.9633 148.933 84.9765 149.245 86.1128 149.245Z" fill="black"/>
<path d="M63.5376 46.5348L63.5376 27.5019L64.4466 28.4677H58.8504V26.6497H65.5829V46.5348H63.5376ZM78.2619 46.7052C76.7279 46.7052 75.3644 46.3075 74.1713 45.5121C72.9782 44.6978 72.0407 43.5426 71.3589 42.0464C70.6772 40.5314 70.3363 38.7133 70.3363 36.5922C70.3363 34.4711 70.6772 32.6625 71.3589 31.1664C72.0407 29.6514 72.9782 28.4961 74.1713 27.7007C75.3644 26.8864 76.7279 26.4792 78.2619 26.4792C79.7959 26.4792 81.1595 26.8864 82.3526 27.7007C83.5457 28.4961 84.4831 29.6514 85.1649 31.1664C85.8656 32.6625 86.216 34.4711 86.216 36.5922C86.216 38.7133 85.8656 40.5314 85.1649 42.0464C84.4831 43.5426 83.5457 44.6978 82.3526 45.5121C81.1595 46.3075 79.7959 46.7052 78.2619 46.7052ZM78.2619 44.8304C79.4361 44.8304 80.4588 44.5179 81.3299 43.8929C82.2011 43.249 82.8828 42.321 83.3752 41.109C83.8676 39.878 84.1138 38.3724 84.1138 36.5922C84.1138 34.812 83.8676 33.3159 83.3752 32.1039C82.8828 30.8729 82.2011 29.9449 81.3299 29.3199C80.4588 28.676 79.4361 28.3541 78.2619 28.3541C77.1256 28.3541 76.1124 28.676 75.2223 29.3199C74.3322 29.9449 73.641 30.8729 73.1486 32.1039C72.6562 33.3159 72.41 34.812 72.41 36.5922C72.41 38.3724 72.6562 39.878 73.1486 41.109C73.641 42.321 74.3322 43.249 75.2223 43.8929C76.1124 44.5179 77.1256 44.8304 78.2619 44.8304ZM97.0707 46.7052C95.5367 46.7052 94.1731 46.3075 92.98 45.5121C91.7869 44.6978 90.8495 43.5426 90.1677 42.0464C89.4859 40.5314 89.145 38.7133 89.145 36.5922C89.145 34.4711 89.4859 32.6625 90.1677 31.1664C90.8495 29.6514 91.7869 28.4961 92.98 27.7007C94.1731 26.8864 95.5367 26.4792 97.0707 26.4792C98.6047 26.4792 99.9682 26.8864 101.161 27.7007C102.354 28.4961 103.292 29.6514 103.974 31.1664C104.674 32.6625 105.025 34.4711 105.025 36.5922C105.025 38.7133 104.674 40.5314 103.974 42.0464C103.292 43.5426 102.354 44.6978 101.161 45.5121C99.9682 46.3075 98.6047 46.7052 97.0707 46.7052ZM97.0707 44.8304C98.2448 44.8304 99.2675 44.5179 100.139 43.8929C101.01 43.249 101.692 42.321 102.184 41.109C102.676 39.878 102.923 38.3724 102.923 36.5922C102.923 34.812 102.676 33.3159 102.184 32.1039C101.692 30.8729 101.01 29.9449 100.139 29.3199C99.2675 28.676 98.2448 28.3541 97.0707 28.3541C95.9344 28.3541 94.9212 28.676 94.0311 29.3199C93.141 29.9449 92.4498 30.8729 91.9574 32.1039C91.465 33.3159 91.2188 34.812 91.2188 36.5922C91.2188 38.3724 91.465 39.878 91.9574 41.109C92.4498 42.321 93.141 43.249 94.0311 43.8929C94.9212 44.5179 95.9344 44.8304 97.0707 44.8304Z" fill="black"/>
<path d="M644.595 183.969C643.117 183.969 641.697 183.733 640.333 183.259C638.989 182.767 637.947 182.142 637.209 181.384L638.032 179.765C638.733 180.447 639.671 181.025 640.845 181.498C642.038 181.952 643.288 182.18 644.595 182.18C645.845 182.18 646.858 182.028 647.634 181.725C648.43 181.403 649.007 180.977 649.367 180.447C649.746 179.917 649.935 179.33 649.935 178.686C649.935 177.909 649.708 177.284 649.253 176.811C648.818 176.337 648.24 175.968 647.521 175.703C646.801 175.419 646.005 175.173 645.134 174.964C644.263 174.756 643.392 174.538 642.521 174.311C641.65 174.065 640.845 173.743 640.106 173.345C639.387 172.947 638.799 172.427 638.345 171.783C637.909 171.12 637.692 170.258 637.692 169.198C637.692 168.213 637.947 167.313 638.459 166.499C638.989 165.666 639.794 165.003 640.873 164.51C641.953 163.999 643.335 163.743 645.021 163.743C646.138 163.743 647.246 163.904 648.344 164.226C649.443 164.529 650.39 164.955 651.185 165.505L650.475 167.181C649.623 166.613 648.714 166.196 647.748 165.931C646.801 165.666 645.882 165.533 644.992 165.533C643.799 165.533 642.814 165.694 642.038 166.016C641.261 166.338 640.684 166.773 640.305 167.323C639.945 167.853 639.765 168.459 639.765 169.141C639.765 169.917 639.983 170.542 640.419 171.016C640.873 171.489 641.46 171.858 642.18 172.124C642.919 172.389 643.723 172.625 644.595 172.834C645.466 173.042 646.327 173.269 647.18 173.515C648.051 173.762 648.846 174.084 649.566 174.481C650.304 174.86 650.892 175.371 651.327 176.015C651.782 176.659 652.009 177.502 652.009 178.544C652.009 179.509 651.744 180.409 651.213 181.242C650.683 182.057 649.869 182.719 648.77 183.231C647.691 183.723 646.299 183.969 644.595 183.969ZM662.498 183.941C660.945 183.941 659.581 183.619 658.407 182.975C657.233 182.312 656.315 181.413 655.652 180.276C654.989 179.121 654.657 177.805 654.657 176.328C654.657 174.851 654.97 173.544 655.595 172.408C656.239 171.271 657.11 170.381 658.208 169.737C659.326 169.074 660.576 168.743 661.958 168.743C663.36 168.743 664.6 169.065 665.679 169.709C666.778 170.334 667.64 171.224 668.265 172.379C668.89 173.515 669.202 174.832 669.202 176.328C669.202 176.423 669.193 176.527 669.174 176.64C669.174 176.735 669.174 176.839 669.174 176.953H656.191V175.447H668.094L667.299 176.044C667.299 174.964 667.062 174.008 666.589 173.175C666.134 172.322 665.509 171.66 664.714 171.186C663.918 170.713 663 170.476 661.958 170.476C660.935 170.476 660.017 170.713 659.203 171.186C658.388 171.66 657.754 172.322 657.299 173.175C656.845 174.027 656.618 175.002 656.618 176.101V176.413C656.618 177.549 656.864 178.553 657.356 179.424C657.867 180.276 658.568 180.949 659.458 181.441C660.367 181.915 661.399 182.151 662.555 182.151C663.464 182.151 664.306 181.99 665.083 181.668C665.878 181.346 666.56 180.854 667.128 180.191L668.265 181.498C667.602 182.293 666.768 182.899 665.765 183.316C664.78 183.733 663.691 183.941 662.498 183.941ZM679.5 183.941C678.023 183.941 676.697 183.619 675.523 182.975C674.368 182.312 673.459 181.413 672.796 180.276C672.133 179.121 671.802 177.805 671.802 176.328C671.802 174.832 672.133 173.515 672.796 172.379C673.459 171.243 674.368 170.353 675.523 169.709C676.697 169.065 678.023 168.743 679.5 168.743C680.769 168.743 681.915 168.989 682.937 169.482C683.96 169.974 684.765 170.713 685.352 171.697L683.846 172.72C683.335 171.963 682.701 171.404 681.943 171.044C681.186 170.684 680.362 170.504 679.472 170.504C678.411 170.504 677.455 170.751 676.603 171.243C675.75 171.716 675.078 172.389 674.586 173.26C674.093 174.131 673.847 175.154 673.847 176.328C673.847 177.502 674.093 178.525 674.586 179.396C675.078 180.267 675.75 180.949 676.603 181.441C677.455 181.915 678.411 182.151 679.472 182.151C680.362 182.151 681.186 181.971 681.943 181.612C682.701 181.252 683.335 180.703 683.846 179.964L685.352 180.987C684.765 181.952 683.96 182.691 682.937 183.202C681.915 183.695 680.769 183.941 679.5 183.941ZM695.144 183.941C693.704 183.941 692.407 183.619 691.252 182.975C690.116 182.312 689.216 181.413 688.553 180.276C687.89 179.121 687.559 177.805 687.559 176.328C687.559 174.832 687.89 173.515 688.553 172.379C689.216 171.243 690.116 170.353 691.252 169.709C692.388 169.065 693.685 168.743 695.144 168.743C696.621 168.743 697.928 169.065 699.064 169.709C700.219 170.353 701.119 171.243 701.763 172.379C702.425 173.515 702.757 174.832 702.757 176.328C702.757 177.805 702.425 179.121 701.763 180.276C701.119 181.413 700.219 182.312 699.064 182.975C697.909 183.619 696.602 183.941 695.144 183.941ZM695.144 182.151C696.223 182.151 697.18 181.915 698.013 181.441C698.846 180.949 699.499 180.267 699.973 179.396C700.465 178.506 700.711 177.483 700.711 176.328C700.711 175.154 700.465 174.131 699.973 173.26C699.499 172.389 698.846 171.716 698.013 171.243C697.18 170.751 696.233 170.504 695.172 170.504C694.112 170.504 693.165 170.751 692.331 171.243C691.498 171.716 690.835 172.389 690.343 173.26C689.85 174.131 689.604 175.154 689.604 176.328C689.604 177.483 689.85 178.506 690.343 179.396C690.835 180.267 691.498 180.949 692.331 181.441C693.165 181.915 694.102 182.151 695.144 182.151ZM714.488 168.743C715.7 168.743 716.76 168.98 717.669 169.453C718.597 169.908 719.317 170.608 719.828 171.555C720.359 172.502 720.624 173.695 720.624 175.135V183.799H718.607V175.334C718.607 173.762 718.209 172.578 717.414 171.783C716.637 170.968 715.539 170.561 714.118 170.561C713.058 170.561 712.13 170.779 711.334 171.215C710.558 171.631 709.952 172.247 709.516 173.061C709.1 173.856 708.891 174.822 708.891 175.959V183.799H706.875V168.885H708.806V172.976L708.494 172.209C708.967 171.129 709.725 170.287 710.766 169.681C711.808 169.056 713.048 168.743 714.488 168.743ZM732.009 183.941C730.588 183.941 729.31 183.619 728.174 182.975C727.056 182.331 726.176 181.441 725.532 180.305C724.888 179.15 724.566 177.824 724.566 176.328C724.566 174.813 724.888 173.487 725.532 172.351C726.176 171.215 727.056 170.334 728.174 169.709C729.31 169.065 730.588 168.743 732.009 168.743C733.316 168.743 734.48 169.037 735.503 169.624C736.545 170.211 737.368 171.072 737.974 172.209C738.599 173.326 738.912 174.699 738.912 176.328C738.912 177.938 738.609 179.311 738.003 180.447C737.397 181.583 736.573 182.454 735.531 183.06C734.509 183.647 733.334 183.941 732.009 183.941ZM732.151 182.151C733.211 182.151 734.158 181.915 734.992 181.441C735.844 180.949 736.507 180.267 736.98 179.396C737.472 178.506 737.719 177.483 737.719 176.328C737.719 175.154 737.472 174.131 736.98 173.26C736.507 172.389 735.844 171.716 734.992 171.243C734.158 170.751 733.211 170.504 732.151 170.504C731.109 170.504 730.172 170.751 729.339 171.243C728.505 171.716 727.842 172.389 727.35 173.26C726.858 174.131 726.611 175.154 726.611 176.328C726.611 177.483 726.858 178.506 727.35 179.396C727.842 180.267 728.505 180.949 729.339 181.441C730.172 181.915 731.109 182.151 732.151 182.151ZM737.776 183.799V179.311L737.974 176.299L737.69 173.288V162.721H739.707V183.799H737.776ZM759.122 189.452C757.759 189.452 756.452 189.253 755.202 188.855C753.952 188.458 752.939 187.89 752.162 187.151L753.185 185.617C753.886 186.242 754.748 186.734 755.77 187.094C756.812 187.473 757.91 187.662 759.065 187.662C760.959 187.662 762.351 187.217 763.241 186.327C764.131 185.456 764.576 184.092 764.576 182.237V178.515L764.861 175.959L764.662 173.402V168.885H766.593V181.981C766.593 184.556 765.959 186.441 764.69 187.634C763.44 188.846 761.584 189.452 759.122 189.452ZM758.753 183.231C757.333 183.231 756.054 182.928 754.918 182.322C753.782 181.697 752.882 180.835 752.219 179.737C751.575 178.638 751.253 177.379 751.253 175.959C751.253 174.538 751.575 173.288 752.219 172.209C752.882 171.11 753.782 170.258 754.918 169.652C756.054 169.046 757.333 168.743 758.753 168.743C760.079 168.743 761.272 169.018 762.332 169.567C763.393 170.116 764.236 170.93 764.861 172.01C765.486 173.089 765.798 174.406 765.798 175.959C765.798 177.511 765.486 178.828 764.861 179.907C764.236 180.987 763.393 181.81 762.332 182.379C761.272 182.947 760.079 183.231 758.753 183.231ZM758.952 181.441C760.05 181.441 761.026 181.214 761.878 180.759C762.73 180.286 763.402 179.642 763.895 178.828C764.387 177.994 764.633 177.038 764.633 175.959C764.633 174.879 764.387 173.932 763.895 173.118C763.402 172.303 762.73 171.669 761.878 171.215C761.026 170.741 760.05 170.504 758.952 170.504C757.872 170.504 756.897 170.741 756.026 171.215C755.174 171.669 754.501 172.303 754.009 173.118C753.536 173.932 753.299 174.879 753.299 175.959C753.299 177.038 753.536 177.994 754.009 178.828C754.501 179.642 755.174 180.286 756.026 180.759C756.897 181.214 757.872 181.441 758.952 181.441ZM778.37 183.941C777.101 183.941 775.993 183.704 775.047 183.231C774.1 182.757 773.361 182.047 772.831 181.1C772.319 180.153 772.064 178.97 772.064 177.549V168.885H774.081V177.322C774.081 178.913 774.469 180.115 775.245 180.93C776.041 181.725 777.149 182.123 778.569 182.123C779.611 182.123 780.51 181.915 781.268 181.498C782.044 181.062 782.631 180.437 783.029 179.623C783.446 178.809 783.654 177.833 783.654 176.697V168.885H785.671V183.799H783.739V179.708L784.052 180.447C783.578 181.545 782.84 182.407 781.836 183.032C780.851 183.638 779.696 183.941 778.37 183.941ZM797.627 183.941C796.074 183.941 794.71 183.619 793.536 182.975C792.362 182.312 791.444 181.413 790.781 180.276C790.118 179.121 789.786 177.805 789.786 176.328C789.786 174.851 790.099 173.544 790.724 172.408C791.368 171.271 792.239 170.381 793.337 169.737C794.455 169.074 795.705 168.743 797.087 168.743C798.489 168.743 799.729 169.065 800.808 169.709C801.907 170.334 802.769 171.224 803.394 172.379C804.019 173.515 804.331 174.832 804.331 176.328C804.331 176.423 804.322 176.527 804.303 176.64C804.303 176.735 804.303 176.839 804.303 176.953H791.32V175.447H803.223L802.428 176.044C802.428 174.964 802.191 174.008 801.718 173.175C801.263 172.322 800.638 171.66 799.843 171.186C799.047 170.713 798.129 170.476 797.087 170.476C796.064 170.476 795.146 170.713 794.332 171.186C793.517 171.66 792.883 172.322 792.428 173.175C791.974 174.027 791.747 175.002 791.747 176.101V176.413C791.747 177.549 791.993 178.553 792.485 179.424C792.996 180.276 793.697 180.949 794.587 181.441C795.496 181.915 796.528 182.151 797.684 182.151C798.593 182.151 799.435 181.99 800.212 181.668C801.007 181.346 801.689 180.854 802.257 180.191L803.394 181.498C802.731 182.293 801.897 182.899 800.894 183.316C799.909 183.733 798.82 183.941 797.627 183.941ZM812.442 183.941C811.211 183.941 810.046 183.771 808.948 183.43C807.849 183.07 806.988 182.625 806.363 182.095L807.272 180.504C807.878 180.958 808.654 181.356 809.601 181.697C810.548 182.019 811.542 182.18 812.584 182.18C814.004 182.18 815.027 181.962 815.652 181.526C816.277 181.072 816.589 180.475 816.589 179.737C816.589 179.187 816.409 178.761 816.049 178.458C815.709 178.136 815.254 177.9 814.686 177.748C814.118 177.578 813.483 177.436 812.783 177.322C812.082 177.208 811.381 177.076 810.68 176.924C809.999 176.773 809.374 176.555 808.806 176.271C808.237 175.968 807.773 175.561 807.414 175.049C807.073 174.538 806.902 173.856 806.902 173.004C806.902 172.19 807.13 171.461 807.584 170.817C808.039 170.173 808.701 169.671 809.573 169.311C810.463 168.932 811.542 168.743 812.811 168.743C813.777 168.743 814.743 168.876 815.709 169.141C816.674 169.387 817.47 169.718 818.095 170.135L817.214 171.754C816.551 171.3 815.841 170.978 815.084 170.788C814.326 170.58 813.569 170.476 812.811 170.476C811.466 170.476 810.472 170.713 809.828 171.186C809.203 171.641 808.891 172.228 808.891 172.947C808.891 173.515 809.061 173.961 809.402 174.282C809.762 174.604 810.226 174.86 810.794 175.049C811.381 175.22 812.016 175.362 812.697 175.476C813.398 175.589 814.089 175.731 814.771 175.902C815.472 176.053 816.106 176.271 816.674 176.555C817.261 176.82 817.725 177.208 818.066 177.72C818.426 178.212 818.606 178.866 818.606 179.68C818.606 180.551 818.36 181.309 817.868 181.952C817.394 182.577 816.693 183.07 815.765 183.43C814.856 183.771 813.748 183.941 812.442 183.941ZM826.312 183.941C825.082 183.941 823.917 183.771 822.818 183.43C821.72 183.07 820.858 182.625 820.233 182.095L821.142 180.504C821.748 180.958 822.525 181.356 823.472 181.697C824.419 182.019 825.413 182.18 826.455 182.18C827.875 182.18 828.898 181.962 829.523 181.526C830.147 181.072 830.46 180.475 830.46 179.737C830.46 179.187 830.28 178.761 829.92 178.458C829.579 178.136 829.125 177.9 828.557 177.748C827.989 177.578 827.354 177.436 826.653 177.322C825.953 177.208 825.252 177.076 824.551 176.924C823.869 176.773 823.245 176.555 822.676 176.271C822.108 175.968 821.644 175.561 821.284 175.049C820.944 174.538 820.773 173.856 820.773 173.004C820.773 172.19 821 171.461 821.455 170.817C821.909 170.173 822.572 169.671 823.443 169.311C824.333 168.932 825.413 168.743 826.682 168.743C827.648 168.743 828.613 168.876 829.579 169.141C830.545 169.387 831.341 169.718 831.966 170.135L831.085 171.754C830.422 171.3 829.712 170.978 828.954 170.788C828.197 170.58 827.439 170.476 826.682 170.476C825.337 170.476 824.343 170.713 823.699 171.186C823.074 171.641 822.762 172.228 822.762 172.947C822.762 173.515 822.932 173.961 823.273 174.282C823.633 174.604 824.097 174.86 824.665 175.049C825.252 175.22 825.886 175.362 826.568 175.476C827.269 175.589 827.96 175.731 828.642 175.902C829.343 176.053 829.977 176.271 830.545 176.555C831.132 176.82 831.596 177.208 831.937 177.72C832.297 178.212 832.477 178.866 832.477 179.68C832.477 180.551 832.231 181.309 831.738 181.952C831.265 182.577 830.564 183.07 829.636 183.43C828.727 183.771 827.619 183.941 826.312 183.941Z" fill="black"/>
<path d="M638.231 321.063V301.178H647.947C650.446 301.178 652.321 301.652 653.571 302.598C654.84 303.545 655.475 304.795 655.475 306.348C655.475 307.39 655.219 308.299 654.708 309.075C654.196 309.833 653.496 310.42 652.605 310.837C651.715 311.253 650.693 311.462 649.537 311.462L650.077 310.297C651.327 310.297 652.435 310.505 653.401 310.922C654.367 311.32 655.115 311.916 655.645 312.711C656.194 313.507 656.469 314.482 656.469 315.637C656.469 317.342 655.797 318.677 654.452 319.643C653.107 320.59 651.128 321.063 648.515 321.063H638.231ZM642.805 317.598H648.174C649.367 317.598 650.267 317.408 650.873 317.029C651.498 316.632 651.81 316.007 651.81 315.155C651.81 314.321 651.498 313.706 650.873 313.308C650.267 312.891 649.367 312.683 648.174 312.683H642.464V309.331H647.379C648.496 309.331 649.348 309.142 649.935 308.763C650.541 308.365 650.844 307.769 650.844 306.973C650.844 306.197 650.541 305.619 649.935 305.24C649.348 304.843 648.496 304.644 647.379 304.644H642.805V317.598ZM667.225 321.29C665.483 321.29 663.949 320.95 662.623 320.268C661.317 319.586 660.303 318.658 659.584 317.484C658.864 316.291 658.504 314.937 658.504 313.422C658.504 311.888 658.855 310.534 659.555 309.359C660.275 308.166 661.25 307.238 662.481 306.575C663.712 305.894 665.104 305.553 666.657 305.553C668.153 305.553 669.498 305.875 670.691 306.519C671.903 307.144 672.859 308.053 673.56 309.246C674.261 310.42 674.611 311.831 674.611 313.478C674.611 313.649 674.602 313.848 674.583 314.075C674.564 314.283 674.545 314.482 674.526 314.672H662.112V312.087H672.197L670.492 312.854C670.492 312.058 670.331 311.367 670.009 310.78C669.687 310.193 669.242 309.738 668.674 309.416C668.106 309.075 667.443 308.905 666.685 308.905C665.928 308.905 665.256 309.075 664.669 309.416C664.1 309.738 663.655 310.202 663.333 310.808C663.011 311.395 662.851 312.096 662.851 312.91V313.592C662.851 314.425 663.03 315.164 663.39 315.808C663.769 316.433 664.29 316.916 664.953 317.257C665.634 317.579 666.43 317.74 667.339 317.74C668.153 317.74 668.863 317.616 669.469 317.37C670.094 317.124 670.663 316.755 671.174 316.262L673.532 318.819C672.831 319.614 671.95 320.23 670.89 320.666C669.829 321.082 668.608 321.29 667.225 321.29ZM683.811 321.29C682.012 321.29 680.611 320.836 679.607 319.927C678.603 318.999 678.101 317.626 678.101 315.808V302.4H682.533V315.751C682.533 316.395 682.703 316.897 683.044 317.257C683.385 317.598 683.849 317.768 684.436 317.768C685.137 317.768 685.733 317.579 686.226 317.2L687.419 320.325C686.964 320.647 686.415 320.893 685.771 321.063C685.146 321.215 684.493 321.29 683.811 321.29ZM675.743 309.53V306.121H686.339V309.53H675.743ZM695.823 321.29C694.024 321.29 692.623 320.836 691.619 319.927C690.615 318.999 690.113 317.626 690.113 315.808V302.4H694.545V315.751C694.545 316.395 694.715 316.897 695.056 317.257C695.397 317.598 695.861 317.768 696.448 317.768C697.149 317.768 697.745 317.579 698.238 317.2L699.431 320.325C698.976 320.647 698.427 320.893 697.783 321.063C697.158 321.215 696.505 321.29 695.823 321.29ZM687.756 309.53V306.121H698.351V309.53H687.756ZM709.032 321.29C707.289 321.29 705.755 320.95 704.43 320.268C703.123 319.586 702.11 318.658 701.39 317.484C700.671 316.291 700.311 314.937 700.311 313.422C700.311 311.888 700.661 310.534 701.362 309.359C702.081 308.166 703.057 307.238 704.288 306.575C705.519 305.894 706.911 305.553 708.464 305.553C709.96 305.553 711.304 305.875 712.497 306.519C713.709 307.144 714.666 308.053 715.367 309.246C716.067 310.42 716.418 311.831 716.418 313.478C716.418 313.649 716.408 313.848 716.389 314.075C716.37 314.283 716.351 314.482 716.332 314.672H703.918V312.087H714.003L712.299 312.854C712.299 312.058 712.138 311.367 711.816 310.78C711.494 310.193 711.049 309.738 710.481 309.416C709.912 309.075 709.25 308.905 708.492 308.905C707.734 308.905 707.062 309.075 706.475 309.416C705.907 309.738 705.462 310.202 705.14 310.808C704.818 311.395 704.657 312.096 704.657 312.91V313.592C704.657 314.425 704.837 315.164 705.197 315.808C705.576 316.433 706.096 316.916 706.759 317.257C707.441 317.579 708.236 317.74 709.145 317.74C709.96 317.74 710.67 317.616 711.276 317.37C711.901 317.124 712.469 316.755 712.98 316.262L715.338 318.819C714.637 319.614 713.757 320.23 712.696 320.666C711.636 321.082 710.414 321.29 709.032 321.29ZM719.368 321.063V305.78H723.601V310.098L723.004 308.848C723.459 307.769 724.188 306.954 725.192 306.405C726.195 305.837 727.417 305.553 728.856 305.553V309.643C728.667 309.625 728.496 309.615 728.345 309.615C728.193 309.596 728.032 309.587 727.862 309.587C726.65 309.587 725.665 309.937 724.907 310.638C724.169 311.32 723.8 312.39 723.8 313.848V321.063H719.368ZM740.187 321.063V305.439C740.187 303.716 740.698 302.343 741.721 301.32C742.743 300.279 744.202 299.758 746.096 299.758C746.739 299.758 747.355 299.824 747.942 299.957C748.548 300.089 749.059 300.297 749.476 300.582L748.311 303.792C748.065 303.621 747.79 303.489 747.487 303.394C747.184 303.299 746.863 303.252 746.522 303.252C745.878 303.252 745.376 303.441 745.016 303.82C744.675 304.18 744.505 304.729 744.505 305.468V306.888L744.618 308.791V321.063H740.187ZM737.829 309.53V306.121H748.425V309.53H737.829ZM750.925 321.063V305.78H755.356V321.063H750.925ZM753.141 303.65C752.326 303.65 751.663 303.413 751.152 302.939C750.641 302.466 750.385 301.879 750.385 301.178C750.385 300.477 750.641 299.89 751.152 299.417C751.663 298.943 752.326 298.707 753.141 298.707C753.955 298.707 754.618 298.934 755.129 299.388C755.64 299.824 755.896 300.392 755.896 301.093C755.896 301.831 755.64 302.447 755.129 302.939C754.637 303.413 753.974 303.65 753.141 303.65ZM765.704 321.29C763.905 321.29 762.504 320.836 761.5 319.927C760.496 318.999 759.994 317.626 759.994 315.808V302.4H764.426V315.751C764.426 316.395 764.596 316.897 764.937 317.257C765.278 317.598 765.742 317.768 766.329 317.768C767.03 317.768 767.626 317.579 768.119 317.2L769.312 320.325C768.857 320.647 768.308 320.893 767.664 321.063C767.039 321.215 766.386 321.29 765.704 321.29ZM757.636 309.53V306.121H768.232V309.53H757.636ZM776.941 321.29C775.634 321.29 774.375 321.139 773.163 320.836C771.97 320.514 771.023 320.116 770.322 319.643L771.799 316.461C772.5 316.897 773.324 317.257 774.271 317.541C775.237 317.806 776.184 317.938 777.112 317.938C778.134 317.938 778.854 317.815 779.271 317.569C779.706 317.323 779.924 316.982 779.924 316.546C779.924 316.187 779.754 315.922 779.413 315.751C779.091 315.562 778.655 315.42 778.106 315.325C777.557 315.23 776.951 315.136 776.288 315.041C775.644 314.946 774.991 314.823 774.328 314.672C773.665 314.501 773.059 314.255 772.51 313.933C771.96 313.611 771.515 313.175 771.175 312.626C770.853 312.077 770.692 311.367 770.692 310.496C770.692 309.53 770.966 308.678 771.515 307.939C772.084 307.2 772.898 306.623 773.958 306.206C775.019 305.771 776.288 305.553 777.765 305.553C778.807 305.553 779.867 305.666 780.947 305.894C782.026 306.121 782.926 306.452 783.645 306.888L782.168 310.041C781.43 309.606 780.682 309.312 779.924 309.161C779.185 308.99 778.466 308.905 777.765 308.905C776.78 308.905 776.061 309.037 775.606 309.303C775.152 309.568 774.924 309.909 774.924 310.325C774.924 310.704 775.085 310.988 775.407 311.177C775.748 311.367 776.193 311.518 776.742 311.632C777.292 311.746 777.888 311.85 778.532 311.944C779.195 312.02 779.858 312.143 780.521 312.314C781.183 312.484 781.78 312.73 782.31 313.052C782.859 313.355 783.304 313.781 783.645 314.331C783.986 314.861 784.157 315.562 784.157 316.433C784.157 317.38 783.873 318.222 783.304 318.961C782.736 319.681 781.913 320.249 780.833 320.666C779.772 321.082 778.475 321.29 776.941 321.29ZM801.186 321.29C799.386 321.29 797.985 320.836 796.981 319.927C795.978 318.999 795.476 317.626 795.476 315.808V302.4H799.907V315.751C799.907 316.395 800.078 316.897 800.419 317.257C800.759 317.598 801.223 317.768 801.81 317.768C802.511 317.768 803.108 317.579 803.6 317.2L804.793 320.325C804.339 320.647 803.79 320.893 803.146 321.063C802.521 321.215 801.867 321.29 801.186 321.29ZM793.118 309.53V306.121H803.714V309.53H793.118ZM816.57 305.553C817.782 305.553 818.862 305.799 819.809 306.291C820.774 306.765 821.532 307.503 822.081 308.507C822.63 309.492 822.905 310.761 822.905 312.314V321.063H818.473V312.996C818.473 311.765 818.199 310.856 817.65 310.268C817.119 309.681 816.362 309.388 815.377 309.388C814.676 309.388 814.042 309.539 813.474 309.842C812.924 310.126 812.489 310.571 812.167 311.177C811.864 311.784 811.712 312.56 811.712 313.507V321.063H807.281V299.985H811.712V310.013L810.718 308.734C811.267 307.712 812.053 306.926 813.076 306.377C814.099 305.827 815.263 305.553 816.57 305.553ZM834.618 321.29C832.875 321.29 831.341 320.95 830.016 320.268C828.709 319.586 827.696 318.658 826.976 317.484C826.256 316.291 825.897 314.937 825.897 313.422C825.897 311.888 826.247 310.534 826.948 309.359C827.667 308.166 828.643 307.238 829.874 306.575C831.105 305.894 832.497 305.553 834.049 305.553C835.546 305.553 836.89 305.875 838.083 306.519C839.295 307.144 840.252 308.053 840.952 309.246C841.653 310.42 842.004 311.831 842.004 313.478C842.004 313.649 841.994 313.848 841.975 314.075C841.956 314.283 841.937 314.482 841.918 314.672H829.504V312.087H839.589L837.884 312.854C837.884 312.058 837.724 311.367 837.402 310.78C837.08 310.193 836.635 309.738 836.066 309.416C835.498 309.075 834.835 308.905 834.078 308.905C833.32 308.905 832.648 309.075 832.061 309.416C831.493 309.738 831.048 310.202 830.726 310.808C830.404 311.395 830.243 312.096 830.243 312.91V313.592C830.243 314.425 830.423 315.164 830.783 315.808C831.161 316.433 831.682 316.916 832.345 317.257C833.027 317.579 833.822 317.74 834.731 317.74C835.546 317.74 836.256 317.616 836.862 317.37C837.487 317.124 838.055 316.755 838.566 316.262L840.924 318.819C840.223 319.614 839.343 320.23 838.282 320.666C837.222 321.082 836 321.29 834.618 321.29ZM859.561 321.29C858.122 321.29 856.824 320.969 855.669 320.325C854.514 319.662 853.596 318.743 852.914 317.569C852.251 316.395 851.919 315.012 851.919 313.422C851.919 311.812 852.251 310.42 852.914 309.246C853.596 308.072 854.514 307.163 855.669 306.519C856.824 305.875 858.122 305.553 859.561 305.553C860.849 305.553 861.976 305.837 862.942 306.405C863.907 306.973 864.655 307.835 865.186 308.99C865.716 310.145 865.981 311.623 865.981 313.422C865.981 315.202 865.725 316.679 865.214 317.853C864.703 319.008 863.964 319.87 862.998 320.438C862.051 321.006 860.906 321.29 859.561 321.29ZM860.328 317.654C861.048 317.654 861.701 317.484 862.288 317.143C862.875 316.802 863.339 316.319 863.68 315.694C864.04 315.05 864.22 314.293 864.22 313.422C864.22 312.532 864.04 311.774 863.68 311.149C863.339 310.524 862.875 310.041 862.288 309.7C861.701 309.359 861.048 309.189 860.328 309.189C859.589 309.189 858.927 309.359 858.34 309.7C857.752 310.041 857.279 310.524 856.919 311.149C856.578 311.774 856.408 312.532 856.408 313.422C856.408 314.293 856.578 315.05 856.919 315.694C857.279 316.319 857.752 316.802 858.34 317.143C858.927 317.484 859.589 317.654 860.328 317.654ZM864.333 321.063V317.938L864.419 313.393L864.135 308.876V299.985H868.566V321.063H864.333ZM882.042 321.063V318.08L881.758 317.427V312.087C881.758 311.14 881.464 310.401 880.877 309.871C880.309 309.34 879.429 309.075 878.236 309.075C877.421 309.075 876.616 309.208 875.821 309.473C875.044 309.719 874.382 310.06 873.832 310.496L872.242 307.399C873.075 306.812 874.079 306.358 875.253 306.036C876.427 305.714 877.62 305.553 878.832 305.553C881.161 305.553 882.97 306.102 884.258 307.2C885.546 308.299 886.19 310.013 886.19 312.342V321.063H882.042ZM877.383 321.29C876.19 321.29 875.168 321.092 874.315 320.694C873.463 320.277 872.81 319.719 872.355 319.018C871.901 318.317 871.673 317.531 871.673 316.66C871.673 315.751 871.891 314.956 872.327 314.274C872.781 313.592 873.492 313.062 874.457 312.683C875.423 312.285 876.683 312.087 878.236 312.087H882.298V314.672H878.718C877.677 314.672 876.957 314.842 876.559 315.183C876.181 315.524 875.991 315.95 875.991 316.461C875.991 317.029 876.209 317.484 876.645 317.825C877.099 318.147 877.715 318.308 878.491 318.308C879.23 318.308 879.893 318.137 880.48 317.796C881.067 317.437 881.493 316.916 881.758 316.234L882.44 318.279C882.118 319.264 881.531 320.012 880.679 320.523C879.826 321.035 878.728 321.29 877.383 321.29ZM896.45 321.29C894.651 321.29 893.249 320.836 892.246 319.927C891.242 318.999 890.74 317.626 890.74 315.808V302.4H895.172V315.751C895.172 316.395 895.342 316.897 895.683 317.257C896.024 317.598 896.488 317.768 897.075 317.768C897.776 317.768 898.372 317.579 898.865 317.2L900.058 320.325C899.603 320.647 899.054 320.893 898.41 321.063C897.785 321.215 897.132 321.29 896.45 321.29ZM888.382 309.53V306.121H898.978V309.53H888.382ZM911.92 321.063V318.08L911.636 317.427V312.087C911.636 311.14 911.342 310.401 910.755 309.871C910.187 309.34 909.306 309.075 908.113 309.075C907.299 309.075 906.494 309.208 905.699 309.473C904.922 309.719 904.259 310.06 903.71 310.496L902.119 307.399C902.952 306.812 903.956 306.358 905.13 306.036C906.305 305.714 907.498 305.553 908.71 305.553C911.039 305.553 912.848 306.102 914.136 307.2C915.423 308.299 916.067 310.013 916.067 312.342V321.063H911.92ZM907.261 321.29C906.068 321.29 905.045 321.092 904.193 320.694C903.341 320.277 902.687 319.719 902.233 319.018C901.778 318.317 901.551 317.531 901.551 316.66C901.551 315.751 901.769 314.956 902.204 314.274C902.659 313.592 903.369 313.062 904.335 312.683C905.301 312.285 906.56 312.087 908.113 312.087H912.175V314.672H908.596C907.554 314.672 906.835 314.842 906.437 315.183C906.058 315.524 905.869 315.95 905.869 316.461C905.869 317.029 906.087 317.484 906.522 317.825C906.977 318.147 907.592 318.308 908.369 318.308C909.107 318.308 909.77 318.137 910.357 317.796C910.944 317.437 911.371 316.916 911.636 316.234L912.317 318.279C911.995 319.264 911.408 320.012 910.556 320.523C909.704 321.035 908.606 321.29 907.261 321.29Z" fill="#153314"/>
</svg>
