<svg width="882" height="782" viewBox="0 0 882 782" fill="none" xmlns="http://www.w3.org/2000/svg">
<path d="M164.507 13V9.86434H158.236V13H164.507ZM164.507 655.8L164.507 13H158.236L158.236 655.8H164.507Z" fill="#153314"/>
<path d="M828.261 660.491H831.397V654.219H828.261V660.491ZM158.261 660.491H828.261V654.219H158.261V660.491Z" fill="#153314"/>
<path d="M397.885 755.16H402.776V781.499H397.885V755.16ZM384.264 781.499H379.372V755.16H384.264V781.499ZM398.261 770.211H383.85V766.034H398.261V770.211ZM418.413 781.762C416.356 781.762 414.525 781.323 412.92 780.445C411.314 779.542 410.047 778.313 409.119 776.758C408.191 775.202 407.727 773.434 407.727 771.452C407.727 769.445 408.191 767.677 409.119 766.147C410.047 764.592 411.314 763.375 412.92 762.497C414.525 761.619 416.356 761.18 418.413 761.18C420.495 761.18 422.339 761.619 423.944 762.497C425.575 763.375 426.842 764.579 427.745 766.109C428.673 767.639 429.137 769.42 429.137 771.452C429.137 773.434 428.673 775.202 427.745 776.758C426.842 778.313 425.575 779.542 423.944 780.445C422.339 781.323 420.495 781.762 418.413 781.762ZM418.413 777.736C419.567 777.736 420.596 777.485 421.499 776.984C422.402 776.482 423.104 775.754 423.606 774.801C424.132 773.848 424.396 772.732 424.396 771.452C424.396 770.148 424.132 769.032 423.606 768.103C423.104 767.15 422.402 766.423 421.499 765.921C420.596 765.419 419.58 765.169 418.451 765.169C417.297 765.169 416.268 765.419 415.365 765.921C414.487 766.423 413.785 767.15 413.258 768.103C412.731 769.032 412.468 770.148 412.468 771.452C412.468 772.732 412.731 773.848 413.258 774.801C413.785 775.754 414.487 776.482 415.365 776.984C416.268 777.485 417.284 777.736 418.413 777.736ZM442.138 781.762C440.433 781.762 438.927 781.449 437.623 780.821C436.319 780.169 435.303 779.191 434.575 777.887C433.848 776.557 433.484 774.889 433.484 772.882V761.406H438.187V772.242C438.187 774.049 438.589 775.403 439.392 776.306C440.219 777.184 441.386 777.623 442.891 777.623C443.995 777.623 444.948 777.397 445.751 776.946C446.578 776.494 447.218 775.817 447.67 774.914C448.146 774.011 448.384 772.895 448.384 771.565V761.406H453.088V781.499H448.61V776.08L449.4 777.736C448.723 779.04 447.732 780.044 446.428 780.746C445.123 781.424 443.694 781.762 442.138 781.762ZM459.246 781.499V761.406H463.724V766.937L463.197 765.319C463.799 763.964 464.74 762.936 466.019 762.234C467.323 761.531 468.941 761.18 470.873 761.18V765.658C470.672 765.608 470.484 765.582 470.309 765.582C470.133 765.557 469.957 765.545 469.782 765.545C468.001 765.545 466.583 766.072 465.53 767.125C464.476 768.154 463.95 769.696 463.95 771.753V781.499H459.246ZM481.255 781.762C479.574 781.762 477.956 781.549 476.401 781.123C474.871 780.671 473.654 780.132 472.751 779.505L474.557 775.93C475.461 776.507 476.539 776.984 477.793 777.36C479.048 777.736 480.302 777.924 481.556 777.924C483.036 777.924 484.102 777.724 484.754 777.322C485.432 776.921 485.77 776.381 485.77 775.704C485.77 775.152 485.545 774.738 485.093 774.462C484.642 774.161 484.052 773.936 483.325 773.785C482.597 773.635 481.782 773.497 480.879 773.371C480.001 773.246 479.11 773.083 478.207 772.882C477.329 772.656 476.527 772.343 475.799 771.941C475.072 771.515 474.482 770.951 474.031 770.248C473.579 769.546 473.353 768.618 473.353 767.464C473.353 766.184 473.717 765.081 474.445 764.153C475.172 763.199 476.188 762.472 477.492 761.97C478.822 761.443 480.39 761.18 482.196 761.18C483.55 761.18 484.918 761.331 486.297 761.632C487.677 761.933 488.818 762.359 489.721 762.911L487.915 766.485C486.962 765.909 485.996 765.52 485.018 765.319C484.065 765.093 483.111 764.98 482.158 764.98C480.728 764.98 479.662 765.194 478.96 765.62C478.283 766.046 477.944 766.586 477.944 767.238C477.944 767.84 478.17 768.292 478.621 768.593C479.073 768.894 479.662 769.132 480.39 769.308C481.117 769.483 481.92 769.634 482.798 769.759C483.701 769.859 484.591 770.022 485.469 770.248C486.347 770.474 487.15 770.788 487.878 771.189C488.63 771.565 489.232 772.104 489.684 772.807C490.135 773.509 490.361 774.425 490.361 775.554C490.361 776.808 489.985 777.899 489.232 778.827C488.505 779.755 487.464 780.483 486.109 781.01C484.754 781.511 483.137 781.762 481.255 781.762ZM511.019 781.762C509.338 781.762 507.72 781.549 506.165 781.123C504.635 780.671 503.418 780.132 502.515 779.505L504.321 775.93C505.224 776.507 506.303 776.984 507.557 777.36C508.811 777.736 510.066 777.924 511.32 777.924C512.8 777.924 513.866 777.724 514.518 777.322C515.196 776.921 515.534 776.381 515.534 775.704C515.534 775.152 515.308 774.738 514.857 774.462C514.405 774.161 513.816 773.936 513.088 773.785C512.361 773.635 511.546 773.497 510.643 773.371C509.765 773.246 508.874 773.083 507.971 772.882C507.093 772.656 506.29 772.343 505.563 771.941C504.836 771.515 504.246 770.951 503.795 770.248C503.343 769.546 503.117 768.618 503.117 767.464C503.117 766.184 503.481 765.081 504.208 764.153C504.936 763.199 505.952 762.472 507.256 761.97C508.586 761.443 510.154 761.18 511.96 761.18C513.314 761.18 514.681 761.331 516.061 761.632C517.441 761.933 518.582 762.359 519.485 762.911L517.679 766.485C516.726 765.909 515.76 765.52 514.782 765.319C513.828 765.093 512.875 764.98 511.922 764.98C510.492 764.98 509.426 765.194 508.724 765.62C508.046 766.046 507.708 766.586 507.708 767.238C507.708 767.84 507.934 768.292 508.385 768.593C508.837 768.894 509.426 769.132 510.154 769.308C510.881 769.483 511.684 769.634 512.562 769.759C513.465 769.859 514.355 770.022 515.233 770.248C516.111 770.474 516.914 770.788 517.641 771.189C518.394 771.565 518.996 772.104 519.447 772.807C519.899 773.509 520.125 774.425 520.125 775.554C520.125 776.808 519.748 777.899 518.996 778.827C518.268 779.755 517.227 780.483 515.873 781.01C514.518 781.511 512.9 781.762 511.019 781.762ZM531.738 781.762C529.531 781.762 527.825 781.198 526.621 780.069C525.417 778.915 524.815 777.222 524.815 774.989V756.966H529.518V774.876C529.518 775.83 529.757 776.57 530.233 777.096C530.735 777.623 531.425 777.887 532.303 777.887C533.356 777.887 534.234 777.611 534.937 777.059L536.254 780.408C535.702 780.859 535.024 781.198 534.222 781.424C533.419 781.649 532.591 781.762 531.738 781.762ZM521.504 765.319V761.556H534.899V765.319H521.504ZM548.627 781.762C546.921 781.762 545.416 781.449 544.111 780.821C542.807 780.169 541.791 779.191 541.063 777.887C540.336 776.557 539.972 774.889 539.972 772.882V761.406H544.676V772.242C544.676 774.049 545.077 775.403 545.88 776.306C546.708 777.184 547.874 777.623 549.379 777.623C550.483 777.623 551.436 777.397 552.239 776.946C553.067 776.494 553.706 775.817 554.158 774.914C554.634 774.011 554.873 772.895 554.873 771.565V761.406H559.576V781.499H555.098V776.08L555.889 777.736C555.211 779.04 554.22 780.044 552.916 780.746C551.612 781.424 550.182 781.762 548.627 781.762ZM574.238 781.762C572.307 781.762 570.563 781.336 569.008 780.483C567.478 779.605 566.274 778.401 565.396 776.871C564.518 775.34 564.079 773.534 564.079 771.452C564.079 769.37 564.518 767.564 565.396 766.034C566.274 764.504 567.478 763.312 569.008 762.459C570.563 761.606 572.307 761.18 574.238 761.18C575.919 761.18 577.424 761.556 578.753 762.309C580.083 763.036 581.136 764.153 581.914 765.658C582.692 767.163 583.081 769.094 583.081 771.452C583.081 773.785 582.704 775.717 581.952 777.247C581.199 778.752 580.158 779.881 578.829 780.633C577.499 781.386 575.969 781.762 574.238 781.762ZM574.803 777.736C575.931 777.736 576.935 777.485 577.813 776.984C578.716 776.482 579.431 775.754 579.957 774.801C580.509 773.848 580.785 772.732 580.785 771.452C580.785 770.148 580.509 769.032 579.957 768.103C579.431 767.15 578.716 766.423 577.813 765.921C576.935 765.419 575.931 765.169 574.803 765.169C573.674 765.169 572.658 765.419 571.755 765.921C570.877 766.423 570.162 767.15 569.61 768.103C569.083 769.032 568.82 770.148 568.82 771.452C568.82 772.732 569.083 773.848 569.61 774.801C570.162 775.754 570.877 776.482 571.755 776.984C572.658 777.485 573.674 777.736 574.803 777.736ZM580.898 781.499V776.758L581.086 771.415L580.71 766.072V753.579H585.376V781.499H580.898ZM591.566 781.499V761.406H596.27V781.499H591.566ZM593.937 758.095C593.059 758.095 592.331 757.819 591.754 757.267C591.203 756.715 590.927 756.05 590.927 755.273C590.927 754.47 591.203 753.805 591.754 753.278C592.331 752.726 593.059 752.45 593.937 752.45C594.815 752.45 595.53 752.714 596.082 753.241C596.659 753.742 596.947 754.382 596.947 755.16C596.947 755.987 596.671 756.69 596.119 757.267C595.567 757.819 594.84 758.095 593.937 758.095ZM611.887 781.762C609.655 781.762 607.698 781.323 606.018 780.445C604.362 779.542 603.07 778.313 602.142 776.758C601.239 775.202 600.787 773.434 600.787 771.452C600.787 769.445 601.226 767.677 602.104 766.147C603.007 764.592 604.237 763.375 605.792 762.497C607.372 761.619 609.166 761.18 611.173 761.18C613.129 761.18 614.873 761.606 616.403 762.459C617.933 763.312 619.137 764.516 620.015 766.072C620.893 767.627 621.332 769.458 621.332 771.565C621.332 771.766 621.319 771.992 621.294 772.242C621.294 772.493 621.282 772.732 621.257 772.957H604.513V769.834H618.773L616.93 770.813C616.955 769.659 616.716 768.643 616.215 767.765C615.713 766.887 615.023 766.197 614.145 765.695C613.292 765.194 612.301 764.943 611.173 764.943C610.019 764.943 609.003 765.194 608.125 765.695C607.272 766.197 606.595 766.899 606.093 767.802C605.616 768.68 605.378 769.721 605.378 770.926V771.678C605.378 772.882 605.654 773.948 606.206 774.876C606.758 775.805 607.535 776.519 608.539 777.021C609.542 777.523 610.696 777.774 612 777.774C613.129 777.774 614.145 777.598 615.048 777.247C615.951 776.896 616.754 776.344 617.456 775.591L619.977 778.489C619.074 779.542 617.933 780.357 616.553 780.934C615.199 781.486 613.643 781.762 611.887 781.762ZM634.354 781.762C632.422 781.762 630.679 781.336 629.123 780.483C627.593 779.605 626.389 778.401 625.511 776.871C624.633 775.34 624.194 773.534 624.194 771.452C624.194 769.37 624.633 767.564 625.511 766.034C626.389 764.504 627.593 763.312 629.123 762.459C630.679 761.606 632.422 761.18 634.354 761.18C636.034 761.18 637.539 761.556 638.869 762.309C640.198 763.036 641.252 764.153 642.03 765.658C642.807 767.163 643.196 769.094 643.196 771.452C643.196 773.785 642.82 775.717 642.067 777.247C641.315 778.752 640.274 779.881 638.944 780.633C637.615 781.386 636.084 781.762 634.354 781.762ZM634.918 777.736C636.047 777.736 637.05 777.485 637.928 776.984C638.831 776.482 639.546 775.754 640.073 774.801C640.625 773.848 640.901 772.732 640.901 771.452C640.901 770.148 640.625 769.032 640.073 768.103C639.546 767.15 638.831 766.423 637.928 765.921C637.05 765.419 636.047 765.169 634.918 765.169C633.789 765.169 632.773 765.419 631.87 765.921C630.992 766.423 630.277 767.15 629.725 768.103C629.199 769.032 628.935 770.148 628.935 771.452C628.935 772.732 629.199 773.848 629.725 774.801C630.277 775.754 630.992 776.482 631.87 776.984C632.773 777.485 633.789 777.736 634.918 777.736ZM641.014 781.499V776.758L641.202 771.415L640.825 766.072V753.579H645.491V781.499H641.014Z" fill="#124012"/>
<path d="M20.6104 445.917V432.823H24.6366V445.917H20.6104ZM31.8986 445.541V430.678H36V450.432H9.66089L9.66089 431.205H13.7623L13.7623 445.541H31.8986ZM36 428.754L24.486 419.912L27.0071 419.987L15.907 428.415V423.185L23.8088 417.278V419.272L15.907 413.327L15.907 408.247L27.0071 416.751L24.486 416.713L36 407.908V413.214L27.6091 419.422L27.8725 417.466L36 423.561V428.754ZM36 392.426H31.9363L31.0708 392.689H23.9593C22.5796 392.689 21.5135 393.103 20.7609 393.931C19.9833 394.759 19.5945 396.013 19.5945 397.693C19.5945 398.822 19.7701 399.939 20.1213 401.042C20.4725 402.121 20.9616 403.037 21.5887 403.789L18.1647 405.633C17.3369 404.554 16.7223 403.275 16.3209 401.795C15.8945 400.29 15.6813 398.735 15.6813 397.129C15.6813 394.219 16.3836 391.974 17.7884 390.394C19.1681 388.788 21.3128 387.986 24.2227 387.986H36V392.426ZM36.2634 398.747C36.2634 400.252 36.0125 401.569 35.5108 402.698C34.9841 403.827 34.2691 404.705 33.3661 405.332C32.4379 405.934 31.3969 406.235 30.243 406.235C29.1142 406.235 28.0983 405.971 27.1952 405.445C26.2922 404.893 25.5772 404.002 25.0505 402.773C24.5237 401.544 24.2603 399.913 24.2603 397.882V392.049H27.3833V397.543C27.3833 399.148 27.6467 400.227 28.1735 400.779C28.6752 401.331 29.3023 401.607 30.0549 401.607C30.9078 401.607 31.5851 401.268 32.0868 400.591C32.5885 399.913 32.8393 398.973 32.8393 397.769C32.8393 396.615 32.5759 395.586 32.0491 394.683C31.5224 393.755 30.7447 393.09 29.7162 392.689L32.5383 391.899C33.7173 392.35 34.6329 393.166 35.2851 394.345C35.9373 395.499 36.2634 396.966 36.2634 398.747ZM15.6813 356.589C15.6813 354.983 15.9948 353.566 16.6219 352.337C17.2491 351.082 18.2148 350.104 19.5192 349.402C20.7986 348.699 22.4542 348.348 24.486 348.348H36V353.052H25.0881C23.3071 353.052 21.9776 353.44 21.0996 354.218C20.2216 354.996 19.7826 356.112 19.7826 357.567C19.7826 358.595 20.0084 359.511 20.4599 360.314C20.9115 361.091 21.5762 361.706 22.4542 362.157C23.3321 362.584 24.4484 362.797 25.803 362.797H36V367.501H25.0881C23.3071 367.501 21.9776 367.889 21.0996 368.667C20.2216 369.445 19.7826 370.561 19.7826 372.016C19.7826 373.044 20.0084 373.96 20.4599 374.763C20.9115 375.54 21.5762 376.155 22.4542 376.606C23.3321 377.033 24.4484 377.246 25.803 377.246H36V381.949H15.907L15.907 377.472H21.2501L19.6697 378.262C18.3653 377.585 17.3745 376.606 16.6972 375.327C16.0199 374.023 15.6813 372.543 15.6813 370.887C15.6813 369.006 16.1453 367.375 17.0735 365.995C18.0016 364.591 19.4064 363.663 21.2877 363.211L20.6481 365.055C19.143 364.403 17.9389 363.324 17.0358 361.819C16.1328 360.314 15.6813 358.57 15.6813 356.589ZM36.3763 323.322C36.3763 325.379 36.0878 327.348 35.5108 329.23C34.9088 331.111 34.1437 332.604 33.2156 333.707L29.4152 332.014C30.243 330.961 30.9329 329.656 31.4847 328.101C32.0366 326.546 32.3125 324.953 32.3125 323.322C32.3125 321.943 32.162 320.826 31.861 319.973C31.56 319.121 31.1586 318.493 30.6569 318.092C30.1301 317.691 29.5406 317.49 28.8884 317.49C28.0857 317.49 27.4461 317.778 26.9694 318.355C26.4677 318.932 26.0789 319.685 25.803 320.613C25.502 321.516 25.226 322.532 24.9752 323.661C24.7244 324.765 24.4359 325.881 24.1098 327.01C23.7586 328.113 23.3196 329.129 22.7928 330.058C22.2409 330.961 21.5135 331.701 20.6104 332.278C19.7074 332.854 18.5535 333.143 17.1487 333.143C15.7189 333.143 14.4145 332.767 13.2355 332.014C12.0314 331.237 11.0782 330.07 10.3758 328.515C9.64834 326.934 9.28461 324.94 9.28461 322.532C9.28461 320.952 9.48529 319.384 9.88665 317.829C10.288 316.273 10.865 314.919 11.6175 313.765L15.4179 315.308C14.7155 316.487 14.2012 317.703 13.8751 318.957C13.524 320.212 13.3484 321.416 13.3484 322.57C13.3484 323.924 13.5114 325.028 13.8375 325.881C14.1636 326.709 14.5901 327.323 15.1168 327.725C15.6436 328.101 16.2457 328.289 16.923 328.289C17.7257 328.289 18.3779 328.013 18.8796 327.461C19.3562 326.884 19.7325 326.144 20.0084 325.241C20.2843 324.313 20.5603 323.285 20.8362 322.156C21.087 321.027 21.3755 319.911 21.7016 318.807C22.0277 317.678 22.4542 316.662 22.981 315.759C23.5077 314.831 24.2227 314.091 25.1257 313.539C26.0288 312.962 27.1701 312.674 28.5498 312.674C29.9545 312.674 31.259 313.063 32.463 313.84C33.642 314.593 34.5952 315.759 35.3227 317.339C36.0251 318.92 36.3763 320.914 36.3763 323.322ZM36.2634 299.056C36.2634 301.163 35.8244 303.045 34.9464 304.7C34.0434 306.331 32.8142 307.61 31.259 308.538C29.7037 309.466 27.9352 309.93 25.9535 309.93C23.9467 309.93 22.1782 309.466 20.6481 308.538C19.0928 307.61 17.8762 306.331 16.9982 304.7C16.1202 303.045 15.6813 301.163 15.6813 299.056C15.6813 297.1 16.0826 295.381 16.8853 293.901C17.663 292.396 18.8169 291.255 20.347 290.477L22.4542 294.089C21.5009 294.691 20.7986 295.431 20.347 296.309C19.8955 297.162 19.6697 298.09 19.6697 299.094C19.6697 300.248 19.9206 301.289 20.4223 302.217C20.924 303.145 21.6515 303.872 22.6047 304.399C23.5328 304.926 24.6491 305.189 25.9535 305.189C27.2579 305.189 28.3867 304.926 29.34 304.399C30.2681 303.872 30.983 303.145 31.4847 302.217C31.9864 301.289 32.2373 300.248 32.2373 299.094C32.2373 298.09 32.0115 297.162 31.56 296.309C31.1085 295.431 30.4061 294.691 29.4528 294.089L31.56 290.477C33.0651 291.255 34.2315 292.396 35.0593 293.901C35.862 295.381 36.2634 297.1 36.2634 299.056ZM36.2634 277.675C36.2634 279.732 35.8244 281.563 34.9464 283.168C34.0434 284.774 32.8142 286.041 31.259 286.969C29.7037 287.897 27.9352 288.361 25.9535 288.361C23.9467 288.361 22.1782 287.897 20.6481 286.969C19.0928 286.041 17.8762 284.774 16.9982 283.168C16.1202 281.563 15.6813 279.732 15.6813 277.675C15.6813 275.593 16.1202 273.749 16.9982 272.144C17.8762 270.513 19.0803 269.246 20.6104 268.343C22.1406 267.415 23.9216 266.951 25.9535 266.951C27.9352 266.951 29.7037 267.415 31.259 268.343C32.8142 269.246 34.0434 270.513 34.9464 272.144C35.8244 273.749 36.2634 275.593 36.2634 277.675ZM32.2373 277.675C32.2373 276.521 31.9864 275.492 31.4847 274.589C30.983 273.686 30.2556 272.984 29.3023 272.482C28.3491 271.955 27.2328 271.692 25.9535 271.692C24.6491 271.692 23.5328 271.955 22.6047 272.482C21.6515 272.984 20.924 273.686 20.4223 274.589C19.9206 275.492 19.6697 276.508 19.6697 277.637C19.6697 278.791 19.9206 279.819 20.4223 280.723C20.924 281.601 21.6515 282.303 22.6047 282.83C23.5328 283.356 24.6491 283.62 25.9535 283.62C27.2328 283.62 28.3491 283.356 29.3023 282.83C30.2556 282.303 30.983 281.601 31.4847 280.723C31.9864 279.819 32.2373 278.804 32.2373 277.675ZM36 262.453H15.907V257.976H21.4382L19.8203 258.502C18.4657 257.9 17.4372 256.96 16.7348 255.68C16.0324 254.376 15.6813 252.758 15.6813 250.826H20.1589C20.1087 251.027 20.0837 251.215 20.0837 251.391C20.0586 251.566 20.046 251.742 20.046 251.918C20.046 253.699 20.5728 255.116 21.6264 256.17C22.6548 257.223 24.1976 257.75 26.2545 257.75H36V262.453ZM36.2634 237.576C36.2634 239.808 35.8244 241.765 34.9464 243.446C34.0434 245.101 32.8142 246.393 31.259 247.321C29.7037 248.224 27.9352 248.676 25.9535 248.676C23.9467 248.676 22.1782 248.237 20.6481 247.359C19.0928 246.456 17.8762 245.227 16.9982 243.671C16.1202 242.091 15.6813 240.297 15.6813 238.291C15.6813 236.334 16.1077 234.591 16.9606 233.061C17.8135 231.53 19.0175 230.326 20.5728 229.448C22.1281 228.57 23.9593 228.131 26.0664 228.131C26.2671 228.131 26.4928 228.144 26.7437 228.169C26.9945 228.169 27.2328 228.182 27.4586 228.207V244.951H24.3355V230.69L25.3138 232.534C24.1599 232.509 23.144 232.747 22.266 233.249C21.3881 233.75 20.6982 234.44 20.1965 235.318C19.6948 236.171 19.444 237.162 19.444 238.291C19.444 239.445 19.6948 240.461 20.1965 241.339C20.6982 242.191 21.4006 242.869 22.3037 243.37C23.1816 243.847 24.2227 244.085 25.4267 244.085H26.1793C27.3833 244.085 28.4495 243.809 29.3776 243.258C30.3057 242.706 31.0207 241.928 31.5224 240.925C32.024 239.921 32.2749 238.767 32.2749 237.463C32.2749 236.334 32.0993 235.318 31.7481 234.415C31.3969 233.512 30.8451 232.709 30.0925 232.007L32.9898 229.486C34.0434 230.389 34.8586 231.53 35.4356 232.91C35.9875 234.265 36.2634 235.82 36.2634 237.576Z" fill="#124012"/>
<path d="M803.958 162.241C804.644 161.712 804.77 160.727 804.241 160.042C803.712 159.356 802.727 159.23 802.042 159.759L803.958 162.241ZM160.261 659.251L803.958 162.241L802.042 159.759L158.345 656.769L160.261 659.251Z" fill="#7CBC7A"/>
<circle cx="581.644" cy="147.089" r="7.83902" fill="#D9D9D9" stroke="#124012" stroke-width="3.13561"/>
<circle cx="362.645" cy="412.089" r="7.83902" fill="#D9D9D9" stroke="#124012" stroke-width="3.13561"/>
<circle cx="793.644" cy="79.0892" r="7.83902" fill="#D9D9D9" stroke="#124012" stroke-width="3.13561"/>
<circle cx="754.644" cy="167.089" r="7.83902" fill="#D9D9D9" stroke="#124012" stroke-width="3.13561"/>
<circle cx="688.644" cy="79.0892" r="7.83902" fill="#D9D9D9" stroke="#124012" stroke-width="3.13561"/>
<circle cx="653.644" cy="120.089" r="7.83902" fill="#D9D9D9" stroke="#124012" stroke-width="3.13561"/>
<circle cx="525.128" cy="141.547" r="7.83902" fill="#D9D9D9" stroke="#124012" stroke-width="3.13561"/>
<circle cx="600.644" cy="182.089" r="7.83902" fill="#D9D9D9" stroke="#124012" stroke-width="3.13561"/>
<circle cx="647.644" cy="293.089" r="7.83902" fill="#D9D9D9" stroke="#124012" stroke-width="3.13561"/>
<circle cx="468.687" cy="204.26" r="7.83902" fill="#D9D9D9" stroke="#124012" stroke-width="3.13561"/>
<circle cx="399.644" cy="480.089" r="7.83902" fill="#D9D9D9" stroke="#124012" stroke-width="3.13561"/>
<circle cx="277.645" cy="499.089" r="7.83902" fill="#D9D9D9" stroke="#124012" stroke-width="3.13561"/>
<circle cx="277.414" cy="593.088" r="7.83902" fill="#D9D9D9" stroke="#124012" stroke-width="3.13561"/>
<circle cx="340.645" cy="539.089" r="7.83902" fill="#D9D9D9" stroke="#124012" stroke-width="3.13561"/>
<circle cx="424.645" cy="509.089" r="7.83902" fill="#D9D9D9" stroke="#124012" stroke-width="3.13561"/>
<circle cx="600.382" cy="480.206" r="7.83902" fill="#D9D9D9" stroke="#124012" stroke-width="3.13561"/>
<circle cx="631.738" cy="235.628" r="7.83902" fill="#D9D9D9" stroke="#124012" stroke-width="3.13561"/>
<circle cx="628.603" cy="88.2545" r="7.83902" fill="#D9D9D9" stroke="#124012" stroke-width="3.13561"/>
<circle cx="550.212" cy="223.086" r="7.83902" fill="#D9D9D9" stroke="#124012" stroke-width="3.13561"/>
<circle cx="440.466" cy="292.069" r="7.83902" fill="#D9D9D9" stroke="#124012" stroke-width="3.13561"/>
<circle cx="380.889" cy="357.917" r="7.83902" fill="#D9D9D9" stroke="#124012" stroke-width="3.13561"/>
<circle cx="421.652" cy="417.493" r="7.83902" fill="#D9D9D9" stroke="#124012" stroke-width="3.13561"/>
<circle cx="659.959" cy="194.865" r="7.83902" fill="#D9D9D9" stroke="#124012" stroke-width="3.13561"/>
<circle cx="754.644" cy="120.089" r="7.83902" fill="#D9D9D9" stroke="#124012" stroke-width="3.13561"/>
<circle cx="236.645" cy="530.089" r="7.83902" fill="#D9D9D9" stroke="#124012" stroke-width="3.13561"/>
<circle cx="371.483" cy="273.243" r="7.83902" fill="#D9D9D9" stroke="#124012" stroke-width="3.13561"/>
<circle cx="299.645" cy="436.089" r="7.83902" fill="#D9D9D9" stroke="#124012" stroke-width="3.13561"/>
<circle cx="590.975" cy="386.125" r="7.83902" fill="#D9D9D9" stroke="#124012" stroke-width="3.13561"/>
<circle cx="641.145" cy="386.125" r="7.83902" fill="#D9D9D9" stroke="#124012" stroke-width="3.13561"/>
<circle cx="650.552" cy="357.904" r="7.83902" fill="#D9D9D9" stroke="#124012" stroke-width="3.13561"/>
<circle cx="609.789" cy="357.904" r="7.83902" fill="#D9D9D9" stroke="#124012" stroke-width="3.13561"/>
<circle cx="600.382" cy="292.056" r="7.83902" fill="#D9D9D9" stroke="#124012" stroke-width="3.13561"/>
<circle cx="688.179" cy="263.836" r="7.83902" fill="#D9D9D9" stroke="#124012" stroke-width="3.13561"/>
<circle cx="716.4" cy="213.666" r="7.83902" fill="#D9D9D9" stroke="#124012" stroke-width="3.13561"/>
<circle cx="716.4" cy="150.954" r="7.83902" fill="#D9D9D9" stroke="#124012" stroke-width="3.13561"/>
<circle cx="506.314" cy="348.497" r="7.83902" fill="#D9D9D9" stroke="#124012" stroke-width="3.13561"/>
<circle cx="487.5" cy="430.024" r="7.83902" fill="#D9D9D9" stroke="#124012" stroke-width="3.13561"/>
<circle cx="543.644" cy="445.089" r="7.83902" fill="#D9D9D9" stroke="#124012" stroke-width="3.13561"/>
<circle cx="559.644" cy="324.089" r="7.83902" fill="#D9D9D9" stroke="#124012" stroke-width="3.13561"/>
<circle cx="487.645" cy="250.089" r="7.83902" fill="#D9D9D9" stroke="#124012" stroke-width="3.13561"/>
<path d="M155.038 710.811C153.006 710.811 151.2 710.284 149.619 709.231C148.039 708.152 146.797 706.622 145.894 704.64C144.991 702.634 144.54 700.225 144.54 697.416C144.54 694.606 144.991 692.211 145.894 690.229C146.797 688.222 148.039 686.692 149.619 685.639C151.2 684.56 153.006 684.021 155.038 684.021C157.07 684.021 158.876 684.56 160.456 685.639C162.036 686.692 163.278 688.222 164.181 690.229C165.109 692.211 165.573 694.606 165.573 697.416C165.573 700.225 165.109 702.634 164.181 704.64C163.278 706.622 162.036 708.152 160.456 709.231C158.876 710.284 157.07 710.811 155.038 710.811ZM155.038 708.328C156.593 708.328 157.948 707.914 159.101 707.086C160.255 706.233 161.158 705.004 161.811 703.399C162.463 701.768 162.789 699.774 162.789 697.416C162.789 695.058 162.463 693.076 161.811 691.471C161.158 689.84 160.255 688.611 159.101 687.783C157.948 686.93 156.593 686.504 155.038 686.504C153.533 686.504 152.191 686.93 151.012 687.783C149.833 688.611 148.917 689.84 148.265 691.471C147.613 693.076 147.286 695.058 147.286 697.416C147.286 699.774 147.613 701.768 148.265 703.399C148.917 705.004 149.833 706.233 151.012 707.086C152.191 707.914 153.533 708.328 155.038 708.328Z" fill="black"/>
<path d="M258.068 710.585V708.666L269.018 697.943C270.021 696.964 270.774 696.111 271.275 695.384C271.777 694.631 272.116 693.929 272.291 693.277C272.467 692.625 272.555 692.01 272.555 691.433C272.555 689.903 272.028 688.699 270.974 687.821C269.946 686.943 268.416 686.504 266.384 686.504C264.828 686.504 263.449 686.742 262.245 687.219C261.066 687.696 260.05 688.436 259.197 689.439L257.278 687.783C258.306 686.579 259.623 685.651 261.229 684.999C262.834 684.347 264.628 684.021 266.61 684.021C268.391 684.021 269.933 684.309 271.238 684.886C272.542 685.438 273.545 686.253 274.248 687.332C274.975 688.41 275.339 689.677 275.339 691.132C275.339 691.985 275.214 692.825 274.963 693.653C274.737 694.481 274.311 695.359 273.683 696.287C273.081 697.19 272.191 698.219 271.012 699.373L260.965 709.231L260.213 708.177H276.543V710.585H258.068ZM290.368 710.811C288.336 710.811 286.53 710.284 284.949 709.231C283.369 708.152 282.127 706.622 281.224 704.64C280.321 702.634 279.87 700.225 279.87 697.416C279.87 694.606 280.321 692.211 281.224 690.229C282.127 688.222 283.369 686.692 284.949 685.639C286.53 684.56 288.336 684.021 290.368 684.021C292.4 684.021 294.206 684.56 295.786 685.639C297.366 686.692 298.608 688.222 299.511 690.229C300.439 692.211 300.903 694.606 300.903 697.416C300.903 700.225 300.439 702.634 299.511 704.64C298.608 706.622 297.366 708.152 295.786 709.231C294.206 710.284 292.4 710.811 290.368 710.811ZM290.368 708.328C291.923 708.328 293.277 707.914 294.431 707.086C295.585 706.233 296.488 705.004 297.141 703.399C297.793 701.768 298.119 699.774 298.119 697.416C298.119 695.058 297.793 693.076 297.141 691.471C296.488 689.84 295.585 688.611 294.431 687.783C293.277 686.93 291.923 686.504 290.368 686.504C288.863 686.504 287.521 686.93 286.342 687.783C285.163 688.611 284.247 689.84 283.595 691.471C282.943 693.076 282.616 695.058 282.616 697.416C282.616 699.774 282.943 701.768 283.595 703.399C284.247 705.004 285.163 706.233 286.342 707.086C287.521 707.914 288.863 708.328 290.368 708.328Z" fill="black"/>
<path d="M393.937 703.662V701.705L407.897 684.246H410.907L397.06 701.705L395.592 701.254H416.777V703.662H393.937ZM408.8 710.585V703.662L408.875 701.254V695.158H411.509V710.585H408.8ZM429.763 710.811C427.731 710.811 425.925 710.284 424.345 709.231C422.764 708.152 421.523 706.622 420.62 704.64C419.717 702.634 419.265 700.225 419.265 697.416C419.265 694.606 419.717 692.211 420.62 690.229C421.523 688.222 422.764 686.692 424.345 685.639C425.925 684.56 427.731 684.021 429.763 684.021C431.795 684.021 433.601 684.56 435.181 685.639C436.762 686.692 438.003 688.222 438.906 690.229C439.835 692.211 440.299 694.606 440.299 697.416C440.299 700.225 439.835 702.634 438.906 704.64C438.003 706.622 436.762 708.152 435.181 709.231C433.601 710.284 431.795 710.811 429.763 710.811ZM429.763 708.328C431.318 708.328 432.673 707.914 433.827 707.086C434.981 706.233 435.884 705.004 436.536 703.399C437.188 701.768 437.514 699.774 437.514 697.416C437.514 695.058 437.188 693.076 436.536 691.471C435.884 689.84 434.981 688.611 433.827 687.783C432.673 686.93 431.318 686.504 429.763 686.504C428.258 686.504 426.916 686.93 425.737 687.783C424.558 688.611 423.642 689.84 422.99 691.471C422.338 693.076 422.012 695.058 422.012 697.416C422.012 699.774 422.338 701.768 422.99 703.399C423.642 705.004 424.558 706.233 425.737 707.086C426.916 707.914 428.258 708.328 429.763 708.328Z" fill="black"/>
<path d="M541.018 710.811C538.686 710.811 536.716 710.297 535.111 709.268C533.506 708.215 532.289 706.71 531.461 704.753C530.633 702.772 530.219 700.401 530.219 697.642C530.219 694.657 530.721 692.161 531.725 690.154C532.753 688.122 534.17 686.592 535.976 685.563C537.783 684.535 539.877 684.021 542.26 684.021C543.439 684.021 544.568 684.133 545.647 684.359C546.725 684.585 547.679 684.949 548.506 685.45L547.415 687.633C546.738 687.181 545.96 686.868 545.082 686.692C544.204 686.491 543.276 686.391 542.298 686.391C539.463 686.391 537.193 687.294 535.487 689.1C533.807 690.906 532.966 693.603 532.966 697.19C532.966 697.742 532.991 698.432 533.041 699.26C533.117 700.062 533.267 700.865 533.493 701.668L532.552 700.953C532.828 699.648 533.368 698.545 534.17 697.642C534.973 696.714 535.976 696.011 537.18 695.535C538.385 695.058 539.702 694.82 541.131 694.82C542.887 694.82 544.43 695.146 545.76 695.798C547.089 696.45 548.13 697.366 548.883 698.545C549.635 699.724 550.011 701.116 550.011 702.721C550.011 704.352 549.623 705.782 548.845 707.011C548.067 708.215 546.989 709.156 545.609 709.833C544.254 710.485 542.724 710.811 541.018 710.811ZM540.906 708.516C542.16 708.516 543.264 708.29 544.217 707.839C545.195 707.362 545.96 706.697 546.512 705.844C547.064 704.966 547.34 703.951 547.34 702.797C547.34 701.066 546.738 699.686 545.534 698.658C544.355 697.629 542.749 697.115 540.717 697.115C539.363 697.115 538.184 697.366 537.18 697.867C536.177 698.369 535.387 699.059 534.81 699.937C534.233 700.79 533.945 701.768 533.945 702.872C533.945 703.825 534.208 704.741 534.735 705.619C535.261 706.472 536.039 707.174 537.068 707.726C538.121 708.253 539.401 708.516 540.906 708.516ZM563.647 710.811C561.615 710.811 559.809 710.284 558.228 709.231C556.648 708.152 555.406 706.622 554.503 704.64C553.6 702.634 553.149 700.225 553.149 697.416C553.149 694.606 553.6 692.211 554.503 690.229C555.406 688.222 556.648 686.692 558.228 685.639C559.809 684.56 561.615 684.021 563.647 684.021C565.678 684.021 567.485 684.56 569.065 685.639C570.645 686.692 571.887 688.222 572.79 690.229C573.718 692.211 574.182 694.606 574.182 697.416C574.182 700.225 573.718 702.634 572.79 704.64C571.887 706.622 570.645 708.152 569.065 709.231C567.485 710.284 565.678 710.811 563.647 710.811ZM563.647 708.328C565.202 708.328 566.556 707.914 567.71 707.086C568.864 706.233 569.767 705.004 570.42 703.399C571.072 701.768 571.398 699.774 571.398 697.416C571.398 695.058 571.072 693.076 570.42 691.471C569.767 689.84 568.864 688.611 567.71 687.783C566.556 686.93 565.202 686.504 563.647 686.504C562.142 686.504 560.799 686.93 559.62 687.783C558.441 688.611 557.526 689.84 556.874 691.471C556.221 693.076 555.895 695.058 555.895 697.416C555.895 699.774 556.221 701.768 556.874 703.399C557.526 705.004 558.441 706.233 559.62 707.086C560.799 707.914 562.142 708.328 563.647 708.328Z" fill="black"/>
<path d="M676.06 710.811C673.952 710.811 672.134 710.51 670.604 709.908C669.098 709.306 667.932 708.441 667.104 707.312C666.302 706.158 665.9 704.803 665.9 703.248C665.9 701.743 666.289 700.464 667.067 699.41C667.869 698.331 669.023 697.504 670.528 696.927C672.059 696.35 673.902 696.061 676.06 696.061C678.192 696.061 680.023 696.35 681.553 696.927C683.083 697.504 684.25 698.331 685.052 699.41C685.88 700.464 686.294 701.743 686.294 703.248C686.294 704.803 685.88 706.158 685.052 707.312C684.225 708.441 683.046 709.306 681.515 709.908C679.985 710.51 678.167 710.811 676.06 710.811ZM676.06 708.516C678.392 708.516 680.211 708.039 681.515 707.086C682.845 706.133 683.51 704.841 683.51 703.21C683.51 701.58 682.845 700.301 681.515 699.373C680.211 698.419 678.392 697.943 676.06 697.943C673.727 697.943 671.908 698.419 670.604 699.373C669.299 700.301 668.647 701.58 668.647 703.21C668.647 704.841 669.299 706.133 670.604 707.086C671.908 708.039 673.727 708.516 676.06 708.516ZM676.06 697.604C674.103 697.604 672.435 697.341 671.055 696.814C669.701 696.287 668.66 695.535 667.932 694.556C667.205 693.553 666.841 692.361 666.841 690.982C666.841 689.527 667.217 688.285 667.97 687.257C668.747 686.203 669.826 685.4 671.206 684.848C672.585 684.297 674.203 684.021 676.06 684.021C677.916 684.021 679.534 684.297 680.913 684.848C682.318 685.4 683.409 686.203 684.187 687.257C684.965 688.285 685.353 689.527 685.353 690.982C685.353 692.361 684.99 693.553 684.262 694.556C683.535 695.535 682.469 696.287 681.064 696.814C679.684 697.341 678.016 697.604 676.06 697.604ZM676.06 695.798C678.116 695.798 679.722 695.371 680.876 694.519C682.03 693.666 682.607 692.524 682.607 691.095C682.607 689.589 682.005 688.423 680.801 687.595C679.622 686.742 678.041 686.316 676.06 686.316C674.078 686.316 672.497 686.742 671.318 687.595C670.14 688.423 669.55 689.577 669.55 691.057C669.55 692.512 670.114 693.666 671.243 694.519C672.397 695.371 674.003 695.798 676.06 695.798ZM700.543 710.811C698.512 710.811 696.705 710.284 695.125 709.231C693.545 708.152 692.303 706.622 691.4 704.64C690.497 702.634 690.045 700.225 690.045 697.416C690.045 694.606 690.497 692.211 691.4 690.229C692.303 688.222 693.545 686.692 695.125 685.639C696.705 684.56 698.512 684.021 700.543 684.021C702.575 684.021 704.381 684.56 705.962 685.639C707.542 686.692 708.784 688.222 709.687 690.229C710.615 692.211 711.079 694.606 711.079 697.416C711.079 700.225 710.615 702.634 709.687 704.64C708.784 706.622 707.542 708.152 705.962 709.231C704.381 710.284 702.575 710.811 700.543 710.811ZM700.543 708.328C702.099 708.328 703.453 707.914 704.607 707.086C705.761 706.233 706.664 705.004 707.316 703.399C707.969 701.768 708.295 699.774 708.295 697.416C708.295 695.058 707.969 693.076 707.316 691.471C706.664 689.84 705.761 688.611 704.607 687.783C703.453 686.93 702.099 686.504 700.543 686.504C699.038 686.504 697.696 686.93 696.517 687.783C695.338 688.611 694.423 689.84 693.771 691.471C693.118 693.076 692.792 695.058 692.792 697.416C692.792 699.774 693.118 701.768 693.771 703.399C694.423 705.004 695.338 706.233 696.517 707.086C697.696 707.914 699.038 708.328 700.543 708.328Z" fill="black"/>
<path d="M806.228 710.585V685.375L807.432 686.654H800.02V684.246H808.938V710.585H806.228ZM825.732 710.811C823.7 710.811 821.894 710.284 820.313 709.231C818.733 708.152 817.491 706.622 816.588 704.64C815.685 702.634 815.234 700.225 815.234 697.416C815.234 694.606 815.685 692.211 816.588 690.229C817.491 688.222 818.733 686.692 820.313 685.639C821.894 684.56 823.7 684.021 825.732 684.021C827.764 684.021 829.57 684.56 831.15 685.639C832.73 686.692 833.972 688.222 834.875 690.229C835.803 692.211 836.267 694.606 836.267 697.416C836.267 700.225 835.803 702.634 834.875 704.64C833.972 706.622 832.73 708.152 831.15 709.231C829.57 710.284 827.764 710.811 825.732 710.811ZM825.732 708.328C827.287 708.328 828.641 707.914 829.795 707.086C830.949 706.233 831.852 705.004 832.505 703.399C833.157 701.768 833.483 699.774 833.483 697.416C833.483 695.058 833.157 693.076 832.505 691.471C831.852 689.84 830.949 688.611 829.795 687.783C828.641 686.93 827.287 686.504 825.732 686.504C824.227 686.504 822.885 686.93 821.706 687.783C820.527 688.611 819.611 689.84 818.959 691.471C818.307 693.076 817.98 695.058 817.98 697.416C817.98 699.774 818.307 701.768 818.959 703.399C819.611 705.004 820.527 706.233 821.706 707.086C822.885 707.914 824.227 708.328 825.732 708.328ZM850.645 710.811C848.613 710.811 846.807 710.284 845.227 709.231C843.646 708.152 842.405 706.622 841.502 704.64C840.599 702.634 840.147 700.225 840.147 697.416C840.147 694.606 840.599 692.211 841.502 690.229C842.405 688.222 843.646 686.692 845.227 685.639C846.807 684.56 848.613 684.021 850.645 684.021C852.677 684.021 854.483 684.56 856.063 685.639C857.644 686.692 858.885 688.222 859.788 690.229C860.717 692.211 861.181 694.606 861.181 697.416C861.181 700.225 860.717 702.634 859.788 704.64C858.885 706.622 857.644 708.152 856.063 709.231C854.483 710.284 852.677 710.811 850.645 710.811ZM850.645 708.328C852.2 708.328 853.555 707.914 854.709 707.086C855.863 706.233 856.766 705.004 857.418 703.399C858.07 701.768 858.396 699.774 858.396 697.416C858.396 695.058 858.07 693.076 857.418 691.471C856.766 689.84 855.863 688.611 854.709 687.783C853.555 686.93 852.2 686.504 850.645 686.504C849.14 686.504 847.798 686.93 846.619 687.783C845.44 688.611 844.524 689.84 843.872 691.471C843.22 693.076 842.894 695.058 842.894 697.416C842.894 699.774 843.22 701.768 843.872 703.399C844.524 705.004 845.44 706.233 846.619 707.086C847.798 707.914 849.14 708.328 850.645 708.328Z" fill="black"/>
<path d="M71.7868 560.981V559.062L82.7363 548.338C83.7397 547.36 84.4922 546.507 84.9939 545.779C85.4956 545.027 85.8343 544.324 86.0099 543.672C86.1855 543.02 86.2733 542.405 86.2733 541.828C86.2733 540.298 85.7465 539.094 84.6929 538.216C83.6644 537.338 82.1343 536.899 80.1024 536.899C78.5471 536.899 77.1675 537.138 75.9634 537.614C74.7844 538.091 73.7685 538.831 72.9156 539.834L70.9966 538.179C72.0251 536.974 73.342 536.046 74.9474 535.394C76.5529 534.742 78.3464 534.416 80.3282 534.416C82.1092 534.416 83.6519 534.704 84.9563 535.281C86.2607 535.833 87.2641 536.648 87.9665 537.727C88.694 538.806 89.0577 540.072 89.0577 541.527C89.0577 542.38 88.9323 543.221 88.6814 544.048C88.4557 544.876 88.0292 545.754 87.4021 546.682C86.8 547.585 85.9095 548.614 84.7305 549.768L74.6841 559.626L73.9315 558.573H90.2618V560.981H71.7868ZM104.086 561.206C102.054 561.206 100.248 560.68 98.6679 559.626C97.0876 558.547 95.8459 557.017 94.9428 555.036C94.0398 553.029 93.5882 550.621 93.5882 547.811C93.5882 545.002 94.0398 542.606 94.9428 540.624C95.8459 538.618 97.0876 537.087 98.6679 536.034C100.248 534.955 102.054 534.416 104.086 534.416C106.118 534.416 107.924 534.955 109.505 536.034C111.085 537.087 112.327 538.618 113.23 540.624C114.158 542.606 114.622 545.002 114.622 547.811C114.622 550.621 114.158 553.029 113.23 555.036C112.327 557.017 111.085 558.547 109.505 559.626C107.924 560.68 106.118 561.206 104.086 561.206ZM104.086 558.723C105.642 558.723 106.996 558.309 108.15 557.481C109.304 556.628 110.207 555.399 110.859 553.794C111.511 552.163 111.837 550.169 111.837 547.811C111.837 545.453 111.511 543.471 110.859 541.866C110.207 540.236 109.304 539.006 108.15 538.179C106.996 537.326 105.642 536.899 104.086 536.899C102.581 536.899 101.239 537.326 100.06 538.179C98.8812 539.006 97.9656 540.236 97.3134 541.866C96.6611 543.471 96.335 545.453 96.335 547.811C96.335 550.169 96.6611 552.163 97.3134 553.794C97.9656 555.399 98.8812 556.628 100.06 557.481C101.239 558.309 102.581 558.723 104.086 558.723Z" fill="black"/>
<path d="M71.8241 422.649V420.692L85.7839 403.233H88.7941L74.9472 420.692L73.4797 420.241H94.6639V422.649H71.8241ZM86.6869 429.572V422.649L86.7622 420.241V414.145H89.3961V429.572H86.6869ZM107.65 429.798C105.618 429.798 103.812 429.271 102.232 428.218C100.652 427.139 99.41 425.609 98.5069 423.627C97.6038 421.62 97.1523 419.212 97.1523 416.403C97.1523 413.593 97.6038 411.198 98.5069 409.216C99.41 407.209 100.652 405.679 102.232 404.625C103.812 403.547 105.618 403.007 107.65 403.007C109.682 403.007 111.488 403.547 113.069 404.625C114.649 405.679 115.891 407.209 116.794 409.216C117.722 411.198 118.186 413.593 118.186 416.403C118.186 419.212 117.722 421.62 116.794 423.627C115.891 425.609 114.649 427.139 113.069 428.218C111.488 429.271 109.682 429.798 107.65 429.798ZM107.65 427.315C109.206 427.315 110.56 426.901 111.714 426.073C112.868 425.22 113.771 423.991 114.423 422.385C115.075 420.755 115.402 418.761 115.402 416.403C115.402 414.045 115.075 412.063 114.423 410.458C113.771 408.827 112.868 407.598 111.714 406.77C110.56 405.917 109.206 405.491 107.65 405.491C106.145 405.491 104.803 405.917 103.624 406.77C102.445 407.598 101.53 408.827 100.877 410.458C100.225 412.063 99.8991 414.045 99.8991 416.403C99.8991 418.761 100.225 420.755 100.877 422.385C101.53 423.991 102.445 425.22 103.624 426.073C104.803 426.901 106.145 427.315 107.65 427.315Z" fill="black"/>
<path d="M81.6846 299.942C79.3517 299.942 77.3826 299.427 75.7771 298.399C74.1717 297.345 72.9551 295.84 72.1273 293.884C71.2995 291.902 70.8856 289.531 70.8856 286.772C70.8856 283.787 71.3873 281.291 72.3907 279.284C73.4191 277.252 74.8364 275.722 76.6426 274.694C78.4487 273.665 80.5432 273.151 82.9263 273.151C84.1053 273.151 85.2341 273.264 86.3128 273.49C87.3914 273.715 88.3446 274.079 89.1724 274.581L88.0813 276.763C87.404 276.312 86.6263 275.998 85.7484 275.822C84.8704 275.622 83.9423 275.521 82.9639 275.521C80.1294 275.521 77.8592 276.425 76.1534 278.231C74.4727 280.037 73.6324 282.733 73.6324 286.32C73.6324 286.872 73.6575 287.562 73.7076 288.39C73.7829 289.193 73.9334 289.995 74.1592 290.798L73.2185 290.083C73.4944 288.779 74.0337 287.675 74.8364 286.772C75.6392 285.844 76.6426 285.142 77.8466 284.665C79.0507 284.188 80.3677 283.95 81.7975 283.95C83.5534 283.95 85.0962 284.276 86.4257 284.928C87.7552 285.58 88.7962 286.496 89.5487 287.675C90.3013 288.854 90.6775 290.246 90.6775 291.852C90.6775 293.482 90.2887 294.912 89.5111 296.141C88.7335 297.345 87.6548 298.286 86.2751 298.963C84.9206 299.615 83.3904 299.942 81.6846 299.942ZM81.5717 297.646C82.826 297.646 83.9297 297.421 84.8829 296.969C85.8612 296.492 86.6263 295.828 87.1782 294.975C87.7301 294.097 88.006 293.081 88.006 291.927C88.006 290.196 87.404 288.816 86.1999 287.788C85.0209 286.759 83.4155 286.245 81.3836 286.245C80.029 286.245 78.85 286.496 77.8466 286.998C76.8432 287.499 76.0531 288.189 75.4761 289.067C74.8992 289.92 74.6107 290.898 74.6107 292.002C74.6107 292.955 74.8741 293.871 75.4009 294.749C75.9276 295.602 76.7053 296.304 77.7337 296.856C78.7873 297.383 80.0666 297.646 81.5717 297.646ZM104.313 299.942C102.281 299.942 100.475 299.415 98.8944 298.361C97.3141 297.283 96.0724 295.752 95.1693 293.771C94.2662 291.764 93.8147 289.356 93.8147 286.546C93.8147 283.737 94.2662 281.341 95.1693 279.359C96.0724 277.353 97.3141 275.822 98.8944 274.769C100.475 273.69 102.281 273.151 104.313 273.151C106.345 273.151 108.151 273.69 109.731 274.769C111.311 275.822 112.553 277.353 113.456 279.359C114.384 281.341 114.848 283.737 114.848 286.546C114.848 289.356 114.384 291.764 113.456 293.771C112.553 295.752 111.311 297.283 109.731 298.361C108.151 299.415 106.345 299.942 104.313 299.942ZM104.313 297.458C105.868 297.458 107.223 297.044 108.376 296.216C109.53 295.364 110.433 294.134 111.086 292.529C111.738 290.898 112.064 288.904 112.064 286.546C112.064 284.188 111.738 282.207 111.086 280.601C110.433 278.971 109.53 277.741 108.376 276.914C107.223 276.061 105.868 275.634 104.313 275.634C102.808 275.634 101.466 276.061 100.287 276.914C99.1076 277.741 98.192 278.971 97.5398 280.601C96.8876 282.207 96.5615 284.188 96.5615 286.546C96.5615 288.904 96.8876 290.898 97.5398 292.529C98.192 294.134 99.1076 295.364 100.287 296.216C101.466 297.044 102.808 297.458 104.313 297.458Z" fill="black"/>
<path d="M82.2845 168.53C80.1774 168.53 78.3587 168.229 76.8286 167.627C75.3235 167.025 74.157 166.159 73.3292 165.031C72.5265 163.877 72.1252 162.522 72.1252 160.967C72.1252 159.462 72.514 158.182 73.2916 157.129C74.0943 156.05 75.2482 155.222 76.7533 154.645C78.2835 154.069 80.1272 153.78 82.2845 153.78C84.4167 153.78 86.2479 154.069 87.7781 154.645C89.3083 155.222 90.4747 156.05 91.2775 157.129C92.1053 158.182 92.5192 159.462 92.5192 160.967C92.5192 162.522 92.1053 163.877 91.2775 165.031C90.4497 166.159 89.2707 167.025 87.7405 167.627C86.2103 168.229 84.3917 168.53 82.2845 168.53ZM82.2845 166.235C84.6174 166.235 86.4361 165.758 87.7405 164.805C89.07 163.852 89.7347 162.56 89.7347 160.929C89.7347 159.299 89.07 158.019 87.7405 157.091C86.4361 156.138 84.6174 155.661 82.2845 155.661C79.9516 155.661 78.133 156.138 76.8286 157.091C75.5242 158.019 74.872 159.299 74.872 160.929C74.872 162.56 75.5242 163.852 76.8286 164.805C78.133 165.758 79.9516 166.235 82.2845 166.235ZM82.2845 155.323C80.3279 155.323 78.6598 155.059 77.2801 154.533C75.9255 154.006 74.8845 153.253 74.157 152.275C73.4296 151.272 73.0658 150.08 73.0658 148.7C73.0658 147.245 73.4421 146.004 74.1947 144.975C74.9723 143.922 76.0509 143.119 77.4306 142.567C78.8103 142.015 80.4282 141.739 82.2845 141.739C84.1408 141.739 85.7588 142.015 87.1385 142.567C88.5432 143.119 89.6344 143.922 90.412 144.975C91.1897 146.004 91.5785 147.245 91.5785 148.7C91.5785 150.08 91.2147 151.272 90.4873 152.275C89.7598 153.253 88.6937 154.006 87.289 154.533C85.9093 155.059 84.2411 155.323 82.2845 155.323ZM82.2845 153.517C84.3415 153.517 85.9469 153.09 87.1008 152.237C88.2547 151.384 88.8317 150.243 88.8317 148.813C88.8317 147.308 88.2296 146.142 87.0256 145.314C85.8466 144.461 84.2662 144.035 82.2845 144.035C80.3028 144.035 78.7225 144.461 77.5435 145.314C76.3645 146.142 75.775 147.296 75.775 148.776C75.775 150.231 76.3394 151.384 77.4682 152.237C78.6221 153.09 80.2276 153.517 82.2845 153.517ZM106.768 168.53C104.737 168.53 102.93 168.003 101.35 166.95C99.7698 165.871 98.5281 164.341 97.625 162.359C96.7219 160.352 96.2704 157.944 96.2704 155.135C96.2704 152.325 96.7219 149.93 97.625 147.948C98.5281 145.941 99.7698 144.411 101.35 143.357C102.93 142.279 104.737 141.739 106.768 141.739C108.8 141.739 110.606 142.279 112.187 143.357C113.767 144.411 115.009 145.941 115.912 147.948C116.84 149.93 117.304 152.325 117.304 155.135C117.304 157.944 116.84 160.352 115.912 162.359C115.009 164.341 113.767 165.871 112.187 166.95C110.606 168.003 108.8 168.53 106.768 168.53ZM106.768 166.047C108.324 166.047 109.678 165.633 110.832 164.805C111.986 163.952 112.889 162.723 113.541 161.117C114.194 159.487 114.52 157.493 114.52 155.135C114.52 152.777 114.194 150.795 113.541 149.19C112.889 147.559 111.986 146.33 110.832 145.502C109.678 144.649 108.324 144.223 106.768 144.223C105.263 144.223 103.921 144.649 102.742 145.502C101.563 146.33 100.648 147.559 99.9955 149.19C99.3433 150.795 99.0172 152.777 99.0172 155.135C99.0172 157.493 99.3433 159.487 99.9955 161.117C100.648 162.723 101.563 163.952 102.742 164.805C103.921 165.633 105.263 166.047 106.768 166.047Z" fill="black"/>
<path d="M76.8662 36L76.8662 10.7897L78.0703 12.069L70.6577 12.069V9.66089L79.5754 9.66089L79.5754 36H76.8662ZM96.3695 36.2258C94.3376 36.2258 92.5315 35.699 90.9512 34.6454C89.3708 33.5668 88.1291 32.0366 87.2261 30.0549C86.323 28.0481 85.8715 25.6399 85.8715 22.8304C85.8715 20.0209 86.323 17.6253 87.2261 15.6436C88.1291 13.6368 89.3708 12.1067 90.9512 11.0531C92.5315 9.97445 94.3376 9.43512 96.3695 9.43512C98.4014 9.43512 100.207 9.97445 101.788 11.0531C103.368 12.1067 104.61 13.6368 105.513 15.6436C106.441 17.6253 106.905 20.0209 106.905 22.8304C106.905 25.6399 106.441 28.0481 105.513 30.0549C104.61 32.0366 103.368 33.5668 101.788 34.6454C100.207 35.699 98.4014 36.2258 96.3695 36.2258ZM96.3695 33.7424C97.9247 33.7424 99.2793 33.3285 100.433 32.5007C101.587 31.6478 102.49 30.4186 103.142 28.8132C103.795 27.1827 104.121 25.1884 104.121 22.8304C104.121 20.4725 103.795 18.4908 103.142 16.8853C102.49 15.2548 101.587 14.0257 100.433 13.1979C99.2793 12.345 97.9247 11.9185 96.3695 11.9185C94.8644 11.9185 93.5224 12.345 92.3434 13.1979C91.1644 14.0257 90.2488 15.2548 89.5966 16.8853C88.9444 18.4908 88.6183 20.4725 88.6183 22.8304C88.6183 25.1884 88.9444 27.1827 89.5966 28.8132C90.2488 30.4186 91.1644 31.6478 92.3434 32.5007C93.5224 33.3285 94.8644 33.7424 96.3695 33.7424ZM121.283 36.2258C119.251 36.2258 117.445 35.699 115.865 34.6454C114.284 33.5668 113.042 32.0366 112.139 30.0549C111.236 28.0481 110.785 25.6399 110.785 22.8304C110.785 20.0209 111.236 17.6253 112.139 15.6436C113.042 13.6368 114.284 12.1067 115.865 11.0531C117.445 9.97445 119.251 9.43512 121.283 9.43512C123.315 9.43512 125.121 9.97445 126.701 11.0531C128.282 12.1067 129.523 13.6368 130.426 15.6436C131.354 17.6253 131.819 20.0209 131.819 22.8304C131.819 25.6399 131.354 28.0481 130.426 30.0549C129.523 32.0366 128.282 33.5668 126.701 34.6454C125.121 35.699 123.315 36.2258 121.283 36.2258ZM121.283 33.7424C122.838 33.7424 124.193 33.3285 125.347 32.5007C126.501 31.6478 127.404 30.4186 128.056 28.8132C128.708 27.1827 129.034 25.1884 129.034 22.8304C129.034 20.4725 128.708 18.4908 128.056 16.8853C127.404 15.2548 126.501 14.0257 125.347 13.1979C124.193 12.345 122.838 11.9185 121.283 11.9185C119.778 11.9185 118.436 12.345 117.257 13.1979C116.078 14.0257 115.162 15.2548 114.51 16.8853C113.858 18.4908 113.532 20.4725 113.532 22.8304C113.532 25.1884 113.858 27.1827 114.51 28.8132C115.162 30.4186 116.078 31.6478 117.257 32.5007C118.436 33.3285 119.778 33.7424 121.283 33.7424Z" fill="black"/>
<path d="M680.467 334V332.081L691.417 321.357C692.42 320.379 693.173 319.526 693.675 318.799C694.176 318.046 694.515 317.344 694.691 316.691C694.866 316.039 694.954 315.425 694.954 314.848C694.954 313.318 694.427 312.113 693.374 311.235C692.345 310.358 690.815 309.919 688.783 309.919C687.228 309.919 685.848 310.157 684.644 310.633C683.465 311.11 682.449 311.85 681.596 312.853L679.677 311.198C680.706 309.994 682.023 309.066 683.628 308.413C685.234 307.761 687.027 307.435 689.009 307.435C690.79 307.435 692.333 307.724 693.637 308.301C694.941 308.852 695.945 309.668 696.647 310.746C697.375 311.825 697.738 313.092 697.738 314.547C697.738 315.4 697.613 316.24 697.362 317.068C697.136 317.896 696.71 318.773 696.083 319.702C695.481 320.605 694.59 321.633 693.411 322.787L683.365 332.645L682.612 331.592H698.942V334H680.467ZM714.195 314.058C715.8 314.058 717.205 314.371 718.409 314.998C719.638 315.6 720.592 316.528 721.269 317.783C721.971 319.037 722.323 320.617 722.323 322.524V334H719.651V322.787C719.651 320.705 719.124 319.137 718.071 318.084C717.042 317.005 715.587 316.466 713.706 316.466C712.301 316.466 711.072 316.754 710.018 317.331C708.99 317.883 708.187 318.698 707.61 319.777C707.058 320.83 706.782 322.11 706.782 323.615V334H704.111V314.246H706.67V319.664L706.256 318.648C706.883 317.218 707.886 316.102 709.266 315.299C710.646 314.471 712.289 314.058 714.195 314.058ZM737.403 334.188C735.522 334.188 733.828 333.762 732.323 332.909C730.843 332.056 729.677 330.877 728.824 329.372C727.971 327.842 727.545 326.086 727.545 324.104C727.545 322.097 727.971 320.341 728.824 318.836C729.677 317.331 730.843 316.165 732.323 315.337C733.828 314.484 735.522 314.058 737.403 314.058C739.134 314.058 740.676 314.446 742.031 315.224C743.411 316.002 744.502 317.143 745.305 318.648C746.132 320.128 746.546 321.947 746.546 324.104C746.546 326.236 746.145 328.055 745.342 329.56C744.54 331.065 743.448 332.219 742.069 333.022C740.714 333.799 739.159 334.188 737.403 334.188ZM737.591 331.818C738.996 331.818 740.25 331.504 741.354 330.877C742.483 330.225 743.361 329.322 743.988 328.168C744.64 326.989 744.966 325.634 744.966 324.104C744.966 322.549 744.64 321.194 743.988 320.04C743.361 318.886 742.483 317.996 741.354 317.369C740.25 316.717 738.996 316.39 737.591 316.39C736.211 316.39 734.97 316.717 733.866 317.369C732.762 317.996 731.884 318.886 731.232 320.04C730.58 321.194 730.254 322.549 730.254 324.104C730.254 325.634 730.58 326.989 731.232 328.168C731.884 329.322 732.762 330.225 733.866 330.877C734.97 331.504 736.211 331.818 737.591 331.818ZM745.041 334V328.055L745.305 324.066L744.928 320.078V306.081H747.6V334H745.041ZM777.004 334.226C774.997 334.226 773.141 333.9 771.435 333.247C769.754 332.57 768.287 331.629 767.033 330.425C765.803 329.221 764.838 327.804 764.135 326.174C763.458 324.543 763.119 322.762 763.119 320.83C763.119 318.899 763.458 317.118 764.135 315.487C764.838 313.857 765.816 312.44 767.07 311.235C768.324 310.031 769.792 309.103 771.473 308.451C773.178 307.774 775.035 307.435 777.041 307.435C779.048 307.435 780.879 307.749 782.535 308.376C784.216 309.003 785.646 309.956 786.825 311.235L785.094 313.004C783.99 311.9 782.773 311.11 781.444 310.633C780.114 310.157 778.685 309.919 777.154 309.919C775.524 309.919 774.019 310.194 772.639 310.746C771.284 311.273 770.093 312.038 769.064 313.042C768.061 314.02 767.271 315.174 766.694 316.503C766.142 317.808 765.866 319.25 765.866 320.83C765.866 322.386 766.142 323.828 766.694 325.158C767.271 326.487 768.061 327.654 769.064 328.657C770.093 329.635 771.284 330.4 772.639 330.952C774.019 331.479 775.511 331.742 777.117 331.742C778.622 331.742 780.039 331.517 781.369 331.065C782.723 330.614 783.965 329.848 785.094 328.77L786.674 330.877C785.42 331.981 783.952 332.821 782.272 333.398C780.591 333.95 778.835 334.226 777.004 334.226ZM784.003 330.538V320.83H786.674V330.877L784.003 330.538ZM802.155 334.188C800.475 334.188 799.007 333.875 797.753 333.247C796.499 332.62 795.52 331.68 794.818 330.425C794.141 329.171 793.802 327.603 793.802 325.722V314.246H796.474V325.421C796.474 327.528 796.988 329.121 798.016 330.2C799.07 331.253 800.537 331.78 802.419 331.78C803.798 331.78 804.99 331.504 805.993 330.952C807.022 330.375 807.799 329.547 808.326 328.469C808.878 327.39 809.154 326.098 809.154 324.593V314.246H811.826V334H809.267V328.582L809.681 329.56C809.054 331.015 808.075 332.156 806.746 332.984C805.441 333.787 803.911 334.188 802.155 334.188ZM827.662 334.188C825.605 334.188 823.799 333.762 822.244 332.909C820.688 332.031 819.472 330.839 818.594 329.334C817.716 327.804 817.277 326.061 817.277 324.104C817.277 322.147 817.691 320.417 818.519 318.911C819.371 317.406 820.525 316.227 821.98 315.374C823.46 314.497 825.116 314.058 826.947 314.058C828.803 314.058 830.446 314.484 831.876 315.337C833.331 316.165 834.472 317.344 835.3 318.874C836.128 320.379 836.542 322.122 836.542 324.104C836.542 324.229 836.529 324.367 836.504 324.518C836.504 324.643 836.504 324.781 836.504 324.932H819.309V322.938H835.075L834.021 323.728C834.021 322.298 833.707 321.031 833.08 319.927C832.478 318.799 831.65 317.921 830.597 317.293C829.543 316.666 828.327 316.353 826.947 316.353C825.592 316.353 824.376 316.666 823.297 317.293C822.219 317.921 821.378 318.799 820.776 319.927C820.174 321.056 819.873 322.348 819.873 323.803V324.217C819.873 325.722 820.199 327.051 820.851 328.205C821.529 329.334 822.457 330.225 823.636 330.877C824.84 331.504 826.207 331.818 827.737 331.818C828.941 331.818 830.058 331.604 831.086 331.178C832.14 330.752 833.043 330.099 833.795 329.221L835.3 330.952C834.422 332.006 833.319 332.808 831.989 333.36C830.685 333.912 829.242 334.188 827.662 334.188ZM847.285 334.188C845.655 334.188 844.112 333.962 842.657 333.511C841.202 333.034 840.061 332.445 839.233 331.742L840.437 329.635C841.24 330.237 842.268 330.764 843.522 331.216C844.777 331.642 846.094 331.855 847.473 331.855C849.355 331.855 850.709 331.567 851.537 330.99C852.365 330.388 852.779 329.598 852.779 328.619C852.779 327.892 852.54 327.327 852.064 326.926C851.612 326.5 851.01 326.186 850.258 325.985C849.505 325.76 848.665 325.571 847.737 325.421C846.809 325.27 845.88 325.095 844.952 324.894C844.049 324.694 843.221 324.405 842.469 324.029C841.716 323.627 841.102 323.088 840.625 322.411C840.174 321.733 839.948 320.83 839.948 319.702C839.948 318.623 840.249 317.657 840.851 316.804C841.453 315.951 842.331 315.287 843.485 314.81C844.664 314.308 846.094 314.058 847.774 314.058C849.054 314.058 850.333 314.233 851.612 314.584C852.892 314.91 853.945 315.349 854.773 315.901L853.607 318.046C852.729 317.444 851.788 317.018 850.785 316.767C849.781 316.491 848.778 316.353 847.774 316.353C845.993 316.353 844.676 316.666 843.823 317.293C842.996 317.896 842.582 318.673 842.582 319.626C842.582 320.379 842.808 320.968 843.259 321.395C843.736 321.821 844.35 322.16 845.103 322.411C845.88 322.637 846.721 322.825 847.624 322.975C848.552 323.126 849.468 323.314 850.371 323.54C851.299 323.74 852.139 324.029 852.892 324.405C853.669 324.756 854.284 325.27 854.735 325.948C855.212 326.6 855.45 327.465 855.45 328.544C855.45 329.698 855.124 330.701 854.472 331.554C853.845 332.382 852.917 333.034 851.688 333.511C850.483 333.962 849.016 334.188 847.285 334.188ZM865.658 334.188C864.027 334.188 862.485 333.962 861.03 333.511C859.575 333.034 858.433 332.445 857.606 331.742L858.81 329.635C859.612 330.237 860.641 330.764 861.895 331.216C863.149 331.642 864.466 331.855 865.846 331.855C867.727 331.855 869.082 331.567 869.91 330.99C870.738 330.388 871.151 329.598 871.151 328.619C871.151 327.892 870.913 327.327 870.437 326.926C869.985 326.5 869.383 326.186 868.63 325.985C867.878 325.76 867.038 325.571 866.109 325.421C865.181 325.27 864.253 325.095 863.325 324.894C862.422 324.694 861.594 324.405 860.842 324.029C860.089 323.627 859.474 323.088 858.998 322.411C858.546 321.733 858.321 320.83 858.321 319.702C858.321 318.623 858.622 317.657 859.224 316.804C859.826 315.951 860.704 315.287 861.858 314.81C863.037 314.308 864.466 314.058 866.147 314.058C867.426 314.058 868.706 314.233 869.985 314.584C871.264 314.91 872.318 315.349 873.146 315.901L871.979 318.046C871.101 317.444 870.161 317.018 869.157 316.767C868.154 316.491 867.15 316.353 866.147 316.353C864.366 316.353 863.049 316.666 862.196 317.293C861.368 317.896 860.954 318.673 860.954 319.626C860.954 320.379 861.18 320.968 861.632 321.395C862.108 321.821 862.723 322.16 863.476 322.411C864.253 322.637 865.093 322.825 865.997 322.975C866.925 323.126 867.84 323.314 868.743 323.54C869.671 323.74 870.512 324.029 871.264 324.405C872.042 324.756 872.657 325.27 873.108 325.948C873.585 326.6 873.823 327.465 873.823 328.544C873.823 329.698 873.497 330.701 872.845 331.554C872.218 332.382 871.289 333.034 870.06 333.511C868.856 333.962 867.389 334.188 865.658 334.188Z" fill="#153314"/>
</svg>
